G04 #@! TF.FileFunction,Legend,Top*
%FSLAX46Y46*%
G04 Gerber Fmt 4.6, Leading zero omitted, Abs format (unit mm)*
G04 Created by KiCad (PCBNEW 4.1.0-alpha+201607021448+6961~45~ubuntu14.04.1-product) date Mon Jul  4 13:55:25 2016*
%MOMM*%
%LPD*%
G01*
G04 APERTURE LIST*
%ADD10C,0.100000*%
%ADD11C,0.150000*%
%ADD12C,0.250000*%
%ADD13C,0.010000*%
%ADD14C,0.050000*%
%ADD15C,0.080000*%
G04 APERTURE END LIST*
D10*
D11*
X148350000Y-71600000D02*
X147650000Y-71600000D01*
X147650000Y-70400000D02*
X148350000Y-70400000D01*
X142700000Y-67650000D02*
X142700000Y-68350000D01*
X141500000Y-68350000D02*
X141500000Y-67650000D01*
X126000000Y-69300000D02*
X126000000Y-68600000D01*
X127200000Y-68600000D02*
X127200000Y-69300000D01*
X127650000Y-77800000D02*
X128350000Y-77800000D01*
X128350000Y-79000000D02*
X127650000Y-79000000D01*
X140050000Y-77600000D02*
X140750000Y-77600000D01*
X140750000Y-78800000D02*
X140050000Y-78800000D01*
X126700000Y-85900000D02*
X127400000Y-85900000D01*
X127400000Y-87100000D02*
X126700000Y-87100000D01*
X121650000Y-87800000D02*
X122350000Y-87800000D01*
X122350000Y-89000000D02*
X121650000Y-89000000D01*
X127650000Y-79300000D02*
X128350000Y-79300000D01*
X128350000Y-80500000D02*
X127650000Y-80500000D01*
X136150000Y-81250000D02*
X135450000Y-81250000D01*
X135450000Y-80050000D02*
X136150000Y-80050000D01*
X146500000Y-86225000D02*
X148500000Y-86225000D01*
X148500000Y-84175000D02*
X146500000Y-84175000D01*
X146450000Y-81450000D02*
X146450000Y-82150000D01*
X145250000Y-82150000D02*
X145250000Y-81450000D01*
X140550000Y-81400000D02*
X140550000Y-82100000D01*
X139350000Y-82100000D02*
X139350000Y-81400000D01*
X125350000Y-87800000D02*
X126050000Y-87800000D01*
X126050000Y-89000000D02*
X125350000Y-89000000D01*
X140600000Y-62450000D02*
X140600000Y-63150000D01*
X139400000Y-63150000D02*
X139400000Y-62450000D01*
X131000000Y-63150000D02*
X131000000Y-62450000D01*
X132200000Y-62450000D02*
X132200000Y-63150000D01*
X153400000Y-83900000D02*
X153400000Y-84300000D01*
X153400000Y-84300000D02*
X151000000Y-84300000D01*
X151000000Y-84300000D02*
X151000000Y-83900000D01*
X151000000Y-83100000D02*
X151000000Y-82700000D01*
X151000000Y-82700000D02*
X153400000Y-82700000D01*
X153400000Y-82700000D02*
X153400000Y-83100000D01*
X146200000Y-87400000D02*
X146200000Y-87000000D01*
X146200000Y-87000000D02*
X148600000Y-87000000D01*
X148600000Y-87000000D02*
X148600000Y-87400000D01*
X148600000Y-88200000D02*
X148600000Y-88600000D01*
X148600000Y-88600000D02*
X146200000Y-88600000D01*
X146200000Y-88600000D02*
X146200000Y-88200000D01*
X153200000Y-82175000D02*
X151200000Y-82175000D01*
X151200000Y-80025000D02*
X153200000Y-80025000D01*
X144100000Y-88875000D02*
X142100000Y-88875000D01*
X142100000Y-86725000D02*
X144100000Y-86725000D01*
D12*
X134810000Y-84310000D02*
X131810000Y-84310000D01*
X134810000Y-89320000D02*
X131810000Y-89320000D01*
X131860000Y-84910000D02*
X131850000Y-84910000D01*
D11*
X141850000Y-83375000D02*
X143950000Y-83375000D01*
X141075000Y-80125000D02*
X143950000Y-80125000D01*
X138000000Y-67700000D02*
X138000000Y-67710000D01*
X122194736Y-65325000D02*
X121194736Y-65325000D01*
X121194736Y-63975000D02*
X122194736Y-63975000D01*
X122200000Y-66925000D02*
X121200000Y-66925000D01*
X121200000Y-65575000D02*
X122200000Y-65575000D01*
X122200000Y-63725000D02*
X121200000Y-63725000D01*
X121200000Y-62375000D02*
X122200000Y-62375000D01*
X122200000Y-62125000D02*
X121200000Y-62125000D01*
X121200000Y-60775000D02*
X122200000Y-60775000D01*
X118950000Y-80275000D02*
X117950000Y-80275000D01*
X117950000Y-78925000D02*
X118950000Y-78925000D01*
X118950000Y-78675000D02*
X117950000Y-78675000D01*
X117950000Y-77325000D02*
X118950000Y-77325000D01*
X118950000Y-75475000D02*
X117950000Y-75475000D01*
X117950000Y-74125000D02*
X118950000Y-74125000D01*
X127325000Y-63350000D02*
X127325000Y-62350000D01*
X128675000Y-62350000D02*
X128675000Y-63350000D01*
X137625000Y-87400000D02*
X137625000Y-86400000D01*
X138975000Y-86400000D02*
X138975000Y-87400000D01*
X118950000Y-77075000D02*
X117950000Y-77075000D01*
X117950000Y-75725000D02*
X118950000Y-75725000D01*
X120050000Y-75350000D02*
X121950000Y-75350000D01*
X120050000Y-74250000D02*
X121950000Y-74250000D01*
X120950000Y-74800000D02*
X121400000Y-74800000D01*
X120900000Y-74550000D02*
X120900000Y-75050000D01*
X120900000Y-74800000D02*
X121150000Y-74550000D01*
X121150000Y-74550000D02*
X121150000Y-75050000D01*
X121150000Y-75050000D02*
X120900000Y-74800000D01*
X120050000Y-76950000D02*
X121950000Y-76950000D01*
X120050000Y-75850000D02*
X121950000Y-75850000D01*
X120950000Y-76400000D02*
X121400000Y-76400000D01*
X120900000Y-76150000D02*
X120900000Y-76650000D01*
X120900000Y-76400000D02*
X121150000Y-76150000D01*
X121150000Y-76150000D02*
X121150000Y-76650000D01*
X121150000Y-76650000D02*
X120900000Y-76400000D01*
X120050000Y-78550000D02*
X121950000Y-78550000D01*
X120050000Y-77450000D02*
X121950000Y-77450000D01*
X120950000Y-78000000D02*
X121400000Y-78000000D01*
X120900000Y-77750000D02*
X120900000Y-78250000D01*
X120900000Y-78000000D02*
X121150000Y-77750000D01*
X121150000Y-77750000D02*
X121150000Y-78250000D01*
X121150000Y-78250000D02*
X120900000Y-78000000D01*
X120050000Y-80150000D02*
X121950000Y-80150000D01*
X120050000Y-79050000D02*
X121950000Y-79050000D01*
X120950000Y-79600000D02*
X121400000Y-79600000D01*
X120900000Y-79350000D02*
X120900000Y-79850000D01*
X120900000Y-79600000D02*
X121150000Y-79350000D01*
X121150000Y-79350000D02*
X121150000Y-79850000D01*
X121150000Y-79850000D02*
X120900000Y-79600000D01*
X123300000Y-62000000D02*
X125200000Y-62000000D01*
X123300000Y-60900000D02*
X125200000Y-60900000D01*
X124200000Y-61450000D02*
X124650000Y-61450000D01*
X124150000Y-61200000D02*
X124150000Y-61700000D01*
X124150000Y-61450000D02*
X124400000Y-61200000D01*
X124400000Y-61200000D02*
X124400000Y-61700000D01*
X124400000Y-61700000D02*
X124150000Y-61450000D01*
X123300000Y-63600000D02*
X125200000Y-63600000D01*
X123300000Y-62500000D02*
X125200000Y-62500000D01*
X124200000Y-63050000D02*
X124650000Y-63050000D01*
X124150000Y-62800000D02*
X124150000Y-63300000D01*
X124150000Y-63050000D02*
X124400000Y-62800000D01*
X124400000Y-62800000D02*
X124400000Y-63300000D01*
X124400000Y-63300000D02*
X124150000Y-63050000D01*
X123300000Y-65200000D02*
X125200000Y-65200000D01*
X123300000Y-64100000D02*
X125200000Y-64100000D01*
X124200000Y-64650000D02*
X124650000Y-64650000D01*
X124150000Y-64400000D02*
X124150000Y-64900000D01*
X124150000Y-64650000D02*
X124400000Y-64400000D01*
X124400000Y-64400000D02*
X124400000Y-64900000D01*
X124400000Y-64900000D02*
X124150000Y-64650000D01*
X123300000Y-66800000D02*
X125200000Y-66800000D01*
X123300000Y-65700000D02*
X125200000Y-65700000D01*
X124200000Y-66250000D02*
X124650000Y-66250000D01*
X124150000Y-66000000D02*
X124150000Y-66500000D01*
X124150000Y-66250000D02*
X124400000Y-66000000D01*
X124400000Y-66000000D02*
X124400000Y-66500000D01*
X124400000Y-66500000D02*
X124150000Y-66250000D01*
D13*
G36*
X152511616Y-67151435D02*
X152521924Y-67157207D01*
X152538186Y-67166436D01*
X152559713Y-67178728D01*
X152585820Y-67193690D01*
X152615820Y-67210928D01*
X152649025Y-67230050D01*
X152684749Y-67250663D01*
X152696933Y-67257702D01*
X152739896Y-67282524D01*
X152785951Y-67309125D01*
X152833518Y-67336593D01*
X152881020Y-67364017D01*
X152926878Y-67390486D01*
X152969513Y-67415088D01*
X153007347Y-67436911D01*
X153027133Y-67448320D01*
X153058637Y-67466492D01*
X153087772Y-67483314D01*
X153113739Y-67498325D01*
X153135738Y-67511061D01*
X153152972Y-67521061D01*
X153164640Y-67527861D01*
X153169944Y-67530999D01*
X153170176Y-67531151D01*
X153169566Y-67535387D01*
X153166966Y-67546030D01*
X153162816Y-67561376D01*
X153158597Y-67576154D01*
X153149051Y-67611333D01*
X153141825Y-67644214D01*
X153136581Y-67677166D01*
X153132980Y-67712556D01*
X153130682Y-67752753D01*
X153129877Y-67776812D01*
X153129688Y-67836599D01*
X153132800Y-67890963D01*
X153139552Y-67942415D01*
X153150281Y-67993464D01*
X153165327Y-68046620D01*
X153166997Y-68051883D01*
X153195564Y-68127611D01*
X153231399Y-68199748D01*
X153273990Y-68267820D01*
X153322821Y-68331352D01*
X153377380Y-68389871D01*
X153437153Y-68442902D01*
X153501625Y-68489970D01*
X153570285Y-68530603D01*
X153642617Y-68564326D01*
X153718109Y-68590664D01*
X153763414Y-68602432D01*
X153793367Y-68609245D01*
X153793367Y-69374800D01*
X153502325Y-69374463D01*
X153442475Y-69374361D01*
X153390518Y-69374197D01*
X153345878Y-69373959D01*
X153307983Y-69373636D01*
X153276257Y-69373216D01*
X153250128Y-69372689D01*
X153229020Y-69372044D01*
X153212359Y-69371269D01*
X153199572Y-69370352D01*
X153190083Y-69369283D01*
X153184245Y-69368261D01*
X153128297Y-69352157D01*
X153077227Y-69329235D01*
X153031219Y-69299616D01*
X152990454Y-69263420D01*
X152955116Y-69220767D01*
X152949989Y-69213368D01*
X152945336Y-69205936D01*
X152936777Y-69191680D01*
X152924589Y-69171076D01*
X152909044Y-69144600D01*
X152890417Y-69112728D01*
X152868982Y-69075937D01*
X152845014Y-69034701D01*
X152818785Y-68989498D01*
X152790571Y-68940804D01*
X152760645Y-68889093D01*
X152729282Y-68834843D01*
X152696756Y-68778529D01*
X152663341Y-68720628D01*
X152629311Y-68661615D01*
X152594940Y-68601967D01*
X152560502Y-68542159D01*
X152526272Y-68482668D01*
X152492523Y-68423969D01*
X152459531Y-68366539D01*
X152427568Y-68310854D01*
X152396908Y-68257389D01*
X152367827Y-68206621D01*
X152340599Y-68159026D01*
X152315496Y-68115080D01*
X152292794Y-68075258D01*
X152272767Y-68040038D01*
X152255689Y-68009894D01*
X152241833Y-67985304D01*
X152231474Y-67966742D01*
X152224887Y-67954686D01*
X152222625Y-67950283D01*
X152209463Y-67919120D01*
X152200319Y-67889980D01*
X152194650Y-67860170D01*
X152191913Y-67826998D01*
X152191474Y-67795766D01*
X152191901Y-67770257D01*
X152192961Y-67750644D01*
X152194969Y-67734364D01*
X152198245Y-67718852D01*
X152203104Y-67701543D01*
X152203154Y-67701377D01*
X152210014Y-67680733D01*
X152218070Y-67659515D01*
X152225808Y-67641658D01*
X152227357Y-67638493D01*
X152230816Y-67632130D01*
X152237951Y-67619398D01*
X152248335Y-67601041D01*
X152261539Y-67577805D01*
X152277137Y-67550433D01*
X152294701Y-67519673D01*
X152313802Y-67486268D01*
X152334015Y-67450964D01*
X152354910Y-67414507D01*
X152376061Y-67377640D01*
X152397039Y-67341110D01*
X152417418Y-67305662D01*
X152436769Y-67272040D01*
X152454665Y-67240990D01*
X152470679Y-67213257D01*
X152484383Y-67189586D01*
X152495349Y-67170722D01*
X152503149Y-67157411D01*
X152507357Y-67150398D01*
X152507948Y-67149512D01*
X152511616Y-67151435D01*
X152511616Y-67151435D01*
G37*
X152511616Y-67151435D02*
X152521924Y-67157207D01*
X152538186Y-67166436D01*
X152559713Y-67178728D01*
X152585820Y-67193690D01*
X152615820Y-67210928D01*
X152649025Y-67230050D01*
X152684749Y-67250663D01*
X152696933Y-67257702D01*
X152739896Y-67282524D01*
X152785951Y-67309125D01*
X152833518Y-67336593D01*
X152881020Y-67364017D01*
X152926878Y-67390486D01*
X152969513Y-67415088D01*
X153007347Y-67436911D01*
X153027133Y-67448320D01*
X153058637Y-67466492D01*
X153087772Y-67483314D01*
X153113739Y-67498325D01*
X153135738Y-67511061D01*
X153152972Y-67521061D01*
X153164640Y-67527861D01*
X153169944Y-67530999D01*
X153170176Y-67531151D01*
X153169566Y-67535387D01*
X153166966Y-67546030D01*
X153162816Y-67561376D01*
X153158597Y-67576154D01*
X153149051Y-67611333D01*
X153141825Y-67644214D01*
X153136581Y-67677166D01*
X153132980Y-67712556D01*
X153130682Y-67752753D01*
X153129877Y-67776812D01*
X153129688Y-67836599D01*
X153132800Y-67890963D01*
X153139552Y-67942415D01*
X153150281Y-67993464D01*
X153165327Y-68046620D01*
X153166997Y-68051883D01*
X153195564Y-68127611D01*
X153231399Y-68199748D01*
X153273990Y-68267820D01*
X153322821Y-68331352D01*
X153377380Y-68389871D01*
X153437153Y-68442902D01*
X153501625Y-68489970D01*
X153570285Y-68530603D01*
X153642617Y-68564326D01*
X153718109Y-68590664D01*
X153763414Y-68602432D01*
X153793367Y-68609245D01*
X153793367Y-69374800D01*
X153502325Y-69374463D01*
X153442475Y-69374361D01*
X153390518Y-69374197D01*
X153345878Y-69373959D01*
X153307983Y-69373636D01*
X153276257Y-69373216D01*
X153250128Y-69372689D01*
X153229020Y-69372044D01*
X153212359Y-69371269D01*
X153199572Y-69370352D01*
X153190083Y-69369283D01*
X153184245Y-69368261D01*
X153128297Y-69352157D01*
X153077227Y-69329235D01*
X153031219Y-69299616D01*
X152990454Y-69263420D01*
X152955116Y-69220767D01*
X152949989Y-69213368D01*
X152945336Y-69205936D01*
X152936777Y-69191680D01*
X152924589Y-69171076D01*
X152909044Y-69144600D01*
X152890417Y-69112728D01*
X152868982Y-69075937D01*
X152845014Y-69034701D01*
X152818785Y-68989498D01*
X152790571Y-68940804D01*
X152760645Y-68889093D01*
X152729282Y-68834843D01*
X152696756Y-68778529D01*
X152663341Y-68720628D01*
X152629311Y-68661615D01*
X152594940Y-68601967D01*
X152560502Y-68542159D01*
X152526272Y-68482668D01*
X152492523Y-68423969D01*
X152459531Y-68366539D01*
X152427568Y-68310854D01*
X152396908Y-68257389D01*
X152367827Y-68206621D01*
X152340599Y-68159026D01*
X152315496Y-68115080D01*
X152292794Y-68075258D01*
X152272767Y-68040038D01*
X152255689Y-68009894D01*
X152241833Y-67985304D01*
X152231474Y-67966742D01*
X152224887Y-67954686D01*
X152222625Y-67950283D01*
X152209463Y-67919120D01*
X152200319Y-67889980D01*
X152194650Y-67860170D01*
X152191913Y-67826998D01*
X152191474Y-67795766D01*
X152191901Y-67770257D01*
X152192961Y-67750644D01*
X152194969Y-67734364D01*
X152198245Y-67718852D01*
X152203104Y-67701543D01*
X152203154Y-67701377D01*
X152210014Y-67680733D01*
X152218070Y-67659515D01*
X152225808Y-67641658D01*
X152227357Y-67638493D01*
X152230816Y-67632130D01*
X152237951Y-67619398D01*
X152248335Y-67601041D01*
X152261539Y-67577805D01*
X152277137Y-67550433D01*
X152294701Y-67519673D01*
X152313802Y-67486268D01*
X152334015Y-67450964D01*
X152354910Y-67414507D01*
X152376061Y-67377640D01*
X152397039Y-67341110D01*
X152417418Y-67305662D01*
X152436769Y-67272040D01*
X152454665Y-67240990D01*
X152470679Y-67213257D01*
X152484383Y-67189586D01*
X152495349Y-67170722D01*
X152503149Y-67157411D01*
X152507357Y-67150398D01*
X152507948Y-67149512D01*
X152511616Y-67151435D01*
G36*
X155394873Y-67155916D02*
X155401466Y-67166144D01*
X155411384Y-67182298D01*
X155424208Y-67203654D01*
X155439523Y-67229488D01*
X155456912Y-67259075D01*
X155475957Y-67291691D01*
X155496242Y-67326611D01*
X155517351Y-67363110D01*
X155538865Y-67400465D01*
X155560370Y-67437951D01*
X155581447Y-67474843D01*
X155601680Y-67510417D01*
X155620652Y-67543949D01*
X155637947Y-67574713D01*
X155653147Y-67601986D01*
X155665836Y-67625042D01*
X155675597Y-67643158D01*
X155682013Y-67655610D01*
X155683979Y-67659815D01*
X155700003Y-67707429D01*
X155709074Y-67758141D01*
X155711193Y-67810231D01*
X155706359Y-67861976D01*
X155694572Y-67911657D01*
X155684023Y-67940083D01*
X155680476Y-67947091D01*
X155672951Y-67960949D01*
X155661720Y-67981186D01*
X155647056Y-68007330D01*
X155629229Y-68038908D01*
X155608513Y-68075448D01*
X155585179Y-68116478D01*
X155559498Y-68161526D01*
X155531744Y-68210119D01*
X155502187Y-68261786D01*
X155471099Y-68316054D01*
X155438753Y-68372451D01*
X155405420Y-68430505D01*
X155371373Y-68489744D01*
X155336882Y-68549695D01*
X155302221Y-68609886D01*
X155267660Y-68669846D01*
X155233473Y-68729101D01*
X155199930Y-68787180D01*
X155167304Y-68843611D01*
X155135866Y-68897922D01*
X155105889Y-68949639D01*
X155077644Y-68998292D01*
X155051403Y-69043407D01*
X155027438Y-69084513D01*
X155006022Y-69121138D01*
X154987425Y-69152809D01*
X154971920Y-69179054D01*
X154959779Y-69199401D01*
X154951273Y-69213378D01*
X154946825Y-69220301D01*
X154920740Y-69252214D01*
X154888865Y-69282909D01*
X154853445Y-69310592D01*
X154816724Y-69333471D01*
X154788200Y-69346998D01*
X154776496Y-69351737D01*
X154766243Y-69355847D01*
X154756775Y-69359375D01*
X154747423Y-69362369D01*
X154737520Y-69364875D01*
X154726398Y-69366941D01*
X154713391Y-69368615D01*
X154697829Y-69369943D01*
X154679047Y-69370973D01*
X154656375Y-69371753D01*
X154629148Y-69372329D01*
X154596696Y-69372749D01*
X154558353Y-69373059D01*
X154513451Y-69373309D01*
X154461323Y-69373544D01*
X154410375Y-69373770D01*
X154106633Y-69375166D01*
X154106633Y-68609757D01*
X154150917Y-68598710D01*
X154229815Y-68574745D01*
X154305228Y-68543276D01*
X154376708Y-68504704D01*
X154443805Y-68459428D01*
X154506072Y-68407850D01*
X154563057Y-68350367D01*
X154614314Y-68287382D01*
X154659392Y-68219294D01*
X154697844Y-68146503D01*
X154721715Y-68089983D01*
X154741820Y-68030917D01*
X154756561Y-67972934D01*
X154766343Y-67913738D01*
X154771569Y-67851030D01*
X154772744Y-67800000D01*
X154772278Y-67757770D01*
X154770572Y-67721356D01*
X154767300Y-67688158D01*
X154762134Y-67655572D01*
X154754747Y-67620999D01*
X154745753Y-67585370D01*
X154740774Y-67566283D01*
X154736726Y-67550131D01*
X154734046Y-67538708D01*
X154733167Y-67533916D01*
X154736567Y-67529840D01*
X154745395Y-67523350D01*
X154755392Y-67517226D01*
X154767419Y-67510343D01*
X154784647Y-67500432D01*
X154804957Y-67488716D01*
X154826227Y-67476416D01*
X154830534Y-67473922D01*
X154853294Y-67460747D01*
X154881899Y-67444207D01*
X154915342Y-67424883D01*
X154952615Y-67403355D01*
X154992711Y-67380206D01*
X155034624Y-67356014D01*
X155077345Y-67331363D01*
X155119869Y-67306832D01*
X155161188Y-67283003D01*
X155200294Y-67260457D01*
X155236182Y-67239775D01*
X155267843Y-67221538D01*
X155294271Y-67206326D01*
X155314459Y-67194722D01*
X155315820Y-67193940D01*
X155338261Y-67181162D01*
X155358253Y-67169975D01*
X155374621Y-67161021D01*
X155386188Y-67154942D01*
X155391778Y-67152381D01*
X155392020Y-67152340D01*
X155394873Y-67155916D01*
X155394873Y-67155916D01*
G37*
X155394873Y-67155916D02*
X155401466Y-67166144D01*
X155411384Y-67182298D01*
X155424208Y-67203654D01*
X155439523Y-67229488D01*
X155456912Y-67259075D01*
X155475957Y-67291691D01*
X155496242Y-67326611D01*
X155517351Y-67363110D01*
X155538865Y-67400465D01*
X155560370Y-67437951D01*
X155581447Y-67474843D01*
X155601680Y-67510417D01*
X155620652Y-67543949D01*
X155637947Y-67574713D01*
X155653147Y-67601986D01*
X155665836Y-67625042D01*
X155675597Y-67643158D01*
X155682013Y-67655610D01*
X155683979Y-67659815D01*
X155700003Y-67707429D01*
X155709074Y-67758141D01*
X155711193Y-67810231D01*
X155706359Y-67861976D01*
X155694572Y-67911657D01*
X155684023Y-67940083D01*
X155680476Y-67947091D01*
X155672951Y-67960949D01*
X155661720Y-67981186D01*
X155647056Y-68007330D01*
X155629229Y-68038908D01*
X155608513Y-68075448D01*
X155585179Y-68116478D01*
X155559498Y-68161526D01*
X155531744Y-68210119D01*
X155502187Y-68261786D01*
X155471099Y-68316054D01*
X155438753Y-68372451D01*
X155405420Y-68430505D01*
X155371373Y-68489744D01*
X155336882Y-68549695D01*
X155302221Y-68609886D01*
X155267660Y-68669846D01*
X155233473Y-68729101D01*
X155199930Y-68787180D01*
X155167304Y-68843611D01*
X155135866Y-68897922D01*
X155105889Y-68949639D01*
X155077644Y-68998292D01*
X155051403Y-69043407D01*
X155027438Y-69084513D01*
X155006022Y-69121138D01*
X154987425Y-69152809D01*
X154971920Y-69179054D01*
X154959779Y-69199401D01*
X154951273Y-69213378D01*
X154946825Y-69220301D01*
X154920740Y-69252214D01*
X154888865Y-69282909D01*
X154853445Y-69310592D01*
X154816724Y-69333471D01*
X154788200Y-69346998D01*
X154776496Y-69351737D01*
X154766243Y-69355847D01*
X154756775Y-69359375D01*
X154747423Y-69362369D01*
X154737520Y-69364875D01*
X154726398Y-69366941D01*
X154713391Y-69368615D01*
X154697829Y-69369943D01*
X154679047Y-69370973D01*
X154656375Y-69371753D01*
X154629148Y-69372329D01*
X154596696Y-69372749D01*
X154558353Y-69373059D01*
X154513451Y-69373309D01*
X154461323Y-69373544D01*
X154410375Y-69373770D01*
X154106633Y-69375166D01*
X154106633Y-68609757D01*
X154150917Y-68598710D01*
X154229815Y-68574745D01*
X154305228Y-68543276D01*
X154376708Y-68504704D01*
X154443805Y-68459428D01*
X154506072Y-68407850D01*
X154563057Y-68350367D01*
X154614314Y-68287382D01*
X154659392Y-68219294D01*
X154697844Y-68146503D01*
X154721715Y-68089983D01*
X154741820Y-68030917D01*
X154756561Y-67972934D01*
X154766343Y-67913738D01*
X154771569Y-67851030D01*
X154772744Y-67800000D01*
X154772278Y-67757770D01*
X154770572Y-67721356D01*
X154767300Y-67688158D01*
X154762134Y-67655572D01*
X154754747Y-67620999D01*
X154745753Y-67585370D01*
X154740774Y-67566283D01*
X154736726Y-67550131D01*
X154734046Y-67538708D01*
X154733167Y-67533916D01*
X154736567Y-67529840D01*
X154745395Y-67523350D01*
X154755392Y-67517226D01*
X154767419Y-67510343D01*
X154784647Y-67500432D01*
X154804957Y-67488716D01*
X154826227Y-67476416D01*
X154830534Y-67473922D01*
X154853294Y-67460747D01*
X154881899Y-67444207D01*
X154915342Y-67424883D01*
X154952615Y-67403355D01*
X154992711Y-67380206D01*
X155034624Y-67356014D01*
X155077345Y-67331363D01*
X155119869Y-67306832D01*
X155161188Y-67283003D01*
X155200294Y-67260457D01*
X155236182Y-67239775D01*
X155267843Y-67221538D01*
X155294271Y-67206326D01*
X155314459Y-67194722D01*
X155315820Y-67193940D01*
X155338261Y-67181162D01*
X155358253Y-67169975D01*
X155374621Y-67161021D01*
X155386188Y-67154942D01*
X155391778Y-67152381D01*
X155392020Y-67152340D01*
X155394873Y-67155916D01*
G36*
X154015156Y-67255164D02*
X154055125Y-67260968D01*
X154058939Y-67261753D01*
X154125259Y-67279995D01*
X154187774Y-67305490D01*
X154246007Y-67337811D01*
X154299484Y-67376528D01*
X154347726Y-67421214D01*
X154390259Y-67471441D01*
X154426606Y-67526779D01*
X154456290Y-67586803D01*
X154473978Y-67634900D01*
X154483581Y-67667724D01*
X154490396Y-67697715D01*
X154494803Y-67727571D01*
X154497183Y-67759988D01*
X154497918Y-67797666D01*
X154497909Y-67804233D01*
X154496975Y-67844043D01*
X154494183Y-67878387D01*
X154489076Y-67910152D01*
X154481198Y-67942221D01*
X154470801Y-67975385D01*
X154445374Y-68037702D01*
X154412920Y-68095755D01*
X154373987Y-68149060D01*
X154329122Y-68197135D01*
X154278874Y-68239499D01*
X154223790Y-68275668D01*
X154164419Y-68305161D01*
X154101307Y-68327494D01*
X154059160Y-68337818D01*
X154024508Y-68343351D01*
X153985925Y-68346964D01*
X153946623Y-68348510D01*
X153909809Y-68347842D01*
X153885845Y-68345807D01*
X153819717Y-68333490D01*
X153756363Y-68313519D01*
X153696360Y-68286362D01*
X153640288Y-68252486D01*
X153588726Y-68212358D01*
X153542253Y-68166445D01*
X153501448Y-68115214D01*
X153466891Y-68059133D01*
X153439159Y-67998668D01*
X153432316Y-67979916D01*
X153417556Y-67930415D01*
X153408153Y-67882105D01*
X153403556Y-67831619D01*
X153402876Y-67800000D01*
X153406554Y-67735152D01*
X153417355Y-67671594D01*
X153434927Y-67610862D01*
X153458919Y-67554495D01*
X153458944Y-67554446D01*
X153479197Y-67518855D01*
X153504398Y-67481643D01*
X153532378Y-67445775D01*
X153560970Y-67414219D01*
X153562535Y-67412650D01*
X153614228Y-67366922D01*
X153670225Y-67328429D01*
X153730219Y-67297339D01*
X153793901Y-67273817D01*
X153840215Y-67262007D01*
X153880125Y-67255795D01*
X153924614Y-67252581D01*
X153970638Y-67252370D01*
X154015156Y-67255164D01*
X154015156Y-67255164D01*
G37*
X154015156Y-67255164D02*
X154055125Y-67260968D01*
X154058939Y-67261753D01*
X154125259Y-67279995D01*
X154187774Y-67305490D01*
X154246007Y-67337811D01*
X154299484Y-67376528D01*
X154347726Y-67421214D01*
X154390259Y-67471441D01*
X154426606Y-67526779D01*
X154456290Y-67586803D01*
X154473978Y-67634900D01*
X154483581Y-67667724D01*
X154490396Y-67697715D01*
X154494803Y-67727571D01*
X154497183Y-67759988D01*
X154497918Y-67797666D01*
X154497909Y-67804233D01*
X154496975Y-67844043D01*
X154494183Y-67878387D01*
X154489076Y-67910152D01*
X154481198Y-67942221D01*
X154470801Y-67975385D01*
X154445374Y-68037702D01*
X154412920Y-68095755D01*
X154373987Y-68149060D01*
X154329122Y-68197135D01*
X154278874Y-68239499D01*
X154223790Y-68275668D01*
X154164419Y-68305161D01*
X154101307Y-68327494D01*
X154059160Y-68337818D01*
X154024508Y-68343351D01*
X153985925Y-68346964D01*
X153946623Y-68348510D01*
X153909809Y-68347842D01*
X153885845Y-68345807D01*
X153819717Y-68333490D01*
X153756363Y-68313519D01*
X153696360Y-68286362D01*
X153640288Y-68252486D01*
X153588726Y-68212358D01*
X153542253Y-68166445D01*
X153501448Y-68115214D01*
X153466891Y-68059133D01*
X153439159Y-67998668D01*
X153432316Y-67979916D01*
X153417556Y-67930415D01*
X153408153Y-67882105D01*
X153403556Y-67831619D01*
X153402876Y-67800000D01*
X153406554Y-67735152D01*
X153417355Y-67671594D01*
X153434927Y-67610862D01*
X153458919Y-67554495D01*
X153458944Y-67554446D01*
X153479197Y-67518855D01*
X153504398Y-67481643D01*
X153532378Y-67445775D01*
X153560970Y-67414219D01*
X153562535Y-67412650D01*
X153614228Y-67366922D01*
X153670225Y-67328429D01*
X153730219Y-67297339D01*
X153793901Y-67273817D01*
X153840215Y-67262007D01*
X153880125Y-67255795D01*
X153924614Y-67252581D01*
X153970638Y-67252370D01*
X154015156Y-67255164D01*
G36*
X154045991Y-66227319D02*
X154131778Y-66227330D01*
X154209857Y-66227354D01*
X154280607Y-66227393D01*
X154344408Y-66227452D01*
X154401639Y-66227535D01*
X154452679Y-66227644D01*
X154497908Y-66227785D01*
X154537704Y-66227961D01*
X154572448Y-66228174D01*
X154602519Y-66228431D01*
X154628295Y-66228733D01*
X154650157Y-66229085D01*
X154668483Y-66229490D01*
X154683653Y-66229953D01*
X154696046Y-66230477D01*
X154706042Y-66231066D01*
X154714019Y-66231723D01*
X154720358Y-66232453D01*
X154725437Y-66233258D01*
X154729636Y-66234144D01*
X154733167Y-66235066D01*
X154780245Y-66250491D01*
X154820926Y-66268771D01*
X154857081Y-66290921D01*
X154890575Y-66317955D01*
X154897202Y-66324116D01*
X154908522Y-66335096D01*
X154918767Y-66345706D01*
X154928488Y-66356762D01*
X154938233Y-66369078D01*
X154948553Y-66383472D01*
X154959997Y-66400757D01*
X154973115Y-66421751D01*
X154988456Y-66447268D01*
X155006569Y-66478124D01*
X155028006Y-66515134D01*
X155040226Y-66536350D01*
X155061272Y-66572921D01*
X155084129Y-66612627D01*
X155107659Y-66653492D01*
X155130725Y-66693542D01*
X155152190Y-66730802D01*
X155170918Y-66763299D01*
X155175903Y-66771944D01*
X155236072Y-66876306D01*
X154907361Y-67065790D01*
X154858872Y-67093739D01*
X154812471Y-67120482D01*
X154768685Y-67145715D01*
X154728038Y-67169135D01*
X154691055Y-67190440D01*
X154658262Y-67209328D01*
X154630184Y-67225497D01*
X154607347Y-67238643D01*
X154590274Y-67248464D01*
X154579493Y-67254657D01*
X154575531Y-67256918D01*
X154571469Y-67254765D01*
X154563195Y-67247618D01*
X154552158Y-67236783D01*
X154546167Y-67230506D01*
X154496507Y-67182697D01*
X154440188Y-67137888D01*
X154378784Y-67097111D01*
X154313870Y-67061397D01*
X154247021Y-67031780D01*
X154237025Y-67027964D01*
X154159344Y-67003404D01*
X154079765Y-66986860D01*
X153999010Y-66978298D01*
X153917800Y-66977682D01*
X153836858Y-66984979D01*
X153756904Y-67000153D01*
X153678662Y-67023169D01*
X153602851Y-67053994D01*
X153592284Y-67059022D01*
X153526165Y-67094612D01*
X153465433Y-67134952D01*
X153408217Y-67181388D01*
X153365800Y-67221717D01*
X153351753Y-67235740D01*
X153339909Y-67247222D01*
X153331492Y-67254999D01*
X153327727Y-67257910D01*
X153327700Y-67257910D01*
X153323805Y-67255810D01*
X153313106Y-67249771D01*
X153296128Y-67240094D01*
X153273396Y-67227082D01*
X153245435Y-67211034D01*
X153212769Y-67192253D01*
X153175922Y-67171041D01*
X153135419Y-67147699D01*
X153091785Y-67122529D01*
X153045544Y-67095832D01*
X152999617Y-67069295D01*
X152951332Y-67041370D01*
X152905132Y-67014620D01*
X152861545Y-66989354D01*
X152821099Y-66965879D01*
X152784322Y-66944502D01*
X152751741Y-66925530D01*
X152723884Y-66909271D01*
X152701279Y-66896032D01*
X152684454Y-66886121D01*
X152673937Y-66879845D01*
X152670273Y-66877532D01*
X152671644Y-66873296D01*
X152676928Y-66862496D01*
X152685712Y-66845846D01*
X152697584Y-66824060D01*
X152712130Y-66797852D01*
X152728937Y-66767936D01*
X152747591Y-66735027D01*
X152767680Y-66699837D01*
X152788791Y-66663081D01*
X152810509Y-66625472D01*
X152832423Y-66587726D01*
X152854119Y-66550555D01*
X152875184Y-66514674D01*
X152895204Y-66480796D01*
X152913767Y-66449636D01*
X152930460Y-66421907D01*
X152944868Y-66398323D01*
X152956580Y-66379599D01*
X152965181Y-66366448D01*
X152969475Y-66360506D01*
X153005527Y-66322360D01*
X153047543Y-66289352D01*
X153094180Y-66262341D01*
X153144096Y-66242189D01*
X153162600Y-66236781D01*
X153198583Y-66227316D01*
X153952117Y-66227316D01*
X154045991Y-66227319D01*
X154045991Y-66227319D01*
G37*
X154045991Y-66227319D02*
X154131778Y-66227330D01*
X154209857Y-66227354D01*
X154280607Y-66227393D01*
X154344408Y-66227452D01*
X154401639Y-66227535D01*
X154452679Y-66227644D01*
X154497908Y-66227785D01*
X154537704Y-66227961D01*
X154572448Y-66228174D01*
X154602519Y-66228431D01*
X154628295Y-66228733D01*
X154650157Y-66229085D01*
X154668483Y-66229490D01*
X154683653Y-66229953D01*
X154696046Y-66230477D01*
X154706042Y-66231066D01*
X154714019Y-66231723D01*
X154720358Y-66232453D01*
X154725437Y-66233258D01*
X154729636Y-66234144D01*
X154733167Y-66235066D01*
X154780245Y-66250491D01*
X154820926Y-66268771D01*
X154857081Y-66290921D01*
X154890575Y-66317955D01*
X154897202Y-66324116D01*
X154908522Y-66335096D01*
X154918767Y-66345706D01*
X154928488Y-66356762D01*
X154938233Y-66369078D01*
X154948553Y-66383472D01*
X154959997Y-66400757D01*
X154973115Y-66421751D01*
X154988456Y-66447268D01*
X155006569Y-66478124D01*
X155028006Y-66515134D01*
X155040226Y-66536350D01*
X155061272Y-66572921D01*
X155084129Y-66612627D01*
X155107659Y-66653492D01*
X155130725Y-66693542D01*
X155152190Y-66730802D01*
X155170918Y-66763299D01*
X155175903Y-66771944D01*
X155236072Y-66876306D01*
X154907361Y-67065790D01*
X154858872Y-67093739D01*
X154812471Y-67120482D01*
X154768685Y-67145715D01*
X154728038Y-67169135D01*
X154691055Y-67190440D01*
X154658262Y-67209328D01*
X154630184Y-67225497D01*
X154607347Y-67238643D01*
X154590274Y-67248464D01*
X154579493Y-67254657D01*
X154575531Y-67256918D01*
X154571469Y-67254765D01*
X154563195Y-67247618D01*
X154552158Y-67236783D01*
X154546167Y-67230506D01*
X154496507Y-67182697D01*
X154440188Y-67137888D01*
X154378784Y-67097111D01*
X154313870Y-67061397D01*
X154247021Y-67031780D01*
X154237025Y-67027964D01*
X154159344Y-67003404D01*
X154079765Y-66986860D01*
X153999010Y-66978298D01*
X153917800Y-66977682D01*
X153836858Y-66984979D01*
X153756904Y-67000153D01*
X153678662Y-67023169D01*
X153602851Y-67053994D01*
X153592284Y-67059022D01*
X153526165Y-67094612D01*
X153465433Y-67134952D01*
X153408217Y-67181388D01*
X153365800Y-67221717D01*
X153351753Y-67235740D01*
X153339909Y-67247222D01*
X153331492Y-67254999D01*
X153327727Y-67257910D01*
X153327700Y-67257910D01*
X153323805Y-67255810D01*
X153313106Y-67249771D01*
X153296128Y-67240094D01*
X153273396Y-67227082D01*
X153245435Y-67211034D01*
X153212769Y-67192253D01*
X153175922Y-67171041D01*
X153135419Y-67147699D01*
X153091785Y-67122529D01*
X153045544Y-67095832D01*
X152999617Y-67069295D01*
X152951332Y-67041370D01*
X152905132Y-67014620D01*
X152861545Y-66989354D01*
X152821099Y-66965879D01*
X152784322Y-66944502D01*
X152751741Y-66925530D01*
X152723884Y-66909271D01*
X152701279Y-66896032D01*
X152684454Y-66886121D01*
X152673937Y-66879845D01*
X152670273Y-66877532D01*
X152671644Y-66873296D01*
X152676928Y-66862496D01*
X152685712Y-66845846D01*
X152697584Y-66824060D01*
X152712130Y-66797852D01*
X152728937Y-66767936D01*
X152747591Y-66735027D01*
X152767680Y-66699837D01*
X152788791Y-66663081D01*
X152810509Y-66625472D01*
X152832423Y-66587726D01*
X152854119Y-66550555D01*
X152875184Y-66514674D01*
X152895204Y-66480796D01*
X152913767Y-66449636D01*
X152930460Y-66421907D01*
X152944868Y-66398323D01*
X152956580Y-66379599D01*
X152965181Y-66366448D01*
X152969475Y-66360506D01*
X153005527Y-66322360D01*
X153047543Y-66289352D01*
X153094180Y-66262341D01*
X153144096Y-66242189D01*
X153162600Y-66236781D01*
X153198583Y-66227316D01*
X153952117Y-66227316D01*
X154045991Y-66227319D01*
D14*
X146192857Y-70950000D02*
X146178571Y-70935714D01*
X146164285Y-70892857D01*
X146164285Y-70864285D01*
X146178571Y-70821428D01*
X146207142Y-70792857D01*
X146235714Y-70778571D01*
X146292857Y-70764285D01*
X146335714Y-70764285D01*
X146392857Y-70778571D01*
X146421428Y-70792857D01*
X146450000Y-70821428D01*
X146464285Y-70864285D01*
X146464285Y-70892857D01*
X146450000Y-70935714D01*
X146435714Y-70950000D01*
X146164285Y-71235714D02*
X146164285Y-71064285D01*
X146164285Y-71150000D02*
X146464285Y-71150000D01*
X146421428Y-71121428D01*
X146392857Y-71092857D01*
X146378571Y-71064285D01*
X142050000Y-69807142D02*
X142035714Y-69821428D01*
X141992857Y-69835714D01*
X141964285Y-69835714D01*
X141921428Y-69821428D01*
X141892857Y-69792857D01*
X141878571Y-69764285D01*
X141864285Y-69707142D01*
X141864285Y-69664285D01*
X141878571Y-69607142D01*
X141892857Y-69578571D01*
X141921428Y-69550000D01*
X141964285Y-69535714D01*
X141992857Y-69535714D01*
X142035714Y-69550000D01*
X142050000Y-69564285D01*
X142164285Y-69564285D02*
X142178571Y-69550000D01*
X142207142Y-69535714D01*
X142278571Y-69535714D01*
X142307142Y-69550000D01*
X142321428Y-69564285D01*
X142335714Y-69592857D01*
X142335714Y-69621428D01*
X142321428Y-69664285D01*
X142150000Y-69835714D01*
X142335714Y-69835714D01*
X126550000Y-67307142D02*
X126535714Y-67321428D01*
X126492857Y-67335714D01*
X126464285Y-67335714D01*
X126421428Y-67321428D01*
X126392857Y-67292857D01*
X126378571Y-67264285D01*
X126364285Y-67207142D01*
X126364285Y-67164285D01*
X126378571Y-67107142D01*
X126392857Y-67078571D01*
X126421428Y-67050000D01*
X126464285Y-67035714D01*
X126492857Y-67035714D01*
X126535714Y-67050000D01*
X126550000Y-67064285D01*
X126650000Y-67035714D02*
X126835714Y-67035714D01*
X126735714Y-67150000D01*
X126778571Y-67150000D01*
X126807142Y-67164285D01*
X126821428Y-67178571D01*
X126835714Y-67207142D01*
X126835714Y-67278571D01*
X126821428Y-67307142D01*
X126807142Y-67321428D01*
X126778571Y-67335714D01*
X126692857Y-67335714D01*
X126664285Y-67321428D01*
X126650000Y-67307142D01*
X127950000Y-77507142D02*
X127935714Y-77521428D01*
X127892857Y-77535714D01*
X127864285Y-77535714D01*
X127821428Y-77521428D01*
X127792857Y-77492857D01*
X127778571Y-77464285D01*
X127764285Y-77407142D01*
X127764285Y-77364285D01*
X127778571Y-77307142D01*
X127792857Y-77278571D01*
X127821428Y-77250000D01*
X127864285Y-77235714D01*
X127892857Y-77235714D01*
X127935714Y-77250000D01*
X127950000Y-77264285D01*
X128207142Y-77335714D02*
X128207142Y-77535714D01*
X128135714Y-77221428D02*
X128064285Y-77435714D01*
X128250000Y-77435714D01*
X142207142Y-78250000D02*
X142221428Y-78264285D01*
X142235714Y-78307142D01*
X142235714Y-78335714D01*
X142221428Y-78378571D01*
X142192857Y-78407142D01*
X142164285Y-78421428D01*
X142107142Y-78435714D01*
X142064285Y-78435714D01*
X142007142Y-78421428D01*
X141978571Y-78407142D01*
X141950000Y-78378571D01*
X141935714Y-78335714D01*
X141935714Y-78307142D01*
X141950000Y-78264285D01*
X141964285Y-78250000D01*
X141935714Y-77978571D02*
X141935714Y-78121428D01*
X142078571Y-78135714D01*
X142064285Y-78121428D01*
X142050000Y-78092857D01*
X142050000Y-78021428D01*
X142064285Y-77992857D01*
X142078571Y-77978571D01*
X142107142Y-77964285D01*
X142178571Y-77964285D01*
X142207142Y-77978571D01*
X142221428Y-77992857D01*
X142235714Y-78021428D01*
X142235714Y-78092857D01*
X142221428Y-78121428D01*
X142207142Y-78135714D01*
X127000000Y-85607142D02*
X126985714Y-85621428D01*
X126942857Y-85635714D01*
X126914285Y-85635714D01*
X126871428Y-85621428D01*
X126842857Y-85592857D01*
X126828571Y-85564285D01*
X126814285Y-85507142D01*
X126814285Y-85464285D01*
X126828571Y-85407142D01*
X126842857Y-85378571D01*
X126871428Y-85350000D01*
X126914285Y-85335714D01*
X126942857Y-85335714D01*
X126985714Y-85350000D01*
X127000000Y-85364285D01*
X127257142Y-85335714D02*
X127200000Y-85335714D01*
X127171428Y-85350000D01*
X127157142Y-85364285D01*
X127128571Y-85407142D01*
X127114285Y-85464285D01*
X127114285Y-85578571D01*
X127128571Y-85607142D01*
X127142857Y-85621428D01*
X127171428Y-85635714D01*
X127228571Y-85635714D01*
X127257142Y-85621428D01*
X127271428Y-85607142D01*
X127285714Y-85578571D01*
X127285714Y-85507142D01*
X127271428Y-85478571D01*
X127257142Y-85464285D01*
X127228571Y-85450000D01*
X127171428Y-85450000D01*
X127142857Y-85464285D01*
X127128571Y-85478571D01*
X127114285Y-85507142D01*
X121950000Y-89507142D02*
X121935714Y-89521428D01*
X121892857Y-89535714D01*
X121864285Y-89535714D01*
X121821428Y-89521428D01*
X121792857Y-89492857D01*
X121778571Y-89464285D01*
X121764285Y-89407142D01*
X121764285Y-89364285D01*
X121778571Y-89307142D01*
X121792857Y-89278571D01*
X121821428Y-89250000D01*
X121864285Y-89235714D01*
X121892857Y-89235714D01*
X121935714Y-89250000D01*
X121950000Y-89264285D01*
X122050000Y-89235714D02*
X122250000Y-89235714D01*
X122121428Y-89535714D01*
X127950000Y-81057142D02*
X127935714Y-81071428D01*
X127892857Y-81085714D01*
X127864285Y-81085714D01*
X127821428Y-81071428D01*
X127792857Y-81042857D01*
X127778571Y-81014285D01*
X127764285Y-80957142D01*
X127764285Y-80914285D01*
X127778571Y-80857142D01*
X127792857Y-80828571D01*
X127821428Y-80800000D01*
X127864285Y-80785714D01*
X127892857Y-80785714D01*
X127935714Y-80800000D01*
X127950000Y-80814285D01*
X128121428Y-80914285D02*
X128092857Y-80900000D01*
X128078571Y-80885714D01*
X128064285Y-80857142D01*
X128064285Y-80842857D01*
X128078571Y-80814285D01*
X128092857Y-80800000D01*
X128121428Y-80785714D01*
X128178571Y-80785714D01*
X128207142Y-80800000D01*
X128221428Y-80814285D01*
X128235714Y-80842857D01*
X128235714Y-80857142D01*
X128221428Y-80885714D01*
X128207142Y-80900000D01*
X128178571Y-80914285D01*
X128121428Y-80914285D01*
X128092857Y-80928571D01*
X128078571Y-80942857D01*
X128064285Y-80971428D01*
X128064285Y-81028571D01*
X128078571Y-81057142D01*
X128092857Y-81071428D01*
X128121428Y-81085714D01*
X128178571Y-81085714D01*
X128207142Y-81071428D01*
X128221428Y-81057142D01*
X128235714Y-81028571D01*
X128235714Y-80971428D01*
X128221428Y-80942857D01*
X128207142Y-80928571D01*
X128178571Y-80914285D01*
X137607142Y-80700000D02*
X137621428Y-80714285D01*
X137635714Y-80757142D01*
X137635714Y-80785714D01*
X137621428Y-80828571D01*
X137592857Y-80857142D01*
X137564285Y-80871428D01*
X137507142Y-80885714D01*
X137464285Y-80885714D01*
X137407142Y-80871428D01*
X137378571Y-80857142D01*
X137350000Y-80828571D01*
X137335714Y-80785714D01*
X137335714Y-80757142D01*
X137350000Y-80714285D01*
X137364285Y-80700000D01*
X137635714Y-80557142D02*
X137635714Y-80500000D01*
X137621428Y-80471428D01*
X137607142Y-80457142D01*
X137564285Y-80428571D01*
X137507142Y-80414285D01*
X137392857Y-80414285D01*
X137364285Y-80428571D01*
X137350000Y-80442857D01*
X137335714Y-80471428D01*
X137335714Y-80528571D01*
X137350000Y-80557142D01*
X137364285Y-80571428D01*
X137392857Y-80585714D01*
X137464285Y-80585714D01*
X137492857Y-80571428D01*
X137507142Y-80557142D01*
X137521428Y-80528571D01*
X137521428Y-80471428D01*
X137507142Y-80442857D01*
X137492857Y-80428571D01*
X137464285Y-80414285D01*
D10*
X147178571Y-83778571D02*
X147154761Y-83802380D01*
X147083333Y-83826190D01*
X147035714Y-83826190D01*
X146964285Y-83802380D01*
X146916666Y-83754761D01*
X146892857Y-83707142D01*
X146869047Y-83611904D01*
X146869047Y-83540476D01*
X146892857Y-83445238D01*
X146916666Y-83397619D01*
X146964285Y-83350000D01*
X147035714Y-83326190D01*
X147083333Y-83326190D01*
X147154761Y-83350000D01*
X147178571Y-83373809D01*
X147654761Y-83826190D02*
X147369047Y-83826190D01*
X147511904Y-83826190D02*
X147511904Y-83326190D01*
X147464285Y-83397619D01*
X147416666Y-83445238D01*
X147369047Y-83469047D01*
X147964285Y-83326190D02*
X148011904Y-83326190D01*
X148059523Y-83350000D01*
X148083333Y-83373809D01*
X148107142Y-83421428D01*
X148130952Y-83516666D01*
X148130952Y-83635714D01*
X148107142Y-83730952D01*
X148083333Y-83778571D01*
X148059523Y-83802380D01*
X148011904Y-83826190D01*
X147964285Y-83826190D01*
X147916666Y-83802380D01*
X147892857Y-83778571D01*
X147869047Y-83730952D01*
X147845238Y-83635714D01*
X147845238Y-83516666D01*
X147869047Y-83421428D01*
X147892857Y-83373809D01*
X147916666Y-83350000D01*
X147964285Y-83326190D01*
D14*
X145657142Y-80157142D02*
X145642857Y-80171428D01*
X145600000Y-80185714D01*
X145571428Y-80185714D01*
X145528571Y-80171428D01*
X145500000Y-80142857D01*
X145485714Y-80114285D01*
X145471428Y-80057142D01*
X145471428Y-80014285D01*
X145485714Y-79957142D01*
X145500000Y-79928571D01*
X145528571Y-79900000D01*
X145571428Y-79885714D01*
X145600000Y-79885714D01*
X145642857Y-79900000D01*
X145657142Y-79914285D01*
X145942857Y-80185714D02*
X145771428Y-80185714D01*
X145857142Y-80185714D02*
X145857142Y-79885714D01*
X145828571Y-79928571D01*
X145800000Y-79957142D01*
X145771428Y-79971428D01*
X146228571Y-80185714D02*
X146057142Y-80185714D01*
X146142857Y-80185714D02*
X146142857Y-79885714D01*
X146114285Y-79928571D01*
X146085714Y-79957142D01*
X146057142Y-79971428D01*
X139757142Y-80107142D02*
X139742857Y-80121428D01*
X139700000Y-80135714D01*
X139671428Y-80135714D01*
X139628571Y-80121428D01*
X139600000Y-80092857D01*
X139585714Y-80064285D01*
X139571428Y-80007142D01*
X139571428Y-79964285D01*
X139585714Y-79907142D01*
X139600000Y-79878571D01*
X139628571Y-79850000D01*
X139671428Y-79835714D01*
X139700000Y-79835714D01*
X139742857Y-79850000D01*
X139757142Y-79864285D01*
X140042857Y-80135714D02*
X139871428Y-80135714D01*
X139957142Y-80135714D02*
X139957142Y-79835714D01*
X139928571Y-79878571D01*
X139900000Y-79907142D01*
X139871428Y-79921428D01*
X140157142Y-79864285D02*
X140171428Y-79850000D01*
X140200000Y-79835714D01*
X140271428Y-79835714D01*
X140300000Y-79850000D01*
X140314285Y-79864285D01*
X140328571Y-79892857D01*
X140328571Y-79921428D01*
X140314285Y-79964285D01*
X140142857Y-80135714D01*
X140328571Y-80135714D01*
X125457142Y-89507142D02*
X125442857Y-89521428D01*
X125400000Y-89535714D01*
X125371428Y-89535714D01*
X125328571Y-89521428D01*
X125300000Y-89492857D01*
X125285714Y-89464285D01*
X125271428Y-89407142D01*
X125271428Y-89364285D01*
X125285714Y-89307142D01*
X125300000Y-89278571D01*
X125328571Y-89250000D01*
X125371428Y-89235714D01*
X125400000Y-89235714D01*
X125442857Y-89250000D01*
X125457142Y-89264285D01*
X125742857Y-89535714D02*
X125571428Y-89535714D01*
X125657142Y-89535714D02*
X125657142Y-89235714D01*
X125628571Y-89278571D01*
X125600000Y-89307142D01*
X125571428Y-89321428D01*
X125842857Y-89235714D02*
X126028571Y-89235714D01*
X125928571Y-89350000D01*
X125971428Y-89350000D01*
X126000000Y-89364285D01*
X126014285Y-89378571D01*
X126028571Y-89407142D01*
X126028571Y-89478571D01*
X126014285Y-89507142D01*
X126000000Y-89521428D01*
X125971428Y-89535714D01*
X125885714Y-89535714D01*
X125857142Y-89521428D01*
X125842857Y-89507142D01*
X139807142Y-64607142D02*
X139792857Y-64621428D01*
X139750000Y-64635714D01*
X139721428Y-64635714D01*
X139678571Y-64621428D01*
X139650000Y-64592857D01*
X139635714Y-64564285D01*
X139621428Y-64507142D01*
X139621428Y-64464285D01*
X139635714Y-64407142D01*
X139650000Y-64378571D01*
X139678571Y-64350000D01*
X139721428Y-64335714D01*
X139750000Y-64335714D01*
X139792857Y-64350000D01*
X139807142Y-64364285D01*
X140092857Y-64635714D02*
X139921428Y-64635714D01*
X140007142Y-64635714D02*
X140007142Y-64335714D01*
X139978571Y-64378571D01*
X139950000Y-64407142D01*
X139921428Y-64421428D01*
X140192857Y-64335714D02*
X140392857Y-64335714D01*
X140264285Y-64635714D01*
X131407142Y-61207142D02*
X131392857Y-61221428D01*
X131350000Y-61235714D01*
X131321428Y-61235714D01*
X131278571Y-61221428D01*
X131250000Y-61192857D01*
X131235714Y-61164285D01*
X131221428Y-61107142D01*
X131221428Y-61064285D01*
X131235714Y-61007142D01*
X131250000Y-60978571D01*
X131278571Y-60950000D01*
X131321428Y-60935714D01*
X131350000Y-60935714D01*
X131392857Y-60950000D01*
X131407142Y-60964285D01*
X131692857Y-61235714D02*
X131521428Y-61235714D01*
X131607142Y-61235714D02*
X131607142Y-60935714D01*
X131578571Y-60978571D01*
X131550000Y-61007142D01*
X131521428Y-61021428D01*
X131864285Y-61064285D02*
X131835714Y-61050000D01*
X131821428Y-61035714D01*
X131807142Y-61007142D01*
X131807142Y-60992857D01*
X131821428Y-60964285D01*
X131835714Y-60950000D01*
X131864285Y-60935714D01*
X131921428Y-60935714D01*
X131950000Y-60950000D01*
X131964285Y-60964285D01*
X131978571Y-60992857D01*
X131978571Y-61007142D01*
X131964285Y-61035714D01*
X131950000Y-61050000D01*
X131921428Y-61064285D01*
X131864285Y-61064285D01*
X131835714Y-61078571D01*
X131821428Y-61092857D01*
X131807142Y-61121428D01*
X131807142Y-61178571D01*
X131821428Y-61207142D01*
X131835714Y-61221428D01*
X131864285Y-61235714D01*
X131921428Y-61235714D01*
X131950000Y-61221428D01*
X131964285Y-61207142D01*
X131978571Y-61178571D01*
X131978571Y-61121428D01*
X131964285Y-61092857D01*
X131950000Y-61078571D01*
X131921428Y-61064285D01*
D10*
X154230952Y-83726190D02*
X154230952Y-83226190D01*
X154350000Y-83226190D01*
X154421428Y-83250000D01*
X154469047Y-83297619D01*
X154492857Y-83345238D01*
X154516666Y-83440476D01*
X154516666Y-83511904D01*
X154492857Y-83607142D01*
X154469047Y-83654761D01*
X154421428Y-83702380D01*
X154350000Y-83726190D01*
X154230952Y-83726190D01*
X154992857Y-83726190D02*
X154707142Y-83726190D01*
X154850000Y-83726190D02*
X154850000Y-83226190D01*
X154802380Y-83297619D01*
X154754761Y-83345238D01*
X154707142Y-83369047D01*
X149330952Y-88026190D02*
X149330952Y-87526190D01*
X149450000Y-87526190D01*
X149521428Y-87550000D01*
X149569047Y-87597619D01*
X149592857Y-87645238D01*
X149616666Y-87740476D01*
X149616666Y-87811904D01*
X149592857Y-87907142D01*
X149569047Y-87954761D01*
X149521428Y-88002380D01*
X149450000Y-88026190D01*
X149330952Y-88026190D01*
X149807142Y-87573809D02*
X149830952Y-87550000D01*
X149878571Y-87526190D01*
X149997619Y-87526190D01*
X150045238Y-87550000D01*
X150069047Y-87573809D01*
X150092857Y-87621428D01*
X150092857Y-87669047D01*
X150069047Y-87740476D01*
X149783333Y-88026190D01*
X150092857Y-88026190D01*
X154833333Y-81064285D02*
X154666666Y-81064285D01*
X154666666Y-81326190D02*
X154666666Y-80826190D01*
X154904761Y-80826190D01*
X155357142Y-81326190D02*
X155071428Y-81326190D01*
X155214285Y-81326190D02*
X155214285Y-80826190D01*
X155166666Y-80897619D01*
X155119047Y-80945238D01*
X155071428Y-80969047D01*
X140233333Y-87764285D02*
X140066666Y-87764285D01*
X140066666Y-88026190D02*
X140066666Y-87526190D01*
X140304761Y-87526190D01*
X140471428Y-87573809D02*
X140495238Y-87550000D01*
X140542857Y-87526190D01*
X140661904Y-87526190D01*
X140709523Y-87550000D01*
X140733333Y-87573809D01*
X140757142Y-87621428D01*
X140757142Y-87669047D01*
X140733333Y-87740476D01*
X140447619Y-88026190D01*
X140757142Y-88026190D01*
X147726190Y-69726190D02*
X147559523Y-69488095D01*
X147440476Y-69726190D02*
X147440476Y-69226190D01*
X147630952Y-69226190D01*
X147678571Y-69250000D01*
X147702380Y-69273809D01*
X147726190Y-69321428D01*
X147726190Y-69392857D01*
X147702380Y-69440476D01*
X147678571Y-69464285D01*
X147630952Y-69488095D01*
X147440476Y-69488095D01*
X147916666Y-69702380D02*
X147988095Y-69726190D01*
X148107142Y-69726190D01*
X148154761Y-69702380D01*
X148178571Y-69678571D01*
X148202380Y-69630952D01*
X148202380Y-69583333D01*
X148178571Y-69535714D01*
X148154761Y-69511904D01*
X148107142Y-69488095D01*
X148011904Y-69464285D01*
X147964285Y-69440476D01*
X147940476Y-69416666D01*
X147916666Y-69369047D01*
X147916666Y-69321428D01*
X147940476Y-69273809D01*
X147964285Y-69250000D01*
X148011904Y-69226190D01*
X148130952Y-69226190D01*
X148202380Y-69250000D01*
X148345238Y-69226190D02*
X148630952Y-69226190D01*
X148488095Y-69726190D02*
X148488095Y-69226190D01*
X148819047Y-77126190D02*
X148819047Y-77530952D01*
X148842857Y-77578571D01*
X148866666Y-77602380D01*
X148914285Y-77626190D01*
X149009523Y-77626190D01*
X149057142Y-77602380D01*
X149080952Y-77578571D01*
X149104761Y-77530952D01*
X149104761Y-77126190D01*
X149604761Y-77626190D02*
X149319047Y-77626190D01*
X149461904Y-77626190D02*
X149461904Y-77126190D01*
X149414285Y-77197619D01*
X149366666Y-77245238D01*
X149319047Y-77269047D01*
X130169047Y-83576190D02*
X130169047Y-83980952D01*
X130192857Y-84028571D01*
X130216666Y-84052380D01*
X130264285Y-84076190D01*
X130359523Y-84076190D01*
X130407142Y-84052380D01*
X130430952Y-84028571D01*
X130454761Y-83980952D01*
X130454761Y-83576190D01*
X130669047Y-83623809D02*
X130692857Y-83600000D01*
X130740476Y-83576190D01*
X130859523Y-83576190D01*
X130907142Y-83600000D01*
X130930952Y-83623809D01*
X130954761Y-83671428D01*
X130954761Y-83719047D01*
X130930952Y-83790476D01*
X130645238Y-84076190D01*
X130954761Y-84076190D01*
X120219047Y-81376190D02*
X120219047Y-81780952D01*
X120242857Y-81828571D01*
X120266666Y-81852380D01*
X120314285Y-81876190D01*
X120409523Y-81876190D01*
X120457142Y-81852380D01*
X120480952Y-81828571D01*
X120504761Y-81780952D01*
X120504761Y-81376190D01*
X120695238Y-81376190D02*
X121004761Y-81376190D01*
X120838095Y-81566666D01*
X120909523Y-81566666D01*
X120957142Y-81590476D01*
X120980952Y-81614285D01*
X121004761Y-81661904D01*
X121004761Y-81780952D01*
X120980952Y-81828571D01*
X120957142Y-81852380D01*
X120909523Y-81876190D01*
X120766666Y-81876190D01*
X120719047Y-81852380D01*
X120695238Y-81828571D01*
X141169047Y-79276190D02*
X141169047Y-79680952D01*
X141192857Y-79728571D01*
X141216666Y-79752380D01*
X141264285Y-79776190D01*
X141359523Y-79776190D01*
X141407142Y-79752380D01*
X141430952Y-79728571D01*
X141454761Y-79680952D01*
X141454761Y-79276190D01*
X141907142Y-79442857D02*
X141907142Y-79776190D01*
X141788095Y-79252380D02*
X141669047Y-79609523D01*
X141978571Y-79609523D01*
X138519047Y-66426190D02*
X138519047Y-66830952D01*
X138542857Y-66878571D01*
X138566666Y-66902380D01*
X138614285Y-66926190D01*
X138709523Y-66926190D01*
X138757142Y-66902380D01*
X138780952Y-66878571D01*
X138804761Y-66830952D01*
X138804761Y-66426190D01*
X139280952Y-66426190D02*
X139042857Y-66426190D01*
X139019047Y-66664285D01*
X139042857Y-66640476D01*
X139090476Y-66616666D01*
X139209523Y-66616666D01*
X139257142Y-66640476D01*
X139280952Y-66664285D01*
X139304761Y-66711904D01*
X139304761Y-66830952D01*
X139280952Y-66878571D01*
X139257142Y-66902380D01*
X139209523Y-66926190D01*
X139090476Y-66926190D01*
X139042857Y-66902380D01*
X139019047Y-66878571D01*
D15*
X139276190Y-60780952D02*
X139542857Y-61180952D01*
X139542857Y-60780952D02*
X139276190Y-61180952D01*
X139904761Y-61180952D02*
X139676190Y-61180952D01*
X139790476Y-61180952D02*
X139790476Y-60780952D01*
X139752380Y-60838095D01*
X139714285Y-60876190D01*
X139676190Y-60895238D01*
D14*
X127950000Y-61435714D02*
X127850000Y-61292857D01*
X127778571Y-61435714D02*
X127778571Y-61135714D01*
X127892857Y-61135714D01*
X127921428Y-61150000D01*
X127935714Y-61164285D01*
X127950000Y-61192857D01*
X127950000Y-61235714D01*
X127935714Y-61264285D01*
X127921428Y-61278571D01*
X127892857Y-61292857D01*
X127778571Y-61292857D01*
X128064285Y-61164285D02*
X128078571Y-61150000D01*
X128107142Y-61135714D01*
X128178571Y-61135714D01*
X128207142Y-61150000D01*
X128221428Y-61164285D01*
X128235714Y-61192857D01*
X128235714Y-61221428D01*
X128221428Y-61264285D01*
X128050000Y-61435714D01*
X128235714Y-61435714D01*
X137335714Y-86950000D02*
X137192857Y-87050000D01*
X137335714Y-87121428D02*
X137035714Y-87121428D01*
X137035714Y-87007142D01*
X137050000Y-86978571D01*
X137064285Y-86964285D01*
X137092857Y-86950000D01*
X137135714Y-86950000D01*
X137164285Y-86964285D01*
X137178571Y-86978571D01*
X137192857Y-87007142D01*
X137192857Y-87121428D01*
X137335714Y-86664285D02*
X137335714Y-86835714D01*
X137335714Y-86750000D02*
X137035714Y-86750000D01*
X137078571Y-86778571D01*
X137107142Y-86807142D01*
X137121428Y-86835714D01*
D10*
X122683333Y-75076190D02*
X122683333Y-74576190D01*
X122873809Y-74576190D01*
X122921428Y-74600000D01*
X122945238Y-74623809D01*
X122969047Y-74671428D01*
X122969047Y-74742857D01*
X122945238Y-74790476D01*
X122921428Y-74814285D01*
X122873809Y-74838095D01*
X122683333Y-74838095D01*
X123135714Y-74576190D02*
X123254761Y-75076190D01*
X123350000Y-74719047D01*
X123445238Y-75076190D01*
X123564285Y-74576190D01*
X124040476Y-75076190D02*
X123873809Y-74838095D01*
X123754761Y-75076190D02*
X123754761Y-74576190D01*
X123945238Y-74576190D01*
X123992857Y-74600000D01*
X124016666Y-74623809D01*
X124040476Y-74671428D01*
X124040476Y-74742857D01*
X124016666Y-74790476D01*
X123992857Y-74814285D01*
X123945238Y-74838095D01*
X123754761Y-74838095D01*
X122680952Y-76364285D02*
X122847619Y-76364285D01*
X122919047Y-76626190D02*
X122680952Y-76626190D01*
X122680952Y-76126190D01*
X122919047Y-76126190D01*
X123419047Y-76626190D02*
X123252380Y-76388095D01*
X123133333Y-76626190D02*
X123133333Y-76126190D01*
X123323809Y-76126190D01*
X123371428Y-76150000D01*
X123395238Y-76173809D01*
X123419047Y-76221428D01*
X123419047Y-76292857D01*
X123395238Y-76340476D01*
X123371428Y-76364285D01*
X123323809Y-76388095D01*
X123133333Y-76388095D01*
X123919047Y-76626190D02*
X123752380Y-76388095D01*
X123633333Y-76626190D02*
X123633333Y-76126190D01*
X123823809Y-76126190D01*
X123871428Y-76150000D01*
X123895238Y-76173809D01*
X123919047Y-76221428D01*
X123919047Y-76292857D01*
X123895238Y-76340476D01*
X123871428Y-76364285D01*
X123823809Y-76388095D01*
X123633333Y-76388095D01*
X124228571Y-76126190D02*
X124323809Y-76126190D01*
X124371428Y-76150000D01*
X124419047Y-76197619D01*
X124442857Y-76292857D01*
X124442857Y-76459523D01*
X124419047Y-76554761D01*
X124371428Y-76602380D01*
X124323809Y-76626190D01*
X124228571Y-76626190D01*
X124180952Y-76602380D01*
X124133333Y-76554761D01*
X124109523Y-76459523D01*
X124109523Y-76292857D01*
X124133333Y-76197619D01*
X124180952Y-76150000D01*
X124228571Y-76126190D01*
X124942857Y-76626190D02*
X124776190Y-76388095D01*
X124657142Y-76626190D02*
X124657142Y-76126190D01*
X124847619Y-76126190D01*
X124895238Y-76150000D01*
X124919047Y-76173809D01*
X124942857Y-76221428D01*
X124942857Y-76292857D01*
X124919047Y-76340476D01*
X124895238Y-76364285D01*
X124847619Y-76388095D01*
X124657142Y-76388095D01*
X122680952Y-78226190D02*
X122680952Y-77726190D01*
X122800000Y-77726190D01*
X122871428Y-77750000D01*
X122919047Y-77797619D01*
X122942857Y-77845238D01*
X122966666Y-77940476D01*
X122966666Y-78011904D01*
X122942857Y-78107142D01*
X122919047Y-78154761D01*
X122871428Y-78202380D01*
X122800000Y-78226190D01*
X122680952Y-78226190D01*
X123180952Y-77964285D02*
X123347619Y-77964285D01*
X123419047Y-78226190D02*
X123180952Y-78226190D01*
X123180952Y-77726190D01*
X123419047Y-77726190D01*
X123800000Y-77964285D02*
X123871428Y-77988095D01*
X123895238Y-78011904D01*
X123919047Y-78059523D01*
X123919047Y-78130952D01*
X123895238Y-78178571D01*
X123871428Y-78202380D01*
X123823809Y-78226190D01*
X123633333Y-78226190D01*
X123633333Y-77726190D01*
X123800000Y-77726190D01*
X123847619Y-77750000D01*
X123871428Y-77773809D01*
X123895238Y-77821428D01*
X123895238Y-77869047D01*
X123871428Y-77916666D01*
X123847619Y-77940476D01*
X123800000Y-77964285D01*
X123633333Y-77964285D01*
X124133333Y-77726190D02*
X124133333Y-78130952D01*
X124157142Y-78178571D01*
X124180952Y-78202380D01*
X124228571Y-78226190D01*
X124323809Y-78226190D01*
X124371428Y-78202380D01*
X124395238Y-78178571D01*
X124419047Y-78130952D01*
X124419047Y-77726190D01*
X124919047Y-77750000D02*
X124871428Y-77726190D01*
X124800000Y-77726190D01*
X124728571Y-77750000D01*
X124680952Y-77797619D01*
X124657142Y-77845238D01*
X124633333Y-77940476D01*
X124633333Y-78011904D01*
X124657142Y-78107142D01*
X124680952Y-78154761D01*
X124728571Y-78202380D01*
X124800000Y-78226190D01*
X124847619Y-78226190D01*
X124919047Y-78202380D01*
X124942857Y-78178571D01*
X124942857Y-78011904D01*
X124847619Y-78011904D01*
X122661904Y-79802380D02*
X122733333Y-79826190D01*
X122852380Y-79826190D01*
X122900000Y-79802380D01*
X122923809Y-79778571D01*
X122947619Y-79730952D01*
X122947619Y-79683333D01*
X122923809Y-79635714D01*
X122900000Y-79611904D01*
X122852380Y-79588095D01*
X122757142Y-79564285D01*
X122709523Y-79540476D01*
X122685714Y-79516666D01*
X122661904Y-79469047D01*
X122661904Y-79421428D01*
X122685714Y-79373809D01*
X122709523Y-79350000D01*
X122757142Y-79326190D01*
X122876190Y-79326190D01*
X122947619Y-79350000D01*
X123090476Y-79326190D02*
X123376190Y-79326190D01*
X123233333Y-79826190D02*
X123233333Y-79326190D01*
X123519047Y-79683333D02*
X123757142Y-79683333D01*
X123471428Y-79826190D02*
X123638095Y-79326190D01*
X123804761Y-79826190D01*
X123900000Y-79326190D02*
X124185714Y-79326190D01*
X124042857Y-79826190D02*
X124042857Y-79326190D01*
X124352380Y-79326190D02*
X124352380Y-79730952D01*
X124376190Y-79778571D01*
X124400000Y-79802380D01*
X124447619Y-79826190D01*
X124542857Y-79826190D01*
X124590476Y-79802380D01*
X124614285Y-79778571D01*
X124638095Y-79730952D01*
X124638095Y-79326190D01*
X124852380Y-79802380D02*
X124923809Y-79826190D01*
X125042857Y-79826190D01*
X125090476Y-79802380D01*
X125114285Y-79778571D01*
X125138095Y-79730952D01*
X125138095Y-79683333D01*
X125114285Y-79635714D01*
X125090476Y-79611904D01*
X125042857Y-79588095D01*
X124947619Y-79564285D01*
X124900000Y-79540476D01*
X124876190Y-79516666D01*
X124852380Y-79469047D01*
X124852380Y-79421428D01*
X124876190Y-79373809D01*
X124900000Y-79350000D01*
X124947619Y-79326190D01*
X125066666Y-79326190D01*
X125138095Y-79350000D01*
X125969047Y-61226190D02*
X126254761Y-61226190D01*
X126111904Y-61726190D02*
X126111904Y-61226190D01*
X126373809Y-61226190D02*
X126707142Y-61726190D01*
X126707142Y-61226190D02*
X126373809Y-61726190D01*
X126266666Y-63276190D02*
X126100000Y-63038095D01*
X125980952Y-63276190D02*
X125980952Y-62776190D01*
X126171428Y-62776190D01*
X126219047Y-62800000D01*
X126242857Y-62823809D01*
X126266666Y-62871428D01*
X126266666Y-62942857D01*
X126242857Y-62990476D01*
X126219047Y-63014285D01*
X126171428Y-63038095D01*
X125980952Y-63038095D01*
X126433333Y-62776190D02*
X126766666Y-63276190D01*
X126766666Y-62776190D02*
X126433333Y-63276190D01*
X125942857Y-64852380D02*
X126014285Y-64876190D01*
X126133333Y-64876190D01*
X126180952Y-64852380D01*
X126204761Y-64828571D01*
X126228571Y-64780952D01*
X126228571Y-64733333D01*
X126204761Y-64685714D01*
X126180952Y-64661904D01*
X126133333Y-64638095D01*
X126038095Y-64614285D01*
X125990476Y-64590476D01*
X125966666Y-64566666D01*
X125942857Y-64519047D01*
X125942857Y-64471428D01*
X125966666Y-64423809D01*
X125990476Y-64400000D01*
X126038095Y-64376190D01*
X126157142Y-64376190D01*
X126228571Y-64400000D01*
X126609523Y-64614285D02*
X126442857Y-64614285D01*
X126442857Y-64876190D02*
X126442857Y-64376190D01*
X126680952Y-64376190D01*
X126871428Y-64876190D02*
X126871428Y-64376190D01*
X126990476Y-64376190D01*
X127061904Y-64400000D01*
X127109523Y-64447619D01*
X127133333Y-64495238D01*
X127157142Y-64590476D01*
X127157142Y-64661904D01*
X127133333Y-64757142D01*
X127109523Y-64804761D01*
X127061904Y-64852380D01*
X126990476Y-64876190D01*
X126871428Y-64876190D01*
X126254761Y-66476190D02*
X126088095Y-66238095D01*
X125969047Y-66476190D02*
X125969047Y-65976190D01*
X126159523Y-65976190D01*
X126207142Y-66000000D01*
X126230952Y-66023809D01*
X126254761Y-66071428D01*
X126254761Y-66142857D01*
X126230952Y-66190476D01*
X126207142Y-66214285D01*
X126159523Y-66238095D01*
X125969047Y-66238095D01*
X126421428Y-65976190D02*
X126754761Y-66476190D01*
X126754761Y-65976190D02*
X126421428Y-66476190D01*
X127040476Y-65976190D02*
X127135714Y-65976190D01*
X127183333Y-66000000D01*
X127230952Y-66047619D01*
X127254761Y-66142857D01*
X127254761Y-66309523D01*
X127230952Y-66404761D01*
X127183333Y-66452380D01*
X127135714Y-66476190D01*
X127040476Y-66476190D01*
X126992857Y-66452380D01*
X126945238Y-66404761D01*
X126921428Y-66309523D01*
X126921428Y-66142857D01*
X126945238Y-66047619D01*
X126992857Y-66000000D01*
X127040476Y-65976190D01*
X127469047Y-66476190D02*
X127469047Y-65976190D01*
X127754761Y-66476190D02*
X127540476Y-66190476D01*
X127754761Y-65976190D02*
X127469047Y-66261904D01*
X119947619Y-69376190D02*
X120066666Y-69876190D01*
X120161904Y-69519047D01*
X120257142Y-69876190D01*
X120376190Y-69376190D01*
X120828571Y-69876190D02*
X120542857Y-69876190D01*
X120685714Y-69876190D02*
X120685714Y-69376190D01*
X120638095Y-69447619D01*
X120590476Y-69495238D01*
X120542857Y-69519047D01*
X130826190Y-82752380D02*
X131326190Y-82633333D01*
X130969047Y-82538095D01*
X131326190Y-82442857D01*
X130826190Y-82323809D01*
X130826190Y-81919047D02*
X130826190Y-82014285D01*
X130850000Y-82061904D01*
X130873809Y-82085714D01*
X130945238Y-82133333D01*
X131040476Y-82157142D01*
X131230952Y-82157142D01*
X131278571Y-82133333D01*
X131302380Y-82109523D01*
X131326190Y-82061904D01*
X131326190Y-81966666D01*
X131302380Y-81919047D01*
X131278571Y-81895238D01*
X131230952Y-81871428D01*
X131111904Y-81871428D01*
X131064285Y-81895238D01*
X131040476Y-81919047D01*
X131016666Y-81966666D01*
X131016666Y-82061904D01*
X131040476Y-82109523D01*
X131064285Y-82133333D01*
X131111904Y-82157142D01*
X131776190Y-82752380D02*
X132276190Y-82633333D01*
X131919047Y-82538095D01*
X132276190Y-82442857D01*
X131776190Y-82323809D01*
X131776190Y-82180952D02*
X131776190Y-81847619D01*
X132276190Y-82061904D01*
X132726190Y-82752380D02*
X133226190Y-82633333D01*
X132869047Y-82538095D01*
X133226190Y-82442857D01*
X132726190Y-82323809D01*
X132940476Y-82061904D02*
X132916666Y-82109523D01*
X132892857Y-82133333D01*
X132845238Y-82157142D01*
X132821428Y-82157142D01*
X132773809Y-82133333D01*
X132750000Y-82109523D01*
X132726190Y-82061904D01*
X132726190Y-81966666D01*
X132750000Y-81919047D01*
X132773809Y-81895238D01*
X132821428Y-81871428D01*
X132845238Y-81871428D01*
X132892857Y-81895238D01*
X132916666Y-81919047D01*
X132940476Y-81966666D01*
X132940476Y-82061904D01*
X132964285Y-82109523D01*
X132988095Y-82133333D01*
X133035714Y-82157142D01*
X133130952Y-82157142D01*
X133178571Y-82133333D01*
X133202380Y-82109523D01*
X133226190Y-82061904D01*
X133226190Y-81966666D01*
X133202380Y-81919047D01*
X133178571Y-81895238D01*
X133130952Y-81871428D01*
X133035714Y-81871428D01*
X132988095Y-81895238D01*
X132964285Y-81919047D01*
X132940476Y-81966666D01*
X129876190Y-82752380D02*
X130376190Y-82633333D01*
X130019047Y-82538095D01*
X130376190Y-82442857D01*
X129876190Y-82323809D01*
X129876190Y-81895238D02*
X129876190Y-82133333D01*
X130114285Y-82157142D01*
X130090476Y-82133333D01*
X130066666Y-82085714D01*
X130066666Y-81966666D01*
X130090476Y-81919047D01*
X130114285Y-81895238D01*
X130161904Y-81871428D01*
X130280952Y-81871428D01*
X130328571Y-81895238D01*
X130352380Y-81919047D01*
X130376190Y-81966666D01*
X130376190Y-82085714D01*
X130352380Y-82133333D01*
X130328571Y-82157142D01*
X119947619Y-72376190D02*
X120066666Y-72876190D01*
X120161904Y-72519047D01*
X120257142Y-72876190D01*
X120376190Y-72376190D01*
X120780952Y-72542857D02*
X120780952Y-72876190D01*
X120661904Y-72352380D02*
X120542857Y-72709523D01*
X120852380Y-72709523D01*
X119947619Y-71376190D02*
X120066666Y-71876190D01*
X120161904Y-71519047D01*
X120257142Y-71876190D01*
X120376190Y-71376190D01*
X120519047Y-71376190D02*
X120828571Y-71376190D01*
X120661904Y-71566666D01*
X120733333Y-71566666D01*
X120780952Y-71590476D01*
X120804761Y-71614285D01*
X120828571Y-71661904D01*
X120828571Y-71780952D01*
X120804761Y-71828571D01*
X120780952Y-71852380D01*
X120733333Y-71876190D01*
X120590476Y-71876190D01*
X120542857Y-71852380D01*
X120519047Y-71828571D01*
X119947619Y-70376190D02*
X120066666Y-70876190D01*
X120161904Y-70519047D01*
X120257142Y-70876190D01*
X120376190Y-70376190D01*
X120542857Y-70423809D02*
X120566666Y-70400000D01*
X120614285Y-70376190D01*
X120733333Y-70376190D01*
X120780952Y-70400000D01*
X120804761Y-70423809D01*
X120828571Y-70471428D01*
X120828571Y-70519047D01*
X120804761Y-70590476D01*
X120519047Y-70876190D01*
X120828571Y-70876190D01*
M02*
