G04 #@! TF.GenerationSoftware,KiCad,Pcbnew,no-vcs-found-bf44d39~61~ubuntu14.04.1*
G04 #@! TF.CreationDate,2018-02-04T18:49:22+01:00*
G04 #@! TF.ProjectId,beacon,626561636F6E2E6B696361645F706362,rev?*
G04 #@! TF.SameCoordinates,Original*
G04 #@! TF.FileFunction,Legend,Top*
G04 #@! TF.FilePolarity,Positive*
%FSLAX46Y46*%
G04 Gerber Fmt 4.6, Leading zero omitted, Abs format (unit mm)*
G04 Created by KiCad (PCBNEW no-vcs-found-bf44d39~61~ubuntu14.04.1) date Sun Feb  4 18:49:22 2018*
%MOMM*%
%LPD*%
G01*
G04 APERTURE LIST*
%ADD10C,0.150000*%
%ADD11C,0.250000*%
%ADD12C,0.100000*%
%ADD13C,0.080000*%
%ADD14C,0.050000*%
G04 APERTURE END LIST*
D10*
X153400000Y-83900000D02*
X153400000Y-84300000D01*
X153400000Y-84300000D02*
X151000000Y-84300000D01*
X151000000Y-84300000D02*
X151000000Y-83900000D01*
X151000000Y-83100000D02*
X151000000Y-82700000D01*
X151000000Y-82700000D02*
X153400000Y-82700000D01*
X153400000Y-82700000D02*
X153400000Y-83100000D01*
X146200000Y-87400000D02*
X146200000Y-87000000D01*
X146200000Y-87000000D02*
X148600000Y-87000000D01*
X148600000Y-87000000D02*
X148600000Y-87400000D01*
X148600000Y-88200000D02*
X148600000Y-88600000D01*
X148600000Y-88600000D02*
X146200000Y-88600000D01*
X146200000Y-88600000D02*
X146200000Y-88200000D01*
D11*
X134810000Y-84310000D02*
X131810000Y-84310000D01*
X134810000Y-89320000D02*
X131810000Y-89320000D01*
X131860000Y-84910000D02*
X131850000Y-84910000D01*
D10*
X141850000Y-83375000D02*
X143950000Y-83375000D01*
X141075000Y-80125000D02*
X143950000Y-80125000D01*
X138000000Y-67700000D02*
X138000000Y-67710000D01*
X121075000Y-77750000D02*
X121075000Y-78250000D01*
X121075000Y-74550000D02*
X121075000Y-75050000D01*
X121075000Y-79350000D02*
X121075000Y-79850000D01*
X124325000Y-61200000D02*
X124325000Y-61700000D01*
X124325000Y-62800000D02*
X124325000Y-63300000D01*
X124325000Y-64400000D02*
X124325000Y-64900000D01*
X124325000Y-66000000D02*
X124325000Y-66500000D01*
X121075000Y-76150000D02*
X121075000Y-76650000D01*
D12*
X155702380Y-68266666D02*
X155726190Y-68195238D01*
X155726190Y-68076190D01*
X155702380Y-68028571D01*
X155678571Y-68004761D01*
X155630952Y-67980952D01*
X155583333Y-67980952D01*
X155535714Y-68004761D01*
X155511904Y-68028571D01*
X155488095Y-68076190D01*
X155464285Y-68171428D01*
X155440476Y-68219047D01*
X155416666Y-68242857D01*
X155369047Y-68266666D01*
X155321428Y-68266666D01*
X155273809Y-68242857D01*
X155250000Y-68219047D01*
X155226190Y-68171428D01*
X155226190Y-68052380D01*
X155250000Y-67980952D01*
X155226190Y-67814285D02*
X155726190Y-67695238D01*
X155369047Y-67600000D01*
X155726190Y-67504761D01*
X155226190Y-67385714D01*
X155273809Y-67219047D02*
X155250000Y-67195238D01*
X155226190Y-67147619D01*
X155226190Y-67028571D01*
X155250000Y-66980952D01*
X155273809Y-66957142D01*
X155321428Y-66933333D01*
X155369047Y-66933333D01*
X155440476Y-66957142D01*
X155726190Y-67242857D01*
X155726190Y-66933333D01*
X154230952Y-83726190D02*
X154230952Y-83226190D01*
X154350000Y-83226190D01*
X154421428Y-83250000D01*
X154469047Y-83297619D01*
X154492857Y-83345238D01*
X154516666Y-83440476D01*
X154516666Y-83511904D01*
X154492857Y-83607142D01*
X154469047Y-83654761D01*
X154421428Y-83702380D01*
X154350000Y-83726190D01*
X154230952Y-83726190D01*
X154992857Y-83726190D02*
X154707142Y-83726190D01*
X154850000Y-83726190D02*
X154850000Y-83226190D01*
X154802380Y-83297619D01*
X154754761Y-83345238D01*
X154707142Y-83369047D01*
X149330952Y-88026190D02*
X149330952Y-87526190D01*
X149450000Y-87526190D01*
X149521428Y-87550000D01*
X149569047Y-87597619D01*
X149592857Y-87645238D01*
X149616666Y-87740476D01*
X149616666Y-87811904D01*
X149592857Y-87907142D01*
X149569047Y-87954761D01*
X149521428Y-88002380D01*
X149450000Y-88026190D01*
X149330952Y-88026190D01*
X149807142Y-87573809D02*
X149830952Y-87550000D01*
X149878571Y-87526190D01*
X149997619Y-87526190D01*
X150045238Y-87550000D01*
X150069047Y-87573809D01*
X150092857Y-87621428D01*
X150092857Y-87669047D01*
X150069047Y-87740476D01*
X149783333Y-88026190D01*
X150092857Y-88026190D01*
X147726190Y-69726190D02*
X147559523Y-69488095D01*
X147440476Y-69726190D02*
X147440476Y-69226190D01*
X147630952Y-69226190D01*
X147678571Y-69250000D01*
X147702380Y-69273809D01*
X147726190Y-69321428D01*
X147726190Y-69392857D01*
X147702380Y-69440476D01*
X147678571Y-69464285D01*
X147630952Y-69488095D01*
X147440476Y-69488095D01*
X147916666Y-69702380D02*
X147988095Y-69726190D01*
X148107142Y-69726190D01*
X148154761Y-69702380D01*
X148178571Y-69678571D01*
X148202380Y-69630952D01*
X148202380Y-69583333D01*
X148178571Y-69535714D01*
X148154761Y-69511904D01*
X148107142Y-69488095D01*
X148011904Y-69464285D01*
X147964285Y-69440476D01*
X147940476Y-69416666D01*
X147916666Y-69369047D01*
X147916666Y-69321428D01*
X147940476Y-69273809D01*
X147964285Y-69250000D01*
X148011904Y-69226190D01*
X148130952Y-69226190D01*
X148202380Y-69250000D01*
X148345238Y-69226190D02*
X148630952Y-69226190D01*
X148488095Y-69726190D02*
X148488095Y-69226190D01*
X148819047Y-77126190D02*
X148819047Y-77530952D01*
X148842857Y-77578571D01*
X148866666Y-77602380D01*
X148914285Y-77626190D01*
X149009523Y-77626190D01*
X149057142Y-77602380D01*
X149080952Y-77578571D01*
X149104761Y-77530952D01*
X149104761Y-77126190D01*
X149604761Y-77626190D02*
X149319047Y-77626190D01*
X149461904Y-77626190D02*
X149461904Y-77126190D01*
X149414285Y-77197619D01*
X149366666Y-77245238D01*
X149319047Y-77269047D01*
X130169047Y-83576190D02*
X130169047Y-83980952D01*
X130192857Y-84028571D01*
X130216666Y-84052380D01*
X130264285Y-84076190D01*
X130359523Y-84076190D01*
X130407142Y-84052380D01*
X130430952Y-84028571D01*
X130454761Y-83980952D01*
X130454761Y-83576190D01*
X130669047Y-83623809D02*
X130692857Y-83600000D01*
X130740476Y-83576190D01*
X130859523Y-83576190D01*
X130907142Y-83600000D01*
X130930952Y-83623809D01*
X130954761Y-83671428D01*
X130954761Y-83719047D01*
X130930952Y-83790476D01*
X130645238Y-84076190D01*
X130954761Y-84076190D01*
X141169047Y-79276190D02*
X141169047Y-79680952D01*
X141192857Y-79728571D01*
X141216666Y-79752380D01*
X141264285Y-79776190D01*
X141359523Y-79776190D01*
X141407142Y-79752380D01*
X141430952Y-79728571D01*
X141454761Y-79680952D01*
X141454761Y-79276190D01*
X141907142Y-79442857D02*
X141907142Y-79776190D01*
X141788095Y-79252380D02*
X141669047Y-79609523D01*
X141978571Y-79609523D01*
X139119047Y-66476190D02*
X139119047Y-66880952D01*
X139142857Y-66928571D01*
X139166666Y-66952380D01*
X139214285Y-66976190D01*
X139309523Y-66976190D01*
X139357142Y-66952380D01*
X139380952Y-66928571D01*
X139404761Y-66880952D01*
X139404761Y-66476190D01*
X139880952Y-66476190D02*
X139642857Y-66476190D01*
X139619047Y-66714285D01*
X139642857Y-66690476D01*
X139690476Y-66666666D01*
X139809523Y-66666666D01*
X139857142Y-66690476D01*
X139880952Y-66714285D01*
X139904761Y-66761904D01*
X139904761Y-66880952D01*
X139880952Y-66928571D01*
X139857142Y-66952380D01*
X139809523Y-66976190D01*
X139690476Y-66976190D01*
X139642857Y-66952380D01*
X139619047Y-66928571D01*
D13*
X139276190Y-60780952D02*
X139542857Y-61180952D01*
X139542857Y-60780952D02*
X139276190Y-61180952D01*
X139904761Y-61180952D02*
X139676190Y-61180952D01*
X139790476Y-61180952D02*
X139790476Y-60780952D01*
X139752380Y-60838095D01*
X139714285Y-60876190D01*
X139676190Y-60895238D01*
D12*
X119947619Y-69376190D02*
X120066666Y-69876190D01*
X120161904Y-69519047D01*
X120257142Y-69876190D01*
X120376190Y-69376190D01*
X120828571Y-69876190D02*
X120542857Y-69876190D01*
X120685714Y-69876190D02*
X120685714Y-69376190D01*
X120638095Y-69447619D01*
X120590476Y-69495238D01*
X120542857Y-69519047D01*
X130826190Y-83102380D02*
X131326190Y-82983333D01*
X130969047Y-82888095D01*
X131326190Y-82792857D01*
X130826190Y-82673809D01*
X130826190Y-82269047D02*
X130826190Y-82364285D01*
X130850000Y-82411904D01*
X130873809Y-82435714D01*
X130945238Y-82483333D01*
X131040476Y-82507142D01*
X131230952Y-82507142D01*
X131278571Y-82483333D01*
X131302380Y-82459523D01*
X131326190Y-82411904D01*
X131326190Y-82316666D01*
X131302380Y-82269047D01*
X131278571Y-82245238D01*
X131230952Y-82221428D01*
X131111904Y-82221428D01*
X131064285Y-82245238D01*
X131040476Y-82269047D01*
X131016666Y-82316666D01*
X131016666Y-82411904D01*
X131040476Y-82459523D01*
X131064285Y-82483333D01*
X131111904Y-82507142D01*
X131776190Y-83102380D02*
X132276190Y-82983333D01*
X131919047Y-82888095D01*
X132276190Y-82792857D01*
X131776190Y-82673809D01*
X131776190Y-82530952D02*
X131776190Y-82197619D01*
X132276190Y-82411904D01*
X132726190Y-83102380D02*
X133226190Y-82983333D01*
X132869047Y-82888095D01*
X133226190Y-82792857D01*
X132726190Y-82673809D01*
X132940476Y-82411904D02*
X132916666Y-82459523D01*
X132892857Y-82483333D01*
X132845238Y-82507142D01*
X132821428Y-82507142D01*
X132773809Y-82483333D01*
X132750000Y-82459523D01*
X132726190Y-82411904D01*
X132726190Y-82316666D01*
X132750000Y-82269047D01*
X132773809Y-82245238D01*
X132821428Y-82221428D01*
X132845238Y-82221428D01*
X132892857Y-82245238D01*
X132916666Y-82269047D01*
X132940476Y-82316666D01*
X132940476Y-82411904D01*
X132964285Y-82459523D01*
X132988095Y-82483333D01*
X133035714Y-82507142D01*
X133130952Y-82507142D01*
X133178571Y-82483333D01*
X133202380Y-82459523D01*
X133226190Y-82411904D01*
X133226190Y-82316666D01*
X133202380Y-82269047D01*
X133178571Y-82245238D01*
X133130952Y-82221428D01*
X133035714Y-82221428D01*
X132988095Y-82245238D01*
X132964285Y-82269047D01*
X132940476Y-82316666D01*
X129876190Y-83077380D02*
X130376190Y-82958333D01*
X130019047Y-82863095D01*
X130376190Y-82767857D01*
X129876190Y-82648809D01*
X129876190Y-82220238D02*
X129876190Y-82458333D01*
X130114285Y-82482142D01*
X130090476Y-82458333D01*
X130066666Y-82410714D01*
X130066666Y-82291666D01*
X130090476Y-82244047D01*
X130114285Y-82220238D01*
X130161904Y-82196428D01*
X130280952Y-82196428D01*
X130328571Y-82220238D01*
X130352380Y-82244047D01*
X130376190Y-82291666D01*
X130376190Y-82410714D01*
X130352380Y-82458333D01*
X130328571Y-82482142D01*
X119947619Y-72376190D02*
X120066666Y-72876190D01*
X120161904Y-72519047D01*
X120257142Y-72876190D01*
X120376190Y-72376190D01*
X120780952Y-72542857D02*
X120780952Y-72876190D01*
X120661904Y-72352380D02*
X120542857Y-72709523D01*
X120852380Y-72709523D01*
X119947619Y-71376190D02*
X120066666Y-71876190D01*
X120161904Y-71519047D01*
X120257142Y-71876190D01*
X120376190Y-71376190D01*
X120519047Y-71376190D02*
X120828571Y-71376190D01*
X120661904Y-71566666D01*
X120733333Y-71566666D01*
X120780952Y-71590476D01*
X120804761Y-71614285D01*
X120828571Y-71661904D01*
X120828571Y-71780952D01*
X120804761Y-71828571D01*
X120780952Y-71852380D01*
X120733333Y-71876190D01*
X120590476Y-71876190D01*
X120542857Y-71852380D01*
X120519047Y-71828571D01*
X119947619Y-70376190D02*
X120066666Y-70876190D01*
X120161904Y-70519047D01*
X120257142Y-70876190D01*
X120376190Y-70376190D01*
X120542857Y-70423809D02*
X120566666Y-70400000D01*
X120614285Y-70376190D01*
X120733333Y-70376190D01*
X120780952Y-70400000D01*
X120804761Y-70423809D01*
X120828571Y-70471428D01*
X120828571Y-70519047D01*
X120804761Y-70590476D01*
X120519047Y-70876190D01*
X120828571Y-70876190D01*
X140314285Y-87966666D02*
X140314285Y-88133333D01*
X140576190Y-88133333D02*
X140076190Y-88133333D01*
X140076190Y-87895238D01*
X140123809Y-87728571D02*
X140100000Y-87704761D01*
X140076190Y-87657142D01*
X140076190Y-87538095D01*
X140100000Y-87490476D01*
X140123809Y-87466666D01*
X140171428Y-87442857D01*
X140219047Y-87442857D01*
X140290476Y-87466666D01*
X140576190Y-87752380D01*
X140576190Y-87442857D01*
X149414285Y-81266666D02*
X149414285Y-81433333D01*
X149676190Y-81433333D02*
X149176190Y-81433333D01*
X149176190Y-81195238D01*
X149676190Y-80742857D02*
X149676190Y-81028571D01*
X149676190Y-80885714D02*
X149176190Y-80885714D01*
X149247619Y-80933333D01*
X149295238Y-80980952D01*
X149319047Y-81028571D01*
D14*
X117035714Y-76450000D02*
X116892857Y-76550000D01*
X117035714Y-76621428D02*
X116735714Y-76621428D01*
X116735714Y-76507142D01*
X116750000Y-76478571D01*
X116764285Y-76464285D01*
X116792857Y-76450000D01*
X116835714Y-76450000D01*
X116864285Y-76464285D01*
X116878571Y-76478571D01*
X116892857Y-76507142D01*
X116892857Y-76621428D01*
X116835714Y-76192857D02*
X117035714Y-76192857D01*
X116721428Y-76264285D02*
X116935714Y-76335714D01*
X116935714Y-76150000D01*
X120285714Y-66442857D02*
X120142857Y-66542857D01*
X120285714Y-66614285D02*
X119985714Y-66614285D01*
X119985714Y-66500000D01*
X120000000Y-66471428D01*
X120014285Y-66457142D01*
X120042857Y-66442857D01*
X120085714Y-66442857D01*
X120114285Y-66457142D01*
X120128571Y-66471428D01*
X120142857Y-66500000D01*
X120142857Y-66614285D01*
X120285714Y-66157142D02*
X120285714Y-66328571D01*
X120285714Y-66242857D02*
X119985714Y-66242857D01*
X120028571Y-66271428D01*
X120057142Y-66300000D01*
X120071428Y-66328571D01*
X119985714Y-65971428D02*
X119985714Y-65942857D01*
X120000000Y-65914285D01*
X120014285Y-65900000D01*
X120042857Y-65885714D01*
X120100000Y-65871428D01*
X120171428Y-65871428D01*
X120228571Y-65885714D01*
X120257142Y-65900000D01*
X120271428Y-65914285D01*
X120285714Y-65942857D01*
X120285714Y-65971428D01*
X120271428Y-66000000D01*
X120257142Y-66014285D01*
X120228571Y-66028571D01*
X120171428Y-66042857D01*
X120100000Y-66042857D01*
X120042857Y-66028571D01*
X120014285Y-66014285D01*
X120000000Y-66000000D01*
X119985714Y-65971428D01*
X120280450Y-64700000D02*
X120137593Y-64800000D01*
X120280450Y-64871428D02*
X119980450Y-64871428D01*
X119980450Y-64757142D01*
X119994736Y-64728571D01*
X120009021Y-64714285D01*
X120037593Y-64700000D01*
X120080450Y-64700000D01*
X120109021Y-64714285D01*
X120123307Y-64728571D01*
X120137593Y-64757142D01*
X120137593Y-64871428D01*
X120280450Y-64557142D02*
X120280450Y-64500000D01*
X120266164Y-64471428D01*
X120251878Y-64457142D01*
X120209021Y-64428571D01*
X120151878Y-64414285D01*
X120037593Y-64414285D01*
X120009021Y-64428571D01*
X119994736Y-64442857D01*
X119980450Y-64471428D01*
X119980450Y-64528571D01*
X119994736Y-64557142D01*
X120009021Y-64571428D01*
X120037593Y-64585714D01*
X120109021Y-64585714D01*
X120137593Y-64571428D01*
X120151878Y-64557142D01*
X120166164Y-64528571D01*
X120166164Y-64471428D01*
X120151878Y-64442857D01*
X120137593Y-64428571D01*
X120109021Y-64414285D01*
X120285714Y-63100000D02*
X120142857Y-63200000D01*
X120285714Y-63271428D02*
X119985714Y-63271428D01*
X119985714Y-63157142D01*
X120000000Y-63128571D01*
X120014285Y-63114285D01*
X120042857Y-63100000D01*
X120085714Y-63100000D01*
X120114285Y-63114285D01*
X120128571Y-63128571D01*
X120142857Y-63157142D01*
X120142857Y-63271428D01*
X120114285Y-62928571D02*
X120100000Y-62957142D01*
X120085714Y-62971428D01*
X120057142Y-62985714D01*
X120042857Y-62985714D01*
X120014285Y-62971428D01*
X120000000Y-62957142D01*
X119985714Y-62928571D01*
X119985714Y-62871428D01*
X120000000Y-62842857D01*
X120014285Y-62828571D01*
X120042857Y-62814285D01*
X120057142Y-62814285D01*
X120085714Y-62828571D01*
X120100000Y-62842857D01*
X120114285Y-62871428D01*
X120114285Y-62928571D01*
X120128571Y-62957142D01*
X120142857Y-62971428D01*
X120171428Y-62985714D01*
X120228571Y-62985714D01*
X120257142Y-62971428D01*
X120271428Y-62957142D01*
X120285714Y-62928571D01*
X120285714Y-62871428D01*
X120271428Y-62842857D01*
X120257142Y-62828571D01*
X120228571Y-62814285D01*
X120171428Y-62814285D01*
X120142857Y-62828571D01*
X120128571Y-62842857D01*
X120114285Y-62871428D01*
X120285714Y-61500000D02*
X120142857Y-61600000D01*
X120285714Y-61671428D02*
X119985714Y-61671428D01*
X119985714Y-61557142D01*
X120000000Y-61528571D01*
X120014285Y-61514285D01*
X120042857Y-61500000D01*
X120085714Y-61500000D01*
X120114285Y-61514285D01*
X120128571Y-61528571D01*
X120142857Y-61557142D01*
X120142857Y-61671428D01*
X119985714Y-61400000D02*
X119985714Y-61200000D01*
X120285714Y-61328571D01*
X117035714Y-79650000D02*
X116892857Y-79750000D01*
X117035714Y-79821428D02*
X116735714Y-79821428D01*
X116735714Y-79707142D01*
X116750000Y-79678571D01*
X116764285Y-79664285D01*
X116792857Y-79650000D01*
X116835714Y-79650000D01*
X116864285Y-79664285D01*
X116878571Y-79678571D01*
X116892857Y-79707142D01*
X116892857Y-79821428D01*
X116735714Y-79392857D02*
X116735714Y-79450000D01*
X116750000Y-79478571D01*
X116764285Y-79492857D01*
X116807142Y-79521428D01*
X116864285Y-79535714D01*
X116978571Y-79535714D01*
X117007142Y-79521428D01*
X117021428Y-79507142D01*
X117035714Y-79478571D01*
X117035714Y-79421428D01*
X117021428Y-79392857D01*
X117007142Y-79378571D01*
X116978571Y-79364285D01*
X116907142Y-79364285D01*
X116878571Y-79378571D01*
X116864285Y-79392857D01*
X116850000Y-79421428D01*
X116850000Y-79478571D01*
X116864285Y-79507142D01*
X116878571Y-79521428D01*
X116907142Y-79535714D01*
X117035714Y-78050000D02*
X116892857Y-78150000D01*
X117035714Y-78221428D02*
X116735714Y-78221428D01*
X116735714Y-78107142D01*
X116750000Y-78078571D01*
X116764285Y-78064285D01*
X116792857Y-78050000D01*
X116835714Y-78050000D01*
X116864285Y-78064285D01*
X116878571Y-78078571D01*
X116892857Y-78107142D01*
X116892857Y-78221428D01*
X116735714Y-77778571D02*
X116735714Y-77921428D01*
X116878571Y-77935714D01*
X116864285Y-77921428D01*
X116850000Y-77892857D01*
X116850000Y-77821428D01*
X116864285Y-77792857D01*
X116878571Y-77778571D01*
X116907142Y-77764285D01*
X116978571Y-77764285D01*
X117007142Y-77778571D01*
X117021428Y-77792857D01*
X117035714Y-77821428D01*
X117035714Y-77892857D01*
X117021428Y-77921428D01*
X117007142Y-77935714D01*
X138250000Y-85485714D02*
X138150000Y-85342857D01*
X138078571Y-85485714D02*
X138078571Y-85185714D01*
X138192857Y-85185714D01*
X138221428Y-85200000D01*
X138235714Y-85214285D01*
X138250000Y-85242857D01*
X138250000Y-85285714D01*
X138235714Y-85314285D01*
X138221428Y-85328571D01*
X138192857Y-85342857D01*
X138078571Y-85342857D01*
X138535714Y-85485714D02*
X138364285Y-85485714D01*
X138450000Y-85485714D02*
X138450000Y-85185714D01*
X138421428Y-85228571D01*
X138392857Y-85257142D01*
X138364285Y-85271428D01*
X127950000Y-61435714D02*
X127850000Y-61292857D01*
X127778571Y-61435714D02*
X127778571Y-61135714D01*
X127892857Y-61135714D01*
X127921428Y-61150000D01*
X127935714Y-61164285D01*
X127950000Y-61192857D01*
X127950000Y-61235714D01*
X127935714Y-61264285D01*
X127921428Y-61278571D01*
X127892857Y-61292857D01*
X127778571Y-61292857D01*
X128064285Y-61164285D02*
X128078571Y-61150000D01*
X128107142Y-61135714D01*
X128178571Y-61135714D01*
X128207142Y-61150000D01*
X128221428Y-61164285D01*
X128235714Y-61192857D01*
X128235714Y-61221428D01*
X128221428Y-61264285D01*
X128050000Y-61435714D01*
X128235714Y-61435714D01*
X117035714Y-74850000D02*
X116892857Y-74950000D01*
X117035714Y-75021428D02*
X116735714Y-75021428D01*
X116735714Y-74907142D01*
X116750000Y-74878571D01*
X116764285Y-74864285D01*
X116792857Y-74850000D01*
X116835714Y-74850000D01*
X116864285Y-74864285D01*
X116878571Y-74878571D01*
X116892857Y-74907142D01*
X116892857Y-75021428D01*
X116735714Y-74750000D02*
X116735714Y-74564285D01*
X116850000Y-74664285D01*
X116850000Y-74621428D01*
X116864285Y-74592857D01*
X116878571Y-74578571D01*
X116907142Y-74564285D01*
X116978571Y-74564285D01*
X117007142Y-74578571D01*
X117021428Y-74592857D01*
X117035714Y-74621428D01*
X117035714Y-74707142D01*
X117021428Y-74735714D01*
X117007142Y-74750000D01*
D12*
X150428571Y-85521428D02*
X150452380Y-85545238D01*
X150476190Y-85616666D01*
X150476190Y-85664285D01*
X150452380Y-85735714D01*
X150404761Y-85783333D01*
X150357142Y-85807142D01*
X150261904Y-85830952D01*
X150190476Y-85830952D01*
X150095238Y-85807142D01*
X150047619Y-85783333D01*
X150000000Y-85735714D01*
X149976190Y-85664285D01*
X149976190Y-85616666D01*
X150000000Y-85545238D01*
X150023809Y-85521428D01*
X150476190Y-85045238D02*
X150476190Y-85330952D01*
X150476190Y-85188095D02*
X149976190Y-85188095D01*
X150047619Y-85235714D01*
X150095238Y-85283333D01*
X150119047Y-85330952D01*
X149976190Y-84735714D02*
X149976190Y-84688095D01*
X150000000Y-84640476D01*
X150023809Y-84616666D01*
X150071428Y-84592857D01*
X150166666Y-84569047D01*
X150285714Y-84569047D01*
X150380952Y-84592857D01*
X150428571Y-84616666D01*
X150452380Y-84640476D01*
X150476190Y-84688095D01*
X150476190Y-84735714D01*
X150452380Y-84783333D01*
X150428571Y-84807142D01*
X150380952Y-84830952D01*
X150285714Y-84854761D01*
X150166666Y-84854761D01*
X150071428Y-84830952D01*
X150023809Y-84807142D01*
X150000000Y-84783333D01*
X149976190Y-84735714D01*
D14*
X120507142Y-87680000D02*
X120521428Y-87694285D01*
X120535714Y-87737142D01*
X120535714Y-87765714D01*
X120521428Y-87808571D01*
X120492857Y-87837142D01*
X120464285Y-87851428D01*
X120407142Y-87865714D01*
X120364285Y-87865714D01*
X120307142Y-87851428D01*
X120278571Y-87837142D01*
X120250000Y-87808571D01*
X120235714Y-87765714D01*
X120235714Y-87737142D01*
X120250000Y-87694285D01*
X120264285Y-87680000D01*
X120235714Y-87580000D02*
X120235714Y-87380000D01*
X120535714Y-87508571D01*
X146357142Y-71050000D02*
X146371428Y-71064285D01*
X146385714Y-71107142D01*
X146385714Y-71135714D01*
X146371428Y-71178571D01*
X146342857Y-71207142D01*
X146314285Y-71221428D01*
X146257142Y-71235714D01*
X146214285Y-71235714D01*
X146157142Y-71221428D01*
X146128571Y-71207142D01*
X146100000Y-71178571D01*
X146085714Y-71135714D01*
X146085714Y-71107142D01*
X146100000Y-71064285D01*
X146114285Y-71050000D01*
X146385714Y-70764285D02*
X146385714Y-70935714D01*
X146385714Y-70850000D02*
X146085714Y-70850000D01*
X146128571Y-70878571D01*
X146157142Y-70907142D01*
X146171428Y-70935714D01*
X131407142Y-61157142D02*
X131392857Y-61171428D01*
X131350000Y-61185714D01*
X131321428Y-61185714D01*
X131278571Y-61171428D01*
X131250000Y-61142857D01*
X131235714Y-61114285D01*
X131221428Y-61057142D01*
X131221428Y-61014285D01*
X131235714Y-60957142D01*
X131250000Y-60928571D01*
X131278571Y-60900000D01*
X131321428Y-60885714D01*
X131350000Y-60885714D01*
X131392857Y-60900000D01*
X131407142Y-60914285D01*
X131692857Y-61185714D02*
X131521428Y-61185714D01*
X131607142Y-61185714D02*
X131607142Y-60885714D01*
X131578571Y-60928571D01*
X131550000Y-60957142D01*
X131521428Y-60971428D01*
X131864285Y-61014285D02*
X131835714Y-61000000D01*
X131821428Y-60985714D01*
X131807142Y-60957142D01*
X131807142Y-60942857D01*
X131821428Y-60914285D01*
X131835714Y-60900000D01*
X131864285Y-60885714D01*
X131921428Y-60885714D01*
X131950000Y-60900000D01*
X131964285Y-60914285D01*
X131978571Y-60942857D01*
X131978571Y-60957142D01*
X131964285Y-60985714D01*
X131950000Y-61000000D01*
X131921428Y-61014285D01*
X131864285Y-61014285D01*
X131835714Y-61028571D01*
X131821428Y-61042857D01*
X131807142Y-61071428D01*
X131807142Y-61128571D01*
X131821428Y-61157142D01*
X131835714Y-61171428D01*
X131864285Y-61185714D01*
X131921428Y-61185714D01*
X131950000Y-61171428D01*
X131964285Y-61157142D01*
X131978571Y-61128571D01*
X131978571Y-61071428D01*
X131964285Y-61042857D01*
X131950000Y-61028571D01*
X131921428Y-61014285D01*
X139807142Y-64657142D02*
X139792857Y-64671428D01*
X139750000Y-64685714D01*
X139721428Y-64685714D01*
X139678571Y-64671428D01*
X139650000Y-64642857D01*
X139635714Y-64614285D01*
X139621428Y-64557142D01*
X139621428Y-64514285D01*
X139635714Y-64457142D01*
X139650000Y-64428571D01*
X139678571Y-64400000D01*
X139721428Y-64385714D01*
X139750000Y-64385714D01*
X139792857Y-64400000D01*
X139807142Y-64414285D01*
X140092857Y-64685714D02*
X139921428Y-64685714D01*
X140007142Y-64685714D02*
X140007142Y-64385714D01*
X139978571Y-64428571D01*
X139950000Y-64457142D01*
X139921428Y-64471428D01*
X140192857Y-64385714D02*
X140392857Y-64385714D01*
X140264285Y-64685714D01*
X126857142Y-87822857D02*
X126871428Y-87837142D01*
X126885714Y-87880000D01*
X126885714Y-87908571D01*
X126871428Y-87951428D01*
X126842857Y-87980000D01*
X126814285Y-87994285D01*
X126757142Y-88008571D01*
X126714285Y-88008571D01*
X126657142Y-87994285D01*
X126628571Y-87980000D01*
X126600000Y-87951428D01*
X126585714Y-87908571D01*
X126585714Y-87880000D01*
X126600000Y-87837142D01*
X126614285Y-87822857D01*
X126885714Y-87537142D02*
X126885714Y-87708571D01*
X126885714Y-87622857D02*
X126585714Y-87622857D01*
X126628571Y-87651428D01*
X126657142Y-87680000D01*
X126671428Y-87708571D01*
X126585714Y-87437142D02*
X126585714Y-87251428D01*
X126700000Y-87351428D01*
X126700000Y-87308571D01*
X126714285Y-87280000D01*
X126728571Y-87265714D01*
X126757142Y-87251428D01*
X126828571Y-87251428D01*
X126857142Y-87265714D01*
X126871428Y-87280000D01*
X126885714Y-87308571D01*
X126885714Y-87394285D01*
X126871428Y-87422857D01*
X126857142Y-87437142D01*
X139757142Y-83607142D02*
X139742857Y-83621428D01*
X139700000Y-83635714D01*
X139671428Y-83635714D01*
X139628571Y-83621428D01*
X139600000Y-83592857D01*
X139585714Y-83564285D01*
X139571428Y-83507142D01*
X139571428Y-83464285D01*
X139585714Y-83407142D01*
X139600000Y-83378571D01*
X139628571Y-83350000D01*
X139671428Y-83335714D01*
X139700000Y-83335714D01*
X139742857Y-83350000D01*
X139757142Y-83364285D01*
X140042857Y-83635714D02*
X139871428Y-83635714D01*
X139957142Y-83635714D02*
X139957142Y-83335714D01*
X139928571Y-83378571D01*
X139900000Y-83407142D01*
X139871428Y-83421428D01*
X140157142Y-83364285D02*
X140171428Y-83350000D01*
X140200000Y-83335714D01*
X140271428Y-83335714D01*
X140300000Y-83350000D01*
X140314285Y-83364285D01*
X140328571Y-83392857D01*
X140328571Y-83421428D01*
X140314285Y-83464285D01*
X140142857Y-83635714D01*
X140328571Y-83635714D01*
X145657142Y-83657142D02*
X145642857Y-83671428D01*
X145600000Y-83685714D01*
X145571428Y-83685714D01*
X145528571Y-83671428D01*
X145500000Y-83642857D01*
X145485714Y-83614285D01*
X145471428Y-83557142D01*
X145471428Y-83514285D01*
X145485714Y-83457142D01*
X145500000Y-83428571D01*
X145528571Y-83400000D01*
X145571428Y-83385714D01*
X145600000Y-83385714D01*
X145642857Y-83400000D01*
X145657142Y-83414285D01*
X145942857Y-83685714D02*
X145771428Y-83685714D01*
X145857142Y-83685714D02*
X145857142Y-83385714D01*
X145828571Y-83428571D01*
X145800000Y-83457142D01*
X145771428Y-83471428D01*
X146228571Y-83685714D02*
X146057142Y-83685714D01*
X146142857Y-83685714D02*
X146142857Y-83385714D01*
X146114285Y-83428571D01*
X146085714Y-83457142D01*
X146057142Y-83471428D01*
X127950000Y-80807142D02*
X127935714Y-80821428D01*
X127892857Y-80835714D01*
X127864285Y-80835714D01*
X127821428Y-80821428D01*
X127792857Y-80792857D01*
X127778571Y-80764285D01*
X127764285Y-80707142D01*
X127764285Y-80664285D01*
X127778571Y-80607142D01*
X127792857Y-80578571D01*
X127821428Y-80550000D01*
X127864285Y-80535714D01*
X127892857Y-80535714D01*
X127935714Y-80550000D01*
X127950000Y-80564285D01*
X128121428Y-80664285D02*
X128092857Y-80650000D01*
X128078571Y-80635714D01*
X128064285Y-80607142D01*
X128064285Y-80592857D01*
X128078571Y-80564285D01*
X128092857Y-80550000D01*
X128121428Y-80535714D01*
X128178571Y-80535714D01*
X128207142Y-80550000D01*
X128221428Y-80564285D01*
X128235714Y-80592857D01*
X128235714Y-80607142D01*
X128221428Y-80635714D01*
X128207142Y-80650000D01*
X128178571Y-80664285D01*
X128121428Y-80664285D01*
X128092857Y-80678571D01*
X128078571Y-80692857D01*
X128064285Y-80721428D01*
X128064285Y-80778571D01*
X128078571Y-80807142D01*
X128092857Y-80821428D01*
X128121428Y-80835714D01*
X128178571Y-80835714D01*
X128207142Y-80821428D01*
X128221428Y-80807142D01*
X128235714Y-80778571D01*
X128235714Y-80721428D01*
X128221428Y-80692857D01*
X128207142Y-80678571D01*
X128178571Y-80664285D01*
X128207142Y-85525000D02*
X128221428Y-85539285D01*
X128235714Y-85582142D01*
X128235714Y-85610714D01*
X128221428Y-85653571D01*
X128192857Y-85682142D01*
X128164285Y-85696428D01*
X128107142Y-85710714D01*
X128064285Y-85710714D01*
X128007142Y-85696428D01*
X127978571Y-85682142D01*
X127950000Y-85653571D01*
X127935714Y-85610714D01*
X127935714Y-85582142D01*
X127950000Y-85539285D01*
X127964285Y-85525000D01*
X127935714Y-85267857D02*
X127935714Y-85325000D01*
X127950000Y-85353571D01*
X127964285Y-85367857D01*
X128007142Y-85396428D01*
X128064285Y-85410714D01*
X128178571Y-85410714D01*
X128207142Y-85396428D01*
X128221428Y-85382142D01*
X128235714Y-85353571D01*
X128235714Y-85296428D01*
X128221428Y-85267857D01*
X128207142Y-85253571D01*
X128178571Y-85239285D01*
X128107142Y-85239285D01*
X128078571Y-85253571D01*
X128064285Y-85267857D01*
X128050000Y-85296428D01*
X128050000Y-85353571D01*
X128064285Y-85382142D01*
X128078571Y-85396428D01*
X128107142Y-85410714D01*
X142257142Y-78250000D02*
X142271428Y-78264285D01*
X142285714Y-78307142D01*
X142285714Y-78335714D01*
X142271428Y-78378571D01*
X142242857Y-78407142D01*
X142214285Y-78421428D01*
X142157142Y-78435714D01*
X142114285Y-78435714D01*
X142057142Y-78421428D01*
X142028571Y-78407142D01*
X142000000Y-78378571D01*
X141985714Y-78335714D01*
X141985714Y-78307142D01*
X142000000Y-78264285D01*
X142014285Y-78250000D01*
X141985714Y-77978571D02*
X141985714Y-78121428D01*
X142128571Y-78135714D01*
X142114285Y-78121428D01*
X142100000Y-78092857D01*
X142100000Y-78021428D01*
X142114285Y-77992857D01*
X142128571Y-77978571D01*
X142157142Y-77964285D01*
X142228571Y-77964285D01*
X142257142Y-77978571D01*
X142271428Y-77992857D01*
X142285714Y-78021428D01*
X142285714Y-78092857D01*
X142271428Y-78121428D01*
X142257142Y-78135714D01*
X129857142Y-78450000D02*
X129871428Y-78464285D01*
X129885714Y-78507142D01*
X129885714Y-78535714D01*
X129871428Y-78578571D01*
X129842857Y-78607142D01*
X129814285Y-78621428D01*
X129757142Y-78635714D01*
X129714285Y-78635714D01*
X129657142Y-78621428D01*
X129628571Y-78607142D01*
X129600000Y-78578571D01*
X129585714Y-78535714D01*
X129585714Y-78507142D01*
X129600000Y-78464285D01*
X129614285Y-78450000D01*
X129685714Y-78192857D02*
X129885714Y-78192857D01*
X129571428Y-78264285D02*
X129785714Y-78335714D01*
X129785714Y-78150000D01*
X126550000Y-67307142D02*
X126535714Y-67321428D01*
X126492857Y-67335714D01*
X126464285Y-67335714D01*
X126421428Y-67321428D01*
X126392857Y-67292857D01*
X126378571Y-67264285D01*
X126364285Y-67207142D01*
X126364285Y-67164285D01*
X126378571Y-67107142D01*
X126392857Y-67078571D01*
X126421428Y-67050000D01*
X126464285Y-67035714D01*
X126492857Y-67035714D01*
X126535714Y-67050000D01*
X126550000Y-67064285D01*
X126650000Y-67035714D02*
X126835714Y-67035714D01*
X126735714Y-67150000D01*
X126778571Y-67150000D01*
X126807142Y-67164285D01*
X126821428Y-67178571D01*
X126835714Y-67207142D01*
X126835714Y-67278571D01*
X126821428Y-67307142D01*
X126807142Y-67321428D01*
X126778571Y-67335714D01*
X126692857Y-67335714D01*
X126664285Y-67321428D01*
X126650000Y-67307142D01*
X142050000Y-69857142D02*
X142035714Y-69871428D01*
X141992857Y-69885714D01*
X141964285Y-69885714D01*
X141921428Y-69871428D01*
X141892857Y-69842857D01*
X141878571Y-69814285D01*
X141864285Y-69757142D01*
X141864285Y-69714285D01*
X141878571Y-69657142D01*
X141892857Y-69628571D01*
X141921428Y-69600000D01*
X141964285Y-69585714D01*
X141992857Y-69585714D01*
X142035714Y-69600000D01*
X142050000Y-69614285D01*
X142164285Y-69614285D02*
X142178571Y-69600000D01*
X142207142Y-69585714D01*
X142278571Y-69585714D01*
X142307142Y-69600000D01*
X142321428Y-69614285D01*
X142335714Y-69642857D01*
X142335714Y-69671428D01*
X142321428Y-69714285D01*
X142150000Y-69885714D01*
X142335714Y-69885714D01*
X134182142Y-81050000D02*
X134196428Y-81064285D01*
X134210714Y-81107142D01*
X134210714Y-81135714D01*
X134196428Y-81178571D01*
X134167857Y-81207142D01*
X134139285Y-81221428D01*
X134082142Y-81235714D01*
X134039285Y-81235714D01*
X133982142Y-81221428D01*
X133953571Y-81207142D01*
X133925000Y-81178571D01*
X133910714Y-81135714D01*
X133910714Y-81107142D01*
X133925000Y-81064285D01*
X133939285Y-81050000D01*
X134210714Y-80907142D02*
X134210714Y-80850000D01*
X134196428Y-80821428D01*
X134182142Y-80807142D01*
X134139285Y-80778571D01*
X134082142Y-80764285D01*
X133967857Y-80764285D01*
X133939285Y-80778571D01*
X133925000Y-80792857D01*
X133910714Y-80821428D01*
X133910714Y-80878571D01*
X133925000Y-80907142D01*
X133939285Y-80921428D01*
X133967857Y-80935714D01*
X134039285Y-80935714D01*
X134067857Y-80921428D01*
X134082142Y-80907142D01*
X134096428Y-80878571D01*
X134096428Y-80821428D01*
X134082142Y-80792857D01*
X134067857Y-80778571D01*
X134039285Y-80764285D01*
D12*
X119579047Y-82526190D02*
X119579047Y-82930952D01*
X119602857Y-82978571D01*
X119626666Y-83002380D01*
X119674285Y-83026190D01*
X119769523Y-83026190D01*
X119817142Y-83002380D01*
X119840952Y-82978571D01*
X119864761Y-82930952D01*
X119864761Y-82526190D01*
X120055238Y-82526190D02*
X120364761Y-82526190D01*
X120198095Y-82716666D01*
X120269523Y-82716666D01*
X120317142Y-82740476D01*
X120340952Y-82764285D01*
X120364761Y-82811904D01*
X120364761Y-82930952D01*
X120340952Y-82978571D01*
X120317142Y-83002380D01*
X120269523Y-83026190D01*
X120126666Y-83026190D01*
X120079047Y-83002380D01*
X120055238Y-82978571D01*
X122630952Y-78226190D02*
X122630952Y-77726190D01*
X122750000Y-77726190D01*
X122821428Y-77750000D01*
X122869047Y-77797619D01*
X122892857Y-77845238D01*
X122916666Y-77940476D01*
X122916666Y-78011904D01*
X122892857Y-78107142D01*
X122869047Y-78154761D01*
X122821428Y-78202380D01*
X122750000Y-78226190D01*
X122630952Y-78226190D01*
X123130952Y-77964285D02*
X123297619Y-77964285D01*
X123369047Y-78226190D02*
X123130952Y-78226190D01*
X123130952Y-77726190D01*
X123369047Y-77726190D01*
X123750000Y-77964285D02*
X123821428Y-77988095D01*
X123845238Y-78011904D01*
X123869047Y-78059523D01*
X123869047Y-78130952D01*
X123845238Y-78178571D01*
X123821428Y-78202380D01*
X123773809Y-78226190D01*
X123583333Y-78226190D01*
X123583333Y-77726190D01*
X123750000Y-77726190D01*
X123797619Y-77750000D01*
X123821428Y-77773809D01*
X123845238Y-77821428D01*
X123845238Y-77869047D01*
X123821428Y-77916666D01*
X123797619Y-77940476D01*
X123750000Y-77964285D01*
X123583333Y-77964285D01*
X124083333Y-77726190D02*
X124083333Y-78130952D01*
X124107142Y-78178571D01*
X124130952Y-78202380D01*
X124178571Y-78226190D01*
X124273809Y-78226190D01*
X124321428Y-78202380D01*
X124345238Y-78178571D01*
X124369047Y-78130952D01*
X124369047Y-77726190D01*
X124869047Y-77750000D02*
X124821428Y-77726190D01*
X124750000Y-77726190D01*
X124678571Y-77750000D01*
X124630952Y-77797619D01*
X124607142Y-77845238D01*
X124583333Y-77940476D01*
X124583333Y-78011904D01*
X124607142Y-78107142D01*
X124630952Y-78154761D01*
X124678571Y-78202380D01*
X124750000Y-78226190D01*
X124797619Y-78226190D01*
X124869047Y-78202380D01*
X124892857Y-78178571D01*
X124892857Y-78011904D01*
X124797619Y-78011904D01*
X122633333Y-75026190D02*
X122633333Y-74526190D01*
X122823809Y-74526190D01*
X122871428Y-74550000D01*
X122895238Y-74573809D01*
X122919047Y-74621428D01*
X122919047Y-74692857D01*
X122895238Y-74740476D01*
X122871428Y-74764285D01*
X122823809Y-74788095D01*
X122633333Y-74788095D01*
X123085714Y-74526190D02*
X123204761Y-75026190D01*
X123300000Y-74669047D01*
X123395238Y-75026190D01*
X123514285Y-74526190D01*
X123990476Y-75026190D02*
X123823809Y-74788095D01*
X123704761Y-75026190D02*
X123704761Y-74526190D01*
X123895238Y-74526190D01*
X123942857Y-74550000D01*
X123966666Y-74573809D01*
X123990476Y-74621428D01*
X123990476Y-74692857D01*
X123966666Y-74740476D01*
X123942857Y-74764285D01*
X123895238Y-74788095D01*
X123704761Y-74788095D01*
X122611904Y-79802380D02*
X122683333Y-79826190D01*
X122802380Y-79826190D01*
X122850000Y-79802380D01*
X122873809Y-79778571D01*
X122897619Y-79730952D01*
X122897619Y-79683333D01*
X122873809Y-79635714D01*
X122850000Y-79611904D01*
X122802380Y-79588095D01*
X122707142Y-79564285D01*
X122659523Y-79540476D01*
X122635714Y-79516666D01*
X122611904Y-79469047D01*
X122611904Y-79421428D01*
X122635714Y-79373809D01*
X122659523Y-79350000D01*
X122707142Y-79326190D01*
X122826190Y-79326190D01*
X122897619Y-79350000D01*
X123040476Y-79326190D02*
X123326190Y-79326190D01*
X123183333Y-79826190D02*
X123183333Y-79326190D01*
X123469047Y-79683333D02*
X123707142Y-79683333D01*
X123421428Y-79826190D02*
X123588095Y-79326190D01*
X123754761Y-79826190D01*
X123850000Y-79326190D02*
X124135714Y-79326190D01*
X123992857Y-79826190D02*
X123992857Y-79326190D01*
X124302380Y-79326190D02*
X124302380Y-79730952D01*
X124326190Y-79778571D01*
X124350000Y-79802380D01*
X124397619Y-79826190D01*
X124492857Y-79826190D01*
X124540476Y-79802380D01*
X124564285Y-79778571D01*
X124588095Y-79730952D01*
X124588095Y-79326190D01*
X124802380Y-79802380D02*
X124873809Y-79826190D01*
X124992857Y-79826190D01*
X125040476Y-79802380D01*
X125064285Y-79778571D01*
X125088095Y-79730952D01*
X125088095Y-79683333D01*
X125064285Y-79635714D01*
X125040476Y-79611904D01*
X124992857Y-79588095D01*
X124897619Y-79564285D01*
X124850000Y-79540476D01*
X124826190Y-79516666D01*
X124802380Y-79469047D01*
X124802380Y-79421428D01*
X124826190Y-79373809D01*
X124850000Y-79350000D01*
X124897619Y-79326190D01*
X125016666Y-79326190D01*
X125088095Y-79350000D01*
X125869047Y-61176190D02*
X126154761Y-61176190D01*
X126011904Y-61676190D02*
X126011904Y-61176190D01*
X126273809Y-61176190D02*
X126607142Y-61676190D01*
X126607142Y-61176190D02*
X126273809Y-61676190D01*
X126166666Y-63251190D02*
X126000000Y-63013095D01*
X125880952Y-63251190D02*
X125880952Y-62751190D01*
X126071428Y-62751190D01*
X126119047Y-62775000D01*
X126142857Y-62798809D01*
X126166666Y-62846428D01*
X126166666Y-62917857D01*
X126142857Y-62965476D01*
X126119047Y-62989285D01*
X126071428Y-63013095D01*
X125880952Y-63013095D01*
X126333333Y-62751190D02*
X126666666Y-63251190D01*
X126666666Y-62751190D02*
X126333333Y-63251190D01*
X125867857Y-64852380D02*
X125939285Y-64876190D01*
X126058333Y-64876190D01*
X126105952Y-64852380D01*
X126129761Y-64828571D01*
X126153571Y-64780952D01*
X126153571Y-64733333D01*
X126129761Y-64685714D01*
X126105952Y-64661904D01*
X126058333Y-64638095D01*
X125963095Y-64614285D01*
X125915476Y-64590476D01*
X125891666Y-64566666D01*
X125867857Y-64519047D01*
X125867857Y-64471428D01*
X125891666Y-64423809D01*
X125915476Y-64400000D01*
X125963095Y-64376190D01*
X126082142Y-64376190D01*
X126153571Y-64400000D01*
X126534523Y-64614285D02*
X126367857Y-64614285D01*
X126367857Y-64876190D02*
X126367857Y-64376190D01*
X126605952Y-64376190D01*
X126796428Y-64876190D02*
X126796428Y-64376190D01*
X126915476Y-64376190D01*
X126986904Y-64400000D01*
X127034523Y-64447619D01*
X127058333Y-64495238D01*
X127082142Y-64590476D01*
X127082142Y-64661904D01*
X127058333Y-64757142D01*
X127034523Y-64804761D01*
X126986904Y-64852380D01*
X126915476Y-64876190D01*
X126796428Y-64876190D01*
X126189285Y-66476190D02*
X126022619Y-66238095D01*
X125903571Y-66476190D02*
X125903571Y-65976190D01*
X126094047Y-65976190D01*
X126141666Y-66000000D01*
X126165476Y-66023809D01*
X126189285Y-66071428D01*
X126189285Y-66142857D01*
X126165476Y-66190476D01*
X126141666Y-66214285D01*
X126094047Y-66238095D01*
X125903571Y-66238095D01*
X126355952Y-65976190D02*
X126689285Y-66476190D01*
X126689285Y-65976190D02*
X126355952Y-66476190D01*
X126760714Y-66523809D02*
X127141666Y-66523809D01*
X127355952Y-65976190D02*
X127451190Y-65976190D01*
X127498809Y-66000000D01*
X127546428Y-66047619D01*
X127570238Y-66142857D01*
X127570238Y-66309523D01*
X127546428Y-66404761D01*
X127498809Y-66452380D01*
X127451190Y-66476190D01*
X127355952Y-66476190D01*
X127308333Y-66452380D01*
X127260714Y-66404761D01*
X127236904Y-66309523D01*
X127236904Y-66142857D01*
X127260714Y-66047619D01*
X127308333Y-66000000D01*
X127355952Y-65976190D01*
X127784523Y-66476190D02*
X127784523Y-65976190D01*
X128070238Y-66476190D02*
X127855952Y-66190476D01*
X128070238Y-65976190D02*
X127784523Y-66261904D01*
X122630952Y-76414285D02*
X122797619Y-76414285D01*
X122869047Y-76676190D02*
X122630952Y-76676190D01*
X122630952Y-76176190D01*
X122869047Y-76176190D01*
X123369047Y-76676190D02*
X123202380Y-76438095D01*
X123083333Y-76676190D02*
X123083333Y-76176190D01*
X123273809Y-76176190D01*
X123321428Y-76200000D01*
X123345238Y-76223809D01*
X123369047Y-76271428D01*
X123369047Y-76342857D01*
X123345238Y-76390476D01*
X123321428Y-76414285D01*
X123273809Y-76438095D01*
X123083333Y-76438095D01*
X123869047Y-76676190D02*
X123702380Y-76438095D01*
X123583333Y-76676190D02*
X123583333Y-76176190D01*
X123773809Y-76176190D01*
X123821428Y-76200000D01*
X123845238Y-76223809D01*
X123869047Y-76271428D01*
X123869047Y-76342857D01*
X123845238Y-76390476D01*
X123821428Y-76414285D01*
X123773809Y-76438095D01*
X123583333Y-76438095D01*
X124178571Y-76176190D02*
X124273809Y-76176190D01*
X124321428Y-76200000D01*
X124369047Y-76247619D01*
X124392857Y-76342857D01*
X124392857Y-76509523D01*
X124369047Y-76604761D01*
X124321428Y-76652380D01*
X124273809Y-76676190D01*
X124178571Y-76676190D01*
X124130952Y-76652380D01*
X124083333Y-76604761D01*
X124059523Y-76509523D01*
X124059523Y-76342857D01*
X124083333Y-76247619D01*
X124130952Y-76200000D01*
X124178571Y-76176190D01*
X124892857Y-76676190D02*
X124726190Y-76438095D01*
X124607142Y-76676190D02*
X124607142Y-76176190D01*
X124797619Y-76176190D01*
X124845238Y-76200000D01*
X124869047Y-76223809D01*
X124892857Y-76271428D01*
X124892857Y-76342857D01*
X124869047Y-76390476D01*
X124845238Y-76414285D01*
X124797619Y-76438095D01*
X124607142Y-76438095D01*
D14*
X151035714Y-69792857D02*
X150892857Y-69892857D01*
X151035714Y-69964285D02*
X150735714Y-69964285D01*
X150735714Y-69850000D01*
X150750000Y-69821428D01*
X150764285Y-69807142D01*
X150792857Y-69792857D01*
X150835714Y-69792857D01*
X150864285Y-69807142D01*
X150878571Y-69821428D01*
X150892857Y-69850000D01*
X150892857Y-69964285D01*
X151035714Y-69507142D02*
X151035714Y-69678571D01*
X151035714Y-69592857D02*
X150735714Y-69592857D01*
X150778571Y-69621428D01*
X150807142Y-69650000D01*
X150821428Y-69678571D01*
X151035714Y-69221428D02*
X151035714Y-69392857D01*
X151035714Y-69307142D02*
X150735714Y-69307142D01*
X150778571Y-69335714D01*
X150807142Y-69364285D01*
X150821428Y-69392857D01*
X125407142Y-83035714D02*
X125307142Y-82892857D01*
X125235714Y-83035714D02*
X125235714Y-82735714D01*
X125350000Y-82735714D01*
X125378571Y-82750000D01*
X125392857Y-82764285D01*
X125407142Y-82792857D01*
X125407142Y-82835714D01*
X125392857Y-82864285D01*
X125378571Y-82878571D01*
X125350000Y-82892857D01*
X125235714Y-82892857D01*
X125692857Y-83035714D02*
X125521428Y-83035714D01*
X125607142Y-83035714D02*
X125607142Y-82735714D01*
X125578571Y-82778571D01*
X125550000Y-82807142D01*
X125521428Y-82821428D01*
X125807142Y-82764285D02*
X125821428Y-82750000D01*
X125850000Y-82735714D01*
X125921428Y-82735714D01*
X125950000Y-82750000D01*
X125964285Y-82764285D01*
X125978571Y-82792857D01*
X125978571Y-82821428D01*
X125964285Y-82864285D01*
X125792857Y-83035714D01*
X125978571Y-83035714D01*
M02*
