M48
;DRILL file {KiCad 4.1.0-alpha+201607021448+6961~45~ubuntu14.04.1-product} date Mon Jul  4 13:55:49 2016
;FORMAT={-:-/ absolute / metric / decimal}
FMAT,2
METRIC,TZ
T1C0.400
T2C0.500
T3C2.400
%
G90
G05
M71
T1
X119.45Y-69.65
X119.45Y-70.65
X119.45Y-71.65
X119.45Y-72.65
X120.911Y-81.264
X121.914Y-81.252
X122.914Y-81.25
X123.4Y-84.775
X123.85Y-88.35
X124.85Y-87.
X125.7Y-77.
X125.75Y-87.5
X126.009Y-65.467
X126.15Y-62.25
X126.2Y-63.9
X126.6Y-83.95
X127.55Y-88.4
X128.48Y-82.17
X129.Y-85.
X129.Y-86.
X130.05Y-81.7
X130.125Y-63.525
X130.175Y-61.525
X130.175Y-62.525
X130.175Y-64.525
X130.175Y-65.525
X130.86Y-70.737
X131.05Y-81.7
X131.95Y-88.7
X132.075Y-81.7
X133.075Y-81.7
X133.975Y-80.675
X134.Y-79.5
X134.2Y-75.55
X134.25Y-86.55
X135.2Y-75.55
X136.55Y-81.516
X137.2Y-74.95
X137.5Y-76.95
X137.6Y-67.9
X137.9Y-81.2
X138.207Y-79.8
X138.325Y-84.925
X138.5Y-76.95
X138.833Y-79.007
X138.911Y-82.736
X139.325Y-84.525
X139.987Y-76.963
X141.25Y-76.2
X142.275Y-71.675
X142.575Y-84.95
X143.25Y-87.8
X144.95Y-86.3
X146.Y-86.6
X147.25Y-66.7
X147.85Y-77.75
X148.8Y-73.75
X148.85Y-77.75
X149.85Y-77.75
X151.1Y-62.55
X151.1Y-66.5
T3
X117.5Y-62.5
X117.5Y-87.5
X154.5Y-62.5
X154.5Y-87.5
T2
X154.675Y-71.7G85X155.375Y-71.7
G05
X154.675Y-78.3G85X155.375Y-78.3
G05
T0
M30
