M48
;DRILL file {KiCad no-vcs-found-bf44d39~61~ubuntu14.04.1} date Mon Feb  5 18:36:58 2018
;FORMAT={-:-/ absolute / metric / decimal}
FMAT,2
METRIC,TZ
T1C0.400
T2C0.500
T3C2.400
%
G90
G05
M71
T1
X116.6Y-74.8
X116.6Y-79.6
X119.45Y-69.65
X119.45Y-70.65
X119.45Y-71.65
X119.45Y-72.65
X119.8Y-66.3
X120.975Y-81.575
X121.935Y-81.574
X122.01Y-88.5
X122.95Y-81.575
X123.475Y-88.6
X124.5Y-82.1
X124.6Y-78.7
X125.6Y-86.6
X125.9Y-83.5
X126.009Y-65.467
X126.15Y-62.25
X126.2Y-63.9
X128.65Y-82.7
X129.Y-85.
X129.Y-86.
X130.05Y-81.7
X130.125Y-63.525
X130.175Y-61.525
X130.175Y-62.525
X130.175Y-64.525
X130.175Y-65.525
X130.65Y-70.75
X130.65Y-69.2
X131.05Y-81.7
X131.95Y-88.7
X132.05Y-81.7
X133.075Y-81.7
X133.65Y-65.45
X134.105Y-81.527
X134.2Y-75.55
X134.25Y-86.55
X134.4Y-79.4
X135.2Y-75.55
X136.5Y-82.
X137.2Y-75.
X137.5Y-76.95
X137.6Y-67.9
X137.8Y-79.76
X138.217Y-84.968
X138.5Y-76.95
X138.873Y-80.331
X138.911Y-82.736
X139.145Y-84.597
X139.19Y-79.425
X139.725Y-77.075
X140.55Y-83.7
X141.275Y-75.675
X141.79Y-72.8
X142.449Y-71.671
X142.575Y-84.95
X143.25Y-87.8
X144.475Y-77.37
X144.5Y-61.6
X144.5Y-68.
X144.95Y-86.3
X146.Y-86.6
X146.95Y-83.6
X147.25Y-66.7
X147.3Y-79.7
X148.Y-77.05
X148.8Y-73.75
X149.7Y-71.9
X149.85Y-77.75
X151.1Y-61.55
X151.1Y-66.5
X153.7Y-65.9
T3
X117.5Y-87.5
X117.5Y-62.5
X154.5Y-62.5
X154.5Y-87.5
T2
X154.675Y-71.7G85X155.375Y-71.7
G05
X154.675Y-78.3G85X155.375Y-78.3
G05
T0
M30
