G04 #@! TF.GenerationSoftware,KiCad,Pcbnew,no-vcs-found-bf44d39~61~ubuntu14.04.1*
G04 #@! TF.CreationDate,2018-02-05T18:36:56+01:00*
G04 #@! TF.ProjectId,beacon,626561636F6E2E6B696361645F706362,rev?*
G04 #@! TF.SameCoordinates,Original*
G04 #@! TF.FileFunction,Soldermask,Top*
G04 #@! TF.FilePolarity,Negative*
%FSLAX46Y46*%
G04 Gerber Fmt 4.6, Leading zero omitted, Abs format (unit mm)*
G04 Created by KiCad (PCBNEW no-vcs-found-bf44d39~61~ubuntu14.04.1) date Mon Feb  5 18:36:56 2018*
%MOMM*%
%LPD*%
G01*
G04 APERTURE LIST*
%ADD10R,1.500000X1.200000*%
%ADD11R,2.100000X1.200000*%
%ADD12R,2.300000X2.300000*%
%ADD13R,1.800000X2.000000*%
%ADD14R,1.750000X0.800000*%
%ADD15O,2.000000X1.300000*%
%ADD16R,1.000000X1.200000*%
%ADD17R,1.400000X2.000000*%
%ADD18R,0.700000X0.850000*%
%ADD19R,1.920000X1.000000*%
%ADD20R,1.100000X0.650000*%
%ADD21R,1.230000X1.590000*%
%ADD22R,0.700000X1.600000*%
%ADD23R,1.600000X0.700000*%
%ADD24R,2.200000X1.800000*%
%ADD25R,1.900000X1.150000*%
%ADD26R,1.150000X1.900000*%
%ADD27C,4.800000*%
%ADD28R,1.300000X2.100000*%
%ADD29R,0.900000X1.300000*%
%ADD30R,1.300000X0.900000*%
%ADD31R,1.200000X1.150000*%
%ADD32R,1.150000X1.200000*%
%ADD33R,0.950000X0.600000*%
%ADD34R,0.600000X0.950000*%
%ADD35R,1.197560X1.197560*%
G04 APERTURE END LIST*
D10*
X153850000Y-67600000D03*
D11*
X155500000Y-65900000D03*
X155500000Y-69300000D03*
D12*
X155025000Y-73800000D03*
X155025000Y-76200000D03*
D13*
X152575000Y-78200000D03*
X152575000Y-71800000D03*
D14*
X152350000Y-76300000D03*
X152350000Y-75650000D03*
X152350000Y-73700000D03*
X152350000Y-74350000D03*
X152350000Y-75000000D03*
D15*
X155025000Y-71700000D03*
X155025000Y-78300000D03*
D16*
X153400000Y-83500000D03*
X151000000Y-83500000D03*
X146200000Y-87800000D03*
X148600000Y-87800000D03*
D17*
X146100000Y-68000000D03*
X146100000Y-61600000D03*
X149900000Y-61600000D03*
X149900000Y-68000000D03*
D18*
X149100000Y-76475000D03*
X149600000Y-76475000D03*
X150100000Y-76475000D03*
X150100000Y-75125000D03*
X149600000Y-75125000D03*
X149100000Y-75125000D03*
D19*
X136050000Y-84910000D03*
X136050000Y-86180000D03*
X136050000Y-87450000D03*
X136050000Y-88720000D03*
X130550000Y-88720000D03*
X130550000Y-87450000D03*
X130550000Y-86180000D03*
X130550000Y-84910000D03*
D20*
X141500000Y-81000000D03*
X141500000Y-81500000D03*
X141500000Y-82000000D03*
X141500000Y-82500000D03*
X144300000Y-82500000D03*
X144300000Y-82000000D03*
X144300000Y-81500000D03*
X144300000Y-81000000D03*
D21*
X143315000Y-82345000D03*
X143315000Y-81155000D03*
X142485000Y-82345000D03*
X142485000Y-81155000D03*
D22*
X138000000Y-66700000D03*
X137500000Y-66700000D03*
X137000000Y-66700000D03*
X136500000Y-66700000D03*
X136000000Y-66700000D03*
X135500000Y-66700000D03*
X135000000Y-66700000D03*
X134500000Y-66700000D03*
X134000000Y-66700000D03*
X133500000Y-66700000D03*
X133000000Y-66700000D03*
X132500000Y-66700000D03*
X132000000Y-66700000D03*
X131500000Y-66700000D03*
X131000000Y-66700000D03*
X130500000Y-66700000D03*
D23*
X128500000Y-68700000D03*
X128500000Y-69200000D03*
X128500000Y-69700000D03*
X128500000Y-70200000D03*
X128500000Y-70700000D03*
X128500000Y-71200000D03*
X128500000Y-71700000D03*
X128500000Y-72200000D03*
X128500000Y-72700000D03*
X128500000Y-73200000D03*
X128500000Y-73700000D03*
X128500000Y-74200000D03*
X128500000Y-74700000D03*
X128500000Y-75200000D03*
X128500000Y-75700000D03*
X128500000Y-76200000D03*
D22*
X130500000Y-78200000D03*
X131000000Y-78200000D03*
X131500000Y-78200000D03*
X132000000Y-78200000D03*
X132500000Y-78200000D03*
X133000000Y-78200000D03*
X133500000Y-78200000D03*
X134000000Y-78200000D03*
X134500000Y-78200000D03*
X135000000Y-78200000D03*
X135500000Y-78200000D03*
X136000000Y-78200000D03*
X136500000Y-78200000D03*
X137000000Y-78200000D03*
X137500000Y-78200000D03*
X138000000Y-78200000D03*
D23*
X140000000Y-76200000D03*
X140000000Y-75700000D03*
X140000000Y-75200000D03*
X140000000Y-74700000D03*
X140000000Y-74200000D03*
X140000000Y-73700000D03*
X140000000Y-73200000D03*
X140000000Y-72700000D03*
X140000000Y-72200000D03*
X140000000Y-71700000D03*
X140000000Y-71200000D03*
X140000000Y-70700000D03*
X140000000Y-70200000D03*
X140000000Y-69700000D03*
X140000000Y-69200000D03*
X140000000Y-68700000D03*
D24*
X138000000Y-64100000D03*
X133600000Y-64100000D03*
X133600000Y-61700000D03*
X138000000Y-61700000D03*
D25*
X122150000Y-69650000D03*
D26*
X131100000Y-80550000D03*
X132050000Y-80550000D03*
X133000000Y-80550000D03*
X130150000Y-80550000D03*
D25*
X122150000Y-72650000D03*
X122150000Y-71650000D03*
X122150000Y-70650000D03*
D27*
X117500000Y-62500000D03*
X117500000Y-87500000D03*
X154500000Y-62500000D03*
X154500000Y-87500000D03*
D28*
X141650000Y-87800000D03*
X144550000Y-87800000D03*
X150750000Y-81100000D03*
X153650000Y-81100000D03*
D29*
X117700000Y-76400000D03*
X119200000Y-76400000D03*
X120950000Y-66250000D03*
X122450000Y-66250000D03*
X120944736Y-64650000D03*
X122444736Y-64650000D03*
X120950000Y-63050000D03*
X122450000Y-63050000D03*
X120950000Y-61450000D03*
X122450000Y-61450000D03*
X117700000Y-79600000D03*
X119200000Y-79600000D03*
X117700000Y-78000000D03*
X119200000Y-78000000D03*
D30*
X138300000Y-86150000D03*
X138300000Y-87650000D03*
X128000000Y-62100000D03*
X128000000Y-63600000D03*
D29*
X117700000Y-74800000D03*
X119200000Y-74800000D03*
D17*
X149000000Y-85200000D03*
X146000000Y-85200000D03*
D31*
X121250000Y-87630000D03*
X122750000Y-87630000D03*
X148750000Y-71000000D03*
X147250000Y-71000000D03*
D32*
X131600000Y-63550000D03*
X131600000Y-62050000D03*
X140000000Y-62050000D03*
X140000000Y-63550000D03*
D31*
X124250000Y-87630000D03*
X125750000Y-87630000D03*
D32*
X139950000Y-81000000D03*
X139950000Y-82500000D03*
X145850000Y-81050000D03*
X145850000Y-82550000D03*
D31*
X127250000Y-79900000D03*
X128750000Y-79900000D03*
X125600000Y-85475000D03*
X127100000Y-85475000D03*
X139650000Y-78200000D03*
X141150000Y-78200000D03*
X127250000Y-78400000D03*
X128750000Y-78400000D03*
D32*
X126600000Y-69700000D03*
X126600000Y-68200000D03*
X142100000Y-67250000D03*
X142100000Y-68750000D03*
D31*
X136550000Y-81000000D03*
X135050000Y-81000000D03*
D33*
X121025000Y-83400000D03*
X121025000Y-83800000D03*
X121025000Y-84200000D03*
X121025000Y-84600000D03*
X121025000Y-85000000D03*
X121025000Y-85400000D03*
D34*
X121525000Y-85900000D03*
X121925000Y-85900000D03*
X122325000Y-85900000D03*
X122725000Y-85900000D03*
X123125000Y-85900000D03*
X123525000Y-85900000D03*
D33*
X124025000Y-85400000D03*
X124025000Y-85000000D03*
X124025000Y-84600000D03*
X124025000Y-84200000D03*
X124025000Y-83800000D03*
X124025000Y-83400000D03*
D34*
X123525000Y-82900000D03*
X123125000Y-82900000D03*
X122725000Y-82900000D03*
X122325000Y-82900000D03*
X121925000Y-82900000D03*
X121525000Y-82900000D03*
D35*
X121899300Y-78000000D03*
X120400700Y-78000000D03*
X121899300Y-74800000D03*
X120400700Y-74800000D03*
X121899300Y-79600000D03*
X120400700Y-79600000D03*
X125149300Y-61450000D03*
X123650700Y-61450000D03*
X125149300Y-63050000D03*
X123650700Y-63050000D03*
X125149300Y-64650000D03*
X123650700Y-64650000D03*
X125149300Y-66250000D03*
X123650700Y-66250000D03*
X121899300Y-76400000D03*
X120400700Y-76400000D03*
D29*
X151700000Y-69600000D03*
X153200000Y-69600000D03*
D30*
X125600000Y-80600000D03*
X125600000Y-82100000D03*
M02*
