G04 #@! TF.FileFunction,Legend,Bot*
%FSLAX46Y46*%
G04 Gerber Fmt 4.6, Leading zero omitted, Abs format (unit mm)*
G04 Created by KiCad (PCBNEW 4.1.0-alpha+201607021448+6961~45~ubuntu14.04.1-product) date Mon Jul  4 13:55:25 2016*
%MOMM*%
%LPD*%
G01*
G04 APERTURE LIST*
%ADD10C,0.100000*%
%ADD11C,0.250000*%
%ADD12C,0.150000*%
%ADD13C,0.010000*%
%ADD14C,0.050000*%
G04 APERTURE END LIST*
D10*
D11*
X145280952Y-77690476D02*
X145280952Y-78702380D01*
X145221428Y-78821428D01*
X145161904Y-78880952D01*
X145042857Y-78940476D01*
X144804761Y-78940476D01*
X144685714Y-78880952D01*
X144626190Y-78821428D01*
X144566666Y-78702380D01*
X144566666Y-77690476D01*
X144090476Y-77690476D02*
X143792857Y-78940476D01*
X143554761Y-78047619D01*
X143316666Y-78940476D01*
X143019047Y-77690476D01*
X142126190Y-78285714D02*
X141947619Y-78345238D01*
X141888095Y-78404761D01*
X141828571Y-78523809D01*
X141828571Y-78702380D01*
X141888095Y-78821428D01*
X141947619Y-78880952D01*
X142066666Y-78940476D01*
X142542857Y-78940476D01*
X142542857Y-77690476D01*
X142126190Y-77690476D01*
X142007142Y-77750000D01*
X141947619Y-77809523D01*
X141888095Y-77928571D01*
X141888095Y-78047619D01*
X141947619Y-78166666D01*
X142007142Y-78226190D01*
X142126190Y-78285714D01*
X142542857Y-78285714D01*
X139923809Y-78285714D02*
X139745238Y-78345238D01*
X139685714Y-78404761D01*
X139626190Y-78523809D01*
X139626190Y-78702380D01*
X139685714Y-78821428D01*
X139745238Y-78880952D01*
X139864285Y-78940476D01*
X140340476Y-78940476D01*
X140340476Y-77690476D01*
X139923809Y-77690476D01*
X139804761Y-77750000D01*
X139745238Y-77809523D01*
X139685714Y-77928571D01*
X139685714Y-78047619D01*
X139745238Y-78166666D01*
X139804761Y-78226190D01*
X139923809Y-78285714D01*
X140340476Y-78285714D01*
X138614285Y-78880952D02*
X138733333Y-78940476D01*
X138971428Y-78940476D01*
X139090476Y-78880952D01*
X139150000Y-78761904D01*
X139150000Y-78285714D01*
X139090476Y-78166666D01*
X138971428Y-78107142D01*
X138733333Y-78107142D01*
X138614285Y-78166666D01*
X138554761Y-78285714D01*
X138554761Y-78404761D01*
X139150000Y-78523809D01*
X137483333Y-78940476D02*
X137483333Y-78285714D01*
X137542857Y-78166666D01*
X137661904Y-78107142D01*
X137900000Y-78107142D01*
X138019047Y-78166666D01*
X137483333Y-78880952D02*
X137602380Y-78940476D01*
X137900000Y-78940476D01*
X138019047Y-78880952D01*
X138078571Y-78761904D01*
X138078571Y-78642857D01*
X138019047Y-78523809D01*
X137900000Y-78464285D01*
X137602380Y-78464285D01*
X137483333Y-78404761D01*
X136352380Y-78880952D02*
X136471428Y-78940476D01*
X136709523Y-78940476D01*
X136828571Y-78880952D01*
X136888095Y-78821428D01*
X136947619Y-78702380D01*
X136947619Y-78345238D01*
X136888095Y-78226190D01*
X136828571Y-78166666D01*
X136709523Y-78107142D01*
X136471428Y-78107142D01*
X136352380Y-78166666D01*
X135638095Y-78940476D02*
X135757142Y-78880952D01*
X135816666Y-78821428D01*
X135876190Y-78702380D01*
X135876190Y-78345238D01*
X135816666Y-78226190D01*
X135757142Y-78166666D01*
X135638095Y-78107142D01*
X135459523Y-78107142D01*
X135340476Y-78166666D01*
X135280952Y-78226190D01*
X135221428Y-78345238D01*
X135221428Y-78702380D01*
X135280952Y-78821428D01*
X135340476Y-78880952D01*
X135459523Y-78940476D01*
X135638095Y-78940476D01*
X134685714Y-78107142D02*
X134685714Y-78940476D01*
X134685714Y-78226190D02*
X134626190Y-78166666D01*
X134507142Y-78107142D01*
X134328571Y-78107142D01*
X134209523Y-78166666D01*
X134150000Y-78285714D01*
X134150000Y-78940476D01*
X132602380Y-78940476D02*
X132602380Y-77690476D01*
X132602380Y-78166666D02*
X132483333Y-78107142D01*
X132245238Y-78107142D01*
X132126190Y-78166666D01*
X132066666Y-78226190D01*
X132007142Y-78345238D01*
X132007142Y-78702380D01*
X132066666Y-78821428D01*
X132126190Y-78880952D01*
X132245238Y-78940476D01*
X132483333Y-78940476D01*
X132602380Y-78880952D01*
X131292857Y-78940476D02*
X131411904Y-78880952D01*
X131471428Y-78821428D01*
X131530952Y-78702380D01*
X131530952Y-78345238D01*
X131471428Y-78226190D01*
X131411904Y-78166666D01*
X131292857Y-78107142D01*
X131114285Y-78107142D01*
X130995238Y-78166666D01*
X130935714Y-78226190D01*
X130876190Y-78345238D01*
X130876190Y-78702380D01*
X130935714Y-78821428D01*
X130995238Y-78880952D01*
X131114285Y-78940476D01*
X131292857Y-78940476D01*
X129804761Y-78940476D02*
X129804761Y-78285714D01*
X129864285Y-78166666D01*
X129983333Y-78107142D01*
X130221428Y-78107142D01*
X130340476Y-78166666D01*
X129804761Y-78880952D02*
X129923809Y-78940476D01*
X130221428Y-78940476D01*
X130340476Y-78880952D01*
X130400000Y-78761904D01*
X130400000Y-78642857D01*
X130340476Y-78523809D01*
X130221428Y-78464285D01*
X129923809Y-78464285D01*
X129804761Y-78404761D01*
X129209523Y-78940476D02*
X129209523Y-78107142D01*
X129209523Y-78345238D02*
X129150000Y-78226190D01*
X129090476Y-78166666D01*
X128971428Y-78107142D01*
X128852380Y-78107142D01*
X127900000Y-78940476D02*
X127900000Y-77690476D01*
X127900000Y-78880952D02*
X128019047Y-78940476D01*
X128257142Y-78940476D01*
X128376190Y-78880952D01*
X128435714Y-78821428D01*
X128495238Y-78702380D01*
X128495238Y-78345238D01*
X128435714Y-78226190D01*
X128376190Y-78166666D01*
X128257142Y-78107142D01*
X128019047Y-78107142D01*
X127900000Y-78166666D01*
X126471428Y-78107142D02*
X126173809Y-78940476D01*
X125876190Y-78107142D01*
X124745238Y-78940476D02*
X125459523Y-78940476D01*
X125102380Y-78940476D02*
X125102380Y-77690476D01*
X125221428Y-77869047D01*
X125340476Y-77988095D01*
X125459523Y-78047619D01*
X124209523Y-78821428D02*
X124150000Y-78880952D01*
X124209523Y-78940476D01*
X124269047Y-78880952D01*
X124209523Y-78821428D01*
X124209523Y-78940476D01*
X123376190Y-77690476D02*
X123257142Y-77690476D01*
X123138095Y-77750000D01*
X123078571Y-77809523D01*
X123019047Y-77928571D01*
X122959523Y-78166666D01*
X122959523Y-78464285D01*
X123019047Y-78702380D01*
X123078571Y-78821428D01*
X123138095Y-78880952D01*
X123257142Y-78940476D01*
X123376190Y-78940476D01*
X123495238Y-78880952D01*
X123554761Y-78821428D01*
X123614285Y-78702380D01*
X123673809Y-78464285D01*
X123673809Y-78166666D01*
X123614285Y-77928571D01*
X123554761Y-77809523D01*
X123495238Y-77750000D01*
X123376190Y-77690476D01*
X150995238Y-80946428D02*
X151054761Y-81005952D01*
X151233333Y-81065476D01*
X151352380Y-81065476D01*
X151530952Y-81005952D01*
X151650000Y-80886904D01*
X151709523Y-80767857D01*
X151769047Y-80529761D01*
X151769047Y-80351190D01*
X151709523Y-80113095D01*
X151650000Y-79994047D01*
X151530952Y-79875000D01*
X151352380Y-79815476D01*
X151233333Y-79815476D01*
X151054761Y-79875000D01*
X150995238Y-79934523D01*
X150280952Y-81065476D02*
X150400000Y-81005952D01*
X150459523Y-80886904D01*
X150459523Y-79815476D01*
X149269047Y-80232142D02*
X149269047Y-81065476D01*
X149804761Y-80232142D02*
X149804761Y-80886904D01*
X149745238Y-81005952D01*
X149626190Y-81065476D01*
X149447619Y-81065476D01*
X149328571Y-81005952D01*
X149269047Y-80946428D01*
X148673809Y-81065476D02*
X148673809Y-79815476D01*
X148673809Y-80291666D02*
X148554761Y-80232142D01*
X148316666Y-80232142D01*
X148197619Y-80291666D01*
X148138095Y-80351190D01*
X148078571Y-80470238D01*
X148078571Y-80827380D01*
X148138095Y-80946428D01*
X148197619Y-81005952D01*
X148316666Y-81065476D01*
X148554761Y-81065476D01*
X148673809Y-81005952D01*
X146769047Y-79815476D02*
X146352380Y-81065476D01*
X145935714Y-79815476D01*
X144983333Y-81065476D02*
X144983333Y-80410714D01*
X145042857Y-80291666D01*
X145161904Y-80232142D01*
X145400000Y-80232142D01*
X145519047Y-80291666D01*
X144983333Y-81005952D02*
X145102380Y-81065476D01*
X145400000Y-81065476D01*
X145519047Y-81005952D01*
X145578571Y-80886904D01*
X145578571Y-80767857D01*
X145519047Y-80648809D01*
X145400000Y-80589285D01*
X145102380Y-80589285D01*
X144983333Y-80529761D01*
X143852380Y-80232142D02*
X143852380Y-81065476D01*
X144388095Y-80232142D02*
X144388095Y-80886904D01*
X144328571Y-81005952D01*
X144209523Y-81065476D01*
X144030952Y-81065476D01*
X143911904Y-81005952D01*
X143852380Y-80946428D01*
X142721428Y-81065476D02*
X142721428Y-79815476D01*
X142721428Y-81005952D02*
X142840476Y-81065476D01*
X143078571Y-81065476D01*
X143197619Y-81005952D01*
X143257142Y-80946428D01*
X143316666Y-80827380D01*
X143316666Y-80470238D01*
X143257142Y-80351190D01*
X143197619Y-80291666D01*
X143078571Y-80232142D01*
X142840476Y-80232142D01*
X142721428Y-80291666D01*
X141947619Y-81065476D02*
X142066666Y-81005952D01*
X142126190Y-80946428D01*
X142185714Y-80827380D01*
X142185714Y-80470238D01*
X142126190Y-80351190D01*
X142066666Y-80291666D01*
X141947619Y-80232142D01*
X141769047Y-80232142D01*
X141650000Y-80291666D01*
X141590476Y-80351190D01*
X141530952Y-80470238D01*
X141530952Y-80827380D01*
X141590476Y-80946428D01*
X141650000Y-81005952D01*
X141769047Y-81065476D01*
X141947619Y-81065476D01*
X140995238Y-81065476D02*
X140995238Y-80232142D01*
X140995238Y-79815476D02*
X141054761Y-79875000D01*
X140995238Y-79934523D01*
X140935714Y-79875000D01*
X140995238Y-79815476D01*
X140995238Y-79934523D01*
X140459523Y-81005952D02*
X140340476Y-81065476D01*
X140102380Y-81065476D01*
X139983333Y-81005952D01*
X139923809Y-80886904D01*
X139923809Y-80827380D01*
X139983333Y-80708333D01*
X140102380Y-80648809D01*
X140280952Y-80648809D01*
X140400000Y-80589285D01*
X140459523Y-80470238D01*
X140459523Y-80410714D01*
X140400000Y-80291666D01*
X140280952Y-80232142D01*
X140102380Y-80232142D01*
X139983333Y-80291666D01*
X137900000Y-81065476D02*
X137900000Y-79815476D01*
X137900000Y-81005952D02*
X138019047Y-81065476D01*
X138257142Y-81065476D01*
X138376190Y-81005952D01*
X138435714Y-80946428D01*
X138495238Y-80827380D01*
X138495238Y-80470238D01*
X138435714Y-80351190D01*
X138376190Y-80291666D01*
X138257142Y-80232142D01*
X138019047Y-80232142D01*
X137900000Y-80291666D01*
X136828571Y-81005952D02*
X136947619Y-81065476D01*
X137185714Y-81065476D01*
X137304761Y-81005952D01*
X137364285Y-80886904D01*
X137364285Y-80410714D01*
X137304761Y-80291666D01*
X137185714Y-80232142D01*
X136947619Y-80232142D01*
X136828571Y-80291666D01*
X136769047Y-80410714D01*
X136769047Y-80529761D01*
X137364285Y-80648809D01*
X134566666Y-81065476D02*
X134983333Y-80470238D01*
X135280952Y-81065476D02*
X135280952Y-79815476D01*
X134804761Y-79815476D01*
X134685714Y-79875000D01*
X134626190Y-79934523D01*
X134566666Y-80053571D01*
X134566666Y-80232142D01*
X134626190Y-80351190D01*
X134685714Y-80410714D01*
X134804761Y-80470238D01*
X135280952Y-80470238D01*
X133852380Y-81065476D02*
X133971428Y-81005952D01*
X134030952Y-80946428D01*
X134090476Y-80827380D01*
X134090476Y-80470238D01*
X134030952Y-80351190D01*
X133971428Y-80291666D01*
X133852380Y-80232142D01*
X133673809Y-80232142D01*
X133554761Y-80291666D01*
X133495238Y-80351190D01*
X133435714Y-80470238D01*
X133435714Y-80827380D01*
X133495238Y-80946428D01*
X133554761Y-81005952D01*
X133673809Y-81065476D01*
X133852380Y-81065476D01*
X132900000Y-81065476D02*
X132900000Y-79815476D01*
X132900000Y-80291666D02*
X132780952Y-80232142D01*
X132542857Y-80232142D01*
X132423809Y-80291666D01*
X132364285Y-80351190D01*
X132304761Y-80470238D01*
X132304761Y-80827380D01*
X132364285Y-80946428D01*
X132423809Y-81005952D01*
X132542857Y-81065476D01*
X132780952Y-81065476D01*
X132900000Y-81005952D01*
X131590476Y-81065476D02*
X131709523Y-81005952D01*
X131769047Y-80946428D01*
X131828571Y-80827380D01*
X131828571Y-80470238D01*
X131769047Y-80351190D01*
X131709523Y-80291666D01*
X131590476Y-80232142D01*
X131411904Y-80232142D01*
X131292857Y-80291666D01*
X131233333Y-80351190D01*
X131173809Y-80470238D01*
X131173809Y-80827380D01*
X131233333Y-80946428D01*
X131292857Y-81005952D01*
X131411904Y-81065476D01*
X131590476Y-81065476D01*
X130816666Y-80232142D02*
X130340476Y-80232142D01*
X130638095Y-79815476D02*
X130638095Y-80886904D01*
X130578571Y-81005952D01*
X130459523Y-81065476D01*
X130340476Y-81065476D01*
X129923809Y-81065476D02*
X129923809Y-80232142D01*
X129923809Y-79815476D02*
X129983333Y-79875000D01*
X129923809Y-79934523D01*
X129864285Y-79875000D01*
X129923809Y-79815476D01*
X129923809Y-79934523D01*
X128792857Y-80232142D02*
X128792857Y-81482142D01*
X128792857Y-81005952D02*
X128911904Y-81065476D01*
X129150000Y-81065476D01*
X129269047Y-81005952D01*
X129328571Y-80946428D01*
X129388095Y-80827380D01*
X129388095Y-80470238D01*
X129328571Y-80351190D01*
X129269047Y-80291666D01*
X129150000Y-80232142D01*
X128911904Y-80232142D01*
X128792857Y-80291666D01*
X127661904Y-80232142D02*
X127661904Y-81065476D01*
X128197619Y-80232142D02*
X128197619Y-80886904D01*
X128138095Y-81005952D01*
X128019047Y-81065476D01*
X127840476Y-81065476D01*
X127721428Y-81005952D01*
X127661904Y-80946428D01*
X126590476Y-81005952D02*
X126709523Y-81065476D01*
X126947619Y-81065476D01*
X127066666Y-81005952D01*
X127126190Y-80886904D01*
X127126190Y-80410714D01*
X127066666Y-80291666D01*
X126947619Y-80232142D01*
X126709523Y-80232142D01*
X126590476Y-80291666D01*
X126530952Y-80410714D01*
X126530952Y-80529761D01*
X127126190Y-80648809D01*
X125102380Y-80708333D02*
X124507142Y-80708333D01*
X125221428Y-81065476D02*
X124804761Y-79815476D01*
X124388095Y-81065476D01*
X123435714Y-80232142D02*
X123435714Y-81065476D01*
X123971428Y-80232142D02*
X123971428Y-80886904D01*
X123911904Y-81005952D01*
X123792857Y-81065476D01*
X123614285Y-81065476D01*
X123495238Y-81005952D01*
X123435714Y-80946428D01*
X123019047Y-80232142D02*
X122542857Y-80232142D01*
X122840476Y-79815476D02*
X122840476Y-80886904D01*
X122780952Y-81005952D01*
X122661904Y-81065476D01*
X122542857Y-81065476D01*
X121947619Y-81065476D02*
X122066666Y-81005952D01*
X122126190Y-80946428D01*
X122185714Y-80827380D01*
X122185714Y-80470238D01*
X122126190Y-80351190D01*
X122066666Y-80291666D01*
X121947619Y-80232142D01*
X121769047Y-80232142D01*
X121650000Y-80291666D01*
X121590476Y-80351190D01*
X121530952Y-80470238D01*
X121530952Y-80827380D01*
X121590476Y-80946428D01*
X121650000Y-81005952D01*
X121769047Y-81065476D01*
X121947619Y-81065476D01*
X120995238Y-80232142D02*
X120995238Y-81065476D01*
X120995238Y-80351190D02*
X120935714Y-80291666D01*
X120816666Y-80232142D01*
X120638095Y-80232142D01*
X120519047Y-80291666D01*
X120459523Y-80410714D01*
X120459523Y-81065476D01*
X119685714Y-81065476D02*
X119804761Y-81005952D01*
X119864285Y-80946428D01*
X119923809Y-80827380D01*
X119923809Y-80470238D01*
X119864285Y-80351190D01*
X119804761Y-80291666D01*
X119685714Y-80232142D01*
X119507142Y-80232142D01*
X119388095Y-80291666D01*
X119328571Y-80351190D01*
X119269047Y-80470238D01*
X119269047Y-80827380D01*
X119328571Y-80946428D01*
X119388095Y-81005952D01*
X119507142Y-81065476D01*
X119685714Y-81065476D01*
X118733333Y-81065476D02*
X118733333Y-80232142D01*
X118733333Y-80351190D02*
X118673809Y-80291666D01*
X118554761Y-80232142D01*
X118376190Y-80232142D01*
X118257142Y-80291666D01*
X118197619Y-80410714D01*
X118197619Y-81065476D01*
X118197619Y-80410714D02*
X118138095Y-80291666D01*
X118019047Y-80232142D01*
X117840476Y-80232142D01*
X117721428Y-80291666D01*
X117661904Y-80410714D01*
X117661904Y-81065476D01*
X116590476Y-81005952D02*
X116709523Y-81065476D01*
X116947619Y-81065476D01*
X117066666Y-81005952D01*
X117126190Y-80886904D01*
X117126190Y-80410714D01*
X117066666Y-80291666D01*
X116947619Y-80232142D01*
X116709523Y-80232142D01*
X116590476Y-80291666D01*
X116530952Y-80410714D01*
X116530952Y-80529761D01*
X117126190Y-80648809D01*
X136679761Y-83130952D02*
X136798809Y-83190476D01*
X137036904Y-83190476D01*
X137155952Y-83130952D01*
X137215476Y-83071428D01*
X137275000Y-82952380D01*
X137275000Y-82595238D01*
X137215476Y-82476190D01*
X137155952Y-82416666D01*
X137036904Y-82357142D01*
X136798809Y-82357142D01*
X136679761Y-82416666D01*
X136263095Y-82357142D02*
X135965476Y-83190476D01*
X135667857Y-82357142D01*
X135191666Y-83190476D02*
X135191666Y-82357142D01*
X135191666Y-82595238D02*
X135132142Y-82476190D01*
X135072619Y-82416666D01*
X134953571Y-82357142D01*
X134834523Y-82357142D01*
X133882142Y-83190476D02*
X133882142Y-82535714D01*
X133941666Y-82416666D01*
X134060714Y-82357142D01*
X134298809Y-82357142D01*
X134417857Y-82416666D01*
X133882142Y-83130952D02*
X134001190Y-83190476D01*
X134298809Y-83190476D01*
X134417857Y-83130952D01*
X134477380Y-83011904D01*
X134477380Y-82892857D01*
X134417857Y-82773809D01*
X134298809Y-82714285D01*
X134001190Y-82714285D01*
X133882142Y-82654761D01*
X133286904Y-83071428D02*
X133227380Y-83130952D01*
X133286904Y-83190476D01*
X133346428Y-83130952D01*
X133286904Y-83071428D01*
X133286904Y-83190476D01*
X132155952Y-83130952D02*
X132275000Y-83190476D01*
X132513095Y-83190476D01*
X132632142Y-83130952D01*
X132691666Y-83071428D01*
X132751190Y-82952380D01*
X132751190Y-82595238D01*
X132691666Y-82476190D01*
X132632142Y-82416666D01*
X132513095Y-82357142D01*
X132275000Y-82357142D01*
X132155952Y-82416666D01*
X131620238Y-83190476D02*
X131620238Y-81940476D01*
X131084523Y-83190476D02*
X131084523Y-82535714D01*
X131144047Y-82416666D01*
X131263095Y-82357142D01*
X131441666Y-82357142D01*
X131560714Y-82416666D01*
X131620238Y-82476190D01*
D12*
X146350000Y-70350000D02*
X146350000Y-69350000D01*
X148050000Y-69350000D02*
X148050000Y-70350000D01*
X144650000Y-69550000D02*
X144650000Y-70250000D01*
X145850000Y-70250000D02*
X145850000Y-69550000D01*
X143000000Y-69550000D02*
X143000000Y-70250000D01*
X144200000Y-70250000D02*
X144200000Y-69550000D01*
D11*
X153650000Y-71250000D02*
X153640000Y-71250000D01*
X136050000Y-86500000D02*
X136050000Y-86490000D01*
X147675000Y-86500000D02*
X147675000Y-86490000D01*
D13*
G36*
X124276769Y-71102870D02*
X124256152Y-71114414D01*
X124223629Y-71132872D01*
X124180574Y-71157456D01*
X124128360Y-71187380D01*
X124068361Y-71221857D01*
X124001951Y-71260101D01*
X123930503Y-71301326D01*
X123906134Y-71315404D01*
X123820208Y-71365049D01*
X123728099Y-71418251D01*
X123632964Y-71473187D01*
X123537960Y-71528035D01*
X123446244Y-71580972D01*
X123360974Y-71630176D01*
X123285307Y-71673823D01*
X123245734Y-71696641D01*
X123182726Y-71732984D01*
X123124457Y-71766628D01*
X123072523Y-71796650D01*
X123028524Y-71822123D01*
X122994057Y-71842122D01*
X122970721Y-71855723D01*
X122960113Y-71861998D01*
X122959648Y-71862303D01*
X122960868Y-71870775D01*
X122966068Y-71892061D01*
X122974369Y-71922753D01*
X122982806Y-71952308D01*
X123001898Y-72022666D01*
X123016350Y-72088429D01*
X123026838Y-72154332D01*
X123034041Y-72225113D01*
X123038637Y-72305507D01*
X123040246Y-72353624D01*
X123040624Y-72473198D01*
X123034400Y-72581927D01*
X123020897Y-72684831D01*
X122999439Y-72786929D01*
X122969347Y-72893240D01*
X122966007Y-72903766D01*
X122908873Y-73055223D01*
X122837202Y-73199497D01*
X122752021Y-73335640D01*
X122654359Y-73462705D01*
X122545241Y-73579742D01*
X122425695Y-73685804D01*
X122296750Y-73779941D01*
X122159431Y-73861207D01*
X122014766Y-73928652D01*
X121863782Y-73981328D01*
X121773173Y-74004865D01*
X121713267Y-74018490D01*
X121713267Y-75549600D01*
X122295350Y-75548926D01*
X122415050Y-75548723D01*
X122518965Y-75548395D01*
X122608244Y-75547918D01*
X122684035Y-75547272D01*
X122747486Y-75546433D01*
X122799745Y-75545379D01*
X122841961Y-75544088D01*
X122875283Y-75542538D01*
X122900857Y-75540705D01*
X122919834Y-75538567D01*
X122931510Y-75536522D01*
X123043407Y-75504315D01*
X123145547Y-75458471D01*
X123237563Y-75399232D01*
X123319092Y-75326840D01*
X123389769Y-75241534D01*
X123400022Y-75226737D01*
X123409329Y-75211873D01*
X123426446Y-75183361D01*
X123450823Y-75142153D01*
X123481912Y-75089201D01*
X123519166Y-75025457D01*
X123562036Y-74951874D01*
X123609973Y-74869403D01*
X123662430Y-74778997D01*
X123718859Y-74681608D01*
X123778710Y-74578187D01*
X123841436Y-74469686D01*
X123906488Y-74357059D01*
X123973318Y-74241256D01*
X124041379Y-74123230D01*
X124110121Y-74003934D01*
X124178996Y-73884318D01*
X124247456Y-73765336D01*
X124314954Y-73647938D01*
X124380939Y-73533078D01*
X124444865Y-73421708D01*
X124506184Y-73314778D01*
X124564346Y-73213243D01*
X124618803Y-73118053D01*
X124669008Y-73030160D01*
X124714412Y-72950517D01*
X124754466Y-72880076D01*
X124788623Y-72819789D01*
X124816335Y-72770608D01*
X124837052Y-72733485D01*
X124850227Y-72709372D01*
X124854751Y-72700566D01*
X124881074Y-72638241D01*
X124899362Y-72579961D01*
X124910700Y-72520341D01*
X124916174Y-72453996D01*
X124917053Y-72391533D01*
X124916198Y-72340515D01*
X124914079Y-72301289D01*
X124910062Y-72268729D01*
X124903511Y-72237704D01*
X124893792Y-72203086D01*
X124893692Y-72202755D01*
X124879972Y-72161466D01*
X124863861Y-72119031D01*
X124848385Y-72083317D01*
X124845287Y-72076986D01*
X124838369Y-72064261D01*
X124824099Y-72038797D01*
X124803331Y-72002083D01*
X124776922Y-71955610D01*
X124745727Y-71900867D01*
X124710599Y-71839346D01*
X124672396Y-71772537D01*
X124631971Y-71701929D01*
X124590181Y-71629014D01*
X124547879Y-71555281D01*
X124505922Y-71482221D01*
X124465165Y-71411324D01*
X124426462Y-71344080D01*
X124390670Y-71281980D01*
X124358642Y-71226514D01*
X124331235Y-71179172D01*
X124309303Y-71141445D01*
X124293702Y-71114823D01*
X124285286Y-71100796D01*
X124284105Y-71099024D01*
X124276769Y-71102870D01*
X124276769Y-71102870D01*
G37*
X124276769Y-71102870D02*
X124256152Y-71114414D01*
X124223629Y-71132872D01*
X124180574Y-71157456D01*
X124128360Y-71187380D01*
X124068361Y-71221857D01*
X124001951Y-71260101D01*
X123930503Y-71301326D01*
X123906134Y-71315404D01*
X123820208Y-71365049D01*
X123728099Y-71418251D01*
X123632964Y-71473187D01*
X123537960Y-71528035D01*
X123446244Y-71580972D01*
X123360974Y-71630176D01*
X123285307Y-71673823D01*
X123245734Y-71696641D01*
X123182726Y-71732984D01*
X123124457Y-71766628D01*
X123072523Y-71796650D01*
X123028524Y-71822123D01*
X122994057Y-71842122D01*
X122970721Y-71855723D01*
X122960113Y-71861998D01*
X122959648Y-71862303D01*
X122960868Y-71870775D01*
X122966068Y-71892061D01*
X122974369Y-71922753D01*
X122982806Y-71952308D01*
X123001898Y-72022666D01*
X123016350Y-72088429D01*
X123026838Y-72154332D01*
X123034041Y-72225113D01*
X123038637Y-72305507D01*
X123040246Y-72353624D01*
X123040624Y-72473198D01*
X123034400Y-72581927D01*
X123020897Y-72684831D01*
X122999439Y-72786929D01*
X122969347Y-72893240D01*
X122966007Y-72903766D01*
X122908873Y-73055223D01*
X122837202Y-73199497D01*
X122752021Y-73335640D01*
X122654359Y-73462705D01*
X122545241Y-73579742D01*
X122425695Y-73685804D01*
X122296750Y-73779941D01*
X122159431Y-73861207D01*
X122014766Y-73928652D01*
X121863782Y-73981328D01*
X121773173Y-74004865D01*
X121713267Y-74018490D01*
X121713267Y-75549600D01*
X122295350Y-75548926D01*
X122415050Y-75548723D01*
X122518965Y-75548395D01*
X122608244Y-75547918D01*
X122684035Y-75547272D01*
X122747486Y-75546433D01*
X122799745Y-75545379D01*
X122841961Y-75544088D01*
X122875283Y-75542538D01*
X122900857Y-75540705D01*
X122919834Y-75538567D01*
X122931510Y-75536522D01*
X123043407Y-75504315D01*
X123145547Y-75458471D01*
X123237563Y-75399232D01*
X123319092Y-75326840D01*
X123389769Y-75241534D01*
X123400022Y-75226737D01*
X123409329Y-75211873D01*
X123426446Y-75183361D01*
X123450823Y-75142153D01*
X123481912Y-75089201D01*
X123519166Y-75025457D01*
X123562036Y-74951874D01*
X123609973Y-74869403D01*
X123662430Y-74778997D01*
X123718859Y-74681608D01*
X123778710Y-74578187D01*
X123841436Y-74469686D01*
X123906488Y-74357059D01*
X123973318Y-74241256D01*
X124041379Y-74123230D01*
X124110121Y-74003934D01*
X124178996Y-73884318D01*
X124247456Y-73765336D01*
X124314954Y-73647938D01*
X124380939Y-73533078D01*
X124444865Y-73421708D01*
X124506184Y-73314778D01*
X124564346Y-73213243D01*
X124618803Y-73118053D01*
X124669008Y-73030160D01*
X124714412Y-72950517D01*
X124754466Y-72880076D01*
X124788623Y-72819789D01*
X124816335Y-72770608D01*
X124837052Y-72733485D01*
X124850227Y-72709372D01*
X124854751Y-72700566D01*
X124881074Y-72638241D01*
X124899362Y-72579961D01*
X124910700Y-72520341D01*
X124916174Y-72453996D01*
X124917053Y-72391533D01*
X124916198Y-72340515D01*
X124914079Y-72301289D01*
X124910062Y-72268729D01*
X124903511Y-72237704D01*
X124893792Y-72203086D01*
X124893692Y-72202755D01*
X124879972Y-72161466D01*
X124863861Y-72119031D01*
X124848385Y-72083317D01*
X124845287Y-72076986D01*
X124838369Y-72064261D01*
X124824099Y-72038797D01*
X124803331Y-72002083D01*
X124776922Y-71955610D01*
X124745727Y-71900867D01*
X124710599Y-71839346D01*
X124672396Y-71772537D01*
X124631971Y-71701929D01*
X124590181Y-71629014D01*
X124547879Y-71555281D01*
X124505922Y-71482221D01*
X124465165Y-71411324D01*
X124426462Y-71344080D01*
X124390670Y-71281980D01*
X124358642Y-71226514D01*
X124331235Y-71179172D01*
X124309303Y-71141445D01*
X124293702Y-71114823D01*
X124285286Y-71100796D01*
X124284105Y-71099024D01*
X124276769Y-71102870D01*
G36*
X118510254Y-71111833D02*
X118497068Y-71132288D01*
X118477233Y-71164596D01*
X118451584Y-71207309D01*
X118420954Y-71258976D01*
X118386177Y-71318150D01*
X118348087Y-71383382D01*
X118307516Y-71453222D01*
X118265299Y-71526221D01*
X118222270Y-71600931D01*
X118179261Y-71675903D01*
X118137107Y-71749687D01*
X118096641Y-71820835D01*
X118058696Y-71887898D01*
X118024107Y-71949426D01*
X117993707Y-72003972D01*
X117968329Y-72050085D01*
X117948807Y-72086317D01*
X117935975Y-72111220D01*
X117932042Y-72119631D01*
X117899995Y-72214859D01*
X117881852Y-72316283D01*
X117877615Y-72420462D01*
X117887283Y-72523953D01*
X117910857Y-72623315D01*
X117931954Y-72680166D01*
X117939049Y-72694182D01*
X117954099Y-72721899D01*
X117976560Y-72762373D01*
X118005889Y-72814661D01*
X118041542Y-72877817D01*
X118082974Y-72950897D01*
X118129643Y-73032957D01*
X118181004Y-73123053D01*
X118236513Y-73220239D01*
X118295627Y-73323573D01*
X118357802Y-73432109D01*
X118422495Y-73544903D01*
X118489160Y-73661011D01*
X118557255Y-73779488D01*
X118626236Y-73899390D01*
X118695559Y-74019773D01*
X118764680Y-74139692D01*
X118833055Y-74258203D01*
X118900141Y-74374361D01*
X118965393Y-74487223D01*
X119028269Y-74595844D01*
X119088223Y-74699279D01*
X119144713Y-74796584D01*
X119197195Y-74886814D01*
X119245124Y-74969027D01*
X119287957Y-75042276D01*
X119325151Y-75105618D01*
X119356161Y-75158108D01*
X119380443Y-75198802D01*
X119397454Y-75226756D01*
X119406350Y-75240603D01*
X119458521Y-75304429D01*
X119522271Y-75365818D01*
X119593111Y-75421184D01*
X119666552Y-75466942D01*
X119723600Y-75493997D01*
X119747009Y-75503475D01*
X119767514Y-75511695D01*
X119786451Y-75518751D01*
X119805155Y-75524738D01*
X119824961Y-75529751D01*
X119847204Y-75533883D01*
X119873219Y-75537230D01*
X119904342Y-75539887D01*
X119941907Y-75541947D01*
X119987250Y-75543506D01*
X120041705Y-75544658D01*
X120106608Y-75545498D01*
X120183294Y-75546119D01*
X120273098Y-75546618D01*
X120377354Y-75547088D01*
X120479250Y-75547541D01*
X121086734Y-75550333D01*
X121086734Y-74019515D01*
X120998167Y-73997421D01*
X120840371Y-73949491D01*
X120689544Y-73886553D01*
X120546584Y-73809409D01*
X120412390Y-73718857D01*
X120287857Y-73615700D01*
X120173886Y-73500735D01*
X120071373Y-73374765D01*
X119981216Y-73238589D01*
X119904313Y-73093007D01*
X119856570Y-72979966D01*
X119816361Y-72861834D01*
X119786879Y-72745869D01*
X119767315Y-72627477D01*
X119756862Y-72502061D01*
X119754512Y-72400000D01*
X119755445Y-72315540D01*
X119758856Y-72242713D01*
X119765401Y-72176316D01*
X119775733Y-72111145D01*
X119790507Y-72041999D01*
X119808494Y-71970741D01*
X119818452Y-71932567D01*
X119826549Y-71900263D01*
X119831909Y-71877416D01*
X119833667Y-71867833D01*
X119826867Y-71859680D01*
X119809210Y-71846700D01*
X119789217Y-71834453D01*
X119765163Y-71820686D01*
X119730706Y-71800865D01*
X119690086Y-71777432D01*
X119647546Y-71752833D01*
X119638933Y-71747845D01*
X119593412Y-71721495D01*
X119536202Y-71688415D01*
X119469316Y-71649767D01*
X119394771Y-71606711D01*
X119314578Y-71560412D01*
X119230753Y-71512029D01*
X119145310Y-71462726D01*
X119060263Y-71413665D01*
X118977625Y-71366007D01*
X118899412Y-71320915D01*
X118827637Y-71279551D01*
X118764314Y-71243076D01*
X118711458Y-71212653D01*
X118671082Y-71189444D01*
X118668360Y-71187881D01*
X118623479Y-71162324D01*
X118583494Y-71139950D01*
X118550758Y-71122042D01*
X118527624Y-71109885D01*
X118516444Y-71104763D01*
X118515960Y-71104681D01*
X118510254Y-71111833D01*
X118510254Y-71111833D01*
G37*
X118510254Y-71111833D02*
X118497068Y-71132288D01*
X118477233Y-71164596D01*
X118451584Y-71207309D01*
X118420954Y-71258976D01*
X118386177Y-71318150D01*
X118348087Y-71383382D01*
X118307516Y-71453222D01*
X118265299Y-71526221D01*
X118222270Y-71600931D01*
X118179261Y-71675903D01*
X118137107Y-71749687D01*
X118096641Y-71820835D01*
X118058696Y-71887898D01*
X118024107Y-71949426D01*
X117993707Y-72003972D01*
X117968329Y-72050085D01*
X117948807Y-72086317D01*
X117935975Y-72111220D01*
X117932042Y-72119631D01*
X117899995Y-72214859D01*
X117881852Y-72316283D01*
X117877615Y-72420462D01*
X117887283Y-72523953D01*
X117910857Y-72623315D01*
X117931954Y-72680166D01*
X117939049Y-72694182D01*
X117954099Y-72721899D01*
X117976560Y-72762373D01*
X118005889Y-72814661D01*
X118041542Y-72877817D01*
X118082974Y-72950897D01*
X118129643Y-73032957D01*
X118181004Y-73123053D01*
X118236513Y-73220239D01*
X118295627Y-73323573D01*
X118357802Y-73432109D01*
X118422495Y-73544903D01*
X118489160Y-73661011D01*
X118557255Y-73779488D01*
X118626236Y-73899390D01*
X118695559Y-74019773D01*
X118764680Y-74139692D01*
X118833055Y-74258203D01*
X118900141Y-74374361D01*
X118965393Y-74487223D01*
X119028269Y-74595844D01*
X119088223Y-74699279D01*
X119144713Y-74796584D01*
X119197195Y-74886814D01*
X119245124Y-74969027D01*
X119287957Y-75042276D01*
X119325151Y-75105618D01*
X119356161Y-75158108D01*
X119380443Y-75198802D01*
X119397454Y-75226756D01*
X119406350Y-75240603D01*
X119458521Y-75304429D01*
X119522271Y-75365818D01*
X119593111Y-75421184D01*
X119666552Y-75466942D01*
X119723600Y-75493997D01*
X119747009Y-75503475D01*
X119767514Y-75511695D01*
X119786451Y-75518751D01*
X119805155Y-75524738D01*
X119824961Y-75529751D01*
X119847204Y-75533883D01*
X119873219Y-75537230D01*
X119904342Y-75539887D01*
X119941907Y-75541947D01*
X119987250Y-75543506D01*
X120041705Y-75544658D01*
X120106608Y-75545498D01*
X120183294Y-75546119D01*
X120273098Y-75546618D01*
X120377354Y-75547088D01*
X120479250Y-75547541D01*
X121086734Y-75550333D01*
X121086734Y-74019515D01*
X120998167Y-73997421D01*
X120840371Y-73949491D01*
X120689544Y-73886553D01*
X120546584Y-73809409D01*
X120412390Y-73718857D01*
X120287857Y-73615700D01*
X120173886Y-73500735D01*
X120071373Y-73374765D01*
X119981216Y-73238589D01*
X119904313Y-73093007D01*
X119856570Y-72979966D01*
X119816361Y-72861834D01*
X119786879Y-72745869D01*
X119767315Y-72627477D01*
X119756862Y-72502061D01*
X119754512Y-72400000D01*
X119755445Y-72315540D01*
X119758856Y-72242713D01*
X119765401Y-72176316D01*
X119775733Y-72111145D01*
X119790507Y-72041999D01*
X119808494Y-71970741D01*
X119818452Y-71932567D01*
X119826549Y-71900263D01*
X119831909Y-71877416D01*
X119833667Y-71867833D01*
X119826867Y-71859680D01*
X119809210Y-71846700D01*
X119789217Y-71834453D01*
X119765163Y-71820686D01*
X119730706Y-71800865D01*
X119690086Y-71777432D01*
X119647546Y-71752833D01*
X119638933Y-71747845D01*
X119593412Y-71721495D01*
X119536202Y-71688415D01*
X119469316Y-71649767D01*
X119394771Y-71606711D01*
X119314578Y-71560412D01*
X119230753Y-71512029D01*
X119145310Y-71462726D01*
X119060263Y-71413665D01*
X118977625Y-71366007D01*
X118899412Y-71320915D01*
X118827637Y-71279551D01*
X118764314Y-71243076D01*
X118711458Y-71212653D01*
X118671082Y-71189444D01*
X118668360Y-71187881D01*
X118623479Y-71162324D01*
X118583494Y-71139950D01*
X118550758Y-71122042D01*
X118527624Y-71109885D01*
X118516444Y-71104763D01*
X118515960Y-71104681D01*
X118510254Y-71111833D01*
G36*
X121269688Y-71310329D02*
X121189751Y-71321936D01*
X121182122Y-71323506D01*
X121049482Y-71359991D01*
X120924453Y-71410981D01*
X120807986Y-71475622D01*
X120701033Y-71553057D01*
X120604548Y-71642429D01*
X120519483Y-71742882D01*
X120446789Y-71853559D01*
X120387421Y-71973606D01*
X120352045Y-72069800D01*
X120332838Y-72135448D01*
X120319209Y-72195431D01*
X120310395Y-72255142D01*
X120305634Y-72319977D01*
X120304164Y-72395332D01*
X120304182Y-72408466D01*
X120306050Y-72488086D01*
X120311634Y-72556775D01*
X120321848Y-72620304D01*
X120337605Y-72684442D01*
X120358399Y-72750771D01*
X120409253Y-72875405D01*
X120474161Y-72991510D01*
X120552027Y-73098120D01*
X120641756Y-73194271D01*
X120742252Y-73278998D01*
X120852420Y-73351336D01*
X120971163Y-73410322D01*
X121097387Y-73454989D01*
X121181680Y-73475636D01*
X121250985Y-73486702D01*
X121328150Y-73493929D01*
X121406755Y-73497021D01*
X121480382Y-73495684D01*
X121528311Y-73491615D01*
X121660566Y-73466981D01*
X121787275Y-73427039D01*
X121907281Y-73372725D01*
X122019424Y-73304973D01*
X122122548Y-73224717D01*
X122215494Y-73132891D01*
X122297104Y-73030429D01*
X122366219Y-72918267D01*
X122421683Y-72797337D01*
X122435368Y-72759833D01*
X122464889Y-72660831D01*
X122483695Y-72564210D01*
X122492888Y-72463238D01*
X122494249Y-72400000D01*
X122486893Y-72270304D01*
X122465291Y-72143188D01*
X122430147Y-72021725D01*
X122382163Y-71908991D01*
X122382113Y-71908893D01*
X122341606Y-71837711D01*
X122291205Y-71763286D01*
X122235244Y-71691550D01*
X122178061Y-71628439D01*
X122174930Y-71625300D01*
X122071544Y-71533844D01*
X121959550Y-71456859D01*
X121839563Y-71394678D01*
X121712199Y-71347635D01*
X121619571Y-71324015D01*
X121539751Y-71311590D01*
X121450773Y-71305163D01*
X121358724Y-71304741D01*
X121269688Y-71310329D01*
X121269688Y-71310329D01*
G37*
X121269688Y-71310329D02*
X121189751Y-71321936D01*
X121182122Y-71323506D01*
X121049482Y-71359991D01*
X120924453Y-71410981D01*
X120807986Y-71475622D01*
X120701033Y-71553057D01*
X120604548Y-71642429D01*
X120519483Y-71742882D01*
X120446789Y-71853559D01*
X120387421Y-71973606D01*
X120352045Y-72069800D01*
X120332838Y-72135448D01*
X120319209Y-72195431D01*
X120310395Y-72255142D01*
X120305634Y-72319977D01*
X120304164Y-72395332D01*
X120304182Y-72408466D01*
X120306050Y-72488086D01*
X120311634Y-72556775D01*
X120321848Y-72620304D01*
X120337605Y-72684442D01*
X120358399Y-72750771D01*
X120409253Y-72875405D01*
X120474161Y-72991510D01*
X120552027Y-73098120D01*
X120641756Y-73194271D01*
X120742252Y-73278998D01*
X120852420Y-73351336D01*
X120971163Y-73410322D01*
X121097387Y-73454989D01*
X121181680Y-73475636D01*
X121250985Y-73486702D01*
X121328150Y-73493929D01*
X121406755Y-73497021D01*
X121480382Y-73495684D01*
X121528311Y-73491615D01*
X121660566Y-73466981D01*
X121787275Y-73427039D01*
X121907281Y-73372725D01*
X122019424Y-73304973D01*
X122122548Y-73224717D01*
X122215494Y-73132891D01*
X122297104Y-73030429D01*
X122366219Y-72918267D01*
X122421683Y-72797337D01*
X122435368Y-72759833D01*
X122464889Y-72660831D01*
X122483695Y-72564210D01*
X122492888Y-72463238D01*
X122494249Y-72400000D01*
X122486893Y-72270304D01*
X122465291Y-72143188D01*
X122430147Y-72021725D01*
X122382163Y-71908991D01*
X122382113Y-71908893D01*
X122341606Y-71837711D01*
X122291205Y-71763286D01*
X122235244Y-71691550D01*
X122178061Y-71628439D01*
X122174930Y-71625300D01*
X122071544Y-71533844D01*
X121959550Y-71456859D01*
X121839563Y-71394678D01*
X121712199Y-71347635D01*
X121619571Y-71324015D01*
X121539751Y-71311590D01*
X121450773Y-71305163D01*
X121358724Y-71304741D01*
X121269688Y-71310329D01*
G36*
X121208018Y-69254639D02*
X121036444Y-69254661D01*
X120880286Y-69254708D01*
X120738786Y-69254787D01*
X120611184Y-69254905D01*
X120496723Y-69255070D01*
X120394642Y-69255289D01*
X120304185Y-69255571D01*
X120224592Y-69255922D01*
X120155104Y-69256349D01*
X120094963Y-69256862D01*
X120043410Y-69257466D01*
X119999687Y-69258170D01*
X119963035Y-69258981D01*
X119932695Y-69259906D01*
X119907908Y-69260954D01*
X119887917Y-69262132D01*
X119871962Y-69263446D01*
X119859284Y-69264906D01*
X119849126Y-69266517D01*
X119840728Y-69268289D01*
X119833667Y-69270133D01*
X119739511Y-69300983D01*
X119658148Y-69337543D01*
X119585839Y-69381843D01*
X119518851Y-69435910D01*
X119505596Y-69448232D01*
X119482956Y-69470192D01*
X119462466Y-69491413D01*
X119443025Y-69513524D01*
X119423534Y-69538157D01*
X119402894Y-69566944D01*
X119380006Y-69601515D01*
X119353771Y-69643502D01*
X119323089Y-69694536D01*
X119286862Y-69756248D01*
X119243989Y-69830268D01*
X119219548Y-69872700D01*
X119177456Y-69945843D01*
X119131743Y-70025254D01*
X119084683Y-70106984D01*
X119038551Y-70187084D01*
X118995620Y-70261605D01*
X118958164Y-70326598D01*
X118948195Y-70343889D01*
X118827857Y-70552613D01*
X119485278Y-70931580D01*
X119582257Y-70987479D01*
X119675058Y-71040964D01*
X119762631Y-71091430D01*
X119843925Y-71138270D01*
X119917890Y-71180881D01*
X119983476Y-71218657D01*
X120039632Y-71250994D01*
X120085307Y-71277286D01*
X120119452Y-71296928D01*
X120141015Y-71309315D01*
X120148938Y-71313837D01*
X120157063Y-71309530D01*
X120173611Y-71295237D01*
X120195684Y-71273566D01*
X120207667Y-71261012D01*
X120306986Y-71165394D01*
X120419624Y-71075776D01*
X120542432Y-70994222D01*
X120672260Y-70922795D01*
X120805958Y-70863560D01*
X120825950Y-70855929D01*
X120981313Y-70806808D01*
X121140471Y-70773720D01*
X121301981Y-70756596D01*
X121464401Y-70755365D01*
X121626285Y-70769958D01*
X121786192Y-70800306D01*
X121942677Y-70846339D01*
X122094298Y-70907988D01*
X122115433Y-70918045D01*
X122247670Y-70989224D01*
X122369134Y-71069905D01*
X122483566Y-71162777D01*
X122568400Y-71243435D01*
X122596494Y-71271481D01*
X122620182Y-71294444D01*
X122637016Y-71309999D01*
X122644547Y-71315820D01*
X122644600Y-71315820D01*
X122652391Y-71311621D01*
X122673789Y-71299543D01*
X122707744Y-71280189D01*
X122753208Y-71254164D01*
X122809131Y-71222068D01*
X122874463Y-71184507D01*
X122948157Y-71142083D01*
X123029163Y-71095399D01*
X123116431Y-71045059D01*
X123208913Y-70991665D01*
X123300767Y-70938591D01*
X123397336Y-70882740D01*
X123489736Y-70829241D01*
X123576910Y-70778709D01*
X123657802Y-70731758D01*
X123731357Y-70689004D01*
X123796519Y-70651060D01*
X123852233Y-70618543D01*
X123897442Y-70592065D01*
X123931092Y-70572243D01*
X123952126Y-70559690D01*
X123959454Y-70555065D01*
X123956713Y-70546592D01*
X123946145Y-70524992D01*
X123928576Y-70491692D01*
X123904832Y-70448120D01*
X123875740Y-70395704D01*
X123842127Y-70335873D01*
X123804818Y-70270054D01*
X123764640Y-70199674D01*
X123722419Y-70126162D01*
X123678982Y-70050945D01*
X123635154Y-69975452D01*
X123591762Y-69901111D01*
X123549632Y-69829348D01*
X123509592Y-69761593D01*
X123472466Y-69699272D01*
X123439081Y-69643814D01*
X123410264Y-69596647D01*
X123386841Y-69559198D01*
X123369638Y-69532896D01*
X123361050Y-69521013D01*
X123288947Y-69444721D01*
X123204915Y-69378704D01*
X123111641Y-69324683D01*
X123011809Y-69284379D01*
X122974800Y-69273563D01*
X122902834Y-69254633D01*
X121395767Y-69254633D01*
X121208018Y-69254639D01*
X121208018Y-69254639D01*
G37*
X121208018Y-69254639D02*
X121036444Y-69254661D01*
X120880286Y-69254708D01*
X120738786Y-69254787D01*
X120611184Y-69254905D01*
X120496723Y-69255070D01*
X120394642Y-69255289D01*
X120304185Y-69255571D01*
X120224592Y-69255922D01*
X120155104Y-69256349D01*
X120094963Y-69256862D01*
X120043410Y-69257466D01*
X119999687Y-69258170D01*
X119963035Y-69258981D01*
X119932695Y-69259906D01*
X119907908Y-69260954D01*
X119887917Y-69262132D01*
X119871962Y-69263446D01*
X119859284Y-69264906D01*
X119849126Y-69266517D01*
X119840728Y-69268289D01*
X119833667Y-69270133D01*
X119739511Y-69300983D01*
X119658148Y-69337543D01*
X119585839Y-69381843D01*
X119518851Y-69435910D01*
X119505596Y-69448232D01*
X119482956Y-69470192D01*
X119462466Y-69491413D01*
X119443025Y-69513524D01*
X119423534Y-69538157D01*
X119402894Y-69566944D01*
X119380006Y-69601515D01*
X119353771Y-69643502D01*
X119323089Y-69694536D01*
X119286862Y-69756248D01*
X119243989Y-69830268D01*
X119219548Y-69872700D01*
X119177456Y-69945843D01*
X119131743Y-70025254D01*
X119084683Y-70106984D01*
X119038551Y-70187084D01*
X118995620Y-70261605D01*
X118958164Y-70326598D01*
X118948195Y-70343889D01*
X118827857Y-70552613D01*
X119485278Y-70931580D01*
X119582257Y-70987479D01*
X119675058Y-71040964D01*
X119762631Y-71091430D01*
X119843925Y-71138270D01*
X119917890Y-71180881D01*
X119983476Y-71218657D01*
X120039632Y-71250994D01*
X120085307Y-71277286D01*
X120119452Y-71296928D01*
X120141015Y-71309315D01*
X120148938Y-71313837D01*
X120157063Y-71309530D01*
X120173611Y-71295237D01*
X120195684Y-71273566D01*
X120207667Y-71261012D01*
X120306986Y-71165394D01*
X120419624Y-71075776D01*
X120542432Y-70994222D01*
X120672260Y-70922795D01*
X120805958Y-70863560D01*
X120825950Y-70855929D01*
X120981313Y-70806808D01*
X121140471Y-70773720D01*
X121301981Y-70756596D01*
X121464401Y-70755365D01*
X121626285Y-70769958D01*
X121786192Y-70800306D01*
X121942677Y-70846339D01*
X122094298Y-70907988D01*
X122115433Y-70918045D01*
X122247670Y-70989224D01*
X122369134Y-71069905D01*
X122483566Y-71162777D01*
X122568400Y-71243435D01*
X122596494Y-71271481D01*
X122620182Y-71294444D01*
X122637016Y-71309999D01*
X122644547Y-71315820D01*
X122644600Y-71315820D01*
X122652391Y-71311621D01*
X122673789Y-71299543D01*
X122707744Y-71280189D01*
X122753208Y-71254164D01*
X122809131Y-71222068D01*
X122874463Y-71184507D01*
X122948157Y-71142083D01*
X123029163Y-71095399D01*
X123116431Y-71045059D01*
X123208913Y-70991665D01*
X123300767Y-70938591D01*
X123397336Y-70882740D01*
X123489736Y-70829241D01*
X123576910Y-70778709D01*
X123657802Y-70731758D01*
X123731357Y-70689004D01*
X123796519Y-70651060D01*
X123852233Y-70618543D01*
X123897442Y-70592065D01*
X123931092Y-70572243D01*
X123952126Y-70559690D01*
X123959454Y-70555065D01*
X123956713Y-70546592D01*
X123946145Y-70524992D01*
X123928576Y-70491692D01*
X123904832Y-70448120D01*
X123875740Y-70395704D01*
X123842127Y-70335873D01*
X123804818Y-70270054D01*
X123764640Y-70199674D01*
X123722419Y-70126162D01*
X123678982Y-70050945D01*
X123635154Y-69975452D01*
X123591762Y-69901111D01*
X123549632Y-69829348D01*
X123509592Y-69761593D01*
X123472466Y-69699272D01*
X123439081Y-69643814D01*
X123410264Y-69596647D01*
X123386841Y-69559198D01*
X123369638Y-69532896D01*
X123361050Y-69521013D01*
X123288947Y-69444721D01*
X123204915Y-69378704D01*
X123111641Y-69324683D01*
X123011809Y-69284379D01*
X122974800Y-69273563D01*
X122902834Y-69254633D01*
X121395767Y-69254633D01*
X121208018Y-69254639D01*
D14*
X147392857Y-67907142D02*
X147407142Y-67921428D01*
X147450000Y-67935714D01*
X147478571Y-67935714D01*
X147521428Y-67921428D01*
X147550000Y-67892857D01*
X147564285Y-67864285D01*
X147578571Y-67807142D01*
X147578571Y-67764285D01*
X147564285Y-67707142D01*
X147550000Y-67678571D01*
X147521428Y-67650000D01*
X147478571Y-67635714D01*
X147450000Y-67635714D01*
X147407142Y-67650000D01*
X147392857Y-67664285D01*
X147107142Y-67935714D02*
X147278571Y-67935714D01*
X147192857Y-67935714D02*
X147192857Y-67635714D01*
X147221428Y-67678571D01*
X147250000Y-67707142D01*
X147278571Y-67721428D01*
X146850000Y-67735714D02*
X146850000Y-67935714D01*
X146921428Y-67621428D02*
X146992857Y-67835714D01*
X146807142Y-67835714D01*
X145442857Y-68307142D02*
X145457142Y-68321428D01*
X145500000Y-68335714D01*
X145528571Y-68335714D01*
X145571428Y-68321428D01*
X145600000Y-68292857D01*
X145614285Y-68264285D01*
X145628571Y-68207142D01*
X145628571Y-68164285D01*
X145614285Y-68107142D01*
X145600000Y-68078571D01*
X145571428Y-68050000D01*
X145528571Y-68035714D01*
X145500000Y-68035714D01*
X145457142Y-68050000D01*
X145442857Y-68064285D01*
X145157142Y-68335714D02*
X145328571Y-68335714D01*
X145242857Y-68335714D02*
X145242857Y-68035714D01*
X145271428Y-68078571D01*
X145300000Y-68107142D01*
X145328571Y-68121428D01*
X144885714Y-68035714D02*
X145028571Y-68035714D01*
X145042857Y-68178571D01*
X145028571Y-68164285D01*
X145000000Y-68150000D01*
X144928571Y-68150000D01*
X144900000Y-68164285D01*
X144885714Y-68178571D01*
X144871428Y-68207142D01*
X144871428Y-68278571D01*
X144885714Y-68307142D01*
X144900000Y-68321428D01*
X144928571Y-68335714D01*
X145000000Y-68335714D01*
X145028571Y-68321428D01*
X145042857Y-68307142D01*
X143792857Y-68307142D02*
X143807142Y-68321428D01*
X143850000Y-68335714D01*
X143878571Y-68335714D01*
X143921428Y-68321428D01*
X143950000Y-68292857D01*
X143964285Y-68264285D01*
X143978571Y-68207142D01*
X143978571Y-68164285D01*
X143964285Y-68107142D01*
X143950000Y-68078571D01*
X143921428Y-68050000D01*
X143878571Y-68035714D01*
X143850000Y-68035714D01*
X143807142Y-68050000D01*
X143792857Y-68064285D01*
X143507142Y-68335714D02*
X143678571Y-68335714D01*
X143592857Y-68335714D02*
X143592857Y-68035714D01*
X143621428Y-68078571D01*
X143650000Y-68107142D01*
X143678571Y-68121428D01*
X143250000Y-68035714D02*
X143307142Y-68035714D01*
X143335714Y-68050000D01*
X143350000Y-68064285D01*
X143378571Y-68107142D01*
X143392857Y-68164285D01*
X143392857Y-68278571D01*
X143378571Y-68307142D01*
X143364285Y-68321428D01*
X143335714Y-68335714D01*
X143278571Y-68335714D01*
X143250000Y-68321428D01*
X143235714Y-68307142D01*
X143221428Y-68278571D01*
X143221428Y-68207142D01*
X143235714Y-68178571D01*
X143250000Y-68164285D01*
X143278571Y-68150000D01*
X143335714Y-68150000D01*
X143364285Y-68164285D01*
X143378571Y-68178571D01*
X143392857Y-68207142D01*
D10*
X151002380Y-72871428D02*
X151026190Y-72942857D01*
X151026190Y-73061904D01*
X151002380Y-73109523D01*
X150978571Y-73133333D01*
X150930952Y-73157142D01*
X150883333Y-73157142D01*
X150835714Y-73133333D01*
X150811904Y-73109523D01*
X150788095Y-73061904D01*
X150764285Y-72966666D01*
X150740476Y-72919047D01*
X150716666Y-72895238D01*
X150669047Y-72871428D01*
X150621428Y-72871428D01*
X150573809Y-72895238D01*
X150550000Y-72919047D01*
X150526190Y-72966666D01*
X150526190Y-73085714D01*
X150550000Y-73157142D01*
X150526190Y-73323809D02*
X151026190Y-73442857D01*
X150669047Y-73538095D01*
X151026190Y-73633333D01*
X150526190Y-73752380D01*
X151026190Y-73942857D02*
X150526190Y-73942857D01*
X150526190Y-74061904D01*
X150550000Y-74133333D01*
X150597619Y-74180952D01*
X150645238Y-74204761D01*
X150740476Y-74228571D01*
X150811904Y-74228571D01*
X150907142Y-74204761D01*
X150954761Y-74180952D01*
X151002380Y-74133333D01*
X151026190Y-74061904D01*
X151026190Y-73942857D01*
X150502380Y-74800000D02*
X151145238Y-74371428D01*
X151026190Y-74966666D02*
X150526190Y-74966666D01*
X150526190Y-75085714D01*
X150550000Y-75157142D01*
X150597619Y-75204761D01*
X150645238Y-75228571D01*
X150740476Y-75252380D01*
X150811904Y-75252380D01*
X150907142Y-75228571D01*
X150954761Y-75204761D01*
X151002380Y-75157142D01*
X151026190Y-75085714D01*
X151026190Y-74966666D01*
X150764285Y-75466666D02*
X150764285Y-75633333D01*
X151026190Y-75704761D02*
X151026190Y-75466666D01*
X150526190Y-75466666D01*
X150526190Y-75704761D01*
X150764285Y-76085714D02*
X150788095Y-76157142D01*
X150811904Y-76180952D01*
X150859523Y-76204761D01*
X150930952Y-76204761D01*
X150978571Y-76180952D01*
X151002380Y-76157142D01*
X151026190Y-76109523D01*
X151026190Y-75919047D01*
X150526190Y-75919047D01*
X150526190Y-76085714D01*
X150550000Y-76133333D01*
X150573809Y-76157142D01*
X150621428Y-76180952D01*
X150669047Y-76180952D01*
X150716666Y-76157142D01*
X150740476Y-76133333D01*
X150764285Y-76085714D01*
X150764285Y-75919047D01*
X150526190Y-76419047D02*
X150930952Y-76419047D01*
X150978571Y-76442857D01*
X151002380Y-76466666D01*
X151026190Y-76514285D01*
X151026190Y-76609523D01*
X151002380Y-76657142D01*
X150978571Y-76680952D01*
X150930952Y-76704761D01*
X150526190Y-76704761D01*
X150550000Y-77204761D02*
X150526190Y-77157142D01*
X150526190Y-77085714D01*
X150550000Y-77014285D01*
X150597619Y-76966666D01*
X150645238Y-76942857D01*
X150740476Y-76919047D01*
X150811904Y-76919047D01*
X150907142Y-76942857D01*
X150954761Y-76966666D01*
X151002380Y-77014285D01*
X151026190Y-77085714D01*
X151026190Y-77133333D01*
X151002380Y-77204761D01*
X150978571Y-77228571D01*
X150811904Y-77228571D01*
X150811904Y-77133333D01*
D12*
X135011904Y-62902380D02*
X135011904Y-63711904D01*
X134964285Y-63807142D01*
X134916666Y-63854761D01*
X134821428Y-63902380D01*
X134630952Y-63902380D01*
X134535714Y-63854761D01*
X134488095Y-63807142D01*
X134440476Y-63711904D01*
X134440476Y-62902380D01*
X133535714Y-62902380D02*
X133726190Y-62902380D01*
X133821428Y-62950000D01*
X133869047Y-62997619D01*
X133964285Y-63140476D01*
X134011904Y-63330952D01*
X134011904Y-63711904D01*
X133964285Y-63807142D01*
X133916666Y-63854761D01*
X133821428Y-63902380D01*
X133630952Y-63902380D01*
X133535714Y-63854761D01*
X133488095Y-63807142D01*
X133440476Y-63711904D01*
X133440476Y-63473809D01*
X133488095Y-63378571D01*
X133535714Y-63330952D01*
X133630952Y-63283333D01*
X133821428Y-63283333D01*
X133916666Y-63330952D01*
X133964285Y-63378571D01*
X134011904Y-63473809D01*
D10*
X130021428Y-85878571D02*
X130045238Y-85902380D01*
X130116666Y-85926190D01*
X130164285Y-85926190D01*
X130235714Y-85902380D01*
X130283333Y-85854761D01*
X130307142Y-85807142D01*
X130330952Y-85711904D01*
X130330952Y-85640476D01*
X130307142Y-85545238D01*
X130283333Y-85497619D01*
X130235714Y-85450000D01*
X130164285Y-85426190D01*
X130116666Y-85426190D01*
X130045238Y-85450000D01*
X130021428Y-85473809D01*
X129830952Y-85783333D02*
X129592857Y-85783333D01*
X129878571Y-85926190D02*
X129711904Y-85426190D01*
X129545238Y-85926190D01*
X129378571Y-85926190D02*
X129378571Y-85426190D01*
X129092857Y-85926190D01*
X129092857Y-85426190D01*
X141646428Y-85878571D02*
X141670238Y-85902380D01*
X141741666Y-85926190D01*
X141789285Y-85926190D01*
X141860714Y-85902380D01*
X141908333Y-85854761D01*
X141932142Y-85807142D01*
X141955952Y-85711904D01*
X141955952Y-85640476D01*
X141932142Y-85545238D01*
X141908333Y-85497619D01*
X141860714Y-85450000D01*
X141789285Y-85426190D01*
X141741666Y-85426190D01*
X141670238Y-85450000D01*
X141646428Y-85473809D01*
X141455952Y-85783333D02*
X141217857Y-85783333D01*
X141503571Y-85926190D02*
X141336904Y-85426190D01*
X141170238Y-85926190D01*
X141003571Y-85926190D02*
X141003571Y-85426190D01*
X140717857Y-85926190D01*
X140717857Y-85426190D01*
M02*
