G04 #@! TF.GenerationSoftware,KiCad,Pcbnew,no-vcs-found-bf44d39~61~ubuntu14.04.1*
G04 #@! TF.CreationDate,2018-02-04T18:49:22+01:00*
G04 #@! TF.ProjectId,beacon,626561636F6E2E6B696361645F706362,rev?*
G04 #@! TF.SameCoordinates,Original*
G04 #@! TF.FileFunction,Legend,Bot*
G04 #@! TF.FilePolarity,Positive*
%FSLAX46Y46*%
G04 Gerber Fmt 4.6, Leading zero omitted, Abs format (unit mm)*
G04 Created by KiCad (PCBNEW no-vcs-found-bf44d39~61~ubuntu14.04.1) date Sun Feb  4 18:49:22 2018*
%MOMM*%
%LPD*%
G01*
G04 APERTURE LIST*
%ADD10C,0.200000*%
%ADD11C,0.250000*%
%ADD12C,0.100000*%
%ADD13C,0.150000*%
%ADD14C,0.050000*%
G04 APERTURE END LIST*
D10*
X144835714Y-77842857D02*
X144835714Y-78814285D01*
X144778571Y-78928571D01*
X144721428Y-78985714D01*
X144607142Y-79042857D01*
X144378571Y-79042857D01*
X144264285Y-78985714D01*
X144207142Y-78928571D01*
X144150000Y-78814285D01*
X144150000Y-77842857D01*
X143692857Y-77842857D02*
X143407142Y-79042857D01*
X143178571Y-78185714D01*
X142950000Y-79042857D01*
X142664285Y-77842857D01*
X141807142Y-78414285D02*
X141635714Y-78471428D01*
X141578571Y-78528571D01*
X141521428Y-78642857D01*
X141521428Y-78814285D01*
X141578571Y-78928571D01*
X141635714Y-78985714D01*
X141750000Y-79042857D01*
X142207142Y-79042857D01*
X142207142Y-77842857D01*
X141807142Y-77842857D01*
X141692857Y-77900000D01*
X141635714Y-77957142D01*
X141578571Y-78071428D01*
X141578571Y-78185714D01*
X141635714Y-78300000D01*
X141692857Y-78357142D01*
X141807142Y-78414285D01*
X142207142Y-78414285D01*
X139692857Y-78414285D02*
X139521428Y-78471428D01*
X139464285Y-78528571D01*
X139407142Y-78642857D01*
X139407142Y-78814285D01*
X139464285Y-78928571D01*
X139521428Y-78985714D01*
X139635714Y-79042857D01*
X140092857Y-79042857D01*
X140092857Y-77842857D01*
X139692857Y-77842857D01*
X139578571Y-77900000D01*
X139521428Y-77957142D01*
X139464285Y-78071428D01*
X139464285Y-78185714D01*
X139521428Y-78300000D01*
X139578571Y-78357142D01*
X139692857Y-78414285D01*
X140092857Y-78414285D01*
X138435714Y-78985714D02*
X138550000Y-79042857D01*
X138778571Y-79042857D01*
X138892857Y-78985714D01*
X138950000Y-78871428D01*
X138950000Y-78414285D01*
X138892857Y-78300000D01*
X138778571Y-78242857D01*
X138550000Y-78242857D01*
X138435714Y-78300000D01*
X138378571Y-78414285D01*
X138378571Y-78528571D01*
X138950000Y-78642857D01*
X137350000Y-79042857D02*
X137350000Y-78414285D01*
X137407142Y-78300000D01*
X137521428Y-78242857D01*
X137750000Y-78242857D01*
X137864285Y-78300000D01*
X137350000Y-78985714D02*
X137464285Y-79042857D01*
X137750000Y-79042857D01*
X137864285Y-78985714D01*
X137921428Y-78871428D01*
X137921428Y-78757142D01*
X137864285Y-78642857D01*
X137750000Y-78585714D01*
X137464285Y-78585714D01*
X137350000Y-78528571D01*
X136264285Y-78985714D02*
X136378571Y-79042857D01*
X136607142Y-79042857D01*
X136721428Y-78985714D01*
X136778571Y-78928571D01*
X136835714Y-78814285D01*
X136835714Y-78471428D01*
X136778571Y-78357142D01*
X136721428Y-78300000D01*
X136607142Y-78242857D01*
X136378571Y-78242857D01*
X136264285Y-78300000D01*
X135578571Y-79042857D02*
X135692857Y-78985714D01*
X135750000Y-78928571D01*
X135807142Y-78814285D01*
X135807142Y-78471428D01*
X135750000Y-78357142D01*
X135692857Y-78300000D01*
X135578571Y-78242857D01*
X135407142Y-78242857D01*
X135292857Y-78300000D01*
X135235714Y-78357142D01*
X135178571Y-78471428D01*
X135178571Y-78814285D01*
X135235714Y-78928571D01*
X135292857Y-78985714D01*
X135407142Y-79042857D01*
X135578571Y-79042857D01*
X134664285Y-78242857D02*
X134664285Y-79042857D01*
X134664285Y-78357142D02*
X134607142Y-78300000D01*
X134492857Y-78242857D01*
X134321428Y-78242857D01*
X134207142Y-78300000D01*
X134150000Y-78414285D01*
X134150000Y-79042857D01*
X132664285Y-79042857D02*
X132664285Y-77842857D01*
X132664285Y-78300000D02*
X132550000Y-78242857D01*
X132321428Y-78242857D01*
X132207142Y-78300000D01*
X132150000Y-78357142D01*
X132092857Y-78471428D01*
X132092857Y-78814285D01*
X132150000Y-78928571D01*
X132207142Y-78985714D01*
X132321428Y-79042857D01*
X132550000Y-79042857D01*
X132664285Y-78985714D01*
X131407142Y-79042857D02*
X131521428Y-78985714D01*
X131578571Y-78928571D01*
X131635714Y-78814285D01*
X131635714Y-78471428D01*
X131578571Y-78357142D01*
X131521428Y-78300000D01*
X131407142Y-78242857D01*
X131235714Y-78242857D01*
X131121428Y-78300000D01*
X131064285Y-78357142D01*
X131007142Y-78471428D01*
X131007142Y-78814285D01*
X131064285Y-78928571D01*
X131121428Y-78985714D01*
X131235714Y-79042857D01*
X131407142Y-79042857D01*
X129978571Y-79042857D02*
X129978571Y-78414285D01*
X130035714Y-78300000D01*
X130150000Y-78242857D01*
X130378571Y-78242857D01*
X130492857Y-78300000D01*
X129978571Y-78985714D02*
X130092857Y-79042857D01*
X130378571Y-79042857D01*
X130492857Y-78985714D01*
X130550000Y-78871428D01*
X130550000Y-78757142D01*
X130492857Y-78642857D01*
X130378571Y-78585714D01*
X130092857Y-78585714D01*
X129978571Y-78528571D01*
X129407142Y-79042857D02*
X129407142Y-78242857D01*
X129407142Y-78471428D02*
X129350000Y-78357142D01*
X129292857Y-78300000D01*
X129178571Y-78242857D01*
X129064285Y-78242857D01*
X128150000Y-79042857D02*
X128150000Y-77842857D01*
X128150000Y-78985714D02*
X128264285Y-79042857D01*
X128492857Y-79042857D01*
X128607142Y-78985714D01*
X128664285Y-78928571D01*
X128721428Y-78814285D01*
X128721428Y-78471428D01*
X128664285Y-78357142D01*
X128607142Y-78300000D01*
X128492857Y-78242857D01*
X128264285Y-78242857D01*
X128150000Y-78300000D01*
X126778571Y-78242857D02*
X126492857Y-79042857D01*
X126207142Y-78242857D01*
X125121428Y-79042857D02*
X125807142Y-79042857D01*
X125464285Y-79042857D02*
X125464285Y-77842857D01*
X125578571Y-78014285D01*
X125692857Y-78128571D01*
X125807142Y-78185714D01*
X124607142Y-78928571D02*
X124550000Y-78985714D01*
X124607142Y-79042857D01*
X124664285Y-78985714D01*
X124607142Y-78928571D01*
X124607142Y-79042857D01*
X123407142Y-79042857D02*
X124092857Y-79042857D01*
X123750000Y-79042857D02*
X123750000Y-77842857D01*
X123864285Y-78014285D01*
X123978571Y-78128571D01*
X124092857Y-78185714D01*
X150321428Y-80928571D02*
X150378571Y-80985714D01*
X150550000Y-81042857D01*
X150664285Y-81042857D01*
X150835714Y-80985714D01*
X150950000Y-80871428D01*
X151007142Y-80757142D01*
X151064285Y-80528571D01*
X151064285Y-80357142D01*
X151007142Y-80128571D01*
X150950000Y-80014285D01*
X150835714Y-79900000D01*
X150664285Y-79842857D01*
X150550000Y-79842857D01*
X150378571Y-79900000D01*
X150321428Y-79957142D01*
X149635714Y-81042857D02*
X149750000Y-80985714D01*
X149807142Y-80871428D01*
X149807142Y-79842857D01*
X148664285Y-80242857D02*
X148664285Y-81042857D01*
X149178571Y-80242857D02*
X149178571Y-80871428D01*
X149121428Y-80985714D01*
X149007142Y-81042857D01*
X148835714Y-81042857D01*
X148721428Y-80985714D01*
X148664285Y-80928571D01*
X148092857Y-81042857D02*
X148092857Y-79842857D01*
X148092857Y-80300000D02*
X147978571Y-80242857D01*
X147750000Y-80242857D01*
X147635714Y-80300000D01*
X147578571Y-80357142D01*
X147521428Y-80471428D01*
X147521428Y-80814285D01*
X147578571Y-80928571D01*
X147635714Y-80985714D01*
X147750000Y-81042857D01*
X147978571Y-81042857D01*
X148092857Y-80985714D01*
X146264285Y-79842857D02*
X145864285Y-81042857D01*
X145464285Y-79842857D01*
X144550000Y-81042857D02*
X144550000Y-80414285D01*
X144607142Y-80300000D01*
X144721428Y-80242857D01*
X144950000Y-80242857D01*
X145064285Y-80300000D01*
X144550000Y-80985714D02*
X144664285Y-81042857D01*
X144950000Y-81042857D01*
X145064285Y-80985714D01*
X145121428Y-80871428D01*
X145121428Y-80757142D01*
X145064285Y-80642857D01*
X144950000Y-80585714D01*
X144664285Y-80585714D01*
X144550000Y-80528571D01*
X143464285Y-80242857D02*
X143464285Y-81042857D01*
X143978571Y-80242857D02*
X143978571Y-80871428D01*
X143921428Y-80985714D01*
X143807142Y-81042857D01*
X143635714Y-81042857D01*
X143521428Y-80985714D01*
X143464285Y-80928571D01*
X142378571Y-81042857D02*
X142378571Y-79842857D01*
X142378571Y-80985714D02*
X142492857Y-81042857D01*
X142721428Y-81042857D01*
X142835714Y-80985714D01*
X142892857Y-80928571D01*
X142950000Y-80814285D01*
X142950000Y-80471428D01*
X142892857Y-80357142D01*
X142835714Y-80300000D01*
X142721428Y-80242857D01*
X142492857Y-80242857D01*
X142378571Y-80300000D01*
X141635714Y-81042857D02*
X141750000Y-80985714D01*
X141807142Y-80928571D01*
X141864285Y-80814285D01*
X141864285Y-80471428D01*
X141807142Y-80357142D01*
X141750000Y-80300000D01*
X141635714Y-80242857D01*
X141464285Y-80242857D01*
X141350000Y-80300000D01*
X141292857Y-80357142D01*
X141235714Y-80471428D01*
X141235714Y-80814285D01*
X141292857Y-80928571D01*
X141350000Y-80985714D01*
X141464285Y-81042857D01*
X141635714Y-81042857D01*
X140721428Y-81042857D02*
X140721428Y-80242857D01*
X140721428Y-79842857D02*
X140778571Y-79900000D01*
X140721428Y-79957142D01*
X140664285Y-79900000D01*
X140721428Y-79842857D01*
X140721428Y-79957142D01*
X140207142Y-80985714D02*
X140092857Y-81042857D01*
X139864285Y-81042857D01*
X139750000Y-80985714D01*
X139692857Y-80871428D01*
X139692857Y-80814285D01*
X139750000Y-80700000D01*
X139864285Y-80642857D01*
X140035714Y-80642857D01*
X140150000Y-80585714D01*
X140207142Y-80471428D01*
X140207142Y-80414285D01*
X140150000Y-80300000D01*
X140035714Y-80242857D01*
X139864285Y-80242857D01*
X139750000Y-80300000D01*
X137750000Y-81042857D02*
X137750000Y-79842857D01*
X137750000Y-80985714D02*
X137864285Y-81042857D01*
X138092857Y-81042857D01*
X138207142Y-80985714D01*
X138264285Y-80928571D01*
X138321428Y-80814285D01*
X138321428Y-80471428D01*
X138264285Y-80357142D01*
X138207142Y-80300000D01*
X138092857Y-80242857D01*
X137864285Y-80242857D01*
X137750000Y-80300000D01*
X136721428Y-80985714D02*
X136835714Y-81042857D01*
X137064285Y-81042857D01*
X137178571Y-80985714D01*
X137235714Y-80871428D01*
X137235714Y-80414285D01*
X137178571Y-80300000D01*
X137064285Y-80242857D01*
X136835714Y-80242857D01*
X136721428Y-80300000D01*
X136664285Y-80414285D01*
X136664285Y-80528571D01*
X137235714Y-80642857D01*
X134550000Y-81042857D02*
X134950000Y-80471428D01*
X135235714Y-81042857D02*
X135235714Y-79842857D01*
X134778571Y-79842857D01*
X134664285Y-79900000D01*
X134607142Y-79957142D01*
X134550000Y-80071428D01*
X134550000Y-80242857D01*
X134607142Y-80357142D01*
X134664285Y-80414285D01*
X134778571Y-80471428D01*
X135235714Y-80471428D01*
X133864285Y-81042857D02*
X133978571Y-80985714D01*
X134035714Y-80928571D01*
X134092857Y-80814285D01*
X134092857Y-80471428D01*
X134035714Y-80357142D01*
X133978571Y-80300000D01*
X133864285Y-80242857D01*
X133692857Y-80242857D01*
X133578571Y-80300000D01*
X133521428Y-80357142D01*
X133464285Y-80471428D01*
X133464285Y-80814285D01*
X133521428Y-80928571D01*
X133578571Y-80985714D01*
X133692857Y-81042857D01*
X133864285Y-81042857D01*
X132950000Y-81042857D02*
X132950000Y-79842857D01*
X132950000Y-80300000D02*
X132835714Y-80242857D01*
X132607142Y-80242857D01*
X132492857Y-80300000D01*
X132435714Y-80357142D01*
X132378571Y-80471428D01*
X132378571Y-80814285D01*
X132435714Y-80928571D01*
X132492857Y-80985714D01*
X132607142Y-81042857D01*
X132835714Y-81042857D01*
X132950000Y-80985714D01*
X131692857Y-81042857D02*
X131807142Y-80985714D01*
X131864285Y-80928571D01*
X131921428Y-80814285D01*
X131921428Y-80471428D01*
X131864285Y-80357142D01*
X131807142Y-80300000D01*
X131692857Y-80242857D01*
X131521428Y-80242857D01*
X131407142Y-80300000D01*
X131350000Y-80357142D01*
X131292857Y-80471428D01*
X131292857Y-80814285D01*
X131350000Y-80928571D01*
X131407142Y-80985714D01*
X131521428Y-81042857D01*
X131692857Y-81042857D01*
X130950000Y-80242857D02*
X130492857Y-80242857D01*
X130778571Y-79842857D02*
X130778571Y-80871428D01*
X130721428Y-80985714D01*
X130607142Y-81042857D01*
X130492857Y-81042857D01*
X130092857Y-81042857D02*
X130092857Y-80242857D01*
X130092857Y-79842857D02*
X130150000Y-79900000D01*
X130092857Y-79957142D01*
X130035714Y-79900000D01*
X130092857Y-79842857D01*
X130092857Y-79957142D01*
X129007142Y-80242857D02*
X129007142Y-81442857D01*
X129007142Y-80985714D02*
X129121428Y-81042857D01*
X129350000Y-81042857D01*
X129464285Y-80985714D01*
X129521428Y-80928571D01*
X129578571Y-80814285D01*
X129578571Y-80471428D01*
X129521428Y-80357142D01*
X129464285Y-80300000D01*
X129350000Y-80242857D01*
X129121428Y-80242857D01*
X129007142Y-80300000D01*
X127921428Y-80242857D02*
X127921428Y-81042857D01*
X128435714Y-80242857D02*
X128435714Y-80871428D01*
X128378571Y-80985714D01*
X128264285Y-81042857D01*
X128092857Y-81042857D01*
X127978571Y-80985714D01*
X127921428Y-80928571D01*
X126892857Y-80985714D02*
X127007142Y-81042857D01*
X127235714Y-81042857D01*
X127350000Y-80985714D01*
X127407142Y-80871428D01*
X127407142Y-80414285D01*
X127350000Y-80300000D01*
X127235714Y-80242857D01*
X127007142Y-80242857D01*
X126892857Y-80300000D01*
X126835714Y-80414285D01*
X126835714Y-80528571D01*
X127407142Y-80642857D01*
X125464285Y-80700000D02*
X124892857Y-80700000D01*
X125578571Y-81042857D02*
X125178571Y-79842857D01*
X124778571Y-81042857D01*
X123864285Y-80242857D02*
X123864285Y-81042857D01*
X124378571Y-80242857D02*
X124378571Y-80871428D01*
X124321428Y-80985714D01*
X124207142Y-81042857D01*
X124035714Y-81042857D01*
X123921428Y-80985714D01*
X123864285Y-80928571D01*
X123464285Y-80242857D02*
X123007142Y-80242857D01*
X123292857Y-79842857D02*
X123292857Y-80871428D01*
X123235714Y-80985714D01*
X123121428Y-81042857D01*
X123007142Y-81042857D01*
X122435714Y-81042857D02*
X122550000Y-80985714D01*
X122607142Y-80928571D01*
X122664285Y-80814285D01*
X122664285Y-80471428D01*
X122607142Y-80357142D01*
X122550000Y-80300000D01*
X122435714Y-80242857D01*
X122264285Y-80242857D01*
X122150000Y-80300000D01*
X122092857Y-80357142D01*
X122035714Y-80471428D01*
X122035714Y-80814285D01*
X122092857Y-80928571D01*
X122150000Y-80985714D01*
X122264285Y-81042857D01*
X122435714Y-81042857D01*
X121521428Y-80242857D02*
X121521428Y-81042857D01*
X121521428Y-80357142D02*
X121464285Y-80300000D01*
X121350000Y-80242857D01*
X121178571Y-80242857D01*
X121064285Y-80300000D01*
X121007142Y-80414285D01*
X121007142Y-81042857D01*
X120264285Y-81042857D02*
X120378571Y-80985714D01*
X120435714Y-80928571D01*
X120492857Y-80814285D01*
X120492857Y-80471428D01*
X120435714Y-80357142D01*
X120378571Y-80300000D01*
X120264285Y-80242857D01*
X120092857Y-80242857D01*
X119978571Y-80300000D01*
X119921428Y-80357142D01*
X119864285Y-80471428D01*
X119864285Y-80814285D01*
X119921428Y-80928571D01*
X119978571Y-80985714D01*
X120092857Y-81042857D01*
X120264285Y-81042857D01*
X119350000Y-81042857D02*
X119350000Y-80242857D01*
X119350000Y-80357142D02*
X119292857Y-80300000D01*
X119178571Y-80242857D01*
X119007142Y-80242857D01*
X118892857Y-80300000D01*
X118835714Y-80414285D01*
X118835714Y-81042857D01*
X118835714Y-80414285D02*
X118778571Y-80300000D01*
X118664285Y-80242857D01*
X118492857Y-80242857D01*
X118378571Y-80300000D01*
X118321428Y-80414285D01*
X118321428Y-81042857D01*
X117292857Y-80985714D02*
X117407142Y-81042857D01*
X117635714Y-81042857D01*
X117750000Y-80985714D01*
X117807142Y-80871428D01*
X117807142Y-80414285D01*
X117750000Y-80300000D01*
X117635714Y-80242857D01*
X117407142Y-80242857D01*
X117292857Y-80300000D01*
X117235714Y-80414285D01*
X117235714Y-80528571D01*
X117807142Y-80642857D01*
X136578571Y-82985714D02*
X136692857Y-83042857D01*
X136921428Y-83042857D01*
X137035714Y-82985714D01*
X137092857Y-82928571D01*
X137150000Y-82814285D01*
X137150000Y-82471428D01*
X137092857Y-82357142D01*
X137035714Y-82300000D01*
X136921428Y-82242857D01*
X136692857Y-82242857D01*
X136578571Y-82300000D01*
X136178571Y-82242857D02*
X135892857Y-83042857D01*
X135607142Y-82242857D01*
X135150000Y-83042857D02*
X135150000Y-82242857D01*
X135150000Y-82471428D02*
X135092857Y-82357142D01*
X135035714Y-82300000D01*
X134921428Y-82242857D01*
X134807142Y-82242857D01*
X133892857Y-83042857D02*
X133892857Y-82414285D01*
X133950000Y-82300000D01*
X134064285Y-82242857D01*
X134292857Y-82242857D01*
X134407142Y-82300000D01*
X133892857Y-82985714D02*
X134007142Y-83042857D01*
X134292857Y-83042857D01*
X134407142Y-82985714D01*
X134464285Y-82871428D01*
X134464285Y-82757142D01*
X134407142Y-82642857D01*
X134292857Y-82585714D01*
X134007142Y-82585714D01*
X133892857Y-82528571D01*
X133321428Y-82928571D02*
X133264285Y-82985714D01*
X133321428Y-83042857D01*
X133378571Y-82985714D01*
X133321428Y-82928571D01*
X133321428Y-83042857D01*
X132235714Y-82985714D02*
X132350000Y-83042857D01*
X132578571Y-83042857D01*
X132692857Y-82985714D01*
X132750000Y-82928571D01*
X132807142Y-82814285D01*
X132807142Y-82471428D01*
X132750000Y-82357142D01*
X132692857Y-82300000D01*
X132578571Y-82242857D01*
X132350000Y-82242857D01*
X132235714Y-82300000D01*
X131721428Y-83042857D02*
X131721428Y-81842857D01*
X131207142Y-83042857D02*
X131207142Y-82414285D01*
X131264285Y-82300000D01*
X131378571Y-82242857D01*
X131550000Y-82242857D01*
X131664285Y-82300000D01*
X131721428Y-82357142D01*
D11*
X153650000Y-71250000D02*
X153640000Y-71250000D01*
X136050000Y-86500000D02*
X136050000Y-86490000D01*
X147675000Y-86500000D02*
X147675000Y-86490000D01*
D12*
X151002380Y-72871428D02*
X151026190Y-72942857D01*
X151026190Y-73061904D01*
X151002380Y-73109523D01*
X150978571Y-73133333D01*
X150930952Y-73157142D01*
X150883333Y-73157142D01*
X150835714Y-73133333D01*
X150811904Y-73109523D01*
X150788095Y-73061904D01*
X150764285Y-72966666D01*
X150740476Y-72919047D01*
X150716666Y-72895238D01*
X150669047Y-72871428D01*
X150621428Y-72871428D01*
X150573809Y-72895238D01*
X150550000Y-72919047D01*
X150526190Y-72966666D01*
X150526190Y-73085714D01*
X150550000Y-73157142D01*
X150526190Y-73323809D02*
X151026190Y-73442857D01*
X150669047Y-73538095D01*
X151026190Y-73633333D01*
X150526190Y-73752380D01*
X151026190Y-73942857D02*
X150526190Y-73942857D01*
X150526190Y-74061904D01*
X150550000Y-74133333D01*
X150597619Y-74180952D01*
X150645238Y-74204761D01*
X150740476Y-74228571D01*
X150811904Y-74228571D01*
X150907142Y-74204761D01*
X150954761Y-74180952D01*
X151002380Y-74133333D01*
X151026190Y-74061904D01*
X151026190Y-73942857D01*
X150502380Y-74800000D02*
X151145238Y-74371428D01*
X151026190Y-74966666D02*
X150526190Y-74966666D01*
X150526190Y-75085714D01*
X150550000Y-75157142D01*
X150597619Y-75204761D01*
X150645238Y-75228571D01*
X150740476Y-75252380D01*
X150811904Y-75252380D01*
X150907142Y-75228571D01*
X150954761Y-75204761D01*
X151002380Y-75157142D01*
X151026190Y-75085714D01*
X151026190Y-74966666D01*
X150764285Y-75466666D02*
X150764285Y-75633333D01*
X151026190Y-75704761D02*
X151026190Y-75466666D01*
X150526190Y-75466666D01*
X150526190Y-75704761D01*
X150764285Y-76085714D02*
X150788095Y-76157142D01*
X150811904Y-76180952D01*
X150859523Y-76204761D01*
X150930952Y-76204761D01*
X150978571Y-76180952D01*
X151002380Y-76157142D01*
X151026190Y-76109523D01*
X151026190Y-75919047D01*
X150526190Y-75919047D01*
X150526190Y-76085714D01*
X150550000Y-76133333D01*
X150573809Y-76157142D01*
X150621428Y-76180952D01*
X150669047Y-76180952D01*
X150716666Y-76157142D01*
X150740476Y-76133333D01*
X150764285Y-76085714D01*
X150764285Y-75919047D01*
X150526190Y-76419047D02*
X150930952Y-76419047D01*
X150978571Y-76442857D01*
X151002380Y-76466666D01*
X151026190Y-76514285D01*
X151026190Y-76609523D01*
X151002380Y-76657142D01*
X150978571Y-76680952D01*
X150930952Y-76704761D01*
X150526190Y-76704761D01*
X150550000Y-77204761D02*
X150526190Y-77157142D01*
X150526190Y-77085714D01*
X150550000Y-77014285D01*
X150597619Y-76966666D01*
X150645238Y-76942857D01*
X150740476Y-76919047D01*
X150811904Y-76919047D01*
X150907142Y-76942857D01*
X150954761Y-76966666D01*
X151002380Y-77014285D01*
X151026190Y-77085714D01*
X151026190Y-77133333D01*
X151002380Y-77204761D01*
X150978571Y-77228571D01*
X150811904Y-77228571D01*
X150811904Y-77133333D01*
X130021428Y-85878571D02*
X130045238Y-85902380D01*
X130116666Y-85926190D01*
X130164285Y-85926190D01*
X130235714Y-85902380D01*
X130283333Y-85854761D01*
X130307142Y-85807142D01*
X130330952Y-85711904D01*
X130330952Y-85640476D01*
X130307142Y-85545238D01*
X130283333Y-85497619D01*
X130235714Y-85450000D01*
X130164285Y-85426190D01*
X130116666Y-85426190D01*
X130045238Y-85450000D01*
X130021428Y-85473809D01*
X129830952Y-85783333D02*
X129592857Y-85783333D01*
X129878571Y-85926190D02*
X129711904Y-85426190D01*
X129545238Y-85926190D01*
X129378571Y-85926190D02*
X129378571Y-85426190D01*
X129092857Y-85926190D01*
X129092857Y-85426190D01*
X141646428Y-85878571D02*
X141670238Y-85902380D01*
X141741666Y-85926190D01*
X141789285Y-85926190D01*
X141860714Y-85902380D01*
X141908333Y-85854761D01*
X141932142Y-85807142D01*
X141955952Y-85711904D01*
X141955952Y-85640476D01*
X141932142Y-85545238D01*
X141908333Y-85497619D01*
X141860714Y-85450000D01*
X141789285Y-85426190D01*
X141741666Y-85426190D01*
X141670238Y-85450000D01*
X141646428Y-85473809D01*
X141455952Y-85783333D02*
X141217857Y-85783333D01*
X141503571Y-85926190D02*
X141336904Y-85426190D01*
X141170238Y-85926190D01*
X141003571Y-85926190D02*
X141003571Y-85426190D01*
X140717857Y-85926190D01*
X140717857Y-85426190D01*
D13*
X144786904Y-60777380D02*
X144786904Y-61586904D01*
X144739285Y-61682142D01*
X144691666Y-61729761D01*
X144596428Y-61777380D01*
X144405952Y-61777380D01*
X144310714Y-61729761D01*
X144263095Y-61682142D01*
X144215476Y-61586904D01*
X144215476Y-60777380D01*
X143310714Y-60777380D02*
X143501190Y-60777380D01*
X143596428Y-60825000D01*
X143644047Y-60872619D01*
X143739285Y-61015476D01*
X143786904Y-61205952D01*
X143786904Y-61586904D01*
X143739285Y-61682142D01*
X143691666Y-61729761D01*
X143596428Y-61777380D01*
X143405952Y-61777380D01*
X143310714Y-61729761D01*
X143263095Y-61682142D01*
X143215476Y-61586904D01*
X143215476Y-61348809D01*
X143263095Y-61253571D01*
X143310714Y-61205952D01*
X143405952Y-61158333D01*
X143596428Y-61158333D01*
X143691666Y-61205952D01*
X143739285Y-61253571D01*
X143786904Y-61348809D01*
D14*
X147392857Y-67907142D02*
X147407142Y-67921428D01*
X147450000Y-67935714D01*
X147478571Y-67935714D01*
X147521428Y-67921428D01*
X147550000Y-67892857D01*
X147564285Y-67864285D01*
X147578571Y-67807142D01*
X147578571Y-67764285D01*
X147564285Y-67707142D01*
X147550000Y-67678571D01*
X147521428Y-67650000D01*
X147478571Y-67635714D01*
X147450000Y-67635714D01*
X147407142Y-67650000D01*
X147392857Y-67664285D01*
X147107142Y-67935714D02*
X147278571Y-67935714D01*
X147192857Y-67935714D02*
X147192857Y-67635714D01*
X147221428Y-67678571D01*
X147250000Y-67707142D01*
X147278571Y-67721428D01*
X146850000Y-67735714D02*
X146850000Y-67935714D01*
X146921428Y-67621428D02*
X146992857Y-67835714D01*
X146807142Y-67835714D01*
X143792857Y-71757142D02*
X143807142Y-71771428D01*
X143850000Y-71785714D01*
X143878571Y-71785714D01*
X143921428Y-71771428D01*
X143950000Y-71742857D01*
X143964285Y-71714285D01*
X143978571Y-71657142D01*
X143978571Y-71614285D01*
X143964285Y-71557142D01*
X143950000Y-71528571D01*
X143921428Y-71500000D01*
X143878571Y-71485714D01*
X143850000Y-71485714D01*
X143807142Y-71500000D01*
X143792857Y-71514285D01*
X143507142Y-71785714D02*
X143678571Y-71785714D01*
X143592857Y-71785714D02*
X143592857Y-71485714D01*
X143621428Y-71528571D01*
X143650000Y-71557142D01*
X143678571Y-71571428D01*
X143250000Y-71485714D02*
X143307142Y-71485714D01*
X143335714Y-71500000D01*
X143350000Y-71514285D01*
X143378571Y-71557142D01*
X143392857Y-71614285D01*
X143392857Y-71728571D01*
X143378571Y-71757142D01*
X143364285Y-71771428D01*
X143335714Y-71785714D01*
X143278571Y-71785714D01*
X143250000Y-71771428D01*
X143235714Y-71757142D01*
X143221428Y-71728571D01*
X143221428Y-71657142D01*
X143235714Y-71628571D01*
X143250000Y-71614285D01*
X143278571Y-71600000D01*
X143335714Y-71600000D01*
X143364285Y-71614285D01*
X143378571Y-71628571D01*
X143392857Y-71657142D01*
X145442857Y-71757142D02*
X145457142Y-71771428D01*
X145500000Y-71785714D01*
X145528571Y-71785714D01*
X145571428Y-71771428D01*
X145600000Y-71742857D01*
X145614285Y-71714285D01*
X145628571Y-71657142D01*
X145628571Y-71614285D01*
X145614285Y-71557142D01*
X145600000Y-71528571D01*
X145571428Y-71500000D01*
X145528571Y-71485714D01*
X145500000Y-71485714D01*
X145457142Y-71500000D01*
X145442857Y-71514285D01*
X145157142Y-71785714D02*
X145328571Y-71785714D01*
X145242857Y-71785714D02*
X145242857Y-71485714D01*
X145271428Y-71528571D01*
X145300000Y-71557142D01*
X145328571Y-71571428D01*
X144885714Y-71485714D02*
X145028571Y-71485714D01*
X145042857Y-71628571D01*
X145028571Y-71614285D01*
X145000000Y-71600000D01*
X144928571Y-71600000D01*
X144900000Y-71614285D01*
X144885714Y-71628571D01*
X144871428Y-71657142D01*
X144871428Y-71728571D01*
X144885714Y-71757142D01*
X144900000Y-71771428D01*
X144928571Y-71785714D01*
X145000000Y-71785714D01*
X145028571Y-71771428D01*
X145042857Y-71757142D01*
M02*
