G04 #@! TF.FileFunction,Paste,Bot*
%FSLAX46Y46*%
G04 Gerber Fmt 4.6, Leading zero omitted, Abs format (unit mm)*
G04 Created by KiCad (PCBNEW 4.1.0-alpha+201607021448+6961~45~ubuntu14.04.1-product) date Wed Jul 13 20:24:10 2016*
%MOMM*%
%LPD*%
G01*
G04 APERTURE LIST*
%ADD10C,0.100000*%
%ADD11R,1.250000X1.000000*%
%ADD12R,0.750000X0.800000*%
%ADD13R,1.600000X0.800000*%
%ADD14R,3.000000X2.100000*%
%ADD15R,1.000000X2.450000*%
%ADD16R,2.450000X1.000000*%
%ADD17R,0.800000X1.600000*%
%ADD18R,2.100000X3.000000*%
G04 APERTURE END LIST*
D10*
D11*
X147200000Y-68850000D03*
X147200000Y-70850000D03*
D12*
X145250000Y-69150000D03*
X145250000Y-70650000D03*
X143600000Y-69150000D03*
X143600000Y-70650000D03*
D13*
X152250000Y-78750000D03*
X152250000Y-77500000D03*
X152250000Y-76250000D03*
X152250000Y-75000000D03*
X152250000Y-73750000D03*
X152250000Y-72500000D03*
X152250000Y-71250000D03*
D14*
X155150000Y-68700000D03*
X155150000Y-81300000D03*
D15*
X139400000Y-73000000D03*
X138000000Y-73000000D03*
X136600000Y-73000000D03*
X135200000Y-73000000D03*
X133800000Y-73000000D03*
X132400000Y-73000000D03*
X131000000Y-73000000D03*
X129600000Y-73000000D03*
D16*
X141000000Y-60700000D03*
X141000000Y-62100000D03*
X141000000Y-63500000D03*
X141000000Y-64900000D03*
X141000000Y-66300000D03*
X141000000Y-67700000D03*
X141000000Y-69100000D03*
X141000000Y-70500000D03*
X128000000Y-70500000D03*
X128000000Y-69100000D03*
X128000000Y-67700000D03*
X128000000Y-66300000D03*
X128000000Y-64900000D03*
X128000000Y-63500000D03*
X128000000Y-62100000D03*
X128000000Y-60700000D03*
D17*
X132300000Y-85100000D03*
X133550000Y-85100000D03*
X134800000Y-85100000D03*
X136050000Y-85100000D03*
D18*
X138600000Y-88000000D03*
X129750000Y-88000000D03*
D17*
X143925000Y-85100000D03*
X145175000Y-85100000D03*
X146425000Y-85100000D03*
X147675000Y-85100000D03*
D18*
X150225000Y-88000000D03*
X141375000Y-88000000D03*
M02*
