M48
;DRILL file {KiCad 4.1.0-alpha+201607021448+6961~45~ubuntu14.04.1-product} date Wed Jul 13 20:24:12 2016
;FORMAT={-:-/ absolute / metric / decimal}
FMAT,2
METRIC,TZ
T1C0.400
T2C0.500
T3C2.400
%
G90
G05
M71
T1
X119.45Y-69.65
X119.45Y-70.65
X119.45Y-71.65
X119.45Y-72.65
X120.911Y-81.264
X121.914Y-81.252
X122.01Y-88.5
X122.914Y-81.25
X123.5Y-88.5
X124.5Y-82.1
X125.6Y-86.6
X125.9Y-83.5
X126.009Y-65.467
X126.15Y-62.25
X126.2Y-63.9
X128.65Y-82.7
X129.Y-85.
X129.Y-86.
X130.05Y-81.7
X130.125Y-63.525
X130.175Y-61.525
X130.175Y-62.525
X130.175Y-64.525
X130.175Y-65.525
X130.65Y-70.75
X130.65Y-69.2
X131.05Y-81.7
X131.95Y-88.7
X132.05Y-81.7
X133.075Y-81.7
X133.65Y-65.45
X133.975Y-80.675
X134.Y-79.5
X134.2Y-75.55
X134.25Y-86.55
X135.2Y-75.55
X136.503Y-81.563
X137.2Y-75.
X137.5Y-76.95
X137.55Y-80.69
X137.6Y-67.9
X138.217Y-84.968
X138.5Y-76.95
X138.5Y-80.
X138.833Y-79.007
X138.911Y-82.736
X139.145Y-84.597
X139.987Y-76.963
X140.55Y-83.7
X141.25Y-76.2
X142.275Y-71.675
X142.575Y-84.95
X143.25Y-87.8
X143.85Y-78.4
X144.5Y-68.
X144.95Y-86.3
X146.Y-86.6
X146.95Y-83.6
X147.25Y-66.7
X147.85Y-77.75
X148.8Y-73.75
X149.85Y-77.75
X151.1Y-61.55
X151.1Y-66.5
T3
X117.5Y-62.5
X117.5Y-87.5
X154.5Y-62.5
X154.5Y-87.5
T2
X154.675Y-71.7G85X155.375Y-71.7
G05
X154.675Y-78.3G85X155.375Y-78.3
G05
T0
M30
