G04 #@! TF.GenerationSoftware,KiCad,Pcbnew,no-vcs-found-bf44d39~61~ubuntu14.04.1*
G04 #@! TF.CreationDate,2018-02-05T18:36:56+01:00*
G04 #@! TF.ProjectId,beacon,626561636F6E2E6B696361645F706362,rev?*
G04 #@! TF.SameCoordinates,Original*
G04 #@! TF.FileFunction,Copper,L1,Top,Signal*
G04 #@! TF.FilePolarity,Positive*
%FSLAX46Y46*%
G04 Gerber Fmt 4.6, Leading zero omitted, Abs format (unit mm)*
G04 Created by KiCad (PCBNEW no-vcs-found-bf44d39~61~ubuntu14.04.1) date Mon Feb  5 18:36:56 2018*
%MOMM*%
%LPD*%
G01*
G04 APERTURE LIST*
%ADD10R,1.100000X0.800000*%
%ADD11R,1.700000X0.800000*%
%ADD12R,1.900000X1.900000*%
%ADD13R,1.400000X1.600000*%
%ADD14R,1.350000X0.400000*%
%ADD15O,1.600000X0.900000*%
%ADD16R,0.600000X0.800000*%
%ADD17R,1.000000X1.600000*%
%ADD18R,0.300000X0.450000*%
%ADD19R,1.520000X0.600000*%
%ADD20R,0.700000X0.250000*%
%ADD21R,0.830000X1.190000*%
%ADD22R,0.300000X1.200000*%
%ADD23R,1.200000X0.300000*%
%ADD24R,1.800000X1.400000*%
%ADD25R,1.500000X0.750000*%
%ADD26R,0.750000X1.500000*%
%ADD27C,4.400000*%
%ADD28R,0.900000X1.700000*%
%ADD29R,0.500000X0.900000*%
%ADD30R,0.900000X0.500000*%
%ADD31R,0.800000X0.750000*%
%ADD32R,0.750000X0.800000*%
%ADD33R,0.550000X0.200000*%
%ADD34R,0.200000X0.550000*%
%ADD35R,0.797560X0.797560*%
%ADD36C,0.800000*%
%ADD37C,0.200000*%
%ADD38C,0.250000*%
%ADD39C,0.400000*%
%ADD40C,0.300000*%
%ADD41C,0.600000*%
G04 APERTURE END LIST*
D10*
X153850000Y-67600000D03*
D11*
X155500000Y-65900000D03*
X155500000Y-69300000D03*
D12*
X155025000Y-73800000D03*
X155025000Y-76200000D03*
D13*
X152575000Y-78200000D03*
X152575000Y-71800000D03*
D14*
X152350000Y-76300000D03*
X152350000Y-75650000D03*
X152350000Y-73700000D03*
X152350000Y-74350000D03*
X152350000Y-75000000D03*
D15*
X155025000Y-71700000D03*
X155025000Y-78300000D03*
D16*
X153400000Y-83500000D03*
X151000000Y-83500000D03*
X146200000Y-87800000D03*
X148600000Y-87800000D03*
D17*
X146100000Y-68000000D03*
X146100000Y-61600000D03*
X149900000Y-61600000D03*
X149900000Y-68000000D03*
D18*
X149100000Y-76475000D03*
X149600000Y-76475000D03*
X150100000Y-76475000D03*
X150100000Y-75125000D03*
X149600000Y-75125000D03*
X149100000Y-75125000D03*
D19*
X136050000Y-84910000D03*
X136050000Y-86180000D03*
X136050000Y-87450000D03*
X136050000Y-88720000D03*
X130550000Y-88720000D03*
X130550000Y-87450000D03*
X130550000Y-86180000D03*
X130550000Y-84910000D03*
D20*
X141500000Y-81000000D03*
X141500000Y-81500000D03*
X141500000Y-82000000D03*
X141500000Y-82500000D03*
X144300000Y-82500000D03*
X144300000Y-82000000D03*
X144300000Y-81500000D03*
X144300000Y-81000000D03*
D21*
X143315000Y-82345000D03*
X143315000Y-81155000D03*
X142485000Y-82345000D03*
X142485000Y-81155000D03*
D22*
X138000000Y-66700000D03*
X137500000Y-66700000D03*
X137000000Y-66700000D03*
X136500000Y-66700000D03*
X136000000Y-66700000D03*
X135500000Y-66700000D03*
X135000000Y-66700000D03*
X134500000Y-66700000D03*
X134000000Y-66700000D03*
X133500000Y-66700000D03*
X133000000Y-66700000D03*
X132500000Y-66700000D03*
X132000000Y-66700000D03*
X131500000Y-66700000D03*
X131000000Y-66700000D03*
X130500000Y-66700000D03*
D23*
X128500000Y-68700000D03*
X128500000Y-69200000D03*
X128500000Y-69700000D03*
X128500000Y-70200000D03*
X128500000Y-70700000D03*
X128500000Y-71200000D03*
X128500000Y-71700000D03*
X128500000Y-72200000D03*
X128500000Y-72700000D03*
X128500000Y-73200000D03*
X128500000Y-73700000D03*
X128500000Y-74200000D03*
X128500000Y-74700000D03*
X128500000Y-75200000D03*
X128500000Y-75700000D03*
X128500000Y-76200000D03*
D22*
X130500000Y-78200000D03*
X131000000Y-78200000D03*
X131500000Y-78200000D03*
X132000000Y-78200000D03*
X132500000Y-78200000D03*
X133000000Y-78200000D03*
X133500000Y-78200000D03*
X134000000Y-78200000D03*
X134500000Y-78200000D03*
X135000000Y-78200000D03*
X135500000Y-78200000D03*
X136000000Y-78200000D03*
X136500000Y-78200000D03*
X137000000Y-78200000D03*
X137500000Y-78200000D03*
X138000000Y-78200000D03*
D23*
X140000000Y-76200000D03*
X140000000Y-75700000D03*
X140000000Y-75200000D03*
X140000000Y-74700000D03*
X140000000Y-74200000D03*
X140000000Y-73700000D03*
X140000000Y-73200000D03*
X140000000Y-72700000D03*
X140000000Y-72200000D03*
X140000000Y-71700000D03*
X140000000Y-71200000D03*
X140000000Y-70700000D03*
X140000000Y-70200000D03*
X140000000Y-69700000D03*
X140000000Y-69200000D03*
X140000000Y-68700000D03*
D24*
X138000000Y-64100000D03*
X133600000Y-64100000D03*
X133600000Y-61700000D03*
X138000000Y-61700000D03*
D25*
X122150000Y-69650000D03*
D26*
X131100000Y-80550000D03*
X132050000Y-80550000D03*
X133000000Y-80550000D03*
X130150000Y-80550000D03*
D25*
X122150000Y-72650000D03*
X122150000Y-71650000D03*
X122150000Y-70650000D03*
D27*
X117500000Y-62500000D03*
X117500000Y-87500000D03*
X154500000Y-62500000D03*
X154500000Y-87500000D03*
D28*
X141650000Y-87800000D03*
X144550000Y-87800000D03*
X150750000Y-81100000D03*
X153650000Y-81100000D03*
D29*
X117700000Y-76400000D03*
X119200000Y-76400000D03*
X120950000Y-66250000D03*
X122450000Y-66250000D03*
X120944736Y-64650000D03*
X122444736Y-64650000D03*
X120950000Y-63050000D03*
X122450000Y-63050000D03*
X120950000Y-61450000D03*
X122450000Y-61450000D03*
X117700000Y-79600000D03*
X119200000Y-79600000D03*
X117700000Y-78000000D03*
X119200000Y-78000000D03*
D30*
X138300000Y-86150000D03*
X138300000Y-87650000D03*
X128000000Y-62100000D03*
X128000000Y-63600000D03*
D29*
X117700000Y-74800000D03*
X119200000Y-74800000D03*
D17*
X149000000Y-85200000D03*
X146000000Y-85200000D03*
D31*
X121250000Y-87630000D03*
X122750000Y-87630000D03*
X148750000Y-71000000D03*
X147250000Y-71000000D03*
D32*
X131600000Y-63550000D03*
X131600000Y-62050000D03*
X140000000Y-62050000D03*
X140000000Y-63550000D03*
D31*
X124250000Y-87630000D03*
X125750000Y-87630000D03*
D32*
X139950000Y-81000000D03*
X139950000Y-82500000D03*
X145850000Y-81050000D03*
X145850000Y-82550000D03*
D31*
X127250000Y-79900000D03*
X128750000Y-79900000D03*
X125600000Y-85475000D03*
X127100000Y-85475000D03*
X139650000Y-78200000D03*
X141150000Y-78200000D03*
X127250000Y-78400000D03*
X128750000Y-78400000D03*
D32*
X126600000Y-69700000D03*
X126600000Y-68200000D03*
X142100000Y-67250000D03*
X142100000Y-68750000D03*
D31*
X136550000Y-81000000D03*
X135050000Y-81000000D03*
D33*
X121025000Y-83400000D03*
X121025000Y-83800000D03*
X121025000Y-84200000D03*
X121025000Y-84600000D03*
X121025000Y-85000000D03*
X121025000Y-85400000D03*
D34*
X121525000Y-85900000D03*
X121925000Y-85900000D03*
X122325000Y-85900000D03*
X122725000Y-85900000D03*
X123125000Y-85900000D03*
X123525000Y-85900000D03*
D33*
X124025000Y-85400000D03*
X124025000Y-85000000D03*
X124025000Y-84600000D03*
X124025000Y-84200000D03*
X124025000Y-83800000D03*
X124025000Y-83400000D03*
D34*
X123525000Y-82900000D03*
X123125000Y-82900000D03*
X122725000Y-82900000D03*
X122325000Y-82900000D03*
X121925000Y-82900000D03*
X121525000Y-82900000D03*
D35*
X121899300Y-78000000D03*
X120400700Y-78000000D03*
X121899300Y-74800000D03*
X120400700Y-74800000D03*
X121899300Y-79600000D03*
X120400700Y-79600000D03*
X125149300Y-61450000D03*
X123650700Y-61450000D03*
X125149300Y-63050000D03*
X123650700Y-63050000D03*
X125149300Y-64650000D03*
X123650700Y-64650000D03*
X125149300Y-66250000D03*
X123650700Y-66250000D03*
X121899300Y-76400000D03*
X120400700Y-76400000D03*
D29*
X151700000Y-69600000D03*
X153200000Y-69600000D03*
D30*
X125600000Y-80600000D03*
X125600000Y-82100000D03*
D36*
X151100000Y-61550000D03*
X151100000Y-66499984D03*
X137600000Y-67900000D03*
X148800000Y-73750000D03*
X124600000Y-78700000D03*
X147300000Y-79700000D03*
X119800000Y-66300000D03*
X144500000Y-61600000D03*
X116600000Y-79600000D03*
X116600000Y-74800000D03*
X142449420Y-71671216D03*
X134105243Y-81527243D03*
X123475004Y-88600000D03*
X128650000Y-82700000D03*
X133650000Y-65450000D03*
X130649992Y-70750000D03*
X130650000Y-69200000D03*
X140550000Y-83700000D03*
X146950000Y-83600000D03*
X124500000Y-82100000D03*
X126009205Y-65467337D03*
X129000000Y-86000000D03*
X126150000Y-62250000D03*
X146000000Y-86600000D03*
X134250000Y-86550000D03*
X153700000Y-65900000D03*
X147249996Y-66700000D03*
X136500000Y-82000000D03*
X137499988Y-76950000D03*
X139144964Y-84596529D03*
X142575000Y-84950000D03*
X138216566Y-84968150D03*
X144950000Y-86300000D03*
X143250000Y-87800000D03*
X138500000Y-76950004D03*
X130175000Y-65525026D03*
X141275000Y-75675000D03*
X137200000Y-75000021D03*
X134400000Y-79400000D03*
X137800000Y-79760010D03*
X125900000Y-83500000D03*
X125600000Y-86600000D03*
X144475000Y-77370021D03*
X144500000Y-68000000D03*
X138872827Y-80331107D03*
X149700000Y-71899996D03*
X141790000Y-72800000D03*
X130175000Y-61525000D03*
X130175000Y-62525000D03*
X130124987Y-63525000D03*
X130175000Y-64525013D03*
X126200000Y-63900000D03*
X139189990Y-79425000D03*
X148000000Y-77050000D03*
X149850000Y-77750000D03*
X139725000Y-77075000D03*
X138910564Y-82735564D03*
X135200000Y-75550000D03*
X131950000Y-88700000D03*
X134200000Y-75550000D03*
X129000000Y-85000000D03*
X120975000Y-81575000D03*
X133074788Y-81699979D03*
X121935011Y-81574333D03*
X131050013Y-81700000D03*
X122950000Y-81575000D03*
X130050000Y-81699996D03*
X122010322Y-88499592D03*
X132050014Y-81699989D03*
X119450000Y-69649944D03*
X119450010Y-72649979D03*
X119450006Y-71649968D03*
X119450000Y-70649957D03*
D37*
X151050000Y-61600000D02*
X151100000Y-61550000D01*
X149900000Y-61600000D02*
X151050000Y-61600000D01*
X135472820Y-67900000D02*
X137600000Y-67900000D01*
X135000000Y-66700000D02*
X135000000Y-67427180D01*
X135000000Y-67427180D02*
X135472820Y-67900000D01*
X151100000Y-66500000D02*
X151100000Y-66499984D01*
X149900000Y-67700000D02*
X151100000Y-66500000D01*
X149900000Y-68000000D02*
X149900000Y-67700000D01*
X148750000Y-71000000D02*
X148750000Y-73700000D01*
X148750000Y-73700000D02*
X148800000Y-73750000D01*
D38*
X149900000Y-68000000D02*
X149900000Y-69875000D01*
X149900000Y-69875000D02*
X148775000Y-71000000D01*
X148775000Y-71000000D02*
X148750000Y-71000000D01*
D37*
X120950000Y-66250000D02*
X119850000Y-66250000D01*
X119850000Y-66250000D02*
X119800000Y-66300000D01*
X146100000Y-61600000D02*
X144500000Y-61600000D01*
X117700000Y-79600000D02*
X116600000Y-79600000D01*
X117700000Y-74800000D02*
X116600000Y-74800000D01*
D39*
X141150000Y-77425000D02*
X142550000Y-76025000D01*
X141150000Y-78200000D02*
X141150000Y-77425000D01*
X142550000Y-76025000D02*
X142550000Y-72337481D01*
X142550000Y-72337481D02*
X142449420Y-72236901D01*
X142449420Y-72236901D02*
X142449420Y-71671216D01*
D37*
X153500000Y-67600000D02*
X153850000Y-67600000D01*
X153850000Y-67600000D02*
X153700000Y-67600000D01*
X151700000Y-69600000D02*
X151700000Y-69400000D01*
X152575000Y-70800000D02*
X152575000Y-71800000D01*
X153700000Y-67600000D02*
X152575000Y-68725000D01*
X134112000Y-81520486D02*
X134105243Y-81527243D01*
X123475004Y-88330004D02*
X123475004Y-88600000D01*
X122775000Y-87630000D02*
X123475004Y-88330004D01*
X122750000Y-87630000D02*
X122775000Y-87630000D01*
X135050000Y-80650000D02*
X135025000Y-80650000D01*
X123934315Y-82100000D02*
X124500000Y-82100000D01*
X123551802Y-82100000D02*
X123934315Y-82100000D01*
X123125000Y-82900000D02*
X123125000Y-82526802D01*
X123125000Y-82526802D02*
X123551802Y-82100000D01*
X149600000Y-76999996D02*
X148850000Y-77749996D01*
X128750000Y-79900000D02*
X128750000Y-82600000D01*
X128750000Y-82600000D02*
X128650000Y-82700000D01*
X132500000Y-66700000D02*
X132500000Y-65900000D01*
X132500000Y-65900000D02*
X132950000Y-65450000D01*
X132950000Y-65450000D02*
X133650000Y-65450000D01*
X130649992Y-70549992D02*
X130649992Y-70750000D01*
X129300000Y-69200000D02*
X130649992Y-70549992D01*
X128500000Y-69200000D02*
X129300000Y-69200000D01*
X128500000Y-69200000D02*
X130650000Y-69200000D01*
X124025000Y-83400000D02*
X124600000Y-83400000D01*
X124600000Y-83400000D02*
X124900000Y-83100000D01*
X124900000Y-83100000D02*
X124900000Y-82500000D01*
X124900000Y-82500000D02*
X124500000Y-82100000D01*
X140150001Y-83300001D02*
X140550000Y-83700000D01*
X140050001Y-83300001D02*
X140150001Y-83300001D01*
X140000001Y-83350001D02*
X140050001Y-83300001D01*
X139950000Y-83400000D02*
X140000001Y-83350001D01*
X139950000Y-82500000D02*
X139950000Y-83300000D01*
X139950000Y-83300000D02*
X140000001Y-83350001D01*
X146875000Y-83600000D02*
X146950000Y-83600000D01*
X145850000Y-82575000D02*
X146875000Y-83600000D01*
X145850000Y-82550000D02*
X145850000Y-82575000D01*
X123125000Y-85900000D02*
X123125000Y-86375000D01*
X123125000Y-86375000D02*
X123249990Y-86499990D01*
X123249990Y-86499990D02*
X123999990Y-86499990D01*
X123999990Y-86499990D02*
X124400000Y-86900000D01*
X124400000Y-86900000D02*
X124900000Y-86900000D01*
X125630000Y-87630000D02*
X125750000Y-87630000D01*
X124900000Y-86900000D02*
X125630000Y-87630000D01*
X125725000Y-87630000D02*
X125750000Y-87630000D01*
X125925000Y-87625000D02*
X125925000Y-87630000D01*
X131623365Y-86180000D02*
X134087427Y-83715938D01*
X130550000Y-86180000D02*
X131623365Y-86180000D01*
X139950000Y-82500000D02*
X139950000Y-82475000D01*
X126009205Y-65467337D02*
X120982663Y-65467337D01*
X120982663Y-65467337D02*
X120950000Y-65500000D01*
X120950000Y-65500000D02*
X120950000Y-66250000D01*
X142485000Y-82345000D02*
X142485000Y-81155000D01*
X143315000Y-81155000D02*
X143315000Y-82345000D01*
X144300000Y-82500000D02*
X143470000Y-82500000D01*
X143470000Y-82500000D02*
X143315000Y-82345000D01*
X142485000Y-82345000D02*
X142330000Y-82500000D01*
X142330000Y-82500000D02*
X141500000Y-82500000D01*
D40*
X130874999Y-62800001D02*
X131600000Y-62075000D01*
X130874999Y-64174999D02*
X130874999Y-62800001D01*
X132500000Y-65800000D02*
X130874999Y-64174999D01*
X132500000Y-66700000D02*
X132500000Y-65800000D01*
X144300000Y-82500000D02*
X145800000Y-82500000D01*
X145800000Y-82500000D02*
X145850000Y-82550000D01*
X141500000Y-82500000D02*
X139950000Y-82500000D01*
D37*
X131600000Y-62075000D02*
X131600000Y-62050000D01*
D40*
X128500000Y-69200000D02*
X127600000Y-69200000D01*
X127600000Y-69200000D02*
X126600000Y-68200000D01*
D37*
X149600000Y-76475000D02*
X149600000Y-76999996D01*
X127800000Y-86500000D02*
X128500000Y-86500000D01*
X128500000Y-86500000D02*
X129000000Y-86000000D01*
X128000000Y-62100000D02*
X126300000Y-62100000D01*
X126300000Y-62100000D02*
X126150000Y-62250000D01*
D41*
X146000000Y-86600000D02*
X146000000Y-85200000D01*
D37*
X140000000Y-69200000D02*
X141650000Y-69200000D01*
X141650000Y-69200000D02*
X142100000Y-68750000D01*
D38*
X140000000Y-63550000D02*
X138550000Y-63550000D01*
X138550000Y-63550000D02*
X138000000Y-64100000D01*
X131600000Y-62050000D02*
X133250000Y-62050000D01*
X133250000Y-62050000D02*
X133600000Y-61700000D01*
D41*
X139739998Y-81210002D02*
X138562800Y-81210002D01*
X139950000Y-81000000D02*
X139739998Y-81210002D01*
X136912801Y-82860001D02*
X134969064Y-82860001D01*
X138562800Y-81210002D02*
X136912801Y-82860001D01*
X134969064Y-82860001D02*
X134925000Y-82815937D01*
D37*
X155500000Y-65900000D02*
X153700000Y-65900000D01*
D41*
X140050000Y-78575000D02*
X139675000Y-78200000D01*
X139950000Y-80975000D02*
X140050000Y-80875000D01*
X140050000Y-80875000D02*
X140050000Y-78575000D01*
X139675000Y-78200000D02*
X139650000Y-78200000D01*
X139950000Y-81000000D02*
X139950000Y-80975000D01*
X139950000Y-80975000D02*
X143400000Y-77525000D01*
X143400000Y-77525000D02*
X143400000Y-67575000D01*
D40*
X140000000Y-68700000D02*
X140000000Y-68000000D01*
X140000000Y-68000000D02*
X138700000Y-66700000D01*
X138700000Y-66700000D02*
X138000000Y-66700000D01*
D37*
X121915000Y-86310000D02*
X121915000Y-85910000D01*
X121915000Y-85910000D02*
X121925000Y-85900000D01*
D38*
X119800000Y-85250000D02*
X119800000Y-83350000D01*
X121250000Y-86700000D02*
X119800000Y-85250000D01*
D37*
X121250000Y-86700000D02*
X121525000Y-86700000D01*
X121525000Y-86700000D02*
X121915000Y-86310000D01*
D38*
X121250000Y-87630000D02*
X121250000Y-86700000D01*
D40*
X137936410Y-68699999D02*
X140000000Y-68699999D01*
X134636411Y-67700001D02*
X135636408Y-68699998D01*
X132000000Y-67700000D02*
X134636411Y-67700001D01*
X135636408Y-68699998D02*
X137936410Y-68699999D01*
X125700000Y-68850000D02*
X125700000Y-67600000D01*
X125700000Y-67600000D02*
X126000000Y-67300000D01*
X126000000Y-67300000D02*
X129475000Y-67300000D01*
X129475000Y-67300000D02*
X129875000Y-67700000D01*
X129875000Y-67700000D02*
X132000000Y-67700000D01*
X132000000Y-67700000D02*
X132000000Y-66700000D01*
X121250000Y-87630000D02*
X121250000Y-89050000D01*
X127650000Y-88900000D02*
X127650000Y-87500000D01*
X127650000Y-87500000D02*
X125625000Y-85475000D01*
X121250000Y-89050000D02*
X121600000Y-89400000D01*
X121600000Y-89400000D02*
X127150000Y-89400000D01*
X127150000Y-89400000D02*
X127650000Y-88900000D01*
X125625000Y-85475000D02*
X125600000Y-85475000D01*
D41*
X127725001Y-84099999D02*
X126800001Y-84099999D01*
X126800001Y-84099999D02*
X125600000Y-85300000D01*
X125600000Y-85300000D02*
X125600000Y-85475000D01*
D37*
X124025000Y-85400000D02*
X125525000Y-85400000D01*
X125525000Y-85400000D02*
X125600000Y-85475000D01*
X121025000Y-83400000D02*
X119850000Y-83400000D01*
X119850000Y-83400000D02*
X119800000Y-83350000D01*
X121050000Y-87500000D02*
X121250000Y-87500000D01*
D38*
X119800000Y-83350000D02*
X119800000Y-81150000D01*
X119800000Y-81150000D02*
X120450000Y-80500000D01*
X121150000Y-80200000D02*
X121150000Y-75550000D01*
X121150000Y-75550000D02*
X121899300Y-74800700D01*
X120450000Y-80500000D02*
X120850000Y-80500000D01*
X120850000Y-80500000D02*
X121150000Y-80200000D01*
D37*
X127250000Y-78400000D02*
X127275000Y-78400000D01*
D38*
X127275000Y-78400000D02*
X128000000Y-79125000D01*
X128000000Y-79125000D02*
X128000000Y-81613998D01*
X128000000Y-81613998D02*
X127725001Y-81888997D01*
X127725001Y-81888997D02*
X127725001Y-84099999D01*
D41*
X134925000Y-82815937D02*
X130182605Y-82815937D01*
X135035368Y-84099999D02*
X135035368Y-82926305D01*
X135035368Y-82926305D02*
X134925000Y-82815937D01*
X128898543Y-84099999D02*
X127725001Y-84099999D01*
X130182605Y-82815937D02*
X128898543Y-84099999D01*
X133349999Y-87379999D02*
X133349999Y-85785368D01*
X136050000Y-88720000D02*
X134690000Y-88720000D01*
X133349999Y-85785368D02*
X135035368Y-84099999D01*
X134690000Y-88720000D02*
X133349999Y-87379999D01*
D40*
X121899300Y-74800000D02*
X121899300Y-74101220D01*
X121899300Y-74101220D02*
X121448080Y-73650000D01*
X121448080Y-73650000D02*
X119200000Y-73650000D01*
X119200000Y-73650000D02*
X118400000Y-72850000D01*
X118400000Y-72850000D02*
X118400000Y-69589942D01*
X118400000Y-69589942D02*
X119139942Y-68850000D01*
X119139942Y-68850000D02*
X125700000Y-68850000D01*
D41*
X143400000Y-67575000D02*
X143400000Y-67300000D01*
X143350000Y-67250000D02*
X142100000Y-67250000D01*
X143400000Y-67300000D02*
X143350000Y-67250000D01*
X143400000Y-67575000D02*
X143400000Y-67250000D01*
X143400000Y-67250000D02*
X143950000Y-66700000D01*
X143950000Y-66700000D02*
X147249996Y-66700000D01*
D40*
X126550000Y-69700000D02*
X125700000Y-68850000D01*
X127000000Y-69700000D02*
X126550000Y-69700000D01*
X127000000Y-69700000D02*
X126600000Y-69700000D01*
X128500000Y-69700000D02*
X127000000Y-69700000D01*
D41*
X142100000Y-67250000D02*
X142100000Y-67200000D01*
D40*
X127250000Y-78400000D02*
X127250000Y-77150000D01*
X127250000Y-77150000D02*
X128200000Y-76200000D01*
X128200000Y-76200000D02*
X128500000Y-76200000D01*
D37*
X121899300Y-74800700D02*
X121899300Y-74800000D01*
D40*
X141500000Y-81000000D02*
X139950000Y-81000000D01*
D37*
X140450000Y-81500000D02*
X139950000Y-81000000D01*
D40*
X141500000Y-81500000D02*
X140450000Y-81500000D01*
X141500000Y-82000000D02*
X140950000Y-82000000D01*
D37*
X128050000Y-76200000D02*
X128500000Y-76200000D01*
D39*
X142100000Y-67250000D02*
X142100000Y-67275000D01*
X142100000Y-67275000D02*
X140725001Y-68649999D01*
X140725001Y-68649999D02*
X140000000Y-68649999D01*
X139650000Y-78200000D02*
X138050001Y-78200000D01*
D37*
X139650000Y-78200000D02*
X138000000Y-78200000D01*
D40*
X140950000Y-82000000D02*
X139950000Y-81000000D01*
D37*
X127250000Y-79900000D02*
X127200000Y-79900000D01*
X127200000Y-79900000D02*
X126500000Y-79200000D01*
X126500000Y-79200000D02*
X126500000Y-76900000D01*
X126500000Y-76900000D02*
X127700000Y-75700000D01*
X127700000Y-75700000D02*
X128500000Y-75700000D01*
X136550000Y-80650000D02*
X136550000Y-81950000D01*
X136550000Y-81950000D02*
X136500000Y-82000000D01*
X137500000Y-76950012D02*
X137499988Y-76950000D01*
X137500000Y-78200000D02*
X137500000Y-76950012D01*
D40*
X146950000Y-89500000D02*
X148600000Y-87850000D01*
X134450000Y-89500000D02*
X146950000Y-89500000D01*
X132400000Y-87450000D02*
X134450000Y-89500000D01*
X131010000Y-87450000D02*
X132400000Y-87450000D01*
D37*
X149600000Y-75125000D02*
X149600000Y-75550000D01*
X149600000Y-75550000D02*
X149850000Y-75800000D01*
X149900000Y-78900000D02*
X149900000Y-82300000D01*
X149850000Y-75800000D02*
X150400000Y-75800000D01*
X150400000Y-75800000D02*
X150599989Y-75999989D01*
X150599989Y-75999989D02*
X150599989Y-78200011D01*
X150599989Y-78200011D02*
X149900000Y-78900000D01*
X151000000Y-83400000D02*
X151000000Y-83500000D01*
X149900000Y-82300000D02*
X151000000Y-83400000D01*
D41*
X149000000Y-84000000D02*
X146050000Y-81050000D01*
D37*
X130550000Y-87450000D02*
X131010000Y-87450000D01*
X148600000Y-87850000D02*
X148600000Y-87800000D01*
D40*
X144300000Y-81000000D02*
X145800000Y-81000000D01*
D37*
X145800000Y-81000000D02*
X145850000Y-81050000D01*
D40*
X144300000Y-81500000D02*
X145400000Y-81500000D01*
X145400000Y-81500000D02*
X145850000Y-81050000D01*
X144300000Y-82000000D02*
X144900000Y-82000000D01*
X144900000Y-82000000D02*
X145850000Y-81050000D01*
D41*
X149000000Y-85200000D02*
X149000000Y-84000000D01*
X146050000Y-81050000D02*
X145850000Y-81050000D01*
X148600000Y-87800000D02*
X148600000Y-85600000D01*
X148600000Y-85600000D02*
X149000000Y-85200000D01*
X151000000Y-83500000D02*
X151000000Y-84450000D01*
X150250000Y-85200000D02*
X149000000Y-85200000D01*
X151000000Y-84450000D02*
X150250000Y-85200000D01*
D37*
X124225000Y-87630000D02*
X124250000Y-87630000D01*
X122725000Y-85900000D02*
X122725000Y-86540700D01*
X122725000Y-86540700D02*
X123084300Y-86900000D01*
X123084300Y-86900000D02*
X123500000Y-86900000D01*
X123650000Y-87050000D02*
X123650000Y-87055000D01*
X123500000Y-86900000D02*
X123650000Y-87050000D01*
X123650000Y-87055000D02*
X124225000Y-87630000D01*
X124400000Y-87630000D02*
X124425000Y-87630000D01*
X124400000Y-87500000D02*
X124425000Y-87500000D01*
D38*
X136000000Y-66700000D02*
X136000000Y-63500000D01*
X136000000Y-63500000D02*
X137800000Y-61700000D01*
X137800000Y-61700000D02*
X138000000Y-61700000D01*
X140000000Y-62050000D02*
X138350000Y-62050000D01*
X138350000Y-62050000D02*
X138000000Y-61700000D01*
X133600000Y-64100000D02*
X135050000Y-64100000D01*
X135050000Y-64100000D02*
X135500000Y-64550000D01*
X135500000Y-64550000D02*
X135500000Y-66700000D01*
X131600000Y-63550000D02*
X133050000Y-63550000D01*
X133050000Y-63550000D02*
X133600000Y-64100000D01*
D41*
X151200000Y-80650000D02*
X151200000Y-77174998D01*
X150750000Y-81100000D02*
X151200000Y-80650000D01*
X151200000Y-77174998D02*
X152024997Y-76350001D01*
X152024997Y-76350001D02*
X152350000Y-76350001D01*
D38*
X150100000Y-75125000D02*
X150875000Y-75125000D01*
X151400000Y-75650000D02*
X152350000Y-75650000D01*
X150875000Y-75125000D02*
X151400000Y-75650000D01*
X149100000Y-74650000D02*
X149100000Y-75125000D01*
X149300000Y-74450000D02*
X149100000Y-74650000D01*
X151386410Y-75000000D02*
X150836410Y-74450000D01*
X150836410Y-74450000D02*
X149300000Y-74450000D01*
X152350000Y-75000000D02*
X151386410Y-75000000D01*
D37*
X142575000Y-84950000D02*
X142225000Y-84600000D01*
X142225000Y-84600000D02*
X139148435Y-84600000D01*
X139148435Y-84600000D02*
X139144964Y-84596529D01*
X139144964Y-87005036D02*
X139144964Y-84596529D01*
X138300000Y-87650000D02*
X138500000Y-87650000D01*
X138500000Y-87650000D02*
X139144964Y-87005036D01*
D38*
X136050000Y-87450000D02*
X136150000Y-87550000D01*
X136150000Y-87550000D02*
X138200000Y-87550000D01*
X138200000Y-87550000D02*
X138300000Y-87650000D01*
D37*
X138300000Y-85051584D02*
X138216566Y-84968150D01*
X138300000Y-86150000D02*
X138300000Y-85051584D01*
D38*
X136050000Y-86180000D02*
X138270000Y-86180000D01*
X138270000Y-86180000D02*
X138300000Y-86150000D01*
D41*
X141650000Y-87800000D02*
X143250000Y-87800000D01*
D37*
X138500000Y-76950004D02*
X138900000Y-76550004D01*
X138900000Y-76550004D02*
X138900000Y-74900000D01*
X135900001Y-75886001D02*
X135536001Y-76250001D01*
X138900000Y-74900000D02*
X138300011Y-74300011D01*
X135900001Y-74999999D02*
X135900001Y-75886001D01*
X136599989Y-74300011D02*
X135900001Y-74999999D01*
X138300011Y-74300011D02*
X136599989Y-74300011D01*
X135536001Y-76250001D02*
X133863999Y-76250001D01*
X135614018Y-73099980D02*
X137800020Y-73099980D01*
X133500000Y-75213998D02*
X135614018Y-73099980D01*
X133500000Y-75886002D02*
X133500000Y-75213998D01*
X133863999Y-76250001D02*
X133500000Y-75886002D01*
X137750009Y-69150009D02*
X135450009Y-69150009D01*
X138199980Y-69599980D02*
X137750009Y-69150009D01*
X138199980Y-72700020D02*
X138199980Y-69599980D01*
X137800020Y-73099980D02*
X138199980Y-72700020D01*
X135450009Y-69150009D02*
X134450010Y-68150010D01*
X134450010Y-68150010D02*
X129688600Y-68150010D01*
X129688600Y-68150010D02*
X129638590Y-68100000D01*
X129638590Y-68100000D02*
X129100000Y-68100000D01*
X129100000Y-68100000D02*
X128500000Y-68700000D01*
X130500000Y-65850026D02*
X130175000Y-65525026D01*
X130500000Y-66700000D02*
X130500000Y-65850026D01*
X141275000Y-75725000D02*
X141275000Y-75675000D01*
X140800000Y-76200000D02*
X141275000Y-75725000D01*
X140000000Y-76200000D02*
X140800000Y-76200000D01*
X136650000Y-77136014D02*
X136650000Y-75550021D01*
X137000000Y-77486014D02*
X136650000Y-77136014D01*
X137000000Y-78200000D02*
X137000000Y-77486014D01*
X136650000Y-75550021D02*
X137200000Y-75000021D01*
D41*
X153400000Y-83500000D02*
X153400000Y-81350000D01*
X153400000Y-81350000D02*
X153650000Y-81100000D01*
X146200000Y-87800000D02*
X144550000Y-87800000D01*
D38*
X119200000Y-74800000D02*
X120400700Y-74800000D01*
D37*
X128500000Y-72700000D02*
X126809131Y-72700000D01*
X126809131Y-72700000D02*
X123109131Y-76400000D01*
X122498080Y-76400000D02*
X121899300Y-76400000D01*
X123109131Y-76400000D02*
X122498080Y-76400000D01*
X121899300Y-76400000D02*
X121950000Y-76400000D01*
D38*
X120400700Y-76400000D02*
X119200000Y-76400000D01*
D37*
X121899300Y-78000000D02*
X122498080Y-78000000D01*
X122498080Y-78000000D02*
X127298080Y-73200000D01*
X127700000Y-73200000D02*
X128500000Y-73200000D01*
X127298080Y-73200000D02*
X127700000Y-73200000D01*
X121899300Y-78000000D02*
X121950000Y-78000000D01*
X128500000Y-73700000D02*
X127531998Y-73700000D01*
X127531998Y-73700000D02*
X121899300Y-79332698D01*
X121899300Y-79332698D02*
X121899300Y-79600000D01*
X128450001Y-73650001D02*
X128500000Y-73700000D01*
D38*
X119200000Y-78000000D02*
X120400700Y-78000000D01*
D37*
X121899300Y-79600000D02*
X121900000Y-79600000D01*
X134500000Y-79300000D02*
X134400000Y-79400000D01*
X134500000Y-78200000D02*
X134500000Y-79300000D01*
X138624305Y-79425000D02*
X139189990Y-79425000D01*
X136500000Y-78918002D02*
X136681998Y-79100000D01*
X136500000Y-78200000D02*
X136500000Y-78918002D01*
X136681998Y-79100000D02*
X138299305Y-79100000D01*
X138299305Y-79100000D02*
X138624305Y-79425000D01*
X136760010Y-79760010D02*
X137234315Y-79760010D01*
X136000000Y-78200000D02*
X136000000Y-79000000D01*
X137234315Y-79760010D02*
X137800000Y-79760010D01*
X136000000Y-79000000D02*
X136760010Y-79760010D01*
X140000000Y-71200000D02*
X140690868Y-71200000D01*
X140815685Y-77075000D02*
X140290685Y-77075000D01*
X141950001Y-75940684D02*
X140815685Y-77075000D01*
X140690868Y-71200000D02*
X141000000Y-71509132D01*
X141000000Y-71509132D02*
X141000000Y-74400000D01*
X141950001Y-75350001D02*
X141950001Y-75940684D01*
X141000000Y-74400000D02*
X141950001Y-75350001D01*
X140290685Y-77075000D02*
X139725000Y-77075000D01*
X128500000Y-75200000D02*
X127500000Y-75200000D01*
X127500000Y-75200000D02*
X126100000Y-76600000D01*
X126100000Y-76600000D02*
X126100000Y-79800000D01*
X126100000Y-79800000D02*
X126400000Y-80100000D01*
X126400000Y-80100000D02*
X126400000Y-83000000D01*
X126400000Y-83000000D02*
X125900000Y-83500000D01*
X123525000Y-85900000D02*
X124709998Y-85900000D01*
X124709998Y-85900000D02*
X125409998Y-86600000D01*
X125409998Y-86600000D02*
X125600000Y-86600000D01*
X134000000Y-78200000D02*
X134000000Y-78823198D01*
X138218238Y-80420011D02*
X138307142Y-80331107D01*
X134000000Y-78823198D02*
X133739999Y-79083199D01*
X133739999Y-79083199D02*
X133739999Y-79739999D01*
X138307142Y-80331107D02*
X138872827Y-80331107D01*
X133739999Y-79739999D02*
X134289990Y-80289990D01*
X134289990Y-80289990D02*
X137353178Y-80289990D01*
X137353178Y-80289990D02*
X137483199Y-80420011D01*
X137483199Y-80420011D02*
X138218238Y-80420011D01*
X144500000Y-68000000D02*
X144500000Y-77345021D01*
X144500000Y-77345021D02*
X144475000Y-77370021D01*
X123100000Y-69650000D02*
X122150000Y-69650000D01*
X124075000Y-70625000D02*
X123100000Y-69650000D01*
X126847604Y-70625000D02*
X124075000Y-70625000D01*
X127272604Y-70200000D02*
X126847604Y-70625000D01*
X128500000Y-70200000D02*
X127272604Y-70200000D01*
X126350000Y-72650000D02*
X122150000Y-72650000D01*
X127300000Y-71700000D02*
X126350000Y-72650000D01*
X128500000Y-71700000D02*
X127300000Y-71700000D01*
X127290868Y-71200000D02*
X127700000Y-71200000D01*
X127700000Y-71200000D02*
X128500000Y-71200000D01*
X126840868Y-71650000D02*
X127290868Y-71200000D01*
X122150000Y-71650000D02*
X126840868Y-71650000D01*
X122150000Y-70650000D02*
X123100000Y-70650000D01*
X123550000Y-71100000D02*
X126881736Y-71100000D01*
X123100000Y-70650000D02*
X123550000Y-71100000D01*
X127281736Y-70700000D02*
X127700000Y-70700000D01*
X127700000Y-70700000D02*
X128500000Y-70700000D01*
X126881736Y-71100000D02*
X127281736Y-70700000D01*
X151199996Y-70400000D02*
X150099999Y-71499997D01*
X150099999Y-71499997D02*
X149700000Y-71899996D01*
X153200000Y-69600000D02*
X153200000Y-69800000D01*
X152600000Y-70400000D02*
X151199996Y-70400000D01*
X153200000Y-69800000D02*
X152600000Y-70400000D01*
X155500000Y-69300000D02*
X155300000Y-69500000D01*
X155300000Y-69500000D02*
X153300000Y-69500000D01*
X153300000Y-69500000D02*
X153200000Y-69600000D01*
X141790000Y-72800000D02*
X141790000Y-71699130D01*
X141790000Y-71699130D02*
X140939991Y-70849121D01*
X140939991Y-70839991D02*
X140800000Y-70700000D01*
X140939991Y-70849121D02*
X140939991Y-70839991D01*
X140800000Y-70700000D02*
X140000000Y-70700000D01*
X125600000Y-80600000D02*
X125600000Y-76300000D01*
X125600000Y-76300000D02*
X127700000Y-74200000D01*
X127700000Y-74200000D02*
X128500000Y-74200000D01*
X128450001Y-74150001D02*
X128500000Y-74200000D01*
D38*
X120400700Y-79600000D02*
X119200000Y-79600000D01*
D37*
X125149300Y-61450000D02*
X130100000Y-61450000D01*
X130100000Y-61450000D02*
X130175000Y-61525000D01*
D38*
X123650700Y-61450000D02*
X122450000Y-61450000D01*
D37*
X125149300Y-63050000D02*
X129599994Y-63050000D01*
X130124994Y-62525000D02*
X130175000Y-62525000D01*
X129599994Y-63050000D02*
X130124994Y-62525000D01*
D38*
X122450000Y-63050000D02*
X123650700Y-63050000D01*
D37*
X128999987Y-64650000D02*
X130124987Y-63525000D01*
X125149300Y-64650000D02*
X128999987Y-64650000D01*
D38*
X122444736Y-64650000D02*
X123650700Y-64650000D01*
D37*
X125149300Y-66250000D02*
X128450013Y-66250000D01*
X128450013Y-66250000D02*
X130175000Y-64525013D01*
D38*
X123650700Y-66250000D02*
X122450000Y-66250000D01*
X128000000Y-63600000D02*
X126500000Y-63600000D01*
X126500000Y-63600000D02*
X126200000Y-63900000D01*
D37*
X148575000Y-76475000D02*
X148399999Y-76650001D01*
X149100000Y-76475000D02*
X148575000Y-76475000D01*
X148399999Y-76650001D02*
X148000000Y-77050000D01*
X150100000Y-77500000D02*
X149850000Y-77750000D01*
X150100000Y-76475000D02*
X150100000Y-77500000D01*
X136050000Y-84910000D02*
X136510000Y-84910000D01*
X138684436Y-82735564D02*
X138910564Y-82735564D01*
X136510000Y-84910000D02*
X138684436Y-82735564D01*
X135200000Y-74984315D02*
X135200000Y-75550000D01*
X139000001Y-70409997D02*
X139000001Y-73065699D01*
X139209998Y-70200000D02*
X139000001Y-70409997D01*
X140000000Y-70200000D02*
X139209998Y-70200000D01*
X136284314Y-73900001D02*
X135200000Y-74984315D01*
X138165699Y-73900001D02*
X136284314Y-73900001D01*
X139000001Y-73065699D02*
X138165699Y-73900001D01*
X130550000Y-88720000D02*
X131930000Y-88720000D01*
X131930000Y-88720000D02*
X131950000Y-88700000D01*
X140000000Y-69700000D02*
X139144298Y-69700000D01*
X138599990Y-70244309D02*
X138599990Y-72900010D01*
X139144298Y-69700000D02*
X138599990Y-70244309D01*
X138599990Y-72900010D02*
X138000010Y-73499990D01*
X138000010Y-73499990D02*
X136000010Y-73499990D01*
X136000010Y-73499990D02*
X134200000Y-75300000D01*
X134200000Y-75300000D02*
X134200000Y-75550000D01*
X129090000Y-84910000D02*
X129000000Y-85000000D01*
X130550000Y-84910000D02*
X129090000Y-84910000D01*
X121374999Y-81974999D02*
X120975000Y-81575000D01*
X121525000Y-82125000D02*
X121374999Y-81974999D01*
X121525000Y-82900000D02*
X121525000Y-82125000D01*
X133000000Y-81625191D02*
X133074788Y-81699979D01*
X133000000Y-80550000D02*
X133000000Y-81625191D01*
X133000012Y-79700012D02*
X133000012Y-80549988D01*
X133000012Y-80549988D02*
X133000000Y-80550000D01*
X132650000Y-79350000D02*
X133000012Y-79700012D01*
X132000000Y-78200000D02*
X132000000Y-79000000D01*
X132350000Y-79350000D02*
X132650000Y-79350000D01*
X132000000Y-79000000D02*
X132350000Y-79350000D01*
X121925000Y-82900000D02*
X121925000Y-81584344D01*
X121925000Y-81584344D02*
X121935011Y-81574333D01*
X131100000Y-80550000D02*
X131000000Y-80450000D01*
X131000000Y-80450000D02*
X131000000Y-78200000D01*
X131050013Y-81700000D02*
X131050013Y-80599987D01*
X131050013Y-80599987D02*
X131100000Y-80550000D01*
X122550001Y-81974999D02*
X122950000Y-81575000D01*
X122325000Y-82200000D02*
X122550001Y-81974999D01*
X122325000Y-82900000D02*
X122325000Y-82200000D01*
X130150000Y-81599996D02*
X130050000Y-81699996D01*
X130150000Y-80550000D02*
X130150000Y-81599996D01*
X130500000Y-78200000D02*
X130500000Y-79000000D01*
X130500000Y-79000000D02*
X130150000Y-79350000D01*
X130150000Y-79350000D02*
X130150000Y-80550000D01*
X122315000Y-85900000D02*
X122315000Y-86640642D01*
X122315000Y-86640642D02*
X122010322Y-86945320D01*
X122010322Y-86945320D02*
X122010322Y-88499592D01*
X132050014Y-81699989D02*
X132050014Y-80550014D01*
X132050014Y-80550014D02*
X132050000Y-80550000D01*
X131500000Y-78200000D02*
X131500000Y-79200000D01*
X131500000Y-79200000D02*
X132150000Y-79850000D01*
X132150000Y-79850000D02*
X132150000Y-80550000D01*
X122150000Y-69650000D02*
X119450056Y-69650000D01*
X119450056Y-69650000D02*
X119450000Y-69649944D01*
X119450031Y-72650000D02*
X119450010Y-72649979D01*
X122150000Y-72650000D02*
X119450031Y-72650000D01*
X122150000Y-71650000D02*
X119450038Y-71650000D01*
X119450038Y-71650000D02*
X119450006Y-71649968D01*
X119450000Y-70649957D02*
X122149957Y-70649957D01*
X122149957Y-70649957D02*
X122150000Y-70650000D01*
D38*
G36*
X134310368Y-83799694D02*
X132837347Y-85272716D01*
X132680186Y-85507922D01*
X132680186Y-85507923D01*
X132624999Y-85785368D01*
X132624999Y-86922081D01*
X132620043Y-86918769D01*
X132400000Y-86875000D01*
X131637394Y-86875000D01*
X131616408Y-86843592D01*
X131575070Y-86815971D01*
X131670298Y-86720743D01*
X131735000Y-86564538D01*
X131735000Y-86311250D01*
X131628750Y-86205000D01*
X130575000Y-86205000D01*
X130575000Y-86716674D01*
X130525000Y-86716674D01*
X130525000Y-86205000D01*
X129471250Y-86205000D01*
X129365000Y-86311250D01*
X129365000Y-86564538D01*
X129429702Y-86720743D01*
X129524930Y-86815971D01*
X129483592Y-86843592D01*
X129389659Y-86984173D01*
X129356674Y-87150000D01*
X129356674Y-87750000D01*
X129389659Y-87915827D01*
X129483592Y-88056408D01*
X129526383Y-88085000D01*
X129483592Y-88113592D01*
X129389659Y-88254173D01*
X129356674Y-88420000D01*
X129356674Y-89020000D01*
X129389659Y-89185827D01*
X129483592Y-89326408D01*
X129624173Y-89420341D01*
X129790000Y-89453326D01*
X131310000Y-89453326D01*
X131475827Y-89420341D01*
X131497922Y-89405578D01*
X131725315Y-89500000D01*
X127863173Y-89500000D01*
X128056587Y-89306586D01*
X128181231Y-89120043D01*
X128225000Y-88900000D01*
X128225000Y-87500000D01*
X128181231Y-87279957D01*
X128133240Y-87208134D01*
X128056586Y-87093413D01*
X127238173Y-86275000D01*
X127584538Y-86275000D01*
X127740743Y-86210298D01*
X127860298Y-86090743D01*
X127925000Y-85934538D01*
X127925000Y-85606250D01*
X127818750Y-85500000D01*
X127125000Y-85500000D01*
X127125000Y-86161827D01*
X127075000Y-86111827D01*
X127075000Y-85500000D01*
X126463172Y-85500000D01*
X126444238Y-85481066D01*
X126475304Y-85450000D01*
X127075000Y-85450000D01*
X127075000Y-84850305D01*
X127100306Y-84824999D01*
X127125000Y-84824999D01*
X127125000Y-85450000D01*
X127818750Y-85450000D01*
X127925000Y-85343750D01*
X127925000Y-85015462D01*
X127860298Y-84859257D01*
X127826040Y-84824999D01*
X128179369Y-84824999D01*
X128175143Y-84835177D01*
X128174857Y-85163383D01*
X128300191Y-85466715D01*
X128532065Y-85698993D01*
X128835177Y-85824857D01*
X129163383Y-85825143D01*
X129391799Y-85730764D01*
X129365000Y-85795462D01*
X129365000Y-86048750D01*
X129471250Y-86155000D01*
X130525000Y-86155000D01*
X130525000Y-85643326D01*
X130575000Y-85643326D01*
X130575000Y-86155000D01*
X131628750Y-86155000D01*
X131735000Y-86048750D01*
X131735000Y-85795462D01*
X131670298Y-85639257D01*
X131575070Y-85544029D01*
X131616408Y-85516408D01*
X131710341Y-85375827D01*
X131743326Y-85210000D01*
X131743326Y-84610000D01*
X131710341Y-84444173D01*
X131616408Y-84303592D01*
X131475827Y-84209659D01*
X131310000Y-84176674D01*
X129847172Y-84176674D01*
X130482909Y-83540937D01*
X134310368Y-83540937D01*
X134310368Y-83799694D01*
X134310368Y-83799694D01*
G37*
X134310368Y-83799694D02*
X132837347Y-85272716D01*
X132680186Y-85507922D01*
X132680186Y-85507923D01*
X132624999Y-85785368D01*
X132624999Y-86922081D01*
X132620043Y-86918769D01*
X132400000Y-86875000D01*
X131637394Y-86875000D01*
X131616408Y-86843592D01*
X131575070Y-86815971D01*
X131670298Y-86720743D01*
X131735000Y-86564538D01*
X131735000Y-86311250D01*
X131628750Y-86205000D01*
X130575000Y-86205000D01*
X130575000Y-86716674D01*
X130525000Y-86716674D01*
X130525000Y-86205000D01*
X129471250Y-86205000D01*
X129365000Y-86311250D01*
X129365000Y-86564538D01*
X129429702Y-86720743D01*
X129524930Y-86815971D01*
X129483592Y-86843592D01*
X129389659Y-86984173D01*
X129356674Y-87150000D01*
X129356674Y-87750000D01*
X129389659Y-87915827D01*
X129483592Y-88056408D01*
X129526383Y-88085000D01*
X129483592Y-88113592D01*
X129389659Y-88254173D01*
X129356674Y-88420000D01*
X129356674Y-89020000D01*
X129389659Y-89185827D01*
X129483592Y-89326408D01*
X129624173Y-89420341D01*
X129790000Y-89453326D01*
X131310000Y-89453326D01*
X131475827Y-89420341D01*
X131497922Y-89405578D01*
X131725315Y-89500000D01*
X127863173Y-89500000D01*
X128056587Y-89306586D01*
X128181231Y-89120043D01*
X128225000Y-88900000D01*
X128225000Y-87500000D01*
X128181231Y-87279957D01*
X128133240Y-87208134D01*
X128056586Y-87093413D01*
X127238173Y-86275000D01*
X127584538Y-86275000D01*
X127740743Y-86210298D01*
X127860298Y-86090743D01*
X127925000Y-85934538D01*
X127925000Y-85606250D01*
X127818750Y-85500000D01*
X127125000Y-85500000D01*
X127125000Y-86161827D01*
X127075000Y-86111827D01*
X127075000Y-85500000D01*
X126463172Y-85500000D01*
X126444238Y-85481066D01*
X126475304Y-85450000D01*
X127075000Y-85450000D01*
X127075000Y-84850305D01*
X127100306Y-84824999D01*
X127125000Y-84824999D01*
X127125000Y-85450000D01*
X127818750Y-85450000D01*
X127925000Y-85343750D01*
X127925000Y-85015462D01*
X127860298Y-84859257D01*
X127826040Y-84824999D01*
X128179369Y-84824999D01*
X128175143Y-84835177D01*
X128174857Y-85163383D01*
X128300191Y-85466715D01*
X128532065Y-85698993D01*
X128835177Y-85824857D01*
X129163383Y-85825143D01*
X129391799Y-85730764D01*
X129365000Y-85795462D01*
X129365000Y-86048750D01*
X129471250Y-86155000D01*
X130525000Y-86155000D01*
X130525000Y-85643326D01*
X130575000Y-85643326D01*
X130575000Y-86155000D01*
X131628750Y-86155000D01*
X131735000Y-86048750D01*
X131735000Y-85795462D01*
X131670298Y-85639257D01*
X131575070Y-85544029D01*
X131616408Y-85516408D01*
X131710341Y-85375827D01*
X131743326Y-85210000D01*
X131743326Y-84610000D01*
X131710341Y-84444173D01*
X131616408Y-84303592D01*
X131475827Y-84209659D01*
X131310000Y-84176674D01*
X129847172Y-84176674D01*
X130482909Y-83540937D01*
X134310368Y-83540937D01*
X134310368Y-83799694D01*
G36*
X115700374Y-60665019D02*
X117500000Y-62464645D01*
X119299626Y-60665019D01*
X119181562Y-60500000D01*
X145298959Y-60500000D01*
X145239702Y-60559257D01*
X145175000Y-60715462D01*
X145175000Y-61468750D01*
X145281250Y-61575000D01*
X146075000Y-61575000D01*
X146075000Y-60500000D01*
X146125000Y-60500000D01*
X146125000Y-61575000D01*
X146918750Y-61575000D01*
X147025000Y-61468750D01*
X147025000Y-60715462D01*
X146960298Y-60559257D01*
X146901041Y-60500000D01*
X149089310Y-60500000D01*
X148999659Y-60634173D01*
X148966674Y-60800000D01*
X148966674Y-62400000D01*
X148999659Y-62565827D01*
X149093592Y-62706408D01*
X149234173Y-62800341D01*
X149400000Y-62833326D01*
X150400000Y-62833326D01*
X150565827Y-62800341D01*
X150706408Y-62706408D01*
X150800341Y-62565827D01*
X150833326Y-62400000D01*
X150833326Y-62332564D01*
X150935177Y-62374857D01*
X151263383Y-62375143D01*
X151566715Y-62249809D01*
X151798993Y-62017935D01*
X151924857Y-61714823D01*
X151925143Y-61386617D01*
X151799809Y-61083285D01*
X151567935Y-60851007D01*
X151264823Y-60725143D01*
X150936617Y-60724857D01*
X150827359Y-60770001D01*
X150800341Y-60634173D01*
X150710690Y-60500000D01*
X152818438Y-60500000D01*
X152700374Y-60665019D01*
X154500000Y-62464645D01*
X156299626Y-60665019D01*
X156181562Y-60500000D01*
X156500000Y-60500000D01*
X156500000Y-60818438D01*
X156334981Y-60700374D01*
X154535355Y-62500000D01*
X156334981Y-64299626D01*
X156500000Y-64181562D01*
X156500000Y-65096511D01*
X156350000Y-65066674D01*
X155135090Y-65066674D01*
X155919684Y-64768867D01*
X156052870Y-64679874D01*
X156299626Y-64334981D01*
X154500000Y-62535355D01*
X152700374Y-64334981D01*
X152947130Y-64679874D01*
X153825960Y-65075109D01*
X153536617Y-65074857D01*
X153233285Y-65200191D01*
X153001007Y-65432065D01*
X152875143Y-65735177D01*
X152874857Y-66063383D01*
X153000191Y-66366715D01*
X153232065Y-66598993D01*
X153535177Y-66724857D01*
X153863383Y-66725143D01*
X154166715Y-66599809D01*
X154270174Y-66496530D01*
X154343592Y-66606408D01*
X154484173Y-66700341D01*
X154650000Y-66733326D01*
X156350000Y-66733326D01*
X156500000Y-66703489D01*
X156500000Y-68496511D01*
X156350000Y-68466674D01*
X154650000Y-68466674D01*
X154484173Y-68499659D01*
X154343592Y-68593592D01*
X154249659Y-68734173D01*
X154216674Y-68900000D01*
X154216674Y-68975000D01*
X153844212Y-68975000D01*
X153756408Y-68843592D01*
X153615827Y-68749659D01*
X153450000Y-68716674D01*
X152950000Y-68716674D01*
X152784173Y-68749659D01*
X152643592Y-68843592D01*
X152549659Y-68984173D01*
X152516674Y-69150000D01*
X152516674Y-69740864D01*
X152382538Y-69875000D01*
X152375000Y-69875000D01*
X152375000Y-69731250D01*
X152268750Y-69625000D01*
X151725000Y-69625000D01*
X151725000Y-69875000D01*
X151675000Y-69875000D01*
X151675000Y-69625000D01*
X151131250Y-69625000D01*
X151025000Y-69731250D01*
X151025000Y-69909809D01*
X150999087Y-69914963D01*
X150828765Y-70028769D01*
X149782467Y-71075067D01*
X149583326Y-71074894D01*
X149583326Y-70969492D01*
X150288909Y-70263909D01*
X150408134Y-70085476D01*
X150450000Y-69875000D01*
X150450000Y-69223380D01*
X150565827Y-69200341D01*
X150706408Y-69106408D01*
X150733767Y-69065462D01*
X151025000Y-69065462D01*
X151025000Y-69468750D01*
X151131250Y-69575000D01*
X151675000Y-69575000D01*
X151675000Y-68831250D01*
X151725000Y-68831250D01*
X151725000Y-69575000D01*
X152268750Y-69575000D01*
X152375000Y-69468750D01*
X152375000Y-69065462D01*
X152310298Y-68909257D01*
X152190743Y-68789702D01*
X152034538Y-68725000D01*
X151831250Y-68725000D01*
X151725000Y-68831250D01*
X151675000Y-68831250D01*
X151568750Y-68725000D01*
X151365462Y-68725000D01*
X151209257Y-68789702D01*
X151089702Y-68909257D01*
X151025000Y-69065462D01*
X150733767Y-69065462D01*
X150800341Y-68965827D01*
X150833326Y-68800000D01*
X150833326Y-67731250D01*
X152875000Y-67731250D01*
X152875000Y-68084538D01*
X152939702Y-68240743D01*
X153059257Y-68360298D01*
X153215462Y-68425000D01*
X153718750Y-68425000D01*
X153825000Y-68318750D01*
X153825000Y-67625000D01*
X153875000Y-67625000D01*
X153875000Y-68318750D01*
X153981250Y-68425000D01*
X154484538Y-68425000D01*
X154640743Y-68360298D01*
X154760298Y-68240743D01*
X154825000Y-68084538D01*
X154825000Y-67731250D01*
X154718750Y-67625000D01*
X153875000Y-67625000D01*
X153825000Y-67625000D01*
X152981250Y-67625000D01*
X152875000Y-67731250D01*
X150833326Y-67731250D01*
X150833326Y-67509136D01*
X151017549Y-67324913D01*
X151263383Y-67325127D01*
X151566715Y-67199793D01*
X151651192Y-67115462D01*
X152875000Y-67115462D01*
X152875000Y-67468750D01*
X152981250Y-67575000D01*
X153825000Y-67575000D01*
X153825000Y-66881250D01*
X153875000Y-66881250D01*
X153875000Y-67575000D01*
X154718750Y-67575000D01*
X154825000Y-67468750D01*
X154825000Y-67115462D01*
X154760298Y-66959257D01*
X154640743Y-66839702D01*
X154484538Y-66775000D01*
X153981250Y-66775000D01*
X153875000Y-66881250D01*
X153825000Y-66881250D01*
X153718750Y-66775000D01*
X153215462Y-66775000D01*
X153059257Y-66839702D01*
X152939702Y-66959257D01*
X152875000Y-67115462D01*
X151651192Y-67115462D01*
X151798993Y-66967919D01*
X151924857Y-66664807D01*
X151925143Y-66336601D01*
X151799809Y-66033269D01*
X151567935Y-65800991D01*
X151264823Y-65675127D01*
X150936617Y-65674841D01*
X150633285Y-65800175D01*
X150401007Y-66032049D01*
X150275143Y-66335161D01*
X150274927Y-66582611D01*
X150090864Y-66766674D01*
X149400000Y-66766674D01*
X149234173Y-66799659D01*
X149093592Y-66893592D01*
X148999659Y-67034173D01*
X148966674Y-67200000D01*
X148966674Y-68800000D01*
X148999659Y-68965827D01*
X149093592Y-69106408D01*
X149234173Y-69200341D01*
X149350000Y-69223380D01*
X149350000Y-69647182D01*
X148805508Y-70191674D01*
X148350000Y-70191674D01*
X148184173Y-70224659D01*
X148043592Y-70318592D01*
X148003955Y-70377914D01*
X147890743Y-70264702D01*
X147734538Y-70200000D01*
X147381250Y-70200000D01*
X147275000Y-70306250D01*
X147275000Y-70975000D01*
X147916674Y-70975000D01*
X147916674Y-71025000D01*
X147275000Y-71025000D01*
X147275000Y-71693750D01*
X147381250Y-71800000D01*
X147734538Y-71800000D01*
X147890743Y-71735298D01*
X148003955Y-71622086D01*
X148043592Y-71681408D01*
X148184173Y-71775341D01*
X148225000Y-71783462D01*
X148225000Y-73158288D01*
X148101007Y-73282065D01*
X147975143Y-73585177D01*
X147974857Y-73913383D01*
X148100191Y-74216715D01*
X148332065Y-74448993D01*
X148570305Y-74547920D01*
X148550000Y-74650000D01*
X148550000Y-74733663D01*
X148549659Y-74734173D01*
X148516674Y-74900000D01*
X148516674Y-75350000D01*
X148549659Y-75515827D01*
X148643592Y-75656408D01*
X148784173Y-75750341D01*
X148950000Y-75783326D01*
X149136623Y-75783326D01*
X149158906Y-75816674D01*
X148950000Y-75816674D01*
X148784173Y-75849659D01*
X148643592Y-75943592D01*
X148639310Y-75950000D01*
X148575000Y-75950000D01*
X148374091Y-75989963D01*
X148203769Y-76103769D01*
X148082467Y-76225071D01*
X147836617Y-76224857D01*
X147533285Y-76350191D01*
X147301007Y-76582065D01*
X147175143Y-76885177D01*
X147174857Y-77213383D01*
X147300191Y-77516715D01*
X147532065Y-77748993D01*
X147835177Y-77874857D01*
X148163383Y-77875143D01*
X148466715Y-77749809D01*
X148698993Y-77517935D01*
X148824857Y-77214823D01*
X148824950Y-77108452D01*
X148950000Y-77133326D01*
X149250000Y-77133326D01*
X149312449Y-77120904D01*
X149151007Y-77282065D01*
X149025143Y-77585177D01*
X149024857Y-77913383D01*
X149150191Y-78216715D01*
X149382065Y-78448993D01*
X149542094Y-78515444D01*
X149528769Y-78528769D01*
X149414963Y-78699091D01*
X149375000Y-78900000D01*
X149375000Y-82300000D01*
X149414963Y-82500909D01*
X149528769Y-82671231D01*
X150266674Y-83409136D01*
X150266674Y-83900000D01*
X150275000Y-83941858D01*
X150275000Y-84149695D01*
X149949696Y-84475000D01*
X149933326Y-84475000D01*
X149933326Y-84400000D01*
X149900341Y-84234173D01*
X149806408Y-84093592D01*
X149725000Y-84039197D01*
X149725000Y-84000000D01*
X149669813Y-83722555D01*
X149669813Y-83722554D01*
X149512652Y-83487348D01*
X146654110Y-80628806D01*
X146625341Y-80484173D01*
X146531408Y-80343592D01*
X146390827Y-80249659D01*
X146225000Y-80216674D01*
X145475000Y-80216674D01*
X145309173Y-80249659D01*
X145168592Y-80343592D01*
X145114197Y-80425000D01*
X144300000Y-80425000D01*
X144216174Y-80441674D01*
X144141005Y-80441674D01*
X144090298Y-80319257D01*
X143970743Y-80199702D01*
X143814538Y-80135000D01*
X143446250Y-80135000D01*
X143340000Y-80241250D01*
X143340000Y-81130000D01*
X143517669Y-81130000D01*
X143527614Y-81180000D01*
X143340000Y-81180000D01*
X143340000Y-82320000D01*
X143525000Y-82320000D01*
X143525000Y-82368750D01*
X143526250Y-82370000D01*
X143340000Y-82370000D01*
X143340000Y-83258750D01*
X143446250Y-83365000D01*
X143814538Y-83365000D01*
X143970743Y-83300298D01*
X144090298Y-83180743D01*
X144144453Y-83050000D01*
X144168750Y-83050000D01*
X144275000Y-82943750D01*
X144275000Y-82570027D01*
X144300000Y-82575000D01*
X144325000Y-82575000D01*
X144325000Y-82943750D01*
X144431250Y-83050000D01*
X144734538Y-83050000D01*
X144890743Y-82985298D01*
X145010298Y-82865743D01*
X145050000Y-82769894D01*
X145050000Y-83034538D01*
X145114702Y-83190743D01*
X145234257Y-83310298D01*
X145390462Y-83375000D01*
X145718750Y-83375000D01*
X145825000Y-83268750D01*
X145825000Y-82575000D01*
X145875000Y-82575000D01*
X145875000Y-83268750D01*
X145981250Y-83375000D01*
X146309538Y-83375000D01*
X146465743Y-83310298D01*
X146585298Y-83190743D01*
X146650000Y-83034538D01*
X146650000Y-82681250D01*
X146543750Y-82575000D01*
X145875000Y-82575000D01*
X145825000Y-82575000D01*
X145156250Y-82575000D01*
X145075000Y-82656250D01*
X145075000Y-82631250D01*
X144999048Y-82555298D01*
X145120043Y-82531231D01*
X145145483Y-82514233D01*
X145156250Y-82525000D01*
X145825000Y-82525000D01*
X145825000Y-81888172D01*
X145829846Y-81883326D01*
X145858022Y-81883326D01*
X145875000Y-81900304D01*
X145875000Y-82525000D01*
X146499696Y-82525000D01*
X148143402Y-84168706D01*
X148099659Y-84234173D01*
X148066674Y-84400000D01*
X148066674Y-85118289D01*
X147930187Y-85322554D01*
X147930187Y-85322555D01*
X147875000Y-85600000D01*
X147875000Y-87358142D01*
X147866674Y-87400000D01*
X147866674Y-87770153D01*
X146711828Y-88925000D01*
X145327394Y-88925000D01*
X145400341Y-88815827D01*
X145433326Y-88650000D01*
X145433326Y-88525000D01*
X145621417Y-88525000D01*
X145734173Y-88600341D01*
X145900000Y-88633326D01*
X146500000Y-88633326D01*
X146665827Y-88600341D01*
X146806408Y-88506408D01*
X146900341Y-88365827D01*
X146933326Y-88200000D01*
X146933326Y-87400000D01*
X146900341Y-87234173D01*
X146806408Y-87093592D01*
X146665827Y-86999659D01*
X146500000Y-86966674D01*
X145900000Y-86966674D01*
X145734173Y-86999659D01*
X145621417Y-87075000D01*
X145433326Y-87075000D01*
X145433326Y-86983227D01*
X145648993Y-86767935D01*
X145774857Y-86464823D01*
X145774892Y-86425000D01*
X145868750Y-86425000D01*
X145975000Y-86318750D01*
X145975000Y-85225000D01*
X146025000Y-85225000D01*
X146025000Y-86318750D01*
X146131250Y-86425000D01*
X146584538Y-86425000D01*
X146740743Y-86360298D01*
X146860298Y-86240743D01*
X146925000Y-86084538D01*
X146925000Y-85331250D01*
X146818750Y-85225000D01*
X146025000Y-85225000D01*
X145975000Y-85225000D01*
X145181250Y-85225000D01*
X145075000Y-85331250D01*
X145075000Y-85475108D01*
X144786617Y-85474857D01*
X144483285Y-85600191D01*
X144251007Y-85832065D01*
X144125143Y-86135177D01*
X144124857Y-86463383D01*
X144146876Y-86516674D01*
X144100000Y-86516674D01*
X143934173Y-86549659D01*
X143793592Y-86643592D01*
X143699659Y-86784173D01*
X143666674Y-86950000D01*
X143666674Y-87079721D01*
X143414823Y-86975143D01*
X143086617Y-86974857D01*
X142844252Y-87075000D01*
X142533326Y-87075000D01*
X142533326Y-86950000D01*
X142500341Y-86784173D01*
X142406408Y-86643592D01*
X142265827Y-86549659D01*
X142100000Y-86516674D01*
X141200000Y-86516674D01*
X141034173Y-86549659D01*
X140893592Y-86643592D01*
X140799659Y-86784173D01*
X140766674Y-86950000D01*
X140766674Y-88650000D01*
X140799659Y-88815827D01*
X140872606Y-88925000D01*
X137243326Y-88925000D01*
X137243326Y-88420000D01*
X137210341Y-88254173D01*
X137116408Y-88113592D01*
X137096066Y-88100000D01*
X137472493Y-88100000D01*
X137543592Y-88206408D01*
X137684173Y-88300341D01*
X137850000Y-88333326D01*
X138750000Y-88333326D01*
X138915827Y-88300341D01*
X139056408Y-88206408D01*
X139150341Y-88065827D01*
X139183326Y-87900000D01*
X139183326Y-87709136D01*
X139516195Y-87376267D01*
X139630001Y-87205945D01*
X139669964Y-87005036D01*
X139669964Y-85238154D01*
X139783316Y-85125000D01*
X141754657Y-85125000D01*
X141875191Y-85416715D01*
X142107065Y-85648993D01*
X142410177Y-85774857D01*
X142738383Y-85775143D01*
X143041715Y-85649809D01*
X143273993Y-85417935D01*
X143399857Y-85114823D01*
X143400143Y-84786617D01*
X143274809Y-84483285D01*
X143107278Y-84315462D01*
X145075000Y-84315462D01*
X145075000Y-85068750D01*
X145181250Y-85175000D01*
X145975000Y-85175000D01*
X145975000Y-84081250D01*
X146025000Y-84081250D01*
X146025000Y-85175000D01*
X146818750Y-85175000D01*
X146925000Y-85068750D01*
X146925000Y-84315462D01*
X146860298Y-84159257D01*
X146740743Y-84039702D01*
X146584538Y-83975000D01*
X146131250Y-83975000D01*
X146025000Y-84081250D01*
X145975000Y-84081250D01*
X145868750Y-83975000D01*
X145415462Y-83975000D01*
X145259257Y-84039702D01*
X145139702Y-84159257D01*
X145075000Y-84315462D01*
X143107278Y-84315462D01*
X143042935Y-84251007D01*
X142739823Y-84125143D01*
X142440754Y-84124882D01*
X142425909Y-84114963D01*
X142225000Y-84075000D01*
X139790054Y-84075000D01*
X139612899Y-83897536D01*
X139309787Y-83771672D01*
X138981581Y-83771386D01*
X138678249Y-83896720D01*
X138445971Y-84128594D01*
X138431267Y-84164004D01*
X138381389Y-84143293D01*
X138053183Y-84143007D01*
X137995706Y-84166756D01*
X138644203Y-83518259D01*
X138745741Y-83560421D01*
X139073947Y-83560707D01*
X139377279Y-83435373D01*
X139488612Y-83324234D01*
X139490462Y-83325000D01*
X139818750Y-83325000D01*
X139925000Y-83218750D01*
X139925000Y-82525000D01*
X139716212Y-82525000D01*
X139695553Y-82475000D01*
X139925000Y-82475000D01*
X139925000Y-81898203D01*
X139971413Y-81888971D01*
X139975000Y-81888257D01*
X139975000Y-82475000D01*
X140643750Y-82475000D01*
X140644572Y-82474178D01*
X140660823Y-82485037D01*
X140729957Y-82531231D01*
X140809247Y-82547003D01*
X140737500Y-82618750D01*
X140643750Y-82525000D01*
X139975000Y-82525000D01*
X139975000Y-83218750D01*
X140081250Y-83325000D01*
X140409538Y-83325000D01*
X140565743Y-83260298D01*
X140685298Y-83140743D01*
X140750000Y-82984538D01*
X140750000Y-82769894D01*
X140789702Y-82865743D01*
X140909257Y-82985298D01*
X141065462Y-83050000D01*
X141368750Y-83050000D01*
X141475000Y-82943750D01*
X141475000Y-82575000D01*
X141500000Y-82575000D01*
X141525000Y-82570027D01*
X141525000Y-82943750D01*
X141631250Y-83050000D01*
X141655547Y-83050000D01*
X141709702Y-83180743D01*
X141829257Y-83300298D01*
X141985462Y-83365000D01*
X142353750Y-83365000D01*
X142460000Y-83258750D01*
X142460000Y-82476250D01*
X142475000Y-82476250D01*
X142475000Y-83024538D01*
X142510000Y-83109036D01*
X142510000Y-83258750D01*
X142616250Y-83365000D01*
X143183750Y-83365000D01*
X143290000Y-83258750D01*
X143290000Y-83109036D01*
X143325000Y-83024538D01*
X143325000Y-82476250D01*
X143290000Y-82441250D01*
X143290000Y-82370000D01*
X142510000Y-82370000D01*
X142510000Y-82441250D01*
X142475000Y-82476250D01*
X142460000Y-82476250D01*
X142460000Y-82370000D01*
X142273750Y-82370000D01*
X142275000Y-82368750D01*
X142275000Y-82320000D01*
X142460000Y-82320000D01*
X142460000Y-81286250D01*
X142475000Y-81286250D01*
X142475000Y-82213750D01*
X142510000Y-82248750D01*
X142510000Y-82320000D01*
X143290000Y-82320000D01*
X143290000Y-82248750D01*
X143325000Y-82213750D01*
X143325000Y-81286250D01*
X143290000Y-81251250D01*
X143290000Y-81180000D01*
X142510000Y-81180000D01*
X142510000Y-81251250D01*
X142475000Y-81286250D01*
X142460000Y-81286250D01*
X142460000Y-81180000D01*
X142272386Y-81180000D01*
X142282331Y-81130000D01*
X142460000Y-81130000D01*
X142460000Y-80475462D01*
X142475000Y-80475462D01*
X142475000Y-81023750D01*
X142510000Y-81058750D01*
X142510000Y-81130000D01*
X143290000Y-81130000D01*
X143290000Y-81058750D01*
X143325000Y-81023750D01*
X143325000Y-80475462D01*
X143290000Y-80390964D01*
X143290000Y-80241250D01*
X143183750Y-80135000D01*
X142616250Y-80135000D01*
X142510000Y-80241250D01*
X142510000Y-80390964D01*
X142475000Y-80475462D01*
X142460000Y-80475462D01*
X142460000Y-80241250D01*
X142353750Y-80135000D01*
X141985462Y-80135000D01*
X141829257Y-80199702D01*
X141709702Y-80319257D01*
X141658995Y-80441674D01*
X141583826Y-80441674D01*
X141521106Y-80429198D01*
X143912653Y-78037652D01*
X143937956Y-77999784D01*
X144007065Y-78069014D01*
X144310177Y-78194878D01*
X144638383Y-78195164D01*
X144941715Y-78069830D01*
X145173993Y-77837956D01*
X145299857Y-77534844D01*
X145300143Y-77206638D01*
X145174809Y-76903306D01*
X145025000Y-76753236D01*
X145025000Y-71131250D01*
X146425000Y-71131250D01*
X146425000Y-71459538D01*
X146489702Y-71615743D01*
X146609257Y-71735298D01*
X146765462Y-71800000D01*
X147118750Y-71800000D01*
X147225000Y-71693750D01*
X147225000Y-71025000D01*
X146531250Y-71025000D01*
X146425000Y-71131250D01*
X145025000Y-71131250D01*
X145025000Y-70540462D01*
X146425000Y-70540462D01*
X146425000Y-70868750D01*
X146531250Y-70975000D01*
X147225000Y-70975000D01*
X147225000Y-70306250D01*
X147118750Y-70200000D01*
X146765462Y-70200000D01*
X146609257Y-70264702D01*
X146489702Y-70384257D01*
X146425000Y-70540462D01*
X145025000Y-70540462D01*
X145025000Y-68641625D01*
X145175000Y-68491886D01*
X145175000Y-68884538D01*
X145239702Y-69040743D01*
X145359257Y-69160298D01*
X145515462Y-69225000D01*
X145968750Y-69225000D01*
X146075000Y-69118750D01*
X146075000Y-68025000D01*
X146125000Y-68025000D01*
X146125000Y-69118750D01*
X146231250Y-69225000D01*
X146684538Y-69225000D01*
X146840743Y-69160298D01*
X146960298Y-69040743D01*
X147025000Y-68884538D01*
X147025000Y-68131250D01*
X146918750Y-68025000D01*
X146125000Y-68025000D01*
X146075000Y-68025000D01*
X145324979Y-68025000D01*
X145325022Y-67975000D01*
X146075000Y-67975000D01*
X146075000Y-67425000D01*
X146125000Y-67425000D01*
X146125000Y-67975000D01*
X146918750Y-67975000D01*
X147025000Y-67868750D01*
X147025000Y-67499871D01*
X147085173Y-67524857D01*
X147413379Y-67525143D01*
X147716711Y-67399809D01*
X147948989Y-67167935D01*
X148074853Y-66864823D01*
X148075139Y-66536617D01*
X147949805Y-66233285D01*
X147717931Y-66001007D01*
X147414819Y-65875143D01*
X147086613Y-65874857D01*
X146844248Y-65975000D01*
X143950000Y-65975000D01*
X143672555Y-66030187D01*
X143641504Y-66050935D01*
X143437347Y-66187348D01*
X143099696Y-66525000D01*
X142753583Y-66525000D01*
X142640827Y-66449659D01*
X142475000Y-66416674D01*
X141725000Y-66416674D01*
X141559173Y-66449659D01*
X141418592Y-66543592D01*
X141324659Y-66684173D01*
X141291674Y-66850000D01*
X141291674Y-67199442D01*
X140561083Y-67930033D01*
X140531231Y-67779957D01*
X140494510Y-67725000D01*
X140406587Y-67593414D01*
X139106586Y-66293414D01*
X138920043Y-66168769D01*
X138700000Y-66125000D01*
X138583326Y-66125000D01*
X138583326Y-66100000D01*
X138550341Y-65934173D01*
X138456408Y-65793592D01*
X138315827Y-65699659D01*
X138150000Y-65666674D01*
X137850000Y-65666674D01*
X137750000Y-65686565D01*
X137650000Y-65666674D01*
X137350000Y-65666674D01*
X137250000Y-65686565D01*
X137150000Y-65666674D01*
X136850000Y-65666674D01*
X136750000Y-65686565D01*
X136650000Y-65666674D01*
X136550000Y-65666674D01*
X136550000Y-64231250D01*
X136675000Y-64231250D01*
X136675000Y-64884538D01*
X136739702Y-65040743D01*
X136859257Y-65160298D01*
X137015462Y-65225000D01*
X137868750Y-65225000D01*
X137975000Y-65118750D01*
X137975000Y-64125000D01*
X136781250Y-64125000D01*
X136675000Y-64231250D01*
X136550000Y-64231250D01*
X136550000Y-63727818D01*
X136675000Y-63602818D01*
X136675000Y-63968750D01*
X136781250Y-64075000D01*
X137975000Y-64075000D01*
X137975000Y-63081250D01*
X137868750Y-62975000D01*
X137302817Y-62975000D01*
X137444491Y-62833326D01*
X138900000Y-62833326D01*
X139065827Y-62800341D01*
X139206408Y-62706408D01*
X139245796Y-62647460D01*
X139318592Y-62756408D01*
X139377914Y-62796045D01*
X139264702Y-62909257D01*
X139200000Y-63065462D01*
X139200000Y-63098959D01*
X139140743Y-63039702D01*
X138984538Y-62975000D01*
X138131250Y-62975000D01*
X138025000Y-63081250D01*
X138025000Y-64075000D01*
X139216760Y-64075000D01*
X139250708Y-64156958D01*
X139218750Y-64125000D01*
X138025000Y-64125000D01*
X138025000Y-65118750D01*
X138131250Y-65225000D01*
X138984538Y-65225000D01*
X139140743Y-65160298D01*
X139260298Y-65040743D01*
X139325000Y-64884538D01*
X139325000Y-64251041D01*
X139384257Y-64310298D01*
X139540462Y-64375000D01*
X139868750Y-64375000D01*
X139975000Y-64268750D01*
X139975000Y-63575000D01*
X140025000Y-63575000D01*
X140025000Y-64268750D01*
X140131250Y-64375000D01*
X140459538Y-64375000D01*
X140615743Y-64310298D01*
X140735298Y-64190743D01*
X140800000Y-64034538D01*
X140800000Y-63681250D01*
X140693750Y-63575000D01*
X140025000Y-63575000D01*
X139975000Y-63575000D01*
X139325000Y-63575000D01*
X139325000Y-63525000D01*
X139975000Y-63525000D01*
X139975000Y-62883326D01*
X140025000Y-62883326D01*
X140025000Y-63525000D01*
X140693750Y-63525000D01*
X140800000Y-63418750D01*
X140800000Y-63065462D01*
X140749424Y-62943359D01*
X151860551Y-62943359D01*
X152231133Y-63919684D01*
X152320126Y-64052870D01*
X152665019Y-64299626D01*
X154464645Y-62500000D01*
X152665019Y-60700374D01*
X152320126Y-60947130D01*
X151891801Y-61899537D01*
X151860551Y-62943359D01*
X140749424Y-62943359D01*
X140735298Y-62909257D01*
X140622086Y-62796045D01*
X140681408Y-62756408D01*
X140775341Y-62615827D01*
X140808326Y-62450000D01*
X140808326Y-61731250D01*
X145175000Y-61731250D01*
X145175000Y-62484538D01*
X145239702Y-62640743D01*
X145359257Y-62760298D01*
X145515462Y-62825000D01*
X145968750Y-62825000D01*
X146075000Y-62718750D01*
X146075000Y-61625000D01*
X146125000Y-61625000D01*
X146125000Y-62718750D01*
X146231250Y-62825000D01*
X146684538Y-62825000D01*
X146840743Y-62760298D01*
X146960298Y-62640743D01*
X147025000Y-62484538D01*
X147025000Y-61731250D01*
X146918750Y-61625000D01*
X146125000Y-61625000D01*
X146075000Y-61625000D01*
X145281250Y-61625000D01*
X145175000Y-61731250D01*
X140808326Y-61731250D01*
X140808326Y-61650000D01*
X140775341Y-61484173D01*
X140681408Y-61343592D01*
X140540827Y-61249659D01*
X140375000Y-61216674D01*
X139625000Y-61216674D01*
X139459173Y-61249659D01*
X139333326Y-61333747D01*
X139333326Y-61000000D01*
X139300341Y-60834173D01*
X139206408Y-60693592D01*
X139065827Y-60599659D01*
X138900000Y-60566674D01*
X137100000Y-60566674D01*
X136934173Y-60599659D01*
X136793592Y-60693592D01*
X136699659Y-60834173D01*
X136666674Y-61000000D01*
X136666674Y-62055509D01*
X135611091Y-63111091D01*
X135491866Y-63289524D01*
X135450000Y-63500000D01*
X135450000Y-63722182D01*
X135438909Y-63711091D01*
X135260476Y-63591866D01*
X135050000Y-63550000D01*
X134933326Y-63550000D01*
X134933326Y-63400000D01*
X134900341Y-63234173D01*
X134806408Y-63093592D01*
X134665827Y-62999659D01*
X134500000Y-62966674D01*
X132700000Y-62966674D01*
X132534173Y-62999659D01*
X132533663Y-63000000D01*
X132378489Y-63000000D01*
X132375341Y-62984173D01*
X132281408Y-62843592D01*
X132222086Y-62803955D01*
X132335298Y-62690743D01*
X132351233Y-62652274D01*
X132459257Y-62760298D01*
X132615462Y-62825000D01*
X133468750Y-62825000D01*
X133575000Y-62718750D01*
X133575000Y-61725000D01*
X133625000Y-61725000D01*
X133625000Y-62718750D01*
X133731250Y-62825000D01*
X134584538Y-62825000D01*
X134740743Y-62760298D01*
X134860298Y-62640743D01*
X134925000Y-62484538D01*
X134925000Y-61831250D01*
X134818750Y-61725000D01*
X133625000Y-61725000D01*
X133575000Y-61725000D01*
X132400000Y-61725000D01*
X132400000Y-61675000D01*
X133575000Y-61675000D01*
X133575000Y-60681250D01*
X133625000Y-60681250D01*
X133625000Y-61675000D01*
X134818750Y-61675000D01*
X134925000Y-61568750D01*
X134925000Y-60915462D01*
X134860298Y-60759257D01*
X134740743Y-60639702D01*
X134584538Y-60575000D01*
X133731250Y-60575000D01*
X133625000Y-60681250D01*
X133575000Y-60681250D01*
X133468750Y-60575000D01*
X132615462Y-60575000D01*
X132459257Y-60639702D01*
X132339702Y-60759257D01*
X132275000Y-60915462D01*
X132275000Y-61348959D01*
X132215743Y-61289702D01*
X132059538Y-61225000D01*
X131731250Y-61225000D01*
X131625000Y-61331250D01*
X131625000Y-62025000D01*
X132275000Y-62025000D01*
X132275000Y-62075000D01*
X131625000Y-62075000D01*
X131625000Y-62716674D01*
X131575000Y-62716674D01*
X131575000Y-62075000D01*
X130906250Y-62075000D01*
X130888889Y-62092361D01*
X130874809Y-62058285D01*
X130841727Y-62025145D01*
X130873993Y-61992935D01*
X130874049Y-61992799D01*
X130906250Y-62025000D01*
X131575000Y-62025000D01*
X131575000Y-61331250D01*
X131468750Y-61225000D01*
X131140462Y-61225000D01*
X130984257Y-61289702D01*
X130974472Y-61299487D01*
X130874809Y-61058285D01*
X130642935Y-60826007D01*
X130339823Y-60700143D01*
X130011617Y-60699857D01*
X129708285Y-60825191D01*
X129608302Y-60925000D01*
X125956299Y-60925000D01*
X125948421Y-60885393D01*
X125854488Y-60744812D01*
X125713907Y-60650879D01*
X125548080Y-60617894D01*
X124750520Y-60617894D01*
X124584693Y-60650879D01*
X124444112Y-60744812D01*
X124400000Y-60810830D01*
X124355888Y-60744812D01*
X124215307Y-60650879D01*
X124049480Y-60617894D01*
X123251920Y-60617894D01*
X123086093Y-60650879D01*
X123011273Y-60700872D01*
X123006408Y-60693592D01*
X122865827Y-60599659D01*
X122700000Y-60566674D01*
X122200000Y-60566674D01*
X122034173Y-60599659D01*
X121893592Y-60693592D01*
X121799659Y-60834173D01*
X121766674Y-61000000D01*
X121766674Y-61900000D01*
X121799659Y-62065827D01*
X121893592Y-62206408D01*
X121958832Y-62250000D01*
X121893592Y-62293592D01*
X121799659Y-62434173D01*
X121766674Y-62600000D01*
X121766674Y-63500000D01*
X121799659Y-63665827D01*
X121893592Y-63806408D01*
X121956200Y-63848241D01*
X121888328Y-63893592D01*
X121794395Y-64034173D01*
X121761410Y-64200000D01*
X121761410Y-65100000D01*
X121794395Y-65265827D01*
X121888328Y-65406408D01*
X121956200Y-65451759D01*
X121893592Y-65493592D01*
X121799659Y-65634173D01*
X121766674Y-65800000D01*
X121766674Y-66700000D01*
X121799659Y-66865827D01*
X121893592Y-67006408D01*
X122034173Y-67100341D01*
X122200000Y-67133326D01*
X122700000Y-67133326D01*
X122865827Y-67100341D01*
X123006408Y-67006408D01*
X123011273Y-66999128D01*
X123086093Y-67049121D01*
X123251920Y-67082106D01*
X124049480Y-67082106D01*
X124215307Y-67049121D01*
X124355888Y-66955188D01*
X124400000Y-66889170D01*
X124444112Y-66955188D01*
X124584693Y-67049121D01*
X124750520Y-67082106D01*
X125404722Y-67082106D01*
X125293414Y-67193414D01*
X125168769Y-67379957D01*
X125125000Y-67600000D01*
X125125000Y-68275000D01*
X119139942Y-68275000D01*
X118919995Y-68318750D01*
X118919899Y-68318769D01*
X118733356Y-68443414D01*
X117993414Y-69183356D01*
X117868769Y-69369899D01*
X117825000Y-69589942D01*
X117825000Y-72850000D01*
X117864782Y-73050000D01*
X117868769Y-73070043D01*
X117993414Y-73256586D01*
X118725614Y-73988787D01*
X118643592Y-74043592D01*
X118549659Y-74184173D01*
X118516674Y-74350000D01*
X118516674Y-75250000D01*
X118549659Y-75415827D01*
X118643592Y-75556408D01*
X118708832Y-75600000D01*
X118643592Y-75643592D01*
X118549659Y-75784173D01*
X118516674Y-75950000D01*
X118516674Y-76850000D01*
X118549659Y-77015827D01*
X118643592Y-77156408D01*
X118708832Y-77200000D01*
X118643592Y-77243592D01*
X118549659Y-77384173D01*
X118516674Y-77550000D01*
X118516674Y-78450000D01*
X118549659Y-78615827D01*
X118643592Y-78756408D01*
X118708832Y-78800000D01*
X118643592Y-78843592D01*
X118549659Y-78984173D01*
X118516674Y-79150000D01*
X118516674Y-80050000D01*
X118549659Y-80215827D01*
X118643592Y-80356408D01*
X118784173Y-80450341D01*
X118950000Y-80483326D01*
X119450000Y-80483326D01*
X119615827Y-80450341D01*
X119756408Y-80356408D01*
X119761273Y-80349128D01*
X119798308Y-80373874D01*
X119411091Y-80761091D01*
X119291866Y-80939524D01*
X119250000Y-81150000D01*
X119250000Y-85250000D01*
X119291866Y-85460476D01*
X119411091Y-85638909D01*
X120649805Y-86877623D01*
X120543592Y-86948592D01*
X120449659Y-87089173D01*
X120416674Y-87255000D01*
X120416674Y-88005000D01*
X120449659Y-88170827D01*
X120543592Y-88311408D01*
X120675000Y-88399212D01*
X120675000Y-89050000D01*
X120704718Y-89199401D01*
X120718769Y-89270043D01*
X120843414Y-89456586D01*
X120886828Y-89500000D01*
X119181562Y-89500000D01*
X119299626Y-89334981D01*
X117500000Y-87535355D01*
X115700374Y-89334981D01*
X115818438Y-89500000D01*
X115500000Y-89500000D01*
X115500000Y-89181562D01*
X115665019Y-89299626D01*
X117464645Y-87500000D01*
X117535355Y-87500000D01*
X119334981Y-89299626D01*
X119679874Y-89052870D01*
X120108199Y-88100463D01*
X120139449Y-87056641D01*
X119768867Y-86080316D01*
X119679874Y-85947130D01*
X119334981Y-85700374D01*
X117535355Y-87500000D01*
X117464645Y-87500000D01*
X115665019Y-85700374D01*
X115500000Y-85818438D01*
X115500000Y-85665019D01*
X115700374Y-85665019D01*
X117500000Y-87464645D01*
X119299626Y-85665019D01*
X119052870Y-85320126D01*
X118100463Y-84891801D01*
X117056641Y-84860551D01*
X116080316Y-85231133D01*
X115947130Y-85320126D01*
X115700374Y-85665019D01*
X115500000Y-85665019D01*
X115500000Y-79731250D01*
X117025000Y-79731250D01*
X117025000Y-80134538D01*
X117089702Y-80290743D01*
X117209257Y-80410298D01*
X117365462Y-80475000D01*
X117568750Y-80475000D01*
X117675000Y-80368750D01*
X117675000Y-79625000D01*
X117725000Y-79625000D01*
X117725000Y-80368750D01*
X117831250Y-80475000D01*
X118034538Y-80475000D01*
X118190743Y-80410298D01*
X118310298Y-80290743D01*
X118375000Y-80134538D01*
X118375000Y-79731250D01*
X118268750Y-79625000D01*
X117725000Y-79625000D01*
X117675000Y-79625000D01*
X117131250Y-79625000D01*
X117025000Y-79731250D01*
X115500000Y-79731250D01*
X115500000Y-78131250D01*
X117025000Y-78131250D01*
X117025000Y-78534538D01*
X117089702Y-78690743D01*
X117198959Y-78800000D01*
X117089702Y-78909257D01*
X117025000Y-79065462D01*
X117025000Y-79468750D01*
X117131250Y-79575000D01*
X117675000Y-79575000D01*
X117675000Y-78831250D01*
X117643750Y-78800000D01*
X117675000Y-78768750D01*
X117675000Y-78025000D01*
X117725000Y-78025000D01*
X117725000Y-78768750D01*
X117756250Y-78800000D01*
X117725000Y-78831250D01*
X117725000Y-79575000D01*
X118268750Y-79575000D01*
X118375000Y-79468750D01*
X118375000Y-79065462D01*
X118310298Y-78909257D01*
X118201041Y-78800000D01*
X118310298Y-78690743D01*
X118375000Y-78534538D01*
X118375000Y-78131250D01*
X118268750Y-78025000D01*
X117725000Y-78025000D01*
X117675000Y-78025000D01*
X117131250Y-78025000D01*
X117025000Y-78131250D01*
X115500000Y-78131250D01*
X115500000Y-76531250D01*
X117025000Y-76531250D01*
X117025000Y-76934538D01*
X117089702Y-77090743D01*
X117198959Y-77200000D01*
X117089702Y-77309257D01*
X117025000Y-77465462D01*
X117025000Y-77868750D01*
X117131250Y-77975000D01*
X117675000Y-77975000D01*
X117675000Y-77231250D01*
X117643750Y-77200000D01*
X117675000Y-77168750D01*
X117675000Y-76425000D01*
X117725000Y-76425000D01*
X117725000Y-77168750D01*
X117756250Y-77200000D01*
X117725000Y-77231250D01*
X117725000Y-77975000D01*
X118268750Y-77975000D01*
X118375000Y-77868750D01*
X118375000Y-77465462D01*
X118310298Y-77309257D01*
X118201041Y-77200000D01*
X118310298Y-77090743D01*
X118375000Y-76934538D01*
X118375000Y-76531250D01*
X118268750Y-76425000D01*
X117725000Y-76425000D01*
X117675000Y-76425000D01*
X117131250Y-76425000D01*
X117025000Y-76531250D01*
X115500000Y-76531250D01*
X115500000Y-74931250D01*
X117025000Y-74931250D01*
X117025000Y-75334538D01*
X117089702Y-75490743D01*
X117198959Y-75600000D01*
X117089702Y-75709257D01*
X117025000Y-75865462D01*
X117025000Y-76268750D01*
X117131250Y-76375000D01*
X117675000Y-76375000D01*
X117675000Y-75631250D01*
X117643750Y-75600000D01*
X117675000Y-75568750D01*
X117675000Y-74825000D01*
X117725000Y-74825000D01*
X117725000Y-75568750D01*
X117756250Y-75600000D01*
X117725000Y-75631250D01*
X117725000Y-76375000D01*
X118268750Y-76375000D01*
X118375000Y-76268750D01*
X118375000Y-75865462D01*
X118310298Y-75709257D01*
X118201041Y-75600000D01*
X118310298Y-75490743D01*
X118375000Y-75334538D01*
X118375000Y-74931250D01*
X118268750Y-74825000D01*
X117725000Y-74825000D01*
X117675000Y-74825000D01*
X117131250Y-74825000D01*
X117025000Y-74931250D01*
X115500000Y-74931250D01*
X115500000Y-74265462D01*
X117025000Y-74265462D01*
X117025000Y-74668750D01*
X117131250Y-74775000D01*
X117675000Y-74775000D01*
X117675000Y-74031250D01*
X117725000Y-74031250D01*
X117725000Y-74775000D01*
X118268750Y-74775000D01*
X118375000Y-74668750D01*
X118375000Y-74265462D01*
X118310298Y-74109257D01*
X118190743Y-73989702D01*
X118034538Y-73925000D01*
X117831250Y-73925000D01*
X117725000Y-74031250D01*
X117675000Y-74031250D01*
X117568750Y-73925000D01*
X117365462Y-73925000D01*
X117209257Y-73989702D01*
X117089702Y-74109257D01*
X117025000Y-74265462D01*
X115500000Y-74265462D01*
X115500000Y-66381250D01*
X120275000Y-66381250D01*
X120275000Y-66784538D01*
X120339702Y-66940743D01*
X120459257Y-67060298D01*
X120615462Y-67125000D01*
X120818750Y-67125000D01*
X120925000Y-67018750D01*
X120925000Y-66275000D01*
X120975000Y-66275000D01*
X120975000Y-67018750D01*
X121081250Y-67125000D01*
X121284538Y-67125000D01*
X121440743Y-67060298D01*
X121560298Y-66940743D01*
X121625000Y-66784538D01*
X121625000Y-66381250D01*
X121518750Y-66275000D01*
X120975000Y-66275000D01*
X120925000Y-66275000D01*
X120381250Y-66275000D01*
X120275000Y-66381250D01*
X115500000Y-66381250D01*
X115500000Y-64334981D01*
X115700374Y-64334981D01*
X115947130Y-64679874D01*
X116899537Y-65108199D01*
X117943359Y-65139449D01*
X118887060Y-64781250D01*
X120269736Y-64781250D01*
X120269736Y-65184538D01*
X120334438Y-65340743D01*
X120446327Y-65452632D01*
X120339702Y-65559257D01*
X120275000Y-65715462D01*
X120275000Y-66118750D01*
X120381250Y-66225000D01*
X120925000Y-66225000D01*
X120925000Y-65481250D01*
X120891118Y-65447368D01*
X120919736Y-65418750D01*
X120919736Y-64675000D01*
X120969736Y-64675000D01*
X120969736Y-65418750D01*
X121003618Y-65452632D01*
X120975000Y-65481250D01*
X120975000Y-66225000D01*
X121518750Y-66225000D01*
X121625000Y-66118750D01*
X121625000Y-65715462D01*
X121560298Y-65559257D01*
X121448409Y-65447368D01*
X121555034Y-65340743D01*
X121619736Y-65184538D01*
X121619736Y-64781250D01*
X121513486Y-64675000D01*
X120969736Y-64675000D01*
X120919736Y-64675000D01*
X120375986Y-64675000D01*
X120269736Y-64781250D01*
X118887060Y-64781250D01*
X118919684Y-64768867D01*
X119052870Y-64679874D01*
X119299626Y-64334981D01*
X117500000Y-62535355D01*
X115700374Y-64334981D01*
X115500000Y-64334981D01*
X115500000Y-64181562D01*
X115665019Y-64299626D01*
X117464645Y-62500000D01*
X117535355Y-62500000D01*
X119334981Y-64299626D01*
X119592388Y-64115462D01*
X120269736Y-64115462D01*
X120269736Y-64518750D01*
X120375986Y-64625000D01*
X120919736Y-64625000D01*
X120919736Y-63881250D01*
X120969736Y-63881250D01*
X120969736Y-64625000D01*
X121513486Y-64625000D01*
X121619736Y-64518750D01*
X121619736Y-64115462D01*
X121555034Y-63959257D01*
X121448409Y-63852632D01*
X121560298Y-63740743D01*
X121625000Y-63584538D01*
X121625000Y-63181250D01*
X121518750Y-63075000D01*
X120975000Y-63075000D01*
X120975000Y-63818750D01*
X121003618Y-63847368D01*
X120969736Y-63881250D01*
X120919736Y-63881250D01*
X120891118Y-63852632D01*
X120925000Y-63818750D01*
X120925000Y-63075000D01*
X120381250Y-63075000D01*
X120275000Y-63181250D01*
X120275000Y-63584538D01*
X120339702Y-63740743D01*
X120446327Y-63847368D01*
X120334438Y-63959257D01*
X120269736Y-64115462D01*
X119592388Y-64115462D01*
X119679874Y-64052870D01*
X120108199Y-63100463D01*
X120139449Y-62056641D01*
X119959006Y-61581250D01*
X120275000Y-61581250D01*
X120275000Y-61984538D01*
X120339702Y-62140743D01*
X120448959Y-62250000D01*
X120339702Y-62359257D01*
X120275000Y-62515462D01*
X120275000Y-62918750D01*
X120381250Y-63025000D01*
X120925000Y-63025000D01*
X120925000Y-62281250D01*
X120893750Y-62250000D01*
X120925000Y-62218750D01*
X120925000Y-61475000D01*
X120975000Y-61475000D01*
X120975000Y-62218750D01*
X121006250Y-62250000D01*
X120975000Y-62281250D01*
X120975000Y-63025000D01*
X121518750Y-63025000D01*
X121625000Y-62918750D01*
X121625000Y-62515462D01*
X121560298Y-62359257D01*
X121451041Y-62250000D01*
X121560298Y-62140743D01*
X121625000Y-61984538D01*
X121625000Y-61581250D01*
X121518750Y-61475000D01*
X120975000Y-61475000D01*
X120925000Y-61475000D01*
X120381250Y-61475000D01*
X120275000Y-61581250D01*
X119959006Y-61581250D01*
X119768867Y-61080316D01*
X119679874Y-60947130D01*
X119635612Y-60915462D01*
X120275000Y-60915462D01*
X120275000Y-61318750D01*
X120381250Y-61425000D01*
X120925000Y-61425000D01*
X120925000Y-60681250D01*
X120975000Y-60681250D01*
X120975000Y-61425000D01*
X121518750Y-61425000D01*
X121625000Y-61318750D01*
X121625000Y-60915462D01*
X121560298Y-60759257D01*
X121440743Y-60639702D01*
X121284538Y-60575000D01*
X121081250Y-60575000D01*
X120975000Y-60681250D01*
X120925000Y-60681250D01*
X120818750Y-60575000D01*
X120615462Y-60575000D01*
X120459257Y-60639702D01*
X120339702Y-60759257D01*
X120275000Y-60915462D01*
X119635612Y-60915462D01*
X119334981Y-60700374D01*
X117535355Y-62500000D01*
X117464645Y-62500000D01*
X115665019Y-60700374D01*
X115500000Y-60818438D01*
X115500000Y-60500000D01*
X115818438Y-60500000D01*
X115700374Y-60665019D01*
X115700374Y-60665019D01*
G37*
X115700374Y-60665019D02*
X117500000Y-62464645D01*
X119299626Y-60665019D01*
X119181562Y-60500000D01*
X145298959Y-60500000D01*
X145239702Y-60559257D01*
X145175000Y-60715462D01*
X145175000Y-61468750D01*
X145281250Y-61575000D01*
X146075000Y-61575000D01*
X146075000Y-60500000D01*
X146125000Y-60500000D01*
X146125000Y-61575000D01*
X146918750Y-61575000D01*
X147025000Y-61468750D01*
X147025000Y-60715462D01*
X146960298Y-60559257D01*
X146901041Y-60500000D01*
X149089310Y-60500000D01*
X148999659Y-60634173D01*
X148966674Y-60800000D01*
X148966674Y-62400000D01*
X148999659Y-62565827D01*
X149093592Y-62706408D01*
X149234173Y-62800341D01*
X149400000Y-62833326D01*
X150400000Y-62833326D01*
X150565827Y-62800341D01*
X150706408Y-62706408D01*
X150800341Y-62565827D01*
X150833326Y-62400000D01*
X150833326Y-62332564D01*
X150935177Y-62374857D01*
X151263383Y-62375143D01*
X151566715Y-62249809D01*
X151798993Y-62017935D01*
X151924857Y-61714823D01*
X151925143Y-61386617D01*
X151799809Y-61083285D01*
X151567935Y-60851007D01*
X151264823Y-60725143D01*
X150936617Y-60724857D01*
X150827359Y-60770001D01*
X150800341Y-60634173D01*
X150710690Y-60500000D01*
X152818438Y-60500000D01*
X152700374Y-60665019D01*
X154500000Y-62464645D01*
X156299626Y-60665019D01*
X156181562Y-60500000D01*
X156500000Y-60500000D01*
X156500000Y-60818438D01*
X156334981Y-60700374D01*
X154535355Y-62500000D01*
X156334981Y-64299626D01*
X156500000Y-64181562D01*
X156500000Y-65096511D01*
X156350000Y-65066674D01*
X155135090Y-65066674D01*
X155919684Y-64768867D01*
X156052870Y-64679874D01*
X156299626Y-64334981D01*
X154500000Y-62535355D01*
X152700374Y-64334981D01*
X152947130Y-64679874D01*
X153825960Y-65075109D01*
X153536617Y-65074857D01*
X153233285Y-65200191D01*
X153001007Y-65432065D01*
X152875143Y-65735177D01*
X152874857Y-66063383D01*
X153000191Y-66366715D01*
X153232065Y-66598993D01*
X153535177Y-66724857D01*
X153863383Y-66725143D01*
X154166715Y-66599809D01*
X154270174Y-66496530D01*
X154343592Y-66606408D01*
X154484173Y-66700341D01*
X154650000Y-66733326D01*
X156350000Y-66733326D01*
X156500000Y-66703489D01*
X156500000Y-68496511D01*
X156350000Y-68466674D01*
X154650000Y-68466674D01*
X154484173Y-68499659D01*
X154343592Y-68593592D01*
X154249659Y-68734173D01*
X154216674Y-68900000D01*
X154216674Y-68975000D01*
X153844212Y-68975000D01*
X153756408Y-68843592D01*
X153615827Y-68749659D01*
X153450000Y-68716674D01*
X152950000Y-68716674D01*
X152784173Y-68749659D01*
X152643592Y-68843592D01*
X152549659Y-68984173D01*
X152516674Y-69150000D01*
X152516674Y-69740864D01*
X152382538Y-69875000D01*
X152375000Y-69875000D01*
X152375000Y-69731250D01*
X152268750Y-69625000D01*
X151725000Y-69625000D01*
X151725000Y-69875000D01*
X151675000Y-69875000D01*
X151675000Y-69625000D01*
X151131250Y-69625000D01*
X151025000Y-69731250D01*
X151025000Y-69909809D01*
X150999087Y-69914963D01*
X150828765Y-70028769D01*
X149782467Y-71075067D01*
X149583326Y-71074894D01*
X149583326Y-70969492D01*
X150288909Y-70263909D01*
X150408134Y-70085476D01*
X150450000Y-69875000D01*
X150450000Y-69223380D01*
X150565827Y-69200341D01*
X150706408Y-69106408D01*
X150733767Y-69065462D01*
X151025000Y-69065462D01*
X151025000Y-69468750D01*
X151131250Y-69575000D01*
X151675000Y-69575000D01*
X151675000Y-68831250D01*
X151725000Y-68831250D01*
X151725000Y-69575000D01*
X152268750Y-69575000D01*
X152375000Y-69468750D01*
X152375000Y-69065462D01*
X152310298Y-68909257D01*
X152190743Y-68789702D01*
X152034538Y-68725000D01*
X151831250Y-68725000D01*
X151725000Y-68831250D01*
X151675000Y-68831250D01*
X151568750Y-68725000D01*
X151365462Y-68725000D01*
X151209257Y-68789702D01*
X151089702Y-68909257D01*
X151025000Y-69065462D01*
X150733767Y-69065462D01*
X150800341Y-68965827D01*
X150833326Y-68800000D01*
X150833326Y-67731250D01*
X152875000Y-67731250D01*
X152875000Y-68084538D01*
X152939702Y-68240743D01*
X153059257Y-68360298D01*
X153215462Y-68425000D01*
X153718750Y-68425000D01*
X153825000Y-68318750D01*
X153825000Y-67625000D01*
X153875000Y-67625000D01*
X153875000Y-68318750D01*
X153981250Y-68425000D01*
X154484538Y-68425000D01*
X154640743Y-68360298D01*
X154760298Y-68240743D01*
X154825000Y-68084538D01*
X154825000Y-67731250D01*
X154718750Y-67625000D01*
X153875000Y-67625000D01*
X153825000Y-67625000D01*
X152981250Y-67625000D01*
X152875000Y-67731250D01*
X150833326Y-67731250D01*
X150833326Y-67509136D01*
X151017549Y-67324913D01*
X151263383Y-67325127D01*
X151566715Y-67199793D01*
X151651192Y-67115462D01*
X152875000Y-67115462D01*
X152875000Y-67468750D01*
X152981250Y-67575000D01*
X153825000Y-67575000D01*
X153825000Y-66881250D01*
X153875000Y-66881250D01*
X153875000Y-67575000D01*
X154718750Y-67575000D01*
X154825000Y-67468750D01*
X154825000Y-67115462D01*
X154760298Y-66959257D01*
X154640743Y-66839702D01*
X154484538Y-66775000D01*
X153981250Y-66775000D01*
X153875000Y-66881250D01*
X153825000Y-66881250D01*
X153718750Y-66775000D01*
X153215462Y-66775000D01*
X153059257Y-66839702D01*
X152939702Y-66959257D01*
X152875000Y-67115462D01*
X151651192Y-67115462D01*
X151798993Y-66967919D01*
X151924857Y-66664807D01*
X151925143Y-66336601D01*
X151799809Y-66033269D01*
X151567935Y-65800991D01*
X151264823Y-65675127D01*
X150936617Y-65674841D01*
X150633285Y-65800175D01*
X150401007Y-66032049D01*
X150275143Y-66335161D01*
X150274927Y-66582611D01*
X150090864Y-66766674D01*
X149400000Y-66766674D01*
X149234173Y-66799659D01*
X149093592Y-66893592D01*
X148999659Y-67034173D01*
X148966674Y-67200000D01*
X148966674Y-68800000D01*
X148999659Y-68965827D01*
X149093592Y-69106408D01*
X149234173Y-69200341D01*
X149350000Y-69223380D01*
X149350000Y-69647182D01*
X148805508Y-70191674D01*
X148350000Y-70191674D01*
X148184173Y-70224659D01*
X148043592Y-70318592D01*
X148003955Y-70377914D01*
X147890743Y-70264702D01*
X147734538Y-70200000D01*
X147381250Y-70200000D01*
X147275000Y-70306250D01*
X147275000Y-70975000D01*
X147916674Y-70975000D01*
X147916674Y-71025000D01*
X147275000Y-71025000D01*
X147275000Y-71693750D01*
X147381250Y-71800000D01*
X147734538Y-71800000D01*
X147890743Y-71735298D01*
X148003955Y-71622086D01*
X148043592Y-71681408D01*
X148184173Y-71775341D01*
X148225000Y-71783462D01*
X148225000Y-73158288D01*
X148101007Y-73282065D01*
X147975143Y-73585177D01*
X147974857Y-73913383D01*
X148100191Y-74216715D01*
X148332065Y-74448993D01*
X148570305Y-74547920D01*
X148550000Y-74650000D01*
X148550000Y-74733663D01*
X148549659Y-74734173D01*
X148516674Y-74900000D01*
X148516674Y-75350000D01*
X148549659Y-75515827D01*
X148643592Y-75656408D01*
X148784173Y-75750341D01*
X148950000Y-75783326D01*
X149136623Y-75783326D01*
X149158906Y-75816674D01*
X148950000Y-75816674D01*
X148784173Y-75849659D01*
X148643592Y-75943592D01*
X148639310Y-75950000D01*
X148575000Y-75950000D01*
X148374091Y-75989963D01*
X148203769Y-76103769D01*
X148082467Y-76225071D01*
X147836617Y-76224857D01*
X147533285Y-76350191D01*
X147301007Y-76582065D01*
X147175143Y-76885177D01*
X147174857Y-77213383D01*
X147300191Y-77516715D01*
X147532065Y-77748993D01*
X147835177Y-77874857D01*
X148163383Y-77875143D01*
X148466715Y-77749809D01*
X148698993Y-77517935D01*
X148824857Y-77214823D01*
X148824950Y-77108452D01*
X148950000Y-77133326D01*
X149250000Y-77133326D01*
X149312449Y-77120904D01*
X149151007Y-77282065D01*
X149025143Y-77585177D01*
X149024857Y-77913383D01*
X149150191Y-78216715D01*
X149382065Y-78448993D01*
X149542094Y-78515444D01*
X149528769Y-78528769D01*
X149414963Y-78699091D01*
X149375000Y-78900000D01*
X149375000Y-82300000D01*
X149414963Y-82500909D01*
X149528769Y-82671231D01*
X150266674Y-83409136D01*
X150266674Y-83900000D01*
X150275000Y-83941858D01*
X150275000Y-84149695D01*
X149949696Y-84475000D01*
X149933326Y-84475000D01*
X149933326Y-84400000D01*
X149900341Y-84234173D01*
X149806408Y-84093592D01*
X149725000Y-84039197D01*
X149725000Y-84000000D01*
X149669813Y-83722555D01*
X149669813Y-83722554D01*
X149512652Y-83487348D01*
X146654110Y-80628806D01*
X146625341Y-80484173D01*
X146531408Y-80343592D01*
X146390827Y-80249659D01*
X146225000Y-80216674D01*
X145475000Y-80216674D01*
X145309173Y-80249659D01*
X145168592Y-80343592D01*
X145114197Y-80425000D01*
X144300000Y-80425000D01*
X144216174Y-80441674D01*
X144141005Y-80441674D01*
X144090298Y-80319257D01*
X143970743Y-80199702D01*
X143814538Y-80135000D01*
X143446250Y-80135000D01*
X143340000Y-80241250D01*
X143340000Y-81130000D01*
X143517669Y-81130000D01*
X143527614Y-81180000D01*
X143340000Y-81180000D01*
X143340000Y-82320000D01*
X143525000Y-82320000D01*
X143525000Y-82368750D01*
X143526250Y-82370000D01*
X143340000Y-82370000D01*
X143340000Y-83258750D01*
X143446250Y-83365000D01*
X143814538Y-83365000D01*
X143970743Y-83300298D01*
X144090298Y-83180743D01*
X144144453Y-83050000D01*
X144168750Y-83050000D01*
X144275000Y-82943750D01*
X144275000Y-82570027D01*
X144300000Y-82575000D01*
X144325000Y-82575000D01*
X144325000Y-82943750D01*
X144431250Y-83050000D01*
X144734538Y-83050000D01*
X144890743Y-82985298D01*
X145010298Y-82865743D01*
X145050000Y-82769894D01*
X145050000Y-83034538D01*
X145114702Y-83190743D01*
X145234257Y-83310298D01*
X145390462Y-83375000D01*
X145718750Y-83375000D01*
X145825000Y-83268750D01*
X145825000Y-82575000D01*
X145875000Y-82575000D01*
X145875000Y-83268750D01*
X145981250Y-83375000D01*
X146309538Y-83375000D01*
X146465743Y-83310298D01*
X146585298Y-83190743D01*
X146650000Y-83034538D01*
X146650000Y-82681250D01*
X146543750Y-82575000D01*
X145875000Y-82575000D01*
X145825000Y-82575000D01*
X145156250Y-82575000D01*
X145075000Y-82656250D01*
X145075000Y-82631250D01*
X144999048Y-82555298D01*
X145120043Y-82531231D01*
X145145483Y-82514233D01*
X145156250Y-82525000D01*
X145825000Y-82525000D01*
X145825000Y-81888172D01*
X145829846Y-81883326D01*
X145858022Y-81883326D01*
X145875000Y-81900304D01*
X145875000Y-82525000D01*
X146499696Y-82525000D01*
X148143402Y-84168706D01*
X148099659Y-84234173D01*
X148066674Y-84400000D01*
X148066674Y-85118289D01*
X147930187Y-85322554D01*
X147930187Y-85322555D01*
X147875000Y-85600000D01*
X147875000Y-87358142D01*
X147866674Y-87400000D01*
X147866674Y-87770153D01*
X146711828Y-88925000D01*
X145327394Y-88925000D01*
X145400341Y-88815827D01*
X145433326Y-88650000D01*
X145433326Y-88525000D01*
X145621417Y-88525000D01*
X145734173Y-88600341D01*
X145900000Y-88633326D01*
X146500000Y-88633326D01*
X146665827Y-88600341D01*
X146806408Y-88506408D01*
X146900341Y-88365827D01*
X146933326Y-88200000D01*
X146933326Y-87400000D01*
X146900341Y-87234173D01*
X146806408Y-87093592D01*
X146665827Y-86999659D01*
X146500000Y-86966674D01*
X145900000Y-86966674D01*
X145734173Y-86999659D01*
X145621417Y-87075000D01*
X145433326Y-87075000D01*
X145433326Y-86983227D01*
X145648993Y-86767935D01*
X145774857Y-86464823D01*
X145774892Y-86425000D01*
X145868750Y-86425000D01*
X145975000Y-86318750D01*
X145975000Y-85225000D01*
X146025000Y-85225000D01*
X146025000Y-86318750D01*
X146131250Y-86425000D01*
X146584538Y-86425000D01*
X146740743Y-86360298D01*
X146860298Y-86240743D01*
X146925000Y-86084538D01*
X146925000Y-85331250D01*
X146818750Y-85225000D01*
X146025000Y-85225000D01*
X145975000Y-85225000D01*
X145181250Y-85225000D01*
X145075000Y-85331250D01*
X145075000Y-85475108D01*
X144786617Y-85474857D01*
X144483285Y-85600191D01*
X144251007Y-85832065D01*
X144125143Y-86135177D01*
X144124857Y-86463383D01*
X144146876Y-86516674D01*
X144100000Y-86516674D01*
X143934173Y-86549659D01*
X143793592Y-86643592D01*
X143699659Y-86784173D01*
X143666674Y-86950000D01*
X143666674Y-87079721D01*
X143414823Y-86975143D01*
X143086617Y-86974857D01*
X142844252Y-87075000D01*
X142533326Y-87075000D01*
X142533326Y-86950000D01*
X142500341Y-86784173D01*
X142406408Y-86643592D01*
X142265827Y-86549659D01*
X142100000Y-86516674D01*
X141200000Y-86516674D01*
X141034173Y-86549659D01*
X140893592Y-86643592D01*
X140799659Y-86784173D01*
X140766674Y-86950000D01*
X140766674Y-88650000D01*
X140799659Y-88815827D01*
X140872606Y-88925000D01*
X137243326Y-88925000D01*
X137243326Y-88420000D01*
X137210341Y-88254173D01*
X137116408Y-88113592D01*
X137096066Y-88100000D01*
X137472493Y-88100000D01*
X137543592Y-88206408D01*
X137684173Y-88300341D01*
X137850000Y-88333326D01*
X138750000Y-88333326D01*
X138915827Y-88300341D01*
X139056408Y-88206408D01*
X139150341Y-88065827D01*
X139183326Y-87900000D01*
X139183326Y-87709136D01*
X139516195Y-87376267D01*
X139630001Y-87205945D01*
X139669964Y-87005036D01*
X139669964Y-85238154D01*
X139783316Y-85125000D01*
X141754657Y-85125000D01*
X141875191Y-85416715D01*
X142107065Y-85648993D01*
X142410177Y-85774857D01*
X142738383Y-85775143D01*
X143041715Y-85649809D01*
X143273993Y-85417935D01*
X143399857Y-85114823D01*
X143400143Y-84786617D01*
X143274809Y-84483285D01*
X143107278Y-84315462D01*
X145075000Y-84315462D01*
X145075000Y-85068750D01*
X145181250Y-85175000D01*
X145975000Y-85175000D01*
X145975000Y-84081250D01*
X146025000Y-84081250D01*
X146025000Y-85175000D01*
X146818750Y-85175000D01*
X146925000Y-85068750D01*
X146925000Y-84315462D01*
X146860298Y-84159257D01*
X146740743Y-84039702D01*
X146584538Y-83975000D01*
X146131250Y-83975000D01*
X146025000Y-84081250D01*
X145975000Y-84081250D01*
X145868750Y-83975000D01*
X145415462Y-83975000D01*
X145259257Y-84039702D01*
X145139702Y-84159257D01*
X145075000Y-84315462D01*
X143107278Y-84315462D01*
X143042935Y-84251007D01*
X142739823Y-84125143D01*
X142440754Y-84124882D01*
X142425909Y-84114963D01*
X142225000Y-84075000D01*
X139790054Y-84075000D01*
X139612899Y-83897536D01*
X139309787Y-83771672D01*
X138981581Y-83771386D01*
X138678249Y-83896720D01*
X138445971Y-84128594D01*
X138431267Y-84164004D01*
X138381389Y-84143293D01*
X138053183Y-84143007D01*
X137995706Y-84166756D01*
X138644203Y-83518259D01*
X138745741Y-83560421D01*
X139073947Y-83560707D01*
X139377279Y-83435373D01*
X139488612Y-83324234D01*
X139490462Y-83325000D01*
X139818750Y-83325000D01*
X139925000Y-83218750D01*
X139925000Y-82525000D01*
X139716212Y-82525000D01*
X139695553Y-82475000D01*
X139925000Y-82475000D01*
X139925000Y-81898203D01*
X139971413Y-81888971D01*
X139975000Y-81888257D01*
X139975000Y-82475000D01*
X140643750Y-82475000D01*
X140644572Y-82474178D01*
X140660823Y-82485037D01*
X140729957Y-82531231D01*
X140809247Y-82547003D01*
X140737500Y-82618750D01*
X140643750Y-82525000D01*
X139975000Y-82525000D01*
X139975000Y-83218750D01*
X140081250Y-83325000D01*
X140409538Y-83325000D01*
X140565743Y-83260298D01*
X140685298Y-83140743D01*
X140750000Y-82984538D01*
X140750000Y-82769894D01*
X140789702Y-82865743D01*
X140909257Y-82985298D01*
X141065462Y-83050000D01*
X141368750Y-83050000D01*
X141475000Y-82943750D01*
X141475000Y-82575000D01*
X141500000Y-82575000D01*
X141525000Y-82570027D01*
X141525000Y-82943750D01*
X141631250Y-83050000D01*
X141655547Y-83050000D01*
X141709702Y-83180743D01*
X141829257Y-83300298D01*
X141985462Y-83365000D01*
X142353750Y-83365000D01*
X142460000Y-83258750D01*
X142460000Y-82476250D01*
X142475000Y-82476250D01*
X142475000Y-83024538D01*
X142510000Y-83109036D01*
X142510000Y-83258750D01*
X142616250Y-83365000D01*
X143183750Y-83365000D01*
X143290000Y-83258750D01*
X143290000Y-83109036D01*
X143325000Y-83024538D01*
X143325000Y-82476250D01*
X143290000Y-82441250D01*
X143290000Y-82370000D01*
X142510000Y-82370000D01*
X142510000Y-82441250D01*
X142475000Y-82476250D01*
X142460000Y-82476250D01*
X142460000Y-82370000D01*
X142273750Y-82370000D01*
X142275000Y-82368750D01*
X142275000Y-82320000D01*
X142460000Y-82320000D01*
X142460000Y-81286250D01*
X142475000Y-81286250D01*
X142475000Y-82213750D01*
X142510000Y-82248750D01*
X142510000Y-82320000D01*
X143290000Y-82320000D01*
X143290000Y-82248750D01*
X143325000Y-82213750D01*
X143325000Y-81286250D01*
X143290000Y-81251250D01*
X143290000Y-81180000D01*
X142510000Y-81180000D01*
X142510000Y-81251250D01*
X142475000Y-81286250D01*
X142460000Y-81286250D01*
X142460000Y-81180000D01*
X142272386Y-81180000D01*
X142282331Y-81130000D01*
X142460000Y-81130000D01*
X142460000Y-80475462D01*
X142475000Y-80475462D01*
X142475000Y-81023750D01*
X142510000Y-81058750D01*
X142510000Y-81130000D01*
X143290000Y-81130000D01*
X143290000Y-81058750D01*
X143325000Y-81023750D01*
X143325000Y-80475462D01*
X143290000Y-80390964D01*
X143290000Y-80241250D01*
X143183750Y-80135000D01*
X142616250Y-80135000D01*
X142510000Y-80241250D01*
X142510000Y-80390964D01*
X142475000Y-80475462D01*
X142460000Y-80475462D01*
X142460000Y-80241250D01*
X142353750Y-80135000D01*
X141985462Y-80135000D01*
X141829257Y-80199702D01*
X141709702Y-80319257D01*
X141658995Y-80441674D01*
X141583826Y-80441674D01*
X141521106Y-80429198D01*
X143912653Y-78037652D01*
X143937956Y-77999784D01*
X144007065Y-78069014D01*
X144310177Y-78194878D01*
X144638383Y-78195164D01*
X144941715Y-78069830D01*
X145173993Y-77837956D01*
X145299857Y-77534844D01*
X145300143Y-77206638D01*
X145174809Y-76903306D01*
X145025000Y-76753236D01*
X145025000Y-71131250D01*
X146425000Y-71131250D01*
X146425000Y-71459538D01*
X146489702Y-71615743D01*
X146609257Y-71735298D01*
X146765462Y-71800000D01*
X147118750Y-71800000D01*
X147225000Y-71693750D01*
X147225000Y-71025000D01*
X146531250Y-71025000D01*
X146425000Y-71131250D01*
X145025000Y-71131250D01*
X145025000Y-70540462D01*
X146425000Y-70540462D01*
X146425000Y-70868750D01*
X146531250Y-70975000D01*
X147225000Y-70975000D01*
X147225000Y-70306250D01*
X147118750Y-70200000D01*
X146765462Y-70200000D01*
X146609257Y-70264702D01*
X146489702Y-70384257D01*
X146425000Y-70540462D01*
X145025000Y-70540462D01*
X145025000Y-68641625D01*
X145175000Y-68491886D01*
X145175000Y-68884538D01*
X145239702Y-69040743D01*
X145359257Y-69160298D01*
X145515462Y-69225000D01*
X145968750Y-69225000D01*
X146075000Y-69118750D01*
X146075000Y-68025000D01*
X146125000Y-68025000D01*
X146125000Y-69118750D01*
X146231250Y-69225000D01*
X146684538Y-69225000D01*
X146840743Y-69160298D01*
X146960298Y-69040743D01*
X147025000Y-68884538D01*
X147025000Y-68131250D01*
X146918750Y-68025000D01*
X146125000Y-68025000D01*
X146075000Y-68025000D01*
X145324979Y-68025000D01*
X145325022Y-67975000D01*
X146075000Y-67975000D01*
X146075000Y-67425000D01*
X146125000Y-67425000D01*
X146125000Y-67975000D01*
X146918750Y-67975000D01*
X147025000Y-67868750D01*
X147025000Y-67499871D01*
X147085173Y-67524857D01*
X147413379Y-67525143D01*
X147716711Y-67399809D01*
X147948989Y-67167935D01*
X148074853Y-66864823D01*
X148075139Y-66536617D01*
X147949805Y-66233285D01*
X147717931Y-66001007D01*
X147414819Y-65875143D01*
X147086613Y-65874857D01*
X146844248Y-65975000D01*
X143950000Y-65975000D01*
X143672555Y-66030187D01*
X143641504Y-66050935D01*
X143437347Y-66187348D01*
X143099696Y-66525000D01*
X142753583Y-66525000D01*
X142640827Y-66449659D01*
X142475000Y-66416674D01*
X141725000Y-66416674D01*
X141559173Y-66449659D01*
X141418592Y-66543592D01*
X141324659Y-66684173D01*
X141291674Y-66850000D01*
X141291674Y-67199442D01*
X140561083Y-67930033D01*
X140531231Y-67779957D01*
X140494510Y-67725000D01*
X140406587Y-67593414D01*
X139106586Y-66293414D01*
X138920043Y-66168769D01*
X138700000Y-66125000D01*
X138583326Y-66125000D01*
X138583326Y-66100000D01*
X138550341Y-65934173D01*
X138456408Y-65793592D01*
X138315827Y-65699659D01*
X138150000Y-65666674D01*
X137850000Y-65666674D01*
X137750000Y-65686565D01*
X137650000Y-65666674D01*
X137350000Y-65666674D01*
X137250000Y-65686565D01*
X137150000Y-65666674D01*
X136850000Y-65666674D01*
X136750000Y-65686565D01*
X136650000Y-65666674D01*
X136550000Y-65666674D01*
X136550000Y-64231250D01*
X136675000Y-64231250D01*
X136675000Y-64884538D01*
X136739702Y-65040743D01*
X136859257Y-65160298D01*
X137015462Y-65225000D01*
X137868750Y-65225000D01*
X137975000Y-65118750D01*
X137975000Y-64125000D01*
X136781250Y-64125000D01*
X136675000Y-64231250D01*
X136550000Y-64231250D01*
X136550000Y-63727818D01*
X136675000Y-63602818D01*
X136675000Y-63968750D01*
X136781250Y-64075000D01*
X137975000Y-64075000D01*
X137975000Y-63081250D01*
X137868750Y-62975000D01*
X137302817Y-62975000D01*
X137444491Y-62833326D01*
X138900000Y-62833326D01*
X139065827Y-62800341D01*
X139206408Y-62706408D01*
X139245796Y-62647460D01*
X139318592Y-62756408D01*
X139377914Y-62796045D01*
X139264702Y-62909257D01*
X139200000Y-63065462D01*
X139200000Y-63098959D01*
X139140743Y-63039702D01*
X138984538Y-62975000D01*
X138131250Y-62975000D01*
X138025000Y-63081250D01*
X138025000Y-64075000D01*
X139216760Y-64075000D01*
X139250708Y-64156958D01*
X139218750Y-64125000D01*
X138025000Y-64125000D01*
X138025000Y-65118750D01*
X138131250Y-65225000D01*
X138984538Y-65225000D01*
X139140743Y-65160298D01*
X139260298Y-65040743D01*
X139325000Y-64884538D01*
X139325000Y-64251041D01*
X139384257Y-64310298D01*
X139540462Y-64375000D01*
X139868750Y-64375000D01*
X139975000Y-64268750D01*
X139975000Y-63575000D01*
X140025000Y-63575000D01*
X140025000Y-64268750D01*
X140131250Y-64375000D01*
X140459538Y-64375000D01*
X140615743Y-64310298D01*
X140735298Y-64190743D01*
X140800000Y-64034538D01*
X140800000Y-63681250D01*
X140693750Y-63575000D01*
X140025000Y-63575000D01*
X139975000Y-63575000D01*
X139325000Y-63575000D01*
X139325000Y-63525000D01*
X139975000Y-63525000D01*
X139975000Y-62883326D01*
X140025000Y-62883326D01*
X140025000Y-63525000D01*
X140693750Y-63525000D01*
X140800000Y-63418750D01*
X140800000Y-63065462D01*
X140749424Y-62943359D01*
X151860551Y-62943359D01*
X152231133Y-63919684D01*
X152320126Y-64052870D01*
X152665019Y-64299626D01*
X154464645Y-62500000D01*
X152665019Y-60700374D01*
X152320126Y-60947130D01*
X151891801Y-61899537D01*
X151860551Y-62943359D01*
X140749424Y-62943359D01*
X140735298Y-62909257D01*
X140622086Y-62796045D01*
X140681408Y-62756408D01*
X140775341Y-62615827D01*
X140808326Y-62450000D01*
X140808326Y-61731250D01*
X145175000Y-61731250D01*
X145175000Y-62484538D01*
X145239702Y-62640743D01*
X145359257Y-62760298D01*
X145515462Y-62825000D01*
X145968750Y-62825000D01*
X146075000Y-62718750D01*
X146075000Y-61625000D01*
X146125000Y-61625000D01*
X146125000Y-62718750D01*
X146231250Y-62825000D01*
X146684538Y-62825000D01*
X146840743Y-62760298D01*
X146960298Y-62640743D01*
X147025000Y-62484538D01*
X147025000Y-61731250D01*
X146918750Y-61625000D01*
X146125000Y-61625000D01*
X146075000Y-61625000D01*
X145281250Y-61625000D01*
X145175000Y-61731250D01*
X140808326Y-61731250D01*
X140808326Y-61650000D01*
X140775341Y-61484173D01*
X140681408Y-61343592D01*
X140540827Y-61249659D01*
X140375000Y-61216674D01*
X139625000Y-61216674D01*
X139459173Y-61249659D01*
X139333326Y-61333747D01*
X139333326Y-61000000D01*
X139300341Y-60834173D01*
X139206408Y-60693592D01*
X139065827Y-60599659D01*
X138900000Y-60566674D01*
X137100000Y-60566674D01*
X136934173Y-60599659D01*
X136793592Y-60693592D01*
X136699659Y-60834173D01*
X136666674Y-61000000D01*
X136666674Y-62055509D01*
X135611091Y-63111091D01*
X135491866Y-63289524D01*
X135450000Y-63500000D01*
X135450000Y-63722182D01*
X135438909Y-63711091D01*
X135260476Y-63591866D01*
X135050000Y-63550000D01*
X134933326Y-63550000D01*
X134933326Y-63400000D01*
X134900341Y-63234173D01*
X134806408Y-63093592D01*
X134665827Y-62999659D01*
X134500000Y-62966674D01*
X132700000Y-62966674D01*
X132534173Y-62999659D01*
X132533663Y-63000000D01*
X132378489Y-63000000D01*
X132375341Y-62984173D01*
X132281408Y-62843592D01*
X132222086Y-62803955D01*
X132335298Y-62690743D01*
X132351233Y-62652274D01*
X132459257Y-62760298D01*
X132615462Y-62825000D01*
X133468750Y-62825000D01*
X133575000Y-62718750D01*
X133575000Y-61725000D01*
X133625000Y-61725000D01*
X133625000Y-62718750D01*
X133731250Y-62825000D01*
X134584538Y-62825000D01*
X134740743Y-62760298D01*
X134860298Y-62640743D01*
X134925000Y-62484538D01*
X134925000Y-61831250D01*
X134818750Y-61725000D01*
X133625000Y-61725000D01*
X133575000Y-61725000D01*
X132400000Y-61725000D01*
X132400000Y-61675000D01*
X133575000Y-61675000D01*
X133575000Y-60681250D01*
X133625000Y-60681250D01*
X133625000Y-61675000D01*
X134818750Y-61675000D01*
X134925000Y-61568750D01*
X134925000Y-60915462D01*
X134860298Y-60759257D01*
X134740743Y-60639702D01*
X134584538Y-60575000D01*
X133731250Y-60575000D01*
X133625000Y-60681250D01*
X133575000Y-60681250D01*
X133468750Y-60575000D01*
X132615462Y-60575000D01*
X132459257Y-60639702D01*
X132339702Y-60759257D01*
X132275000Y-60915462D01*
X132275000Y-61348959D01*
X132215743Y-61289702D01*
X132059538Y-61225000D01*
X131731250Y-61225000D01*
X131625000Y-61331250D01*
X131625000Y-62025000D01*
X132275000Y-62025000D01*
X132275000Y-62075000D01*
X131625000Y-62075000D01*
X131625000Y-62716674D01*
X131575000Y-62716674D01*
X131575000Y-62075000D01*
X130906250Y-62075000D01*
X130888889Y-62092361D01*
X130874809Y-62058285D01*
X130841727Y-62025145D01*
X130873993Y-61992935D01*
X130874049Y-61992799D01*
X130906250Y-62025000D01*
X131575000Y-62025000D01*
X131575000Y-61331250D01*
X131468750Y-61225000D01*
X131140462Y-61225000D01*
X130984257Y-61289702D01*
X130974472Y-61299487D01*
X130874809Y-61058285D01*
X130642935Y-60826007D01*
X130339823Y-60700143D01*
X130011617Y-60699857D01*
X129708285Y-60825191D01*
X129608302Y-60925000D01*
X125956299Y-60925000D01*
X125948421Y-60885393D01*
X125854488Y-60744812D01*
X125713907Y-60650879D01*
X125548080Y-60617894D01*
X124750520Y-60617894D01*
X124584693Y-60650879D01*
X124444112Y-60744812D01*
X124400000Y-60810830D01*
X124355888Y-60744812D01*
X124215307Y-60650879D01*
X124049480Y-60617894D01*
X123251920Y-60617894D01*
X123086093Y-60650879D01*
X123011273Y-60700872D01*
X123006408Y-60693592D01*
X122865827Y-60599659D01*
X122700000Y-60566674D01*
X122200000Y-60566674D01*
X122034173Y-60599659D01*
X121893592Y-60693592D01*
X121799659Y-60834173D01*
X121766674Y-61000000D01*
X121766674Y-61900000D01*
X121799659Y-62065827D01*
X121893592Y-62206408D01*
X121958832Y-62250000D01*
X121893592Y-62293592D01*
X121799659Y-62434173D01*
X121766674Y-62600000D01*
X121766674Y-63500000D01*
X121799659Y-63665827D01*
X121893592Y-63806408D01*
X121956200Y-63848241D01*
X121888328Y-63893592D01*
X121794395Y-64034173D01*
X121761410Y-64200000D01*
X121761410Y-65100000D01*
X121794395Y-65265827D01*
X121888328Y-65406408D01*
X121956200Y-65451759D01*
X121893592Y-65493592D01*
X121799659Y-65634173D01*
X121766674Y-65800000D01*
X121766674Y-66700000D01*
X121799659Y-66865827D01*
X121893592Y-67006408D01*
X122034173Y-67100341D01*
X122200000Y-67133326D01*
X122700000Y-67133326D01*
X122865827Y-67100341D01*
X123006408Y-67006408D01*
X123011273Y-66999128D01*
X123086093Y-67049121D01*
X123251920Y-67082106D01*
X124049480Y-67082106D01*
X124215307Y-67049121D01*
X124355888Y-66955188D01*
X124400000Y-66889170D01*
X124444112Y-66955188D01*
X124584693Y-67049121D01*
X124750520Y-67082106D01*
X125404722Y-67082106D01*
X125293414Y-67193414D01*
X125168769Y-67379957D01*
X125125000Y-67600000D01*
X125125000Y-68275000D01*
X119139942Y-68275000D01*
X118919995Y-68318750D01*
X118919899Y-68318769D01*
X118733356Y-68443414D01*
X117993414Y-69183356D01*
X117868769Y-69369899D01*
X117825000Y-69589942D01*
X117825000Y-72850000D01*
X117864782Y-73050000D01*
X117868769Y-73070043D01*
X117993414Y-73256586D01*
X118725614Y-73988787D01*
X118643592Y-74043592D01*
X118549659Y-74184173D01*
X118516674Y-74350000D01*
X118516674Y-75250000D01*
X118549659Y-75415827D01*
X118643592Y-75556408D01*
X118708832Y-75600000D01*
X118643592Y-75643592D01*
X118549659Y-75784173D01*
X118516674Y-75950000D01*
X118516674Y-76850000D01*
X118549659Y-77015827D01*
X118643592Y-77156408D01*
X118708832Y-77200000D01*
X118643592Y-77243592D01*
X118549659Y-77384173D01*
X118516674Y-77550000D01*
X118516674Y-78450000D01*
X118549659Y-78615827D01*
X118643592Y-78756408D01*
X118708832Y-78800000D01*
X118643592Y-78843592D01*
X118549659Y-78984173D01*
X118516674Y-79150000D01*
X118516674Y-80050000D01*
X118549659Y-80215827D01*
X118643592Y-80356408D01*
X118784173Y-80450341D01*
X118950000Y-80483326D01*
X119450000Y-80483326D01*
X119615827Y-80450341D01*
X119756408Y-80356408D01*
X119761273Y-80349128D01*
X119798308Y-80373874D01*
X119411091Y-80761091D01*
X119291866Y-80939524D01*
X119250000Y-81150000D01*
X119250000Y-85250000D01*
X119291866Y-85460476D01*
X119411091Y-85638909D01*
X120649805Y-86877623D01*
X120543592Y-86948592D01*
X120449659Y-87089173D01*
X120416674Y-87255000D01*
X120416674Y-88005000D01*
X120449659Y-88170827D01*
X120543592Y-88311408D01*
X120675000Y-88399212D01*
X120675000Y-89050000D01*
X120704718Y-89199401D01*
X120718769Y-89270043D01*
X120843414Y-89456586D01*
X120886828Y-89500000D01*
X119181562Y-89500000D01*
X119299626Y-89334981D01*
X117500000Y-87535355D01*
X115700374Y-89334981D01*
X115818438Y-89500000D01*
X115500000Y-89500000D01*
X115500000Y-89181562D01*
X115665019Y-89299626D01*
X117464645Y-87500000D01*
X117535355Y-87500000D01*
X119334981Y-89299626D01*
X119679874Y-89052870D01*
X120108199Y-88100463D01*
X120139449Y-87056641D01*
X119768867Y-86080316D01*
X119679874Y-85947130D01*
X119334981Y-85700374D01*
X117535355Y-87500000D01*
X117464645Y-87500000D01*
X115665019Y-85700374D01*
X115500000Y-85818438D01*
X115500000Y-85665019D01*
X115700374Y-85665019D01*
X117500000Y-87464645D01*
X119299626Y-85665019D01*
X119052870Y-85320126D01*
X118100463Y-84891801D01*
X117056641Y-84860551D01*
X116080316Y-85231133D01*
X115947130Y-85320126D01*
X115700374Y-85665019D01*
X115500000Y-85665019D01*
X115500000Y-79731250D01*
X117025000Y-79731250D01*
X117025000Y-80134538D01*
X117089702Y-80290743D01*
X117209257Y-80410298D01*
X117365462Y-80475000D01*
X117568750Y-80475000D01*
X117675000Y-80368750D01*
X117675000Y-79625000D01*
X117725000Y-79625000D01*
X117725000Y-80368750D01*
X117831250Y-80475000D01*
X118034538Y-80475000D01*
X118190743Y-80410298D01*
X118310298Y-80290743D01*
X118375000Y-80134538D01*
X118375000Y-79731250D01*
X118268750Y-79625000D01*
X117725000Y-79625000D01*
X117675000Y-79625000D01*
X117131250Y-79625000D01*
X117025000Y-79731250D01*
X115500000Y-79731250D01*
X115500000Y-78131250D01*
X117025000Y-78131250D01*
X117025000Y-78534538D01*
X117089702Y-78690743D01*
X117198959Y-78800000D01*
X117089702Y-78909257D01*
X117025000Y-79065462D01*
X117025000Y-79468750D01*
X117131250Y-79575000D01*
X117675000Y-79575000D01*
X117675000Y-78831250D01*
X117643750Y-78800000D01*
X117675000Y-78768750D01*
X117675000Y-78025000D01*
X117725000Y-78025000D01*
X117725000Y-78768750D01*
X117756250Y-78800000D01*
X117725000Y-78831250D01*
X117725000Y-79575000D01*
X118268750Y-79575000D01*
X118375000Y-79468750D01*
X118375000Y-79065462D01*
X118310298Y-78909257D01*
X118201041Y-78800000D01*
X118310298Y-78690743D01*
X118375000Y-78534538D01*
X118375000Y-78131250D01*
X118268750Y-78025000D01*
X117725000Y-78025000D01*
X117675000Y-78025000D01*
X117131250Y-78025000D01*
X117025000Y-78131250D01*
X115500000Y-78131250D01*
X115500000Y-76531250D01*
X117025000Y-76531250D01*
X117025000Y-76934538D01*
X117089702Y-77090743D01*
X117198959Y-77200000D01*
X117089702Y-77309257D01*
X117025000Y-77465462D01*
X117025000Y-77868750D01*
X117131250Y-77975000D01*
X117675000Y-77975000D01*
X117675000Y-77231250D01*
X117643750Y-77200000D01*
X117675000Y-77168750D01*
X117675000Y-76425000D01*
X117725000Y-76425000D01*
X117725000Y-77168750D01*
X117756250Y-77200000D01*
X117725000Y-77231250D01*
X117725000Y-77975000D01*
X118268750Y-77975000D01*
X118375000Y-77868750D01*
X118375000Y-77465462D01*
X118310298Y-77309257D01*
X118201041Y-77200000D01*
X118310298Y-77090743D01*
X118375000Y-76934538D01*
X118375000Y-76531250D01*
X118268750Y-76425000D01*
X117725000Y-76425000D01*
X117675000Y-76425000D01*
X117131250Y-76425000D01*
X117025000Y-76531250D01*
X115500000Y-76531250D01*
X115500000Y-74931250D01*
X117025000Y-74931250D01*
X117025000Y-75334538D01*
X117089702Y-75490743D01*
X117198959Y-75600000D01*
X117089702Y-75709257D01*
X117025000Y-75865462D01*
X117025000Y-76268750D01*
X117131250Y-76375000D01*
X117675000Y-76375000D01*
X117675000Y-75631250D01*
X117643750Y-75600000D01*
X117675000Y-75568750D01*
X117675000Y-74825000D01*
X117725000Y-74825000D01*
X117725000Y-75568750D01*
X117756250Y-75600000D01*
X117725000Y-75631250D01*
X117725000Y-76375000D01*
X118268750Y-76375000D01*
X118375000Y-76268750D01*
X118375000Y-75865462D01*
X118310298Y-75709257D01*
X118201041Y-75600000D01*
X118310298Y-75490743D01*
X118375000Y-75334538D01*
X118375000Y-74931250D01*
X118268750Y-74825000D01*
X117725000Y-74825000D01*
X117675000Y-74825000D01*
X117131250Y-74825000D01*
X117025000Y-74931250D01*
X115500000Y-74931250D01*
X115500000Y-74265462D01*
X117025000Y-74265462D01*
X117025000Y-74668750D01*
X117131250Y-74775000D01*
X117675000Y-74775000D01*
X117675000Y-74031250D01*
X117725000Y-74031250D01*
X117725000Y-74775000D01*
X118268750Y-74775000D01*
X118375000Y-74668750D01*
X118375000Y-74265462D01*
X118310298Y-74109257D01*
X118190743Y-73989702D01*
X118034538Y-73925000D01*
X117831250Y-73925000D01*
X117725000Y-74031250D01*
X117675000Y-74031250D01*
X117568750Y-73925000D01*
X117365462Y-73925000D01*
X117209257Y-73989702D01*
X117089702Y-74109257D01*
X117025000Y-74265462D01*
X115500000Y-74265462D01*
X115500000Y-66381250D01*
X120275000Y-66381250D01*
X120275000Y-66784538D01*
X120339702Y-66940743D01*
X120459257Y-67060298D01*
X120615462Y-67125000D01*
X120818750Y-67125000D01*
X120925000Y-67018750D01*
X120925000Y-66275000D01*
X120975000Y-66275000D01*
X120975000Y-67018750D01*
X121081250Y-67125000D01*
X121284538Y-67125000D01*
X121440743Y-67060298D01*
X121560298Y-66940743D01*
X121625000Y-66784538D01*
X121625000Y-66381250D01*
X121518750Y-66275000D01*
X120975000Y-66275000D01*
X120925000Y-66275000D01*
X120381250Y-66275000D01*
X120275000Y-66381250D01*
X115500000Y-66381250D01*
X115500000Y-64334981D01*
X115700374Y-64334981D01*
X115947130Y-64679874D01*
X116899537Y-65108199D01*
X117943359Y-65139449D01*
X118887060Y-64781250D01*
X120269736Y-64781250D01*
X120269736Y-65184538D01*
X120334438Y-65340743D01*
X120446327Y-65452632D01*
X120339702Y-65559257D01*
X120275000Y-65715462D01*
X120275000Y-66118750D01*
X120381250Y-66225000D01*
X120925000Y-66225000D01*
X120925000Y-65481250D01*
X120891118Y-65447368D01*
X120919736Y-65418750D01*
X120919736Y-64675000D01*
X120969736Y-64675000D01*
X120969736Y-65418750D01*
X121003618Y-65452632D01*
X120975000Y-65481250D01*
X120975000Y-66225000D01*
X121518750Y-66225000D01*
X121625000Y-66118750D01*
X121625000Y-65715462D01*
X121560298Y-65559257D01*
X121448409Y-65447368D01*
X121555034Y-65340743D01*
X121619736Y-65184538D01*
X121619736Y-64781250D01*
X121513486Y-64675000D01*
X120969736Y-64675000D01*
X120919736Y-64675000D01*
X120375986Y-64675000D01*
X120269736Y-64781250D01*
X118887060Y-64781250D01*
X118919684Y-64768867D01*
X119052870Y-64679874D01*
X119299626Y-64334981D01*
X117500000Y-62535355D01*
X115700374Y-64334981D01*
X115500000Y-64334981D01*
X115500000Y-64181562D01*
X115665019Y-64299626D01*
X117464645Y-62500000D01*
X117535355Y-62500000D01*
X119334981Y-64299626D01*
X119592388Y-64115462D01*
X120269736Y-64115462D01*
X120269736Y-64518750D01*
X120375986Y-64625000D01*
X120919736Y-64625000D01*
X120919736Y-63881250D01*
X120969736Y-63881250D01*
X120969736Y-64625000D01*
X121513486Y-64625000D01*
X121619736Y-64518750D01*
X121619736Y-64115462D01*
X121555034Y-63959257D01*
X121448409Y-63852632D01*
X121560298Y-63740743D01*
X121625000Y-63584538D01*
X121625000Y-63181250D01*
X121518750Y-63075000D01*
X120975000Y-63075000D01*
X120975000Y-63818750D01*
X121003618Y-63847368D01*
X120969736Y-63881250D01*
X120919736Y-63881250D01*
X120891118Y-63852632D01*
X120925000Y-63818750D01*
X120925000Y-63075000D01*
X120381250Y-63075000D01*
X120275000Y-63181250D01*
X120275000Y-63584538D01*
X120339702Y-63740743D01*
X120446327Y-63847368D01*
X120334438Y-63959257D01*
X120269736Y-64115462D01*
X119592388Y-64115462D01*
X119679874Y-64052870D01*
X120108199Y-63100463D01*
X120139449Y-62056641D01*
X119959006Y-61581250D01*
X120275000Y-61581250D01*
X120275000Y-61984538D01*
X120339702Y-62140743D01*
X120448959Y-62250000D01*
X120339702Y-62359257D01*
X120275000Y-62515462D01*
X120275000Y-62918750D01*
X120381250Y-63025000D01*
X120925000Y-63025000D01*
X120925000Y-62281250D01*
X120893750Y-62250000D01*
X120925000Y-62218750D01*
X120925000Y-61475000D01*
X120975000Y-61475000D01*
X120975000Y-62218750D01*
X121006250Y-62250000D01*
X120975000Y-62281250D01*
X120975000Y-63025000D01*
X121518750Y-63025000D01*
X121625000Y-62918750D01*
X121625000Y-62515462D01*
X121560298Y-62359257D01*
X121451041Y-62250000D01*
X121560298Y-62140743D01*
X121625000Y-61984538D01*
X121625000Y-61581250D01*
X121518750Y-61475000D01*
X120975000Y-61475000D01*
X120925000Y-61475000D01*
X120381250Y-61475000D01*
X120275000Y-61581250D01*
X119959006Y-61581250D01*
X119768867Y-61080316D01*
X119679874Y-60947130D01*
X119635612Y-60915462D01*
X120275000Y-60915462D01*
X120275000Y-61318750D01*
X120381250Y-61425000D01*
X120925000Y-61425000D01*
X120925000Y-60681250D01*
X120975000Y-60681250D01*
X120975000Y-61425000D01*
X121518750Y-61425000D01*
X121625000Y-61318750D01*
X121625000Y-60915462D01*
X121560298Y-60759257D01*
X121440743Y-60639702D01*
X121284538Y-60575000D01*
X121081250Y-60575000D01*
X120975000Y-60681250D01*
X120925000Y-60681250D01*
X120818750Y-60575000D01*
X120615462Y-60575000D01*
X120459257Y-60639702D01*
X120339702Y-60759257D01*
X120275000Y-60915462D01*
X119635612Y-60915462D01*
X119334981Y-60700374D01*
X117535355Y-62500000D01*
X117464645Y-62500000D01*
X115665019Y-60700374D01*
X115500000Y-60818438D01*
X115500000Y-60500000D01*
X115818438Y-60500000D01*
X115700374Y-60665019D01*
G36*
X154484173Y-70100341D02*
X154650000Y-70133326D01*
X156350000Y-70133326D01*
X156500000Y-70103489D01*
X156500000Y-85818438D01*
X156334981Y-85700374D01*
X154535355Y-87500000D01*
X156334981Y-89299626D01*
X156500000Y-89181562D01*
X156500000Y-89500000D01*
X156181562Y-89500000D01*
X156299626Y-89334981D01*
X154500000Y-87535355D01*
X152700374Y-89334981D01*
X152818438Y-89500000D01*
X147763172Y-89500000D01*
X148629847Y-88633326D01*
X148900000Y-88633326D01*
X149065827Y-88600341D01*
X149206408Y-88506408D01*
X149300341Y-88365827D01*
X149333326Y-88200000D01*
X149333326Y-87943359D01*
X151860551Y-87943359D01*
X152231133Y-88919684D01*
X152320126Y-89052870D01*
X152665019Y-89299626D01*
X154464645Y-87500000D01*
X152665019Y-85700374D01*
X152320126Y-85947130D01*
X151891801Y-86899537D01*
X151860551Y-87943359D01*
X149333326Y-87943359D01*
X149333326Y-87400000D01*
X149325000Y-87358142D01*
X149325000Y-86433326D01*
X149500000Y-86433326D01*
X149665827Y-86400341D01*
X149806408Y-86306408D01*
X149900341Y-86165827D01*
X149933326Y-86000000D01*
X149933326Y-85925000D01*
X150250000Y-85925000D01*
X150489071Y-85877446D01*
X150527446Y-85869813D01*
X150762652Y-85712652D01*
X150810285Y-85665019D01*
X152700374Y-85665019D01*
X154500000Y-87464645D01*
X156299626Y-85665019D01*
X156052870Y-85320126D01*
X155100463Y-84891801D01*
X154056641Y-84860551D01*
X153080316Y-85231133D01*
X152947130Y-85320126D01*
X152700374Y-85665019D01*
X150810285Y-85665019D01*
X151512652Y-84962653D01*
X151630275Y-84786617D01*
X151669813Y-84727445D01*
X151725000Y-84450000D01*
X151725000Y-83941858D01*
X151733326Y-83900000D01*
X151733326Y-83100000D01*
X152666674Y-83100000D01*
X152666674Y-83900000D01*
X152699659Y-84065827D01*
X152793592Y-84206408D01*
X152934173Y-84300341D01*
X153100000Y-84333326D01*
X153700000Y-84333326D01*
X153865827Y-84300341D01*
X154006408Y-84206408D01*
X154100341Y-84065827D01*
X154133326Y-83900000D01*
X154133326Y-83100000D01*
X154125000Y-83058142D01*
X154125000Y-82378353D01*
X154265827Y-82350341D01*
X154406408Y-82256408D01*
X154500341Y-82115827D01*
X154533326Y-81950000D01*
X154533326Y-80250000D01*
X154500341Y-80084173D01*
X154406408Y-79943592D01*
X154265827Y-79849659D01*
X154100000Y-79816674D01*
X153200000Y-79816674D01*
X153034173Y-79849659D01*
X152893592Y-79943592D01*
X152799659Y-80084173D01*
X152766674Y-80250000D01*
X152766674Y-81017948D01*
X152730187Y-81072554D01*
X152729698Y-81075014D01*
X152675000Y-81350000D01*
X152675000Y-83058142D01*
X152666674Y-83100000D01*
X151733326Y-83100000D01*
X151700341Y-82934173D01*
X151606408Y-82793592D01*
X151465827Y-82699659D01*
X151300000Y-82666674D01*
X151009136Y-82666674D01*
X150725788Y-82383326D01*
X151200000Y-82383326D01*
X151365827Y-82350341D01*
X151506408Y-82256408D01*
X151600341Y-82115827D01*
X151633326Y-81950000D01*
X151633326Y-81241978D01*
X151712652Y-81162652D01*
X151754978Y-81099307D01*
X151869813Y-80927445D01*
X151925000Y-80650000D01*
X151925000Y-79425000D01*
X152443750Y-79425000D01*
X152550000Y-79318750D01*
X152550000Y-78225000D01*
X152600000Y-78225000D01*
X152600000Y-79318750D01*
X152706250Y-79425000D01*
X153359538Y-79425000D01*
X153515743Y-79360298D01*
X153635298Y-79240743D01*
X153700000Y-79084538D01*
X153700000Y-78461517D01*
X153815036Y-78461517D01*
X153857038Y-78611751D01*
X154038604Y-78901041D01*
X154317055Y-79098828D01*
X154650000Y-79175000D01*
X155000000Y-79175000D01*
X155000000Y-78325000D01*
X155050000Y-78325000D01*
X155050000Y-79175000D01*
X155400000Y-79175000D01*
X155732945Y-79098828D01*
X156011396Y-78901041D01*
X156192962Y-78611751D01*
X156234964Y-78461517D01*
X156143343Y-78325000D01*
X155050000Y-78325000D01*
X155000000Y-78325000D01*
X153906657Y-78325000D01*
X153815036Y-78461517D01*
X153700000Y-78461517D01*
X153700000Y-78331250D01*
X153593750Y-78225000D01*
X152600000Y-78225000D01*
X152550000Y-78225000D01*
X151925000Y-78225000D01*
X151925000Y-78175000D01*
X152550000Y-78175000D01*
X152550000Y-77081250D01*
X152600000Y-77081250D01*
X152600000Y-78175000D01*
X153593750Y-78175000D01*
X153700000Y-78068750D01*
X153700000Y-77355249D01*
X153714702Y-77390743D01*
X153834257Y-77510298D01*
X153990462Y-77575000D01*
X154213118Y-77575000D01*
X154038604Y-77698959D01*
X153857038Y-77988249D01*
X153815036Y-78138483D01*
X153906657Y-78275000D01*
X155000000Y-78275000D01*
X155000000Y-76225000D01*
X155050000Y-76225000D01*
X155050000Y-78275000D01*
X156143343Y-78275000D01*
X156234964Y-78138483D01*
X156192962Y-77988249D01*
X156011396Y-77698959D01*
X155836882Y-77575000D01*
X156059538Y-77575000D01*
X156215743Y-77510298D01*
X156335298Y-77390743D01*
X156400000Y-77234538D01*
X156400000Y-76331250D01*
X156293750Y-76225000D01*
X155050000Y-76225000D01*
X155000000Y-76225000D01*
X153756250Y-76225000D01*
X153650000Y-76331250D01*
X153650000Y-77194751D01*
X153635298Y-77159257D01*
X153515743Y-77039702D01*
X153359538Y-76975000D01*
X152706250Y-76975000D01*
X152600000Y-77081250D01*
X152550000Y-77081250D01*
X152511606Y-77042856D01*
X152627445Y-77019814D01*
X152756883Y-76933326D01*
X153025000Y-76933326D01*
X153190827Y-76900341D01*
X153331408Y-76806408D01*
X153425341Y-76665827D01*
X153458326Y-76500000D01*
X153458326Y-76100000D01*
X153433462Y-75975000D01*
X153458326Y-75850000D01*
X153458326Y-75450000D01*
X153433462Y-75325000D01*
X153458326Y-75200000D01*
X153458326Y-74800000D01*
X153433462Y-74675000D01*
X153458326Y-74550000D01*
X153458326Y-74150000D01*
X153433390Y-74024638D01*
X153450000Y-73984538D01*
X153450000Y-73931250D01*
X153650000Y-73931250D01*
X153650000Y-74834538D01*
X153714702Y-74990743D01*
X153723959Y-75000000D01*
X153714702Y-75009257D01*
X153650000Y-75165462D01*
X153650000Y-76068750D01*
X153756250Y-76175000D01*
X155000000Y-76175000D01*
X155000000Y-73825000D01*
X155050000Y-73825000D01*
X155050000Y-76175000D01*
X156293750Y-76175000D01*
X156400000Y-76068750D01*
X156400000Y-75165462D01*
X156335298Y-75009257D01*
X156326041Y-75000000D01*
X156335298Y-74990743D01*
X156400000Y-74834538D01*
X156400000Y-73931250D01*
X156293750Y-73825000D01*
X155050000Y-73825000D01*
X155000000Y-73825000D01*
X153756250Y-73825000D01*
X153650000Y-73931250D01*
X153450000Y-73931250D01*
X153450000Y-73831250D01*
X153343750Y-73725000D01*
X153066858Y-73725000D01*
X153025000Y-73716674D01*
X151675000Y-73716674D01*
X151633142Y-73725000D01*
X151356250Y-73725000D01*
X151250000Y-73831250D01*
X151250000Y-73984538D01*
X151266610Y-74024638D01*
X151253711Y-74089484D01*
X151225319Y-74061091D01*
X151046886Y-73941866D01*
X150836410Y-73900000D01*
X149624870Y-73900000D01*
X149625143Y-73586617D01*
X149554424Y-73415462D01*
X151250000Y-73415462D01*
X151250000Y-73568750D01*
X151356250Y-73675000D01*
X152325000Y-73675000D01*
X152325000Y-73181250D01*
X152375000Y-73181250D01*
X152375000Y-73675000D01*
X153343750Y-73675000D01*
X153450000Y-73568750D01*
X153450000Y-73415462D01*
X153385298Y-73259257D01*
X153265743Y-73139702D01*
X153109538Y-73075000D01*
X152481250Y-73075000D01*
X152375000Y-73181250D01*
X152325000Y-73181250D01*
X152218750Y-73075000D01*
X151590462Y-73075000D01*
X151434257Y-73139702D01*
X151314702Y-73259257D01*
X151250000Y-73415462D01*
X149554424Y-73415462D01*
X149499809Y-73283285D01*
X149275000Y-73058084D01*
X149275000Y-72616817D01*
X149535177Y-72724853D01*
X149863383Y-72725139D01*
X150166715Y-72599805D01*
X150398993Y-72367931D01*
X150524857Y-72064819D01*
X150524973Y-71931250D01*
X151450000Y-71931250D01*
X151450000Y-72684538D01*
X151514702Y-72840743D01*
X151634257Y-72960298D01*
X151790462Y-73025000D01*
X152443750Y-73025000D01*
X152550000Y-72918750D01*
X152550000Y-71825000D01*
X152600000Y-71825000D01*
X152600000Y-72918750D01*
X152706250Y-73025000D01*
X153359538Y-73025000D01*
X153515743Y-72960298D01*
X153635298Y-72840743D01*
X153650000Y-72805249D01*
X153650000Y-73668750D01*
X153756250Y-73775000D01*
X155000000Y-73775000D01*
X155000000Y-71725000D01*
X155050000Y-71725000D01*
X155050000Y-73775000D01*
X156293750Y-73775000D01*
X156400000Y-73668750D01*
X156400000Y-72765462D01*
X156335298Y-72609257D01*
X156215743Y-72489702D01*
X156059538Y-72425000D01*
X155836882Y-72425000D01*
X156011396Y-72301041D01*
X156192962Y-72011751D01*
X156234964Y-71861517D01*
X156143343Y-71725000D01*
X155050000Y-71725000D01*
X155000000Y-71725000D01*
X153906657Y-71725000D01*
X153815036Y-71861517D01*
X153857038Y-72011751D01*
X154038604Y-72301041D01*
X154213118Y-72425000D01*
X153990462Y-72425000D01*
X153834257Y-72489702D01*
X153714702Y-72609257D01*
X153700000Y-72644751D01*
X153700000Y-71931250D01*
X153593750Y-71825000D01*
X152600000Y-71825000D01*
X152550000Y-71825000D01*
X151556250Y-71825000D01*
X151450000Y-71931250D01*
X150524973Y-71931250D01*
X150525073Y-71817385D01*
X151417458Y-70925000D01*
X151450000Y-70925000D01*
X151450000Y-71668750D01*
X151556250Y-71775000D01*
X152550000Y-71775000D01*
X152550000Y-70925000D01*
X152600000Y-70925000D01*
X152600000Y-71775000D01*
X153593750Y-71775000D01*
X153700000Y-71668750D01*
X153700000Y-71538483D01*
X153815036Y-71538483D01*
X153906657Y-71675000D01*
X155000000Y-71675000D01*
X155000000Y-70825000D01*
X155050000Y-70825000D01*
X155050000Y-71675000D01*
X156143343Y-71675000D01*
X156234964Y-71538483D01*
X156192962Y-71388249D01*
X156011396Y-71098959D01*
X155732945Y-70901172D01*
X155400000Y-70825000D01*
X155050000Y-70825000D01*
X155000000Y-70825000D01*
X154650000Y-70825000D01*
X154317055Y-70901172D01*
X154038604Y-71098959D01*
X153857038Y-71388249D01*
X153815036Y-71538483D01*
X153700000Y-71538483D01*
X153700000Y-70915462D01*
X153635298Y-70759257D01*
X153515743Y-70639702D01*
X153359538Y-70575000D01*
X153167462Y-70575000D01*
X153259136Y-70483326D01*
X153450000Y-70483326D01*
X153615827Y-70450341D01*
X153756408Y-70356408D01*
X153850341Y-70215827D01*
X153883326Y-70050000D01*
X153883326Y-70025000D01*
X154371417Y-70025000D01*
X154484173Y-70100341D01*
X154484173Y-70100341D01*
G37*
X154484173Y-70100341D02*
X154650000Y-70133326D01*
X156350000Y-70133326D01*
X156500000Y-70103489D01*
X156500000Y-85818438D01*
X156334981Y-85700374D01*
X154535355Y-87500000D01*
X156334981Y-89299626D01*
X156500000Y-89181562D01*
X156500000Y-89500000D01*
X156181562Y-89500000D01*
X156299626Y-89334981D01*
X154500000Y-87535355D01*
X152700374Y-89334981D01*
X152818438Y-89500000D01*
X147763172Y-89500000D01*
X148629847Y-88633326D01*
X148900000Y-88633326D01*
X149065827Y-88600341D01*
X149206408Y-88506408D01*
X149300341Y-88365827D01*
X149333326Y-88200000D01*
X149333326Y-87943359D01*
X151860551Y-87943359D01*
X152231133Y-88919684D01*
X152320126Y-89052870D01*
X152665019Y-89299626D01*
X154464645Y-87500000D01*
X152665019Y-85700374D01*
X152320126Y-85947130D01*
X151891801Y-86899537D01*
X151860551Y-87943359D01*
X149333326Y-87943359D01*
X149333326Y-87400000D01*
X149325000Y-87358142D01*
X149325000Y-86433326D01*
X149500000Y-86433326D01*
X149665827Y-86400341D01*
X149806408Y-86306408D01*
X149900341Y-86165827D01*
X149933326Y-86000000D01*
X149933326Y-85925000D01*
X150250000Y-85925000D01*
X150489071Y-85877446D01*
X150527446Y-85869813D01*
X150762652Y-85712652D01*
X150810285Y-85665019D01*
X152700374Y-85665019D01*
X154500000Y-87464645D01*
X156299626Y-85665019D01*
X156052870Y-85320126D01*
X155100463Y-84891801D01*
X154056641Y-84860551D01*
X153080316Y-85231133D01*
X152947130Y-85320126D01*
X152700374Y-85665019D01*
X150810285Y-85665019D01*
X151512652Y-84962653D01*
X151630275Y-84786617D01*
X151669813Y-84727445D01*
X151725000Y-84450000D01*
X151725000Y-83941858D01*
X151733326Y-83900000D01*
X151733326Y-83100000D01*
X152666674Y-83100000D01*
X152666674Y-83900000D01*
X152699659Y-84065827D01*
X152793592Y-84206408D01*
X152934173Y-84300341D01*
X153100000Y-84333326D01*
X153700000Y-84333326D01*
X153865827Y-84300341D01*
X154006408Y-84206408D01*
X154100341Y-84065827D01*
X154133326Y-83900000D01*
X154133326Y-83100000D01*
X154125000Y-83058142D01*
X154125000Y-82378353D01*
X154265827Y-82350341D01*
X154406408Y-82256408D01*
X154500341Y-82115827D01*
X154533326Y-81950000D01*
X154533326Y-80250000D01*
X154500341Y-80084173D01*
X154406408Y-79943592D01*
X154265827Y-79849659D01*
X154100000Y-79816674D01*
X153200000Y-79816674D01*
X153034173Y-79849659D01*
X152893592Y-79943592D01*
X152799659Y-80084173D01*
X152766674Y-80250000D01*
X152766674Y-81017948D01*
X152730187Y-81072554D01*
X152729698Y-81075014D01*
X152675000Y-81350000D01*
X152675000Y-83058142D01*
X152666674Y-83100000D01*
X151733326Y-83100000D01*
X151700341Y-82934173D01*
X151606408Y-82793592D01*
X151465827Y-82699659D01*
X151300000Y-82666674D01*
X151009136Y-82666674D01*
X150725788Y-82383326D01*
X151200000Y-82383326D01*
X151365827Y-82350341D01*
X151506408Y-82256408D01*
X151600341Y-82115827D01*
X151633326Y-81950000D01*
X151633326Y-81241978D01*
X151712652Y-81162652D01*
X151754978Y-81099307D01*
X151869813Y-80927445D01*
X151925000Y-80650000D01*
X151925000Y-79425000D01*
X152443750Y-79425000D01*
X152550000Y-79318750D01*
X152550000Y-78225000D01*
X152600000Y-78225000D01*
X152600000Y-79318750D01*
X152706250Y-79425000D01*
X153359538Y-79425000D01*
X153515743Y-79360298D01*
X153635298Y-79240743D01*
X153700000Y-79084538D01*
X153700000Y-78461517D01*
X153815036Y-78461517D01*
X153857038Y-78611751D01*
X154038604Y-78901041D01*
X154317055Y-79098828D01*
X154650000Y-79175000D01*
X155000000Y-79175000D01*
X155000000Y-78325000D01*
X155050000Y-78325000D01*
X155050000Y-79175000D01*
X155400000Y-79175000D01*
X155732945Y-79098828D01*
X156011396Y-78901041D01*
X156192962Y-78611751D01*
X156234964Y-78461517D01*
X156143343Y-78325000D01*
X155050000Y-78325000D01*
X155000000Y-78325000D01*
X153906657Y-78325000D01*
X153815036Y-78461517D01*
X153700000Y-78461517D01*
X153700000Y-78331250D01*
X153593750Y-78225000D01*
X152600000Y-78225000D01*
X152550000Y-78225000D01*
X151925000Y-78225000D01*
X151925000Y-78175000D01*
X152550000Y-78175000D01*
X152550000Y-77081250D01*
X152600000Y-77081250D01*
X152600000Y-78175000D01*
X153593750Y-78175000D01*
X153700000Y-78068750D01*
X153700000Y-77355249D01*
X153714702Y-77390743D01*
X153834257Y-77510298D01*
X153990462Y-77575000D01*
X154213118Y-77575000D01*
X154038604Y-77698959D01*
X153857038Y-77988249D01*
X153815036Y-78138483D01*
X153906657Y-78275000D01*
X155000000Y-78275000D01*
X155000000Y-76225000D01*
X155050000Y-76225000D01*
X155050000Y-78275000D01*
X156143343Y-78275000D01*
X156234964Y-78138483D01*
X156192962Y-77988249D01*
X156011396Y-77698959D01*
X155836882Y-77575000D01*
X156059538Y-77575000D01*
X156215743Y-77510298D01*
X156335298Y-77390743D01*
X156400000Y-77234538D01*
X156400000Y-76331250D01*
X156293750Y-76225000D01*
X155050000Y-76225000D01*
X155000000Y-76225000D01*
X153756250Y-76225000D01*
X153650000Y-76331250D01*
X153650000Y-77194751D01*
X153635298Y-77159257D01*
X153515743Y-77039702D01*
X153359538Y-76975000D01*
X152706250Y-76975000D01*
X152600000Y-77081250D01*
X152550000Y-77081250D01*
X152511606Y-77042856D01*
X152627445Y-77019814D01*
X152756883Y-76933326D01*
X153025000Y-76933326D01*
X153190827Y-76900341D01*
X153331408Y-76806408D01*
X153425341Y-76665827D01*
X153458326Y-76500000D01*
X153458326Y-76100000D01*
X153433462Y-75975000D01*
X153458326Y-75850000D01*
X153458326Y-75450000D01*
X153433462Y-75325000D01*
X153458326Y-75200000D01*
X153458326Y-74800000D01*
X153433462Y-74675000D01*
X153458326Y-74550000D01*
X153458326Y-74150000D01*
X153433390Y-74024638D01*
X153450000Y-73984538D01*
X153450000Y-73931250D01*
X153650000Y-73931250D01*
X153650000Y-74834538D01*
X153714702Y-74990743D01*
X153723959Y-75000000D01*
X153714702Y-75009257D01*
X153650000Y-75165462D01*
X153650000Y-76068750D01*
X153756250Y-76175000D01*
X155000000Y-76175000D01*
X155000000Y-73825000D01*
X155050000Y-73825000D01*
X155050000Y-76175000D01*
X156293750Y-76175000D01*
X156400000Y-76068750D01*
X156400000Y-75165462D01*
X156335298Y-75009257D01*
X156326041Y-75000000D01*
X156335298Y-74990743D01*
X156400000Y-74834538D01*
X156400000Y-73931250D01*
X156293750Y-73825000D01*
X155050000Y-73825000D01*
X155000000Y-73825000D01*
X153756250Y-73825000D01*
X153650000Y-73931250D01*
X153450000Y-73931250D01*
X153450000Y-73831250D01*
X153343750Y-73725000D01*
X153066858Y-73725000D01*
X153025000Y-73716674D01*
X151675000Y-73716674D01*
X151633142Y-73725000D01*
X151356250Y-73725000D01*
X151250000Y-73831250D01*
X151250000Y-73984538D01*
X151266610Y-74024638D01*
X151253711Y-74089484D01*
X151225319Y-74061091D01*
X151046886Y-73941866D01*
X150836410Y-73900000D01*
X149624870Y-73900000D01*
X149625143Y-73586617D01*
X149554424Y-73415462D01*
X151250000Y-73415462D01*
X151250000Y-73568750D01*
X151356250Y-73675000D01*
X152325000Y-73675000D01*
X152325000Y-73181250D01*
X152375000Y-73181250D01*
X152375000Y-73675000D01*
X153343750Y-73675000D01*
X153450000Y-73568750D01*
X153450000Y-73415462D01*
X153385298Y-73259257D01*
X153265743Y-73139702D01*
X153109538Y-73075000D01*
X152481250Y-73075000D01*
X152375000Y-73181250D01*
X152325000Y-73181250D01*
X152218750Y-73075000D01*
X151590462Y-73075000D01*
X151434257Y-73139702D01*
X151314702Y-73259257D01*
X151250000Y-73415462D01*
X149554424Y-73415462D01*
X149499809Y-73283285D01*
X149275000Y-73058084D01*
X149275000Y-72616817D01*
X149535177Y-72724853D01*
X149863383Y-72725139D01*
X150166715Y-72599805D01*
X150398993Y-72367931D01*
X150524857Y-72064819D01*
X150524973Y-71931250D01*
X151450000Y-71931250D01*
X151450000Y-72684538D01*
X151514702Y-72840743D01*
X151634257Y-72960298D01*
X151790462Y-73025000D01*
X152443750Y-73025000D01*
X152550000Y-72918750D01*
X152550000Y-71825000D01*
X152600000Y-71825000D01*
X152600000Y-72918750D01*
X152706250Y-73025000D01*
X153359538Y-73025000D01*
X153515743Y-72960298D01*
X153635298Y-72840743D01*
X153650000Y-72805249D01*
X153650000Y-73668750D01*
X153756250Y-73775000D01*
X155000000Y-73775000D01*
X155000000Y-71725000D01*
X155050000Y-71725000D01*
X155050000Y-73775000D01*
X156293750Y-73775000D01*
X156400000Y-73668750D01*
X156400000Y-72765462D01*
X156335298Y-72609257D01*
X156215743Y-72489702D01*
X156059538Y-72425000D01*
X155836882Y-72425000D01*
X156011396Y-72301041D01*
X156192962Y-72011751D01*
X156234964Y-71861517D01*
X156143343Y-71725000D01*
X155050000Y-71725000D01*
X155000000Y-71725000D01*
X153906657Y-71725000D01*
X153815036Y-71861517D01*
X153857038Y-72011751D01*
X154038604Y-72301041D01*
X154213118Y-72425000D01*
X153990462Y-72425000D01*
X153834257Y-72489702D01*
X153714702Y-72609257D01*
X153700000Y-72644751D01*
X153700000Y-71931250D01*
X153593750Y-71825000D01*
X152600000Y-71825000D01*
X152550000Y-71825000D01*
X151556250Y-71825000D01*
X151450000Y-71931250D01*
X150524973Y-71931250D01*
X150525073Y-71817385D01*
X151417458Y-70925000D01*
X151450000Y-70925000D01*
X151450000Y-71668750D01*
X151556250Y-71775000D01*
X152550000Y-71775000D01*
X152550000Y-70925000D01*
X152600000Y-70925000D01*
X152600000Y-71775000D01*
X153593750Y-71775000D01*
X153700000Y-71668750D01*
X153700000Y-71538483D01*
X153815036Y-71538483D01*
X153906657Y-71675000D01*
X155000000Y-71675000D01*
X155000000Y-70825000D01*
X155050000Y-70825000D01*
X155050000Y-71675000D01*
X156143343Y-71675000D01*
X156234964Y-71538483D01*
X156192962Y-71388249D01*
X156011396Y-71098959D01*
X155732945Y-70901172D01*
X155400000Y-70825000D01*
X155050000Y-70825000D01*
X155000000Y-70825000D01*
X154650000Y-70825000D01*
X154317055Y-70901172D01*
X154038604Y-71098959D01*
X153857038Y-71388249D01*
X153815036Y-71538483D01*
X153700000Y-71538483D01*
X153700000Y-70915462D01*
X153635298Y-70759257D01*
X153515743Y-70639702D01*
X153359538Y-70575000D01*
X153167462Y-70575000D01*
X153259136Y-70483326D01*
X153450000Y-70483326D01*
X153615827Y-70450341D01*
X153756408Y-70356408D01*
X153850341Y-70215827D01*
X153883326Y-70050000D01*
X153883326Y-70025000D01*
X154371417Y-70025000D01*
X154484173Y-70100341D01*
G36*
X127075000Y-87738173D02*
X127075000Y-88661827D01*
X126911828Y-88825000D01*
X122768498Y-88825000D01*
X122835179Y-88664415D01*
X122835423Y-88384173D01*
X122881250Y-88430000D01*
X123234538Y-88430000D01*
X123390743Y-88365298D01*
X123503955Y-88252086D01*
X123543592Y-88311408D01*
X123684173Y-88405341D01*
X123850000Y-88438326D01*
X124650000Y-88438326D01*
X124815827Y-88405341D01*
X124956408Y-88311408D01*
X124996045Y-88252086D01*
X125109257Y-88365298D01*
X125265462Y-88430000D01*
X125618750Y-88430000D01*
X125725000Y-88323750D01*
X125725000Y-87655000D01*
X125775000Y-87655000D01*
X125775000Y-88323750D01*
X125881250Y-88430000D01*
X126234538Y-88430000D01*
X126390743Y-88365298D01*
X126510298Y-88245743D01*
X126575000Y-88089538D01*
X126575000Y-87761250D01*
X126468750Y-87655000D01*
X125775000Y-87655000D01*
X125725000Y-87655000D01*
X125083326Y-87655000D01*
X125083326Y-87605000D01*
X125725000Y-87605000D01*
X125725000Y-87425110D01*
X125763383Y-87425143D01*
X125775000Y-87420343D01*
X125775000Y-87605000D01*
X126468750Y-87605000D01*
X126575000Y-87498750D01*
X126575000Y-87238173D01*
X127075000Y-87738173D01*
X127075000Y-87738173D01*
G37*
X127075000Y-87738173D02*
X127075000Y-88661827D01*
X126911828Y-88825000D01*
X122768498Y-88825000D01*
X122835179Y-88664415D01*
X122835423Y-88384173D01*
X122881250Y-88430000D01*
X123234538Y-88430000D01*
X123390743Y-88365298D01*
X123503955Y-88252086D01*
X123543592Y-88311408D01*
X123684173Y-88405341D01*
X123850000Y-88438326D01*
X124650000Y-88438326D01*
X124815827Y-88405341D01*
X124956408Y-88311408D01*
X124996045Y-88252086D01*
X125109257Y-88365298D01*
X125265462Y-88430000D01*
X125618750Y-88430000D01*
X125725000Y-88323750D01*
X125725000Y-87655000D01*
X125775000Y-87655000D01*
X125775000Y-88323750D01*
X125881250Y-88430000D01*
X126234538Y-88430000D01*
X126390743Y-88365298D01*
X126510298Y-88245743D01*
X126575000Y-88089538D01*
X126575000Y-87761250D01*
X126468750Y-87655000D01*
X125775000Y-87655000D01*
X125725000Y-87655000D01*
X125083326Y-87655000D01*
X125083326Y-87605000D01*
X125725000Y-87605000D01*
X125725000Y-87425110D01*
X125763383Y-87425143D01*
X125775000Y-87420343D01*
X125775000Y-87605000D01*
X126468750Y-87605000D01*
X126575000Y-87498750D01*
X126575000Y-87238173D01*
X127075000Y-87738173D01*
G36*
X122775000Y-87312612D02*
X122775000Y-87605000D01*
X123416674Y-87605000D01*
X123416674Y-87655000D01*
X122775000Y-87655000D01*
X122775000Y-88189872D01*
X122725000Y-88068863D01*
X122725000Y-87655000D01*
X122535322Y-87655000D01*
X122535322Y-87605000D01*
X122725000Y-87605000D01*
X122725000Y-87279203D01*
X122775000Y-87312612D01*
X122775000Y-87312612D01*
G37*
X122775000Y-87312612D02*
X122775000Y-87605000D01*
X123416674Y-87605000D01*
X123416674Y-87655000D01*
X122775000Y-87655000D01*
X122775000Y-88189872D01*
X122725000Y-88068863D01*
X122725000Y-87655000D01*
X122535322Y-87655000D01*
X122535322Y-87605000D01*
X122725000Y-87605000D01*
X122725000Y-87279203D01*
X122775000Y-87312612D01*
G36*
X134889659Y-85375827D02*
X134983592Y-85516408D01*
X135026383Y-85545000D01*
X134983592Y-85573592D01*
X134889659Y-85714173D01*
X134856674Y-85880000D01*
X134856674Y-86480000D01*
X134889659Y-86645827D01*
X134983592Y-86786408D01*
X135026383Y-86815000D01*
X134983592Y-86843592D01*
X134889659Y-86984173D01*
X134856674Y-87150000D01*
X134856674Y-87750000D01*
X134884327Y-87889022D01*
X134074999Y-87079695D01*
X134074999Y-86085672D01*
X134872269Y-85288402D01*
X134889659Y-85375827D01*
X134889659Y-85375827D01*
G37*
X134889659Y-85375827D02*
X134983592Y-85516408D01*
X135026383Y-85545000D01*
X134983592Y-85573592D01*
X134889659Y-85714173D01*
X134856674Y-85880000D01*
X134856674Y-86480000D01*
X134889659Y-86645827D01*
X134983592Y-86786408D01*
X135026383Y-86815000D01*
X134983592Y-86843592D01*
X134889659Y-86984173D01*
X134856674Y-87150000D01*
X134856674Y-87750000D01*
X134884327Y-87889022D01*
X134074999Y-87079695D01*
X134074999Y-86085672D01*
X134872269Y-85288402D01*
X134889659Y-85375827D01*
G36*
X124774906Y-86707370D02*
X124774857Y-86763383D01*
X124812280Y-86853953D01*
X124650000Y-86821674D01*
X124159136Y-86821674D01*
X124031299Y-86693837D01*
X124021231Y-86678769D01*
X123871231Y-86528769D01*
X123865879Y-86525193D01*
X123931408Y-86481408D01*
X123969099Y-86425000D01*
X124492536Y-86425000D01*
X124774906Y-86707370D01*
X124774906Y-86707370D01*
G37*
X124774906Y-86707370D02*
X124774857Y-86763383D01*
X124812280Y-86853953D01*
X124650000Y-86821674D01*
X124159136Y-86821674D01*
X124031299Y-86693837D01*
X124021231Y-86678769D01*
X123871231Y-86528769D01*
X123865879Y-86525193D01*
X123931408Y-86481408D01*
X123969099Y-86425000D01*
X124492536Y-86425000D01*
X124774906Y-86707370D01*
G36*
X125075000Y-79931592D02*
X124984173Y-79949659D01*
X124843592Y-80043592D01*
X124749659Y-80184173D01*
X124716674Y-80350000D01*
X124716674Y-80850000D01*
X124749659Y-81015827D01*
X124843592Y-81156408D01*
X124984173Y-81250341D01*
X125150000Y-81283326D01*
X125875000Y-81283326D01*
X125875000Y-81425000D01*
X125731250Y-81425000D01*
X125625000Y-81531250D01*
X125625000Y-82075000D01*
X125875000Y-82075000D01*
X125875000Y-82125000D01*
X125625000Y-82125000D01*
X125625000Y-82668750D01*
X125661956Y-82705706D01*
X125433285Y-82800191D01*
X125201007Y-83032065D01*
X125075143Y-83335177D01*
X125074857Y-83663383D01*
X125200191Y-83966715D01*
X125432065Y-84198993D01*
X125604218Y-84270478D01*
X125208022Y-84666674D01*
X125200000Y-84666674D01*
X125034173Y-84699659D01*
X124893592Y-84793592D01*
X124839197Y-84875000D01*
X124728353Y-84875000D01*
X124713435Y-84800000D01*
X124733326Y-84700000D01*
X124733326Y-84500000D01*
X124713435Y-84400000D01*
X124733326Y-84300000D01*
X124733326Y-84100000D01*
X124713435Y-84000000D01*
X124733326Y-83900000D01*
X124733326Y-83700000D01*
X124715109Y-83608417D01*
X124725000Y-83584538D01*
X124725000Y-83531250D01*
X124644800Y-83451050D01*
X124606408Y-83393592D01*
X124578583Y-83375000D01*
X124618750Y-83375000D01*
X124725000Y-83268750D01*
X124725000Y-83215462D01*
X124660298Y-83059257D01*
X124540743Y-82939702D01*
X124384538Y-82875000D01*
X124156250Y-82875000D01*
X124058326Y-82972924D01*
X124058326Y-82625000D01*
X124025341Y-82459173D01*
X123931408Y-82318592D01*
X123800692Y-82231250D01*
X124725000Y-82231250D01*
X124725000Y-82434538D01*
X124789702Y-82590743D01*
X124909257Y-82710298D01*
X125065462Y-82775000D01*
X125468750Y-82775000D01*
X125575000Y-82668750D01*
X125575000Y-82125000D01*
X124831250Y-82125000D01*
X124725000Y-82231250D01*
X123800692Y-82231250D01*
X123790827Y-82224659D01*
X123625000Y-82191674D01*
X123499995Y-82191674D01*
X123648993Y-82042935D01*
X123764210Y-81765462D01*
X124725000Y-81765462D01*
X124725000Y-81968750D01*
X124831250Y-82075000D01*
X125575000Y-82075000D01*
X125575000Y-81531250D01*
X125468750Y-81425000D01*
X125065462Y-81425000D01*
X124909257Y-81489702D01*
X124789702Y-81609257D01*
X124725000Y-81765462D01*
X123764210Y-81765462D01*
X123774857Y-81739823D01*
X123775143Y-81411617D01*
X123649809Y-81108285D01*
X123417935Y-80876007D01*
X123114823Y-80750143D01*
X122786617Y-80749857D01*
X122483285Y-80875191D01*
X122442971Y-80915435D01*
X122402946Y-80875340D01*
X122099834Y-80749476D01*
X121771628Y-80749190D01*
X121468296Y-80874524D01*
X121454852Y-80887945D01*
X121442935Y-80876007D01*
X121307888Y-80819930D01*
X121538909Y-80588909D01*
X121643681Y-80432106D01*
X122298080Y-80432106D01*
X122463907Y-80399121D01*
X122604488Y-80305188D01*
X122698421Y-80164607D01*
X122731406Y-79998780D01*
X122731406Y-79243054D01*
X125075000Y-76899460D01*
X125075000Y-79931592D01*
X125075000Y-79931592D01*
G37*
X125075000Y-79931592D02*
X124984173Y-79949659D01*
X124843592Y-80043592D01*
X124749659Y-80184173D01*
X124716674Y-80350000D01*
X124716674Y-80850000D01*
X124749659Y-81015827D01*
X124843592Y-81156408D01*
X124984173Y-81250341D01*
X125150000Y-81283326D01*
X125875000Y-81283326D01*
X125875000Y-81425000D01*
X125731250Y-81425000D01*
X125625000Y-81531250D01*
X125625000Y-82075000D01*
X125875000Y-82075000D01*
X125875000Y-82125000D01*
X125625000Y-82125000D01*
X125625000Y-82668750D01*
X125661956Y-82705706D01*
X125433285Y-82800191D01*
X125201007Y-83032065D01*
X125075143Y-83335177D01*
X125074857Y-83663383D01*
X125200191Y-83966715D01*
X125432065Y-84198993D01*
X125604218Y-84270478D01*
X125208022Y-84666674D01*
X125200000Y-84666674D01*
X125034173Y-84699659D01*
X124893592Y-84793592D01*
X124839197Y-84875000D01*
X124728353Y-84875000D01*
X124713435Y-84800000D01*
X124733326Y-84700000D01*
X124733326Y-84500000D01*
X124713435Y-84400000D01*
X124733326Y-84300000D01*
X124733326Y-84100000D01*
X124713435Y-84000000D01*
X124733326Y-83900000D01*
X124733326Y-83700000D01*
X124715109Y-83608417D01*
X124725000Y-83584538D01*
X124725000Y-83531250D01*
X124644800Y-83451050D01*
X124606408Y-83393592D01*
X124578583Y-83375000D01*
X124618750Y-83375000D01*
X124725000Y-83268750D01*
X124725000Y-83215462D01*
X124660298Y-83059257D01*
X124540743Y-82939702D01*
X124384538Y-82875000D01*
X124156250Y-82875000D01*
X124058326Y-82972924D01*
X124058326Y-82625000D01*
X124025341Y-82459173D01*
X123931408Y-82318592D01*
X123800692Y-82231250D01*
X124725000Y-82231250D01*
X124725000Y-82434538D01*
X124789702Y-82590743D01*
X124909257Y-82710298D01*
X125065462Y-82775000D01*
X125468750Y-82775000D01*
X125575000Y-82668750D01*
X125575000Y-82125000D01*
X124831250Y-82125000D01*
X124725000Y-82231250D01*
X123800692Y-82231250D01*
X123790827Y-82224659D01*
X123625000Y-82191674D01*
X123499995Y-82191674D01*
X123648993Y-82042935D01*
X123764210Y-81765462D01*
X124725000Y-81765462D01*
X124725000Y-81968750D01*
X124831250Y-82075000D01*
X125575000Y-82075000D01*
X125575000Y-81531250D01*
X125468750Y-81425000D01*
X125065462Y-81425000D01*
X124909257Y-81489702D01*
X124789702Y-81609257D01*
X124725000Y-81765462D01*
X123764210Y-81765462D01*
X123774857Y-81739823D01*
X123775143Y-81411617D01*
X123649809Y-81108285D01*
X123417935Y-80876007D01*
X123114823Y-80750143D01*
X122786617Y-80749857D01*
X122483285Y-80875191D01*
X122442971Y-80915435D01*
X122402946Y-80875340D01*
X122099834Y-80749476D01*
X121771628Y-80749190D01*
X121468296Y-80874524D01*
X121454852Y-80887945D01*
X121442935Y-80876007D01*
X121307888Y-80819930D01*
X121538909Y-80588909D01*
X121643681Y-80432106D01*
X122298080Y-80432106D01*
X122463907Y-80399121D01*
X122604488Y-80305188D01*
X122698421Y-80164607D01*
X122731406Y-79998780D01*
X122731406Y-79243054D01*
X125075000Y-76899460D01*
X125075000Y-79931592D01*
G36*
X129688600Y-68675010D02*
X134232548Y-68675010D01*
X135078778Y-69521240D01*
X135249100Y-69635046D01*
X135450009Y-69675009D01*
X137532547Y-69675009D01*
X137674980Y-69817442D01*
X137674980Y-72482558D01*
X137582558Y-72574980D01*
X135614018Y-72574980D01*
X135413109Y-72614943D01*
X135242787Y-72728749D01*
X133128769Y-74842767D01*
X133014963Y-75013089D01*
X132975000Y-75213998D01*
X132975000Y-75886002D01*
X133014963Y-76086911D01*
X133128769Y-76257233D01*
X133492768Y-76621232D01*
X133663090Y-76735038D01*
X133863999Y-76775001D01*
X135536001Y-76775001D01*
X135736910Y-76735038D01*
X135907232Y-76621232D01*
X136125000Y-76403464D01*
X136125000Y-77136014D01*
X136131099Y-77166674D01*
X135850000Y-77166674D01*
X135750000Y-77186565D01*
X135650000Y-77166674D01*
X135350000Y-77166674D01*
X135250000Y-77186565D01*
X135150000Y-77166674D01*
X134850000Y-77166674D01*
X134750000Y-77186565D01*
X134650000Y-77166674D01*
X134350000Y-77166674D01*
X134250000Y-77186565D01*
X134150000Y-77166674D01*
X133850000Y-77166674D01*
X133750000Y-77186565D01*
X133650000Y-77166674D01*
X133350000Y-77166674D01*
X133250000Y-77186565D01*
X133150000Y-77166674D01*
X132850000Y-77166674D01*
X132750000Y-77186565D01*
X132650000Y-77166674D01*
X132350000Y-77166674D01*
X132250000Y-77186565D01*
X132150000Y-77166674D01*
X131850000Y-77166674D01*
X131750000Y-77186565D01*
X131650000Y-77166674D01*
X131350000Y-77166674D01*
X131250000Y-77186565D01*
X131150000Y-77166674D01*
X130850000Y-77166674D01*
X130750000Y-77186565D01*
X130650000Y-77166674D01*
X130350000Y-77166674D01*
X130184173Y-77199659D01*
X130043592Y-77293592D01*
X129949659Y-77434173D01*
X129916674Y-77600000D01*
X129916674Y-78800000D01*
X129923454Y-78834084D01*
X129778769Y-78978769D01*
X129664963Y-79149091D01*
X129625000Y-79350000D01*
X129625000Y-79396511D01*
X129609173Y-79399659D01*
X129569170Y-79426388D01*
X129510298Y-79284257D01*
X129390743Y-79164702D01*
X129355249Y-79150000D01*
X129390743Y-79135298D01*
X129510298Y-79015743D01*
X129575000Y-78859538D01*
X129575000Y-78531250D01*
X129468750Y-78425000D01*
X128775000Y-78425000D01*
X128775000Y-79093750D01*
X128831250Y-79150000D01*
X128775000Y-79206250D01*
X128775000Y-79875000D01*
X129341674Y-79875000D01*
X129341674Y-79925000D01*
X128775000Y-79925000D01*
X128775000Y-80593750D01*
X128881250Y-80700000D01*
X129234538Y-80700000D01*
X129341674Y-80655623D01*
X129341674Y-81254537D01*
X129225143Y-81535173D01*
X129224857Y-81863379D01*
X129350191Y-82166711D01*
X129578160Y-82395078D01*
X128598239Y-83374999D01*
X128275001Y-83374999D01*
X128275001Y-82116815D01*
X128388909Y-82002907D01*
X128508134Y-81824474D01*
X128550000Y-81613998D01*
X128550000Y-80700000D01*
X128618750Y-80700000D01*
X128725000Y-80593750D01*
X128725000Y-79925000D01*
X128550000Y-79925000D01*
X128550000Y-79875000D01*
X128725000Y-79875000D01*
X128725000Y-79206250D01*
X128668750Y-79150000D01*
X128725000Y-79093750D01*
X128725000Y-78425000D01*
X128083326Y-78425000D01*
X128083326Y-78375000D01*
X128725000Y-78375000D01*
X128725000Y-77706250D01*
X128775000Y-77706250D01*
X128775000Y-78375000D01*
X129468750Y-78375000D01*
X129575000Y-78268750D01*
X129575000Y-77940462D01*
X129510298Y-77784257D01*
X129390743Y-77664702D01*
X129234538Y-77600000D01*
X128881250Y-77600000D01*
X128775000Y-77706250D01*
X128725000Y-77706250D01*
X128618750Y-77600000D01*
X128265462Y-77600000D01*
X128109257Y-77664702D01*
X127996045Y-77777914D01*
X127956408Y-77718592D01*
X127825000Y-77630788D01*
X127825000Y-77388172D01*
X128429846Y-76783326D01*
X129100000Y-76783326D01*
X129265827Y-76750341D01*
X129406408Y-76656408D01*
X129500341Y-76515827D01*
X129533326Y-76350000D01*
X129533326Y-76050000D01*
X129513435Y-75950000D01*
X129533326Y-75850000D01*
X129533326Y-75550000D01*
X129513435Y-75450000D01*
X129533326Y-75350000D01*
X129533326Y-75050000D01*
X129513435Y-74950000D01*
X129533326Y-74850000D01*
X129533326Y-74550000D01*
X129513435Y-74450000D01*
X129533326Y-74350000D01*
X129533326Y-74050000D01*
X129513435Y-73950000D01*
X129533326Y-73850000D01*
X129533326Y-73550000D01*
X129513435Y-73450000D01*
X129533326Y-73350000D01*
X129533326Y-73050000D01*
X129513435Y-72950000D01*
X129533326Y-72850000D01*
X129533326Y-72550000D01*
X129513435Y-72450000D01*
X129533326Y-72350000D01*
X129533326Y-72050000D01*
X129513435Y-71950000D01*
X129533326Y-71850000D01*
X129533326Y-71550000D01*
X129513435Y-71450000D01*
X129533326Y-71350000D01*
X129533326Y-71050000D01*
X129513435Y-70950000D01*
X129533326Y-70850000D01*
X129533326Y-70550000D01*
X129513435Y-70450000D01*
X129533326Y-70350000D01*
X129533326Y-70050000D01*
X129513435Y-69950000D01*
X129533326Y-69850000D01*
X129533326Y-69550000D01*
X129515109Y-69458417D01*
X129525000Y-69434538D01*
X129525000Y-69331250D01*
X129418750Y-69225000D01*
X129378583Y-69225000D01*
X129341168Y-69200000D01*
X129378583Y-69175000D01*
X129418750Y-69175000D01*
X129525000Y-69068750D01*
X129525000Y-68965462D01*
X129515109Y-68941583D01*
X129533326Y-68850000D01*
X129533326Y-68644124D01*
X129688600Y-68675010D01*
X129688600Y-68675010D01*
G37*
X129688600Y-68675010D02*
X134232548Y-68675010D01*
X135078778Y-69521240D01*
X135249100Y-69635046D01*
X135450009Y-69675009D01*
X137532547Y-69675009D01*
X137674980Y-69817442D01*
X137674980Y-72482558D01*
X137582558Y-72574980D01*
X135614018Y-72574980D01*
X135413109Y-72614943D01*
X135242787Y-72728749D01*
X133128769Y-74842767D01*
X133014963Y-75013089D01*
X132975000Y-75213998D01*
X132975000Y-75886002D01*
X133014963Y-76086911D01*
X133128769Y-76257233D01*
X133492768Y-76621232D01*
X133663090Y-76735038D01*
X133863999Y-76775001D01*
X135536001Y-76775001D01*
X135736910Y-76735038D01*
X135907232Y-76621232D01*
X136125000Y-76403464D01*
X136125000Y-77136014D01*
X136131099Y-77166674D01*
X135850000Y-77166674D01*
X135750000Y-77186565D01*
X135650000Y-77166674D01*
X135350000Y-77166674D01*
X135250000Y-77186565D01*
X135150000Y-77166674D01*
X134850000Y-77166674D01*
X134750000Y-77186565D01*
X134650000Y-77166674D01*
X134350000Y-77166674D01*
X134250000Y-77186565D01*
X134150000Y-77166674D01*
X133850000Y-77166674D01*
X133750000Y-77186565D01*
X133650000Y-77166674D01*
X133350000Y-77166674D01*
X133250000Y-77186565D01*
X133150000Y-77166674D01*
X132850000Y-77166674D01*
X132750000Y-77186565D01*
X132650000Y-77166674D01*
X132350000Y-77166674D01*
X132250000Y-77186565D01*
X132150000Y-77166674D01*
X131850000Y-77166674D01*
X131750000Y-77186565D01*
X131650000Y-77166674D01*
X131350000Y-77166674D01*
X131250000Y-77186565D01*
X131150000Y-77166674D01*
X130850000Y-77166674D01*
X130750000Y-77186565D01*
X130650000Y-77166674D01*
X130350000Y-77166674D01*
X130184173Y-77199659D01*
X130043592Y-77293592D01*
X129949659Y-77434173D01*
X129916674Y-77600000D01*
X129916674Y-78800000D01*
X129923454Y-78834084D01*
X129778769Y-78978769D01*
X129664963Y-79149091D01*
X129625000Y-79350000D01*
X129625000Y-79396511D01*
X129609173Y-79399659D01*
X129569170Y-79426388D01*
X129510298Y-79284257D01*
X129390743Y-79164702D01*
X129355249Y-79150000D01*
X129390743Y-79135298D01*
X129510298Y-79015743D01*
X129575000Y-78859538D01*
X129575000Y-78531250D01*
X129468750Y-78425000D01*
X128775000Y-78425000D01*
X128775000Y-79093750D01*
X128831250Y-79150000D01*
X128775000Y-79206250D01*
X128775000Y-79875000D01*
X129341674Y-79875000D01*
X129341674Y-79925000D01*
X128775000Y-79925000D01*
X128775000Y-80593750D01*
X128881250Y-80700000D01*
X129234538Y-80700000D01*
X129341674Y-80655623D01*
X129341674Y-81254537D01*
X129225143Y-81535173D01*
X129224857Y-81863379D01*
X129350191Y-82166711D01*
X129578160Y-82395078D01*
X128598239Y-83374999D01*
X128275001Y-83374999D01*
X128275001Y-82116815D01*
X128388909Y-82002907D01*
X128508134Y-81824474D01*
X128550000Y-81613998D01*
X128550000Y-80700000D01*
X128618750Y-80700000D01*
X128725000Y-80593750D01*
X128725000Y-79925000D01*
X128550000Y-79925000D01*
X128550000Y-79875000D01*
X128725000Y-79875000D01*
X128725000Y-79206250D01*
X128668750Y-79150000D01*
X128725000Y-79093750D01*
X128725000Y-78425000D01*
X128083326Y-78425000D01*
X128083326Y-78375000D01*
X128725000Y-78375000D01*
X128725000Y-77706250D01*
X128775000Y-77706250D01*
X128775000Y-78375000D01*
X129468750Y-78375000D01*
X129575000Y-78268750D01*
X129575000Y-77940462D01*
X129510298Y-77784257D01*
X129390743Y-77664702D01*
X129234538Y-77600000D01*
X128881250Y-77600000D01*
X128775000Y-77706250D01*
X128725000Y-77706250D01*
X128618750Y-77600000D01*
X128265462Y-77600000D01*
X128109257Y-77664702D01*
X127996045Y-77777914D01*
X127956408Y-77718592D01*
X127825000Y-77630788D01*
X127825000Y-77388172D01*
X128429846Y-76783326D01*
X129100000Y-76783326D01*
X129265827Y-76750341D01*
X129406408Y-76656408D01*
X129500341Y-76515827D01*
X129533326Y-76350000D01*
X129533326Y-76050000D01*
X129513435Y-75950000D01*
X129533326Y-75850000D01*
X129533326Y-75550000D01*
X129513435Y-75450000D01*
X129533326Y-75350000D01*
X129533326Y-75050000D01*
X129513435Y-74950000D01*
X129533326Y-74850000D01*
X129533326Y-74550000D01*
X129513435Y-74450000D01*
X129533326Y-74350000D01*
X129533326Y-74050000D01*
X129513435Y-73950000D01*
X129533326Y-73850000D01*
X129533326Y-73550000D01*
X129513435Y-73450000D01*
X129533326Y-73350000D01*
X129533326Y-73050000D01*
X129513435Y-72950000D01*
X129533326Y-72850000D01*
X129533326Y-72550000D01*
X129513435Y-72450000D01*
X129533326Y-72350000D01*
X129533326Y-72050000D01*
X129513435Y-71950000D01*
X129533326Y-71850000D01*
X129533326Y-71550000D01*
X129513435Y-71450000D01*
X129533326Y-71350000D01*
X129533326Y-71050000D01*
X129513435Y-70950000D01*
X129533326Y-70850000D01*
X129533326Y-70550000D01*
X129513435Y-70450000D01*
X129533326Y-70350000D01*
X129533326Y-70050000D01*
X129513435Y-69950000D01*
X129533326Y-69850000D01*
X129533326Y-69550000D01*
X129515109Y-69458417D01*
X129525000Y-69434538D01*
X129525000Y-69331250D01*
X129418750Y-69225000D01*
X129378583Y-69225000D01*
X129341168Y-69200000D01*
X129378583Y-69175000D01*
X129418750Y-69175000D01*
X129525000Y-69068750D01*
X129525000Y-68965462D01*
X129515109Y-68941583D01*
X129533326Y-68850000D01*
X129533326Y-68644124D01*
X129688600Y-68675010D01*
G36*
X133918759Y-80661221D02*
X134089081Y-80775027D01*
X134225000Y-80802063D01*
X134225000Y-80868750D01*
X134331250Y-80975000D01*
X135025000Y-80975000D01*
X135025000Y-80814990D01*
X135075000Y-80814990D01*
X135075000Y-80975000D01*
X135716674Y-80975000D01*
X135716674Y-81025000D01*
X135075000Y-81025000D01*
X135075000Y-81693750D01*
X135181250Y-81800000D01*
X135534538Y-81800000D01*
X135690743Y-81735298D01*
X135734990Y-81691051D01*
X135675143Y-81835177D01*
X135674882Y-82135001D01*
X135146526Y-82135001D01*
X134925000Y-82090937D01*
X133805745Y-82090937D01*
X133899645Y-81864802D01*
X133899931Y-81536596D01*
X133806326Y-81310054D01*
X133808326Y-81300000D01*
X133808326Y-81131250D01*
X134225000Y-81131250D01*
X134225000Y-81459538D01*
X134289702Y-81615743D01*
X134409257Y-81735298D01*
X134565462Y-81800000D01*
X134918750Y-81800000D01*
X135025000Y-81693750D01*
X135025000Y-81025000D01*
X134331250Y-81025000D01*
X134225000Y-81131250D01*
X133808326Y-81131250D01*
X133808326Y-80550788D01*
X133918759Y-80661221D01*
X133918759Y-80661221D01*
G37*
X133918759Y-80661221D02*
X134089081Y-80775027D01*
X134225000Y-80802063D01*
X134225000Y-80868750D01*
X134331250Y-80975000D01*
X135025000Y-80975000D01*
X135025000Y-80814990D01*
X135075000Y-80814990D01*
X135075000Y-80975000D01*
X135716674Y-80975000D01*
X135716674Y-81025000D01*
X135075000Y-81025000D01*
X135075000Y-81693750D01*
X135181250Y-81800000D01*
X135534538Y-81800000D01*
X135690743Y-81735298D01*
X135734990Y-81691051D01*
X135675143Y-81835177D01*
X135674882Y-82135001D01*
X135146526Y-82135001D01*
X134925000Y-82090937D01*
X133805745Y-82090937D01*
X133899645Y-81864802D01*
X133899931Y-81536596D01*
X133806326Y-81310054D01*
X133808326Y-81300000D01*
X133808326Y-81131250D01*
X134225000Y-81131250D01*
X134225000Y-81459538D01*
X134289702Y-81615743D01*
X134409257Y-81735298D01*
X134565462Y-81800000D01*
X134918750Y-81800000D01*
X135025000Y-81693750D01*
X135025000Y-81025000D01*
X134331250Y-81025000D01*
X134225000Y-81131250D01*
X133808326Y-81131250D01*
X133808326Y-80550788D01*
X133918759Y-80661221D01*
G36*
X142125000Y-68725000D02*
X142675000Y-68725000D01*
X142675000Y-68775000D01*
X142125000Y-68775000D01*
X142125000Y-69468750D01*
X142231250Y-69575000D01*
X142559538Y-69575000D01*
X142675000Y-69527174D01*
X142675000Y-77224695D01*
X141975000Y-77924695D01*
X141975000Y-77740462D01*
X141910298Y-77584257D01*
X141790743Y-77464702D01*
X141634538Y-77400000D01*
X141281250Y-77400000D01*
X141175000Y-77506250D01*
X141175000Y-78175000D01*
X141724695Y-78175000D01*
X141674695Y-78225000D01*
X141175000Y-78225000D01*
X141175000Y-78724695D01*
X141125000Y-78774696D01*
X141125000Y-78225000D01*
X140671333Y-78225000D01*
X140637924Y-78175000D01*
X141125000Y-78175000D01*
X141125000Y-77506250D01*
X141113821Y-77495071D01*
X141186916Y-77446231D01*
X142321232Y-76311915D01*
X142435038Y-76141593D01*
X142475001Y-75940684D01*
X142475001Y-75350001D01*
X142435038Y-75149092D01*
X142321232Y-74978770D01*
X141525000Y-74182538D01*
X141525000Y-73583260D01*
X141625177Y-73624857D01*
X141953383Y-73625143D01*
X142256715Y-73499809D01*
X142488993Y-73267935D01*
X142614857Y-72964823D01*
X142615143Y-72636617D01*
X142489809Y-72333285D01*
X142315000Y-72158171D01*
X142315000Y-71699130D01*
X142275037Y-71498221D01*
X142161231Y-71327899D01*
X141329607Y-70496275D01*
X141311222Y-70468760D01*
X141171231Y-70328769D01*
X141033326Y-70236623D01*
X141033326Y-70050000D01*
X141013435Y-69950000D01*
X141033326Y-69850000D01*
X141033326Y-69550000D01*
X141015109Y-69458417D01*
X141025000Y-69434538D01*
X141025000Y-69331250D01*
X140928309Y-69234559D01*
X140964178Y-69227424D01*
X141166943Y-69091941D01*
X141300000Y-68958884D01*
X141300000Y-69234538D01*
X141364702Y-69390743D01*
X141484257Y-69510298D01*
X141640462Y-69575000D01*
X141968750Y-69575000D01*
X142075000Y-69468750D01*
X142075000Y-68775000D01*
X141483884Y-68775000D01*
X141533884Y-68725000D01*
X142075000Y-68725000D01*
X142075000Y-68183884D01*
X142125000Y-68133884D01*
X142125000Y-68725000D01*
X142125000Y-68725000D01*
G37*
X142125000Y-68725000D02*
X142675000Y-68725000D01*
X142675000Y-68775000D01*
X142125000Y-68775000D01*
X142125000Y-69468750D01*
X142231250Y-69575000D01*
X142559538Y-69575000D01*
X142675000Y-69527174D01*
X142675000Y-77224695D01*
X141975000Y-77924695D01*
X141975000Y-77740462D01*
X141910298Y-77584257D01*
X141790743Y-77464702D01*
X141634538Y-77400000D01*
X141281250Y-77400000D01*
X141175000Y-77506250D01*
X141175000Y-78175000D01*
X141724695Y-78175000D01*
X141674695Y-78225000D01*
X141175000Y-78225000D01*
X141175000Y-78724695D01*
X141125000Y-78774696D01*
X141125000Y-78225000D01*
X140671333Y-78225000D01*
X140637924Y-78175000D01*
X141125000Y-78175000D01*
X141125000Y-77506250D01*
X141113821Y-77495071D01*
X141186916Y-77446231D01*
X142321232Y-76311915D01*
X142435038Y-76141593D01*
X142475001Y-75940684D01*
X142475001Y-75350001D01*
X142435038Y-75149092D01*
X142321232Y-74978770D01*
X141525000Y-74182538D01*
X141525000Y-73583260D01*
X141625177Y-73624857D01*
X141953383Y-73625143D01*
X142256715Y-73499809D01*
X142488993Y-73267935D01*
X142614857Y-72964823D01*
X142615143Y-72636617D01*
X142489809Y-72333285D01*
X142315000Y-72158171D01*
X142315000Y-71699130D01*
X142275037Y-71498221D01*
X142161231Y-71327899D01*
X141329607Y-70496275D01*
X141311222Y-70468760D01*
X141171231Y-70328769D01*
X141033326Y-70236623D01*
X141033326Y-70050000D01*
X141013435Y-69950000D01*
X141033326Y-69850000D01*
X141033326Y-69550000D01*
X141015109Y-69458417D01*
X141025000Y-69434538D01*
X141025000Y-69331250D01*
X140928309Y-69234559D01*
X140964178Y-69227424D01*
X141166943Y-69091941D01*
X141300000Y-68958884D01*
X141300000Y-69234538D01*
X141364702Y-69390743D01*
X141484257Y-69510298D01*
X141640462Y-69575000D01*
X141968750Y-69575000D01*
X142075000Y-69468750D01*
X142075000Y-68775000D01*
X141483884Y-68775000D01*
X141533884Y-68725000D01*
X142075000Y-68725000D01*
X142075000Y-68183884D01*
X142125000Y-68133884D01*
X142125000Y-68725000D01*
G36*
X126625000Y-68175000D02*
X127293750Y-68175000D01*
X127400000Y-68068750D01*
X127400000Y-67875000D01*
X128582538Y-67875000D01*
X128340864Y-68116674D01*
X127900000Y-68116674D01*
X127734173Y-68149659D01*
X127593592Y-68243592D01*
X127499659Y-68384173D01*
X127466674Y-68550000D01*
X127466674Y-68850000D01*
X127484891Y-68941583D01*
X127475000Y-68965462D01*
X127475000Y-69068750D01*
X127531250Y-69125000D01*
X127369212Y-69125000D01*
X127281408Y-68993592D01*
X127222086Y-68953955D01*
X127335298Y-68840743D01*
X127400000Y-68684538D01*
X127400000Y-68331250D01*
X127293750Y-68225000D01*
X126625000Y-68225000D01*
X126625000Y-68866674D01*
X126575000Y-68866674D01*
X126575000Y-68225000D01*
X126275000Y-68225000D01*
X126275000Y-68175000D01*
X126575000Y-68175000D01*
X126575000Y-67875000D01*
X126625000Y-67875000D01*
X126625000Y-68175000D01*
X126625000Y-68175000D01*
G37*
X126625000Y-68175000D02*
X127293750Y-68175000D01*
X127400000Y-68068750D01*
X127400000Y-67875000D01*
X128582538Y-67875000D01*
X128340864Y-68116674D01*
X127900000Y-68116674D01*
X127734173Y-68149659D01*
X127593592Y-68243592D01*
X127499659Y-68384173D01*
X127466674Y-68550000D01*
X127466674Y-68850000D01*
X127484891Y-68941583D01*
X127475000Y-68965462D01*
X127475000Y-69068750D01*
X127531250Y-69125000D01*
X127369212Y-69125000D01*
X127281408Y-68993592D01*
X127222086Y-68953955D01*
X127335298Y-68840743D01*
X127400000Y-68684538D01*
X127400000Y-68331250D01*
X127293750Y-68225000D01*
X126625000Y-68225000D01*
X126625000Y-68866674D01*
X126575000Y-68866674D01*
X126575000Y-68225000D01*
X126275000Y-68225000D01*
X126275000Y-68175000D01*
X126575000Y-68175000D01*
X126575000Y-67875000D01*
X126625000Y-67875000D01*
X126625000Y-68175000D01*
G36*
X132266674Y-64800000D02*
X132299659Y-64965827D01*
X132393592Y-65106408D01*
X132534173Y-65200341D01*
X132700000Y-65233326D01*
X134500000Y-65233326D01*
X134665827Y-65200341D01*
X134806408Y-65106408D01*
X134900341Y-64965827D01*
X134933326Y-64800000D01*
X134933326Y-64761144D01*
X134950000Y-64777818D01*
X134950000Y-65666674D01*
X134850000Y-65666674D01*
X134750000Y-65686565D01*
X134650000Y-65666674D01*
X134350000Y-65666674D01*
X134250000Y-65686565D01*
X134150000Y-65666674D01*
X133850000Y-65666674D01*
X133750000Y-65686565D01*
X133650000Y-65666674D01*
X133350000Y-65666674D01*
X133250000Y-65686565D01*
X133150000Y-65666674D01*
X132850000Y-65666674D01*
X132758417Y-65684891D01*
X132734538Y-65675000D01*
X132631250Y-65675000D01*
X132525000Y-65781250D01*
X132525000Y-65821417D01*
X132500000Y-65858832D01*
X132475000Y-65821417D01*
X132475000Y-65781250D01*
X132368750Y-65675000D01*
X132265462Y-65675000D01*
X132241583Y-65684891D01*
X132150000Y-65666674D01*
X131850000Y-65666674D01*
X131750000Y-65686565D01*
X131650000Y-65666674D01*
X131350000Y-65666674D01*
X131250000Y-65686565D01*
X131150000Y-65666674D01*
X130999877Y-65666674D01*
X131000143Y-65361643D01*
X130874809Y-65058311D01*
X130841720Y-65025165D01*
X130873993Y-64992948D01*
X130999857Y-64689836D01*
X131000143Y-64361630D01*
X130971187Y-64291551D01*
X131059173Y-64350341D01*
X131225000Y-64383326D01*
X131975000Y-64383326D01*
X132140827Y-64350341D01*
X132266674Y-64266253D01*
X132266674Y-64800000D01*
X132266674Y-64800000D01*
G37*
X132266674Y-64800000D02*
X132299659Y-64965827D01*
X132393592Y-65106408D01*
X132534173Y-65200341D01*
X132700000Y-65233326D01*
X134500000Y-65233326D01*
X134665827Y-65200341D01*
X134806408Y-65106408D01*
X134900341Y-64965827D01*
X134933326Y-64800000D01*
X134933326Y-64761144D01*
X134950000Y-64777818D01*
X134950000Y-65666674D01*
X134850000Y-65666674D01*
X134750000Y-65686565D01*
X134650000Y-65666674D01*
X134350000Y-65666674D01*
X134250000Y-65686565D01*
X134150000Y-65666674D01*
X133850000Y-65666674D01*
X133750000Y-65686565D01*
X133650000Y-65666674D01*
X133350000Y-65666674D01*
X133250000Y-65686565D01*
X133150000Y-65666674D01*
X132850000Y-65666674D01*
X132758417Y-65684891D01*
X132734538Y-65675000D01*
X132631250Y-65675000D01*
X132525000Y-65781250D01*
X132525000Y-65821417D01*
X132500000Y-65858832D01*
X132475000Y-65821417D01*
X132475000Y-65781250D01*
X132368750Y-65675000D01*
X132265462Y-65675000D01*
X132241583Y-65684891D01*
X132150000Y-65666674D01*
X131850000Y-65666674D01*
X131750000Y-65686565D01*
X131650000Y-65666674D01*
X131350000Y-65666674D01*
X131250000Y-65686565D01*
X131150000Y-65666674D01*
X130999877Y-65666674D01*
X131000143Y-65361643D01*
X130874809Y-65058311D01*
X130841720Y-65025165D01*
X130873993Y-64992948D01*
X130999857Y-64689836D01*
X131000143Y-64361630D01*
X130971187Y-64291551D01*
X131059173Y-64350341D01*
X131225000Y-64383326D01*
X131975000Y-64383326D01*
X132140827Y-64350341D01*
X132266674Y-64266253D01*
X132266674Y-64800000D01*
G36*
X128232551Y-65725000D02*
X125956299Y-65725000D01*
X125948421Y-65685393D01*
X125854488Y-65544812D01*
X125713907Y-65450879D01*
X125709488Y-65450000D01*
X125713907Y-65449121D01*
X125854488Y-65355188D01*
X125948421Y-65214607D01*
X125956299Y-65175000D01*
X128782551Y-65175000D01*
X128232551Y-65725000D01*
X128232551Y-65725000D01*
G37*
X128232551Y-65725000D02*
X125956299Y-65725000D01*
X125948421Y-65685393D01*
X125854488Y-65544812D01*
X125713907Y-65450879D01*
X125709488Y-65450000D01*
X125713907Y-65449121D01*
X125854488Y-65355188D01*
X125948421Y-65214607D01*
X125956299Y-65175000D01*
X128782551Y-65175000D01*
X128232551Y-65725000D01*
G36*
X127231250Y-62075000D02*
X127975000Y-62075000D01*
X127975000Y-61975000D01*
X128025000Y-61975000D01*
X128025000Y-62075000D01*
X128768750Y-62075000D01*
X128868750Y-61975000D01*
X129468285Y-61975000D01*
X129475191Y-61991715D01*
X129508273Y-62024855D01*
X129476007Y-62057065D01*
X129350143Y-62360177D01*
X129349999Y-62525000D01*
X128837530Y-62525000D01*
X128875000Y-62434538D01*
X128875000Y-62231250D01*
X128768750Y-62125000D01*
X128025000Y-62125000D01*
X128025000Y-62525000D01*
X127975000Y-62525000D01*
X127975000Y-62125000D01*
X127231250Y-62125000D01*
X127125000Y-62231250D01*
X127125000Y-62434538D01*
X127162470Y-62525000D01*
X125956299Y-62525000D01*
X125948421Y-62485393D01*
X125854488Y-62344812D01*
X125713907Y-62250879D01*
X125709488Y-62250000D01*
X125713907Y-62249121D01*
X125854488Y-62155188D01*
X125948421Y-62014607D01*
X125956299Y-61975000D01*
X127131250Y-61975000D01*
X127231250Y-62075000D01*
X127231250Y-62075000D01*
G37*
X127231250Y-62075000D02*
X127975000Y-62075000D01*
X127975000Y-61975000D01*
X128025000Y-61975000D01*
X128025000Y-62075000D01*
X128768750Y-62075000D01*
X128868750Y-61975000D01*
X129468285Y-61975000D01*
X129475191Y-61991715D01*
X129508273Y-62024855D01*
X129476007Y-62057065D01*
X129350143Y-62360177D01*
X129349999Y-62525000D01*
X128837530Y-62525000D01*
X128875000Y-62434538D01*
X128875000Y-62231250D01*
X128768750Y-62125000D01*
X128025000Y-62125000D01*
X128025000Y-62525000D01*
X127975000Y-62525000D01*
X127975000Y-62125000D01*
X127231250Y-62125000D01*
X127125000Y-62231250D01*
X127125000Y-62434538D01*
X127162470Y-62525000D01*
X125956299Y-62525000D01*
X125948421Y-62485393D01*
X125854488Y-62344812D01*
X125713907Y-62250879D01*
X125709488Y-62250000D01*
X125713907Y-62249121D01*
X125854488Y-62155188D01*
X125948421Y-62014607D01*
X125956299Y-61975000D01*
X127131250Y-61975000D01*
X127231250Y-62075000D01*
M02*
